<svg xmlns="http://www.w3.org/2000/svg" xmlns:xlink="http://www.w3.org/1999/xlink" width="1080" zoomAndPan="magnify" viewBox="0 0 810 809.999993" height="1080" preserveAspectRatio="xMidYMid meet" version="1.0"><path fill="#fa55a3" d="M 708.75 101.25 C 727.378906 101.25 742.5 116.371094 742.5 135 L 742.5 675 C 742.5 693.628906 727.378906 708.75 708.75 708.75 L 101.25 708.75 C 82.621094 708.75 67.5 693.628906 67.5 675 L 67.5 135 C 67.5 116.371094 82.621094 101.25 101.25 101.25 Z M 675 168.75 L 135 168.75 L 135 641.25 L 675 641.25 Z M 303.75 270 C 341.042969 270 374.792969 285.121094 399.230469 309.589844 L 351.507812 357.3125 C 339.289062 345.058594 322.414062 337.5 303.75 337.5 C 266.457031 337.5 236.25 367.707031 236.25 405 C 236.25 442.292969 266.457031 472.5 303.75 472.5 C 322.414062 472.5 339.289062 464.941406 351.472656 452.722656 L 399.195312 500.445312 C 374.761719 524.878906 341.011719 540 303.75 540 C 229.230469 540 168.75 479.519531 168.75 405 C 168.75 330.480469 229.230469 270 303.75 270 Z M 540 270 C 577.292969 270 611.042969 285.121094 635.480469 309.589844 L 587.757812 357.3125 C 575.539062 345.058594 558.664062 337.5 540 337.5 C 502.707031 337.5 472.5 367.707031 472.5 405 C 472.5 442.292969 502.707031 472.5 540 472.5 C 558.628906 472.5 575.503906 464.941406 587.722656 452.722656 L 635.445312 500.445312 C 611.011719 524.878906 577.261719 540 540 540 C 465.480469 540 405 479.519531 405 405 C 405 330.480469 465.480469 270 540 270 Z M 540 270 " fill-opacity="1" fill-rule="nonzero"/></svg>