<svg xmlns="http://www.w3.org/2000/svg" xmlns:xlink="http://www.w3.org/1999/xlink" width="1024" zoomAndPan="magnify" viewBox="0 0 768 767.999994" height="1024" preserveAspectRatio="xMidYMid meet" version="1.2"><g id="15752fba05"><path style=" stroke:none;fill-rule:nonzero;fill:#ff007f;fill-opacity:1;" d="M 569.441406 214.207031 C 569.441406 217.261719 569.367188 220.316406 569.214844 223.367188 C 569.066406 226.417969 568.839844 229.460938 568.542969 232.503906 C 568.242188 235.542969 567.867188 238.574219 567.421875 241.59375 C 566.972656 244.617188 566.449219 247.625 565.855469 250.621094 C 565.257812 253.617188 564.589844 256.597656 563.847656 259.558594 C 563.105469 262.523438 562.289062 265.464844 561.402344 268.390625 C 560.515625 271.3125 559.558594 274.210938 558.53125 277.085938 C 557.5 279.964844 556.402344 282.8125 555.234375 285.632812 C 554.0625 288.457031 552.824219 291.25 551.519531 294.011719 C 550.214844 296.769531 548.839844 299.5 547.402344 302.191406 C 545.960938 304.886719 544.457031 307.542969 542.886719 310.164062 C 541.316406 312.785156 539.679688 315.363281 537.984375 317.902344 C 536.289062 320.441406 534.527344 322.941406 532.710938 325.394531 C 530.890625 327.847656 529.011719 330.253906 527.074219 332.617188 C 525.136719 334.976562 523.140625 337.289062 521.089844 339.550781 C 519.039062 341.816406 516.933594 344.027344 514.773438 346.1875 C 512.613281 348.347656 510.402344 350.453125 508.136719 352.503906 C 505.875 354.554688 503.5625 356.550781 501.199219 358.488281 C 498.839844 360.425781 496.433594 362.304688 493.980469 364.125 C 491.523438 365.945312 489.027344 367.703125 486.488281 369.398438 C 483.949219 371.097656 481.367188 372.730469 478.75 374.300781 C 476.128906 375.871094 473.472656 377.375 470.777344 378.816406 C 468.085938 380.257812 465.355469 381.628906 462.59375 382.933594 C 459.832031 384.242188 457.042969 385.476562 454.21875 386.648438 C 451.398438 387.816406 448.546875 388.914062 445.671875 389.945312 C 442.796875 390.972656 439.898438 391.929688 436.972656 392.816406 C 434.050781 393.703125 431.109375 394.519531 428.144531 395.261719 C 425.183594 396.003906 422.203125 396.671875 419.207031 397.269531 C 416.210938 397.863281 413.203125 398.386719 410.179688 398.835938 C 407.160156 399.28125 404.128906 399.65625 401.089844 399.957031 C 398.046875 400.253906 395.003906 400.480469 391.953125 400.628906 C 388.902344 400.78125 385.847656 400.855469 382.792969 400.855469 C 379.738281 400.855469 376.6875 400.78125 373.636719 400.628906 C 370.585938 400.480469 367.539062 400.253906 364.5 399.957031 C 361.457031 399.65625 358.429688 399.28125 355.40625 398.835938 C 352.386719 398.386719 349.375 397.863281 346.378906 397.269531 C 343.382812 396.671875 340.40625 396.003906 337.441406 395.261719 C 334.480469 394.519531 331.535156 393.703125 328.613281 392.816406 C 325.691406 391.929688 322.789062 390.972656 319.914062 389.945312 C 317.039062 388.914062 314.1875 387.816406 311.367188 386.648438 C 308.542969 385.476562 305.753906 384.242188 302.992188 382.933594 C 300.230469 381.628906 297.503906 380.257812 294.808594 378.816406 C 292.113281 377.375 289.457031 375.871094 286.835938 374.300781 C 284.21875 372.730469 281.636719 371.097656 279.097656 369.398438 C 276.558594 367.703125 274.0625 365.945312 271.609375 364.125 C 269.15625 362.304688 266.746094 360.425781 264.386719 358.488281 C 262.023438 356.550781 259.710938 354.554688 257.449219 352.503906 C 255.1875 350.453125 252.972656 348.347656 250.8125 346.1875 C 248.65625 344.027344 246.546875 341.816406 244.496094 339.550781 C 242.445312 337.289062 240.453125 334.976562 238.511719 332.617188 C 236.574219 330.253906 234.695312 327.847656 232.878906 325.394531 C 231.058594 322.941406 229.300781 320.441406 227.601562 317.902344 C 225.90625 315.363281 224.273438 312.785156 222.699219 310.164062 C 221.128906 307.542969 219.625 304.886719 218.1875 302.191406 C 216.746094 299.5 215.371094 296.769531 214.066406 294.011719 C 212.761719 291.25 211.523438 288.457031 210.355469 285.632812 C 209.183594 282.8125 208.085938 279.964844 207.058594 277.085938 C 206.027344 274.210938 205.070312 271.3125 204.183594 268.390625 C 203.296875 265.464844 202.484375 262.523438 201.742188 259.558594 C 201 256.597656 200.328125 253.617188 199.734375 250.621094 C 199.136719 247.625 198.613281 244.617188 198.167969 241.59375 C 197.71875 238.574219 197.34375 235.542969 197.046875 232.503906 C 196.746094 229.460938 196.519531 226.417969 196.371094 223.367188 C 196.222656 220.316406 196.148438 217.261719 196.148438 214.207031 C 196.148438 211.152344 196.222656 208.101562 196.371094 205.050781 C 196.519531 202 196.746094 198.953125 197.046875 195.914062 C 197.34375 192.875 197.71875 189.84375 198.167969 186.820312 C 198.613281 183.800781 199.136719 180.792969 199.734375 177.796875 C 200.328125 174.800781 201 171.820312 201.742188 168.855469 C 202.484375 165.894531 203.296875 162.949219 204.183594 160.027344 C 205.070312 157.105469 206.027344 154.203125 207.058594 151.328125 C 208.085938 148.453125 209.183594 145.605469 210.355469 142.78125 C 211.523438 139.960938 212.761719 137.167969 214.066406 134.40625 C 215.371094 131.644531 216.746094 128.917969 218.1875 126.222656 C 219.625 123.53125 221.128906 120.871094 222.699219 118.253906 C 224.273438 115.632812 225.90625 113.050781 227.601562 110.511719 C 229.300781 107.972656 231.058594 105.476562 232.878906 103.023438 C 234.695312 100.570312 236.574219 98.160156 238.511719 95.800781 C 240.453125 93.4375 242.445312 91.128906 244.496094 88.863281 C 246.546875 86.601562 248.65625 84.390625 250.8125 82.230469 C 252.972656 80.070312 255.1875 77.964844 257.449219 75.910156 C 259.710938 73.859375 262.023438 71.867188 264.386719 69.929688 C 266.746094 67.992188 269.15625 66.113281 271.609375 64.292969 C 274.0625 62.472656 276.558594 60.714844 279.097656 59.015625 C 281.636719 57.320312 284.21875 55.6875 286.835938 54.117188 C 289.457031 52.546875 292.113281 51.039062 294.808594 49.601562 C 297.503906 48.160156 300.230469 46.789062 302.992188 45.480469 C 305.753906 44.175781 308.542969 42.9375 311.367188 41.769531 C 314.1875 40.601562 317.039062 39.5 319.914062 38.472656 C 322.789062 37.441406 325.691406 36.484375 328.613281 35.597656 C 331.535156 34.710938 334.480469 33.898438 337.441406 33.15625 C 340.40625 32.414062 343.382812 31.742188 346.378906 31.148438 C 349.375 30.550781 352.386719 30.03125 355.40625 29.582031 C 358.429688 29.132812 361.457031 28.757812 364.5 28.460938 C 367.539062 28.160156 370.585938 27.9375 373.636719 27.785156 C 376.6875 27.636719 379.738281 27.5625 382.792969 27.5625 C 385.847656 27.5625 388.902344 27.636719 391.953125 27.785156 C 395.003906 27.9375 398.046875 28.160156 401.089844 28.460938 C 404.128906 28.757812 407.160156 29.132812 410.179688 29.582031 C 413.203125 30.03125 416.210938 30.550781 419.207031 31.148438 C 422.203125 31.742188 425.183594 32.414062 428.144531 33.15625 C 431.109375 33.898438 434.050781 34.710938 436.972656 35.597656 C 439.898438 36.484375 442.796875 37.441406 445.671875 38.472656 C 448.546875 39.5 451.398438 40.601562 454.21875 41.769531 C 457.042969 42.9375 459.832031 44.175781 462.59375 45.480469 C 465.355469 46.789062 468.085938 48.160156 470.777344 49.601562 C 473.472656 51.039062 476.128906 52.546875 478.75 54.117188 C 481.367188 55.6875 483.949219 57.320312 486.488281 59.015625 C 489.027344 60.714844 491.523438 62.472656 493.980469 64.292969 C 496.433594 66.113281 498.839844 67.992188 501.199219 69.929688 C 503.5625 71.867188 505.875 73.859375 508.136719 75.910156 C 510.402344 77.964844 512.613281 80.070312 514.773438 82.230469 C 516.933594 84.390625 519.039062 86.601562 521.089844 88.863281 C 523.140625 91.128906 525.136719 93.4375 527.074219 95.800781 C 529.011719 98.160156 530.890625 100.570312 532.710938 103.023438 C 534.527344 105.476562 536.289062 107.972656 537.984375 110.511719 C 539.679688 113.050781 541.316406 115.632812 542.886719 118.253906 C 544.457031 120.871094 545.960938 123.53125 547.402344 126.222656 C 548.839844 128.917969 550.214844 131.644531 551.519531 134.40625 C 552.824219 137.167969 554.0625 139.960938 555.234375 142.78125 C 556.402344 145.605469 557.5 148.453125 558.53125 151.328125 C 559.558594 154.203125 560.515625 157.105469 561.402344 160.027344 C 562.289062 162.949219 563.105469 165.894531 563.847656 168.855469 C 564.589844 171.820312 565.257812 174.800781 565.855469 177.796875 C 566.449219 180.792969 566.972656 183.800781 567.421875 186.820312 C 567.867188 189.84375 568.242188 192.875 568.542969 195.914062 C 568.839844 198.953125 569.066406 202 569.214844 205.050781 C 569.367188 208.101562 569.441406 211.152344 569.441406 214.207031 Z M 569.441406 214.207031 "/><path style=" stroke:none;fill-rule:nonzero;fill:#ff007f;fill-opacity:1;" d="M 131.953125 738.023438 L 633.632812 738.023438 C 635.453125 738.003906 637.273438 737.929688 639.085938 737.800781 C 640.902344 737.667969 642.710938 737.488281 644.515625 737.25 C 646.320312 737.011719 648.117188 736.71875 649.902344 736.375 C 651.691406 736.027344 653.464844 735.628906 655.226562 735.179688 C 656.992188 734.726562 658.738281 734.222656 660.472656 733.667969 C 662.203125 733.109375 663.917969 732.503906 665.617188 731.84375 C 667.3125 731.183594 668.988281 730.476562 670.640625 729.714844 C 672.296875 728.957031 673.925781 728.148438 675.53125 727.289062 C 677.136719 726.433594 678.714844 725.527344 680.265625 724.578125 C 681.816406 723.625 683.335938 722.628906 684.828125 721.585938 C 686.320312 720.542969 687.777344 719.453125 689.207031 718.324219 C 690.632812 717.195312 692.023438 716.023438 693.378906 714.808594 C 694.734375 713.59375 696.054688 712.339844 697.335938 711.046875 C 698.613281 709.753906 699.855469 708.425781 701.058594 707.058594 C 702.257812 705.691406 703.417969 704.289062 704.535156 702.851562 C 705.652344 701.414062 706.726562 699.945312 707.753906 698.445312 C 708.785156 696.945312 709.765625 695.414062 710.703125 693.855469 C 711.644531 692.296875 712.53125 690.707031 713.375 689.09375 C 714.21875 687.480469 715.011719 685.84375 715.753906 684.183594 C 716.5 682.523438 717.191406 680.84375 717.835938 679.140625 C 718.480469 677.4375 719.074219 675.71875 719.613281 673.980469 C 720.152344 672.242188 720.640625 670.488281 721.078125 668.722656 C 721.511719 666.953125 721.894531 665.175781 722.222656 663.386719 C 722.550781 661.597656 722.828125 659.796875 723.046875 657.992188 C 723.269531 656.183594 723.4375 654.375 723.546875 652.558594 C 723.660156 650.742188 723.71875 648.921875 723.722656 647.101562 C 723.726562 645.28125 723.675781 643.464844 723.570312 641.648438 C 723.464844 639.832031 723.304688 638.019531 723.089844 636.210938 C 722.875 634.40625 722.609375 632.605469 722.289062 630.8125 C 721.964844 629.023438 721.589844 627.242188 721.160156 625.472656 C 720.734375 623.703125 720.253906 621.949219 719.71875 620.210938 C 719.183594 618.472656 718.601562 616.75 717.964844 615.042969 C 716.671875 611.773438 715.316406 608.53125 713.902344 605.3125 C 712.492188 602.097656 711.015625 598.90625 709.484375 595.742188 C 707.953125 592.582031 706.359375 589.449219 704.710938 586.34375 C 703.058594 583.242188 701.351562 580.171875 699.585938 577.132812 C 697.820312 574.09375 696 571.089844 694.121094 568.117188 C 692.242188 565.148438 690.3125 562.210938 688.324219 559.3125 C 686.335938 556.414062 684.292969 553.554688 682.199219 550.734375 C 680.105469 547.910156 677.957031 545.128906 675.757812 542.386719 C 673.558594 539.644531 671.308594 536.945312 669.011719 534.289062 C 666.710938 531.632812 664.359375 529.019531 661.964844 526.449219 C 659.566406 523.878906 657.121094 521.355469 654.628906 518.878906 C 652.136719 516.398438 649.597656 513.96875 647.015625 511.585938 C 644.429688 509.203125 641.804688 506.871094 639.132812 504.585938 C 636.460938 502.300781 633.75 500.066406 630.996094 497.882812 C 628.242188 495.699219 625.445312 493.570312 622.613281 491.492188 C 619.777344 489.414062 616.90625 487.390625 613.996094 485.417969 C 611.085938 483.445312 608.140625 481.53125 605.160156 479.671875 C 602.175781 477.808594 599.160156 476.007812 596.113281 474.257812 C 593.0625 472.511719 589.980469 470.820312 586.867188 469.1875 C 583.757812 467.558594 580.613281 465.984375 577.441406 464.46875 C 574.273438 462.953125 571.074219 461.5 567.847656 460.105469 C 564.621094 458.710938 561.371094 457.375 558.09375 456.101562 C 554.820312 454.828125 551.519531 453.617188 548.199219 452.46875 C 544.878906 451.320312 541.535156 450.230469 538.175781 449.207031 C 534.8125 448.183594 531.433594 447.222656 528.035156 446.324219 C 524.636719 445.425781 521.222656 444.59375 517.792969 443.820312 C 514.363281 443.050781 510.921875 442.347656 507.464844 441.703125 C 504.011719 441.0625 500.542969 440.488281 497.066406 439.976562 C 493.589844 439.464844 490.105469 439.019531 486.609375 438.636719 C 483.117188 438.257812 479.617188 437.941406 476.113281 437.691406 C 472.605469 437.441406 469.097656 437.257812 465.585938 437.136719 C 462.070312 437.019531 458.558594 436.96875 455.042969 436.980469 L 310.542969 436.980469 C 307.03125 436.980469 303.519531 437.042969 300.011719 437.175781 C 296.5 437.304688 292.996094 437.5 289.492188 437.757812 C 285.992188 438.019531 282.496094 438.34375 279.003906 438.734375 C 275.515625 439.125 272.03125 439.582031 268.558594 440.101562 C 265.085938 440.621094 261.625 441.207031 258.171875 441.855469 C 254.71875 442.503906 251.28125 443.21875 247.855469 443.996094 C 244.433594 444.773438 241.023438 445.613281 237.628906 446.515625 C 234.234375 447.421875 230.859375 448.386719 227.503906 449.417969 C 224.144531 450.449219 220.808594 451.539062 217.488281 452.691406 C 214.171875 453.847656 210.878906 455.0625 207.605469 456.339844 C 204.335938 457.613281 201.089844 458.953125 197.867188 460.347656 C 194.644531 461.746094 191.449219 463.203125 188.28125 464.71875 C 185.113281 466.234375 181.976562 467.8125 178.867188 469.445312 C 175.757812 471.078125 172.679688 472.765625 169.632812 474.515625 C 166.585938 476.261719 163.574219 478.066406 160.59375 479.925781 C 157.613281 481.785156 154.671875 483.699219 151.765625 485.667969 C 148.855469 487.640625 145.984375 489.660156 143.152344 491.738281 C 140.320312 493.8125 137.527344 495.941406 134.773438 498.121094 C 132.019531 500.304688 129.308594 502.535156 126.636719 504.816406 C 123.96875 507.09375 121.339844 509.425781 118.757812 511.804688 C 116.175781 514.183594 113.636719 516.609375 111.140625 519.082031 C 108.648438 521.554688 106.203125 524.074219 103.804688 526.640625 C 101.402344 529.203125 99.050781 531.8125 96.75 534.464844 C 94.449219 537.117188 92.195312 539.808594 89.992188 542.546875 C 87.789062 545.28125 85.640625 548.058594 83.542969 550.875 C 81.441406 553.6875 79.398438 556.542969 77.40625 559.433594 C 75.410156 562.328125 73.472656 565.253906 71.589844 568.21875 C 69.707031 571.183594 67.878906 574.183594 66.105469 577.214844 C 64.335938 580.246094 62.621094 583.308594 60.960938 586.40625 C 59.304688 589.503906 57.703125 592.628906 56.164062 595.785156 C 54.621094 598.9375 53.136719 602.121094 51.714844 605.332031 C 50.292969 608.542969 48.929688 611.78125 47.625 615.042969 C 46.988281 616.746094 46.402344 618.46875 45.871094 620.207031 C 45.335938 621.949219 44.855469 623.703125 44.425781 625.472656 C 43.996094 627.242188 43.621094 629.019531 43.296875 630.8125 C 42.976562 632.601562 42.707031 634.402344 42.492188 636.210938 C 42.277344 638.015625 42.117188 639.828125 42.011719 641.644531 C 41.90625 643.464844 41.855469 645.28125 41.859375 647.101562 C 41.863281 648.921875 41.921875 650.742188 42.03125 652.558594 C 42.144531 654.375 42.3125 656.183594 42.53125 657.992188 C 42.753906 659.796875 43.027344 661.597656 43.355469 663.386719 C 43.683594 665.175781 44.066406 666.957031 44.503906 668.722656 C 44.9375 670.492188 45.425781 672.242188 45.964844 673.980469 C 46.507812 675.71875 47.097656 677.4375 47.742188 679.140625 C 48.386719 680.84375 49.078125 682.527344 49.824219 684.1875 C 50.566406 685.847656 51.359375 687.484375 52.203125 689.097656 C 53.046875 690.710938 53.9375 692.296875 54.875 693.859375 C 55.8125 695.417969 56.792969 696.949219 57.824219 698.449219 C 58.851562 699.953125 59.925781 701.421875 61.042969 702.855469 C 62.160156 704.292969 63.320312 705.695312 64.519531 707.0625 C 65.722656 708.429688 66.964844 709.761719 68.246094 711.054688 C 69.527344 712.347656 70.84375 713.601562 72.199219 714.8125 C 73.558594 716.027344 74.949219 717.199219 76.375 718.328125 C 77.800781 719.460938 79.261719 720.546875 80.753906 721.589844 C 82.242188 722.632812 83.765625 723.628906 85.316406 724.582031 C 86.867188 725.535156 88.445312 726.4375 90.050781 727.296875 C 91.65625 728.152344 93.289062 728.960938 94.941406 729.71875 C 96.59375 730.480469 98.269531 731.1875 99.96875 731.847656 C 101.664062 732.507812 103.378906 733.113281 105.113281 733.671875 C 106.84375 734.226562 108.59375 734.730469 110.355469 735.183594 C 112.121094 735.632812 113.894531 736.03125 115.679688 736.378906 C 117.46875 736.722656 119.265625 737.011719 121.070312 737.25 C 122.875 737.488281 124.683594 737.671875 126.5 737.800781 C 128.316406 737.929688 130.132812 738.003906 131.953125 738.023438 Z M 131.953125 738.023438 "/></g></svg>