<svg xmlns="http://www.w3.org/2000/svg" xmlns:xlink="http://www.w3.org/1999/xlink" width="1024" zoomAndPan="magnify" viewBox="0 0 768 767.999994" height="1024" preserveAspectRatio="xMidYMid meet" version="1.2"><g id="95897f2ee7"><path style=" stroke:none;fill-rule:nonzero;fill:#000000;fill-opacity:1;" d="M 569.675781 214.25 C 569.675781 217.304688 569.597656 220.359375 569.449219 223.410156 C 569.300781 226.464844 569.074219 229.507812 568.773438 232.550781 C 568.476562 235.589844 568.101562 238.621094 567.652344 241.644531 C 567.203125 244.667969 566.683594 247.675781 566.085938 250.671875 C 565.488281 253.667969 564.820312 256.648438 564.078125 259.613281 C 563.335938 262.578125 562.519531 265.519531 561.632812 268.445312 C 560.746094 271.367188 559.789062 274.269531 558.757812 277.144531 C 557.730469 280.023438 556.628906 282.871094 555.460938 285.695312 C 554.289062 288.515625 553.054688 291.308594 551.746094 294.070312 C 550.441406 296.832031 549.066406 299.5625 547.625 302.257812 C 546.183594 304.949219 544.679688 307.609375 543.109375 310.230469 C 541.535156 312.847656 539.902344 315.429688 538.203125 317.96875 C 536.507812 320.511719 534.746094 323.007812 532.925781 325.460938 C 531.105469 327.917969 529.226562 330.324219 527.289062 332.6875 C 525.351562 335.046875 523.355469 337.359375 521.300781 339.625 C 519.25 341.886719 517.144531 344.101562 514.984375 346.261719 C 512.820312 348.421875 510.609375 350.527344 508.34375 352.578125 C 506.082031 354.628906 503.765625 356.625 501.40625 358.5625 C 499.042969 360.503906 496.632812 362.382812 494.179688 364.203125 C 491.726562 366.023438 489.226562 367.78125 486.6875 369.476562 C 484.144531 371.175781 481.5625 372.808594 478.941406 374.378906 C 476.320312 375.949219 473.664062 377.457031 470.96875 378.898438 C 468.273438 380.335938 465.542969 381.710938 462.78125 383.015625 C 460.019531 384.324219 457.226562 385.5625 454.402344 386.730469 C 451.578125 387.898438 448.730469 389 445.851562 390.027344 C 442.976562 391.058594 440.074219 392.015625 437.148438 392.902344 C 434.226562 393.789062 431.28125 394.605469 428.316406 395.347656 C 425.351562 396.089844 422.371094 396.757812 419.375 397.355469 C 416.375 397.949219 413.367188 398.472656 410.34375 398.921875 C 407.320312 399.367188 404.289062 399.742188 401.246094 400.042969 C 398.207031 400.339844 395.160156 400.566406 392.109375 400.714844 C 389.054688 400.867188 386 400.941406 382.945312 400.941406 C 379.890625 400.941406 376.835938 400.867188 373.78125 400.714844 C 370.730469 400.566406 367.683594 400.339844 364.644531 400.042969 C 361.601562 399.742188 358.570312 399.367188 355.546875 398.921875 C 352.523438 398.472656 349.511719 397.949219 346.515625 397.355469 C 343.519531 396.757812 340.539062 396.089844 337.574219 395.347656 C 334.609375 394.605469 331.664062 393.789062 328.742188 392.902344 C 325.816406 392.015625 322.914062 391.058594 320.039062 390.027344 C 317.160156 389 314.308594 387.898438 311.488281 386.730469 C 308.664062 385.5625 305.871094 384.324219 303.109375 383.015625 C 300.347656 381.710938 297.617188 380.335938 294.921875 378.898438 C 292.226562 377.457031 289.570312 375.949219 286.949219 374.378906 C 284.324219 372.808594 281.746094 371.175781 279.203125 369.476562 C 276.664062 367.78125 274.164062 366.023438 271.710938 364.203125 C 269.257812 362.382812 266.847656 360.503906 264.484375 358.5625 C 262.125 356.625 259.808594 354.628906 257.546875 352.578125 C 255.28125 350.527344 253.070312 348.421875 250.90625 346.261719 C 248.746094 344.101562 246.640625 341.886719 244.589844 339.625 C 242.535156 337.359375 240.539062 335.046875 238.601562 332.6875 C 236.664062 330.324219 234.785156 327.917969 232.964844 325.460938 C 231.144531 323.007812 229.382812 320.511719 227.6875 317.96875 C 225.988281 315.429688 224.351562 312.847656 222.78125 310.230469 C 221.210938 307.609375 219.707031 304.949219 218.265625 302.257812 C 216.824219 299.5625 215.449219 296.832031 214.144531 294.070312 C 212.835938 291.308594 211.597656 288.515625 210.429688 285.695312 C 209.261719 282.871094 208.160156 280.023438 207.132812 277.144531 C 206.101562 274.269531 205.144531 271.367188 204.257812 268.445312 C 203.371094 265.519531 202.554688 262.578125 201.8125 259.613281 C 201.070312 256.648438 200.398438 253.667969 199.804688 250.671875 C 199.207031 247.675781 198.6875 244.667969 198.238281 241.644531 C 197.789062 238.621094 197.414062 235.589844 197.117188 232.550781 C 196.816406 229.507812 196.589844 226.464844 196.441406 223.410156 C 196.292969 220.359375 196.214844 217.304688 196.214844 214.25 C 196.214844 211.195312 196.292969 208.140625 196.441406 205.089844 C 196.589844 202.039062 196.816406 198.992188 197.117188 195.953125 C 197.414062 192.910156 197.789062 189.878906 198.238281 186.859375 C 198.6875 183.835938 199.207031 180.828125 199.804688 177.828125 C 200.398438 174.832031 201.070312 171.851562 201.8125 168.890625 C 202.554688 165.925781 203.371094 162.980469 204.257812 160.058594 C 205.144531 157.132812 206.101562 154.234375 207.132812 151.355469 C 208.160156 148.480469 209.261719 145.632812 210.429688 142.808594 C 211.597656 139.984375 212.835938 137.191406 214.144531 134.429688 C 215.449219 131.667969 216.824219 128.941406 218.265625 126.246094 C 219.707031 123.550781 221.210938 120.894531 222.78125 118.273438 C 224.351562 115.652344 225.988281 113.074219 227.6875 110.53125 C 229.382812 107.992188 231.140625 105.496094 232.964844 103.039062 C 234.785156 100.585938 236.664062 98.179688 238.601562 95.816406 C 240.539062 93.453125 242.535156 91.140625 244.589844 88.878906 C 246.640625 86.613281 248.746094 84.402344 250.90625 82.242188 C 253.070312 80.082031 255.28125 77.976562 257.546875 75.921875 C 259.808594 73.871094 262.125 71.875 264.484375 69.9375 C 266.847656 68 269.257812 66.121094 271.710938 64.300781 C 274.164062 62.480469 276.664062 60.722656 279.203125 59.023438 C 281.746094 57.328125 284.324219 55.691406 286.945312 54.121094 C 289.570312 52.550781 292.226562 51.046875 294.921875 49.605469 C 297.617188 48.164062 300.347656 46.792969 303.109375 45.484375 C 305.871094 44.179688 308.664062 42.941406 311.488281 41.773438 C 314.308594 40.601562 317.160156 39.503906 320.039062 38.476562 C 322.914062 37.445312 325.816406 36.488281 328.742188 35.601562 C 331.664062 34.714844 334.609375 33.898438 337.574219 33.15625 C 340.539062 32.414062 343.519531 31.746094 346.515625 31.148438 C 349.511719 30.550781 352.523438 30.03125 355.546875 29.582031 C 358.570312 29.132812 361.601562 28.761719 364.644531 28.460938 C 367.683594 28.160156 370.730469 27.9375 373.78125 27.785156 C 376.835938 27.636719 379.890625 27.5625 382.945312 27.5625 C 386 27.5625 389.054688 27.636719 392.109375 27.785156 C 395.160156 27.9375 398.207031 28.160156 401.246094 28.460938 C 404.289062 28.761719 407.320312 29.132812 410.34375 29.582031 C 413.367188 30.03125 416.375 30.550781 419.375 31.148438 C 422.371094 31.746094 425.351562 32.414062 428.316406 33.15625 C 431.28125 33.898438 434.226562 34.714844 437.148438 35.601562 C 440.074219 36.488281 442.976562 37.445312 445.851562 38.476562 C 448.730469 39.503906 451.578125 40.601562 454.402344 41.773438 C 457.226562 42.941406 460.019531 44.179688 462.78125 45.484375 C 465.542969 46.792969 468.273438 48.164062 470.96875 49.605469 C 473.664062 51.046875 476.320312 52.550781 478.941406 54.121094 C 481.5625 55.691406 484.144531 57.328125 486.6875 59.023438 C 489.226562 60.722656 491.726562 62.480469 494.179688 64.300781 C 496.632812 66.121094 499.042969 68 501.40625 69.9375 C 503.765625 71.875 506.082031 73.871094 508.34375 75.921875 C 510.609375 77.976562 512.820312 80.082031 514.984375 82.242188 C 517.144531 84.402344 519.25 86.613281 521.300781 88.878906 C 523.355469 91.140625 525.351562 93.453125 527.289062 95.816406 C 529.226562 98.179688 531.105469 100.585938 532.925781 103.039062 C 534.746094 105.496094 536.507812 107.992188 538.203125 110.53125 C 539.902344 113.074219 541.535156 115.652344 543.109375 118.273438 C 544.679688 120.894531 546.183594 123.550781 547.625 126.246094 C 549.066406 128.941406 550.441406 131.667969 551.746094 134.429688 C 553.054688 137.191406 554.289062 139.984375 555.460938 142.808594 C 556.628906 145.632812 557.730469 148.480469 558.757812 151.355469 C 559.789062 154.234375 560.746094 157.132812 561.632812 160.058594 C 562.519531 162.980469 563.335938 165.925781 564.078125 168.890625 C 564.820312 171.851562 565.488281 174.832031 566.085938 177.828125 C 566.683594 180.828125 567.203125 183.835938 567.652344 186.859375 C 568.101562 189.878906 568.476562 192.910156 568.773438 195.953125 C 569.074219 198.992188 569.300781 202.039062 569.449219 205.089844 C 569.597656 208.140625 569.675781 211.195312 569.675781 214.25 Z M 569.675781 214.25 "/><path style=" stroke:none;fill-rule:nonzero;fill:#000000;fill-opacity:1;" d="M 131.992188 738.1875 L 633.898438 738.1875 C 635.71875 738.167969 637.535156 738.089844 639.351562 737.960938 C 641.167969 737.832031 642.980469 737.648438 644.785156 737.410156 C 646.589844 737.171875 648.386719 736.882812 650.171875 736.535156 C 651.960938 736.191406 653.738281 735.792969 655.5 735.339844 C 657.265625 734.890625 659.011719 734.386719 660.746094 733.828125 C 662.480469 733.273438 664.195312 732.664062 665.890625 732.003906 C 667.589844 731.34375 669.265625 730.636719 670.917969 729.875 C 672.574219 729.117188 674.203125 728.308594 675.8125 727.449219 C 677.417969 726.59375 678.996094 725.6875 680.546875 724.738281 C 682.097656 723.785156 683.621094 722.785156 685.113281 721.742188 C 686.605469 720.699219 688.066406 719.613281 689.492188 718.484375 C 690.917969 717.351562 692.3125 716.179688 693.667969 714.964844 C 695.023438 713.75 696.34375 712.5 697.625 711.203125 C 698.90625 709.910156 700.148438 708.582031 701.351562 707.214844 C 702.550781 705.847656 703.710938 704.445312 704.828125 703.007812 C 705.945312 701.570312 707.019531 700.101562 708.050781 698.601562 C 709.078125 697.097656 710.0625 695.566406 711 694.007812 C 711.9375 692.449219 712.828125 690.859375 713.671875 689.246094 C 714.515625 687.632812 715.308594 685.996094 716.054688 684.335938 C 716.796875 682.675781 717.492188 680.992188 718.136719 679.289062 C 718.78125 677.585938 719.371094 675.867188 719.914062 674.128906 C 720.453125 672.390625 720.941406 670.636719 721.378906 668.871094 C 721.8125 667.101562 722.195312 665.324219 722.523438 663.53125 C 722.855469 661.742188 723.128906 659.945312 723.351562 658.136719 C 723.570312 656.328125 723.738281 654.519531 723.851562 652.703125 C 723.964844 650.882812 724.019531 649.066406 724.023438 647.246094 C 724.027344 645.425781 723.976562 643.605469 723.871094 641.789062 C 723.765625 639.972656 723.605469 638.160156 723.394531 636.351562 C 723.179688 634.542969 722.910156 632.746094 722.589844 630.953125 C 722.265625 629.160156 721.890625 627.378906 721.460938 625.609375 C 721.035156 623.84375 720.554688 622.085938 720.019531 620.347656 C 719.484375 618.605469 718.898438 616.882812 718.261719 615.179688 C 716.96875 611.910156 715.617188 608.664062 714.203125 605.445312 C 712.789062 602.230469 711.3125 599.039062 709.78125 595.875 C 708.246094 592.710938 706.652344 589.578125 705.003906 586.472656 C 703.351562 583.371094 701.644531 580.296875 699.878906 577.257812 C 698.109375 574.21875 696.289062 571.214844 694.410156 568.242188 C 692.53125 565.269531 690.597656 562.335938 688.609375 559.4375 C 686.621094 556.535156 684.578125 553.675781 682.484375 550.851562 C 680.386719 548.03125 678.238281 545.246094 676.039062 542.503906 C 673.839844 539.761719 671.589844 537.0625 669.289062 534.40625 C 666.988281 531.746094 664.636719 529.132812 662.238281 526.5625 C 659.839844 523.992188 657.394531 521.46875 654.898438 518.988281 C 652.40625 516.511719 649.867188 514.082031 647.28125 511.695312 C 644.699219 509.3125 642.070312 506.980469 639.398438 504.695312 C 636.726562 502.410156 634.011719 500.175781 631.257812 497.992188 C 628.5 495.808594 625.703125 493.675781 622.871094 491.597656 C 620.035156 489.519531 617.160156 487.496094 614.25 485.523438 C 611.339844 483.550781 608.390625 481.636719 605.40625 479.773438 C 602.425781 477.914062 599.410156 476.109375 596.359375 474.363281 C 593.308594 472.613281 590.226562 470.921875 587.109375 469.289062 C 583.996094 467.65625 580.855469 466.085938 577.679688 464.570312 C 574.507812 463.054688 571.308594 461.597656 568.082031 460.203125 C 564.851562 458.808594 561.601562 457.472656 558.324219 456.199219 C 555.046875 454.929688 551.746094 453.714844 548.421875 452.566406 C 545.101562 451.417969 541.757812 450.328125 538.394531 449.304688 C 535.03125 448.28125 531.648438 447.316406 528.25 446.421875 C 524.851562 445.523438 521.4375 444.6875 518.003906 443.917969 C 514.574219 443.148438 511.128906 442.441406 507.671875 441.800781 C 504.214844 441.160156 500.75 440.582031 497.269531 440.070312 C 493.789062 439.558594 490.304688 439.113281 486.808594 438.730469 C 483.3125 438.351562 479.8125 438.035156 476.304688 437.785156 C 472.796875 437.535156 469.285156 437.351562 465.773438 437.234375 C 462.257812 437.113281 458.742188 437.0625 455.226562 437.074219 L 310.664062 437.074219 C 307.148438 437.074219 303.636719 437.136719 300.125 437.269531 C 296.613281 437.398438 293.105469 437.59375 289.601562 437.855469 C 286.097656 438.113281 282.601562 438.441406 279.109375 438.832031 C 275.617188 439.222656 272.136719 439.675781 268.660156 440.199219 C 265.183594 440.71875 261.722656 441.300781 258.269531 441.953125 C 254.816406 442.601562 251.375 443.3125 247.949219 444.089844 C 244.523438 444.867188 241.113281 445.710938 237.71875 446.613281 C 234.320312 447.519531 230.945312 448.484375 227.585938 449.515625 C 224.226562 450.542969 220.886719 451.636719 217.570312 452.789062 C 214.25 453.945312 210.953125 455.160156 207.679688 456.4375 C 204.40625 457.714844 201.160156 459.050781 197.9375 460.449219 C 194.710938 461.847656 191.515625 463.304688 188.347656 464.820312 C 185.179688 466.335938 182.039062 467.910156 178.925781 469.546875 C 175.816406 471.179688 172.738281 472.871094 169.691406 474.617188 C 166.644531 476.367188 163.628906 478.167969 160.648438 480.03125 C 157.667969 481.890625 154.722656 483.804688 151.8125 485.773438 C 148.90625 487.746094 146.03125 489.769531 143.199219 491.84375 C 140.367188 493.921875 137.570312 496.050781 134.816406 498.230469 C 132.0625 500.410156 129.347656 502.644531 126.675781 504.925781 C 124.007812 507.207031 121.378906 509.535156 118.792969 511.914062 C 116.207031 514.296875 113.667969 516.722656 111.175781 519.195312 C 108.679688 521.667969 106.234375 524.1875 103.832031 526.753906 C 101.429688 529.320312 99.078125 531.929688 96.777344 534.582031 C 94.472656 537.234375 92.21875 539.929688 90.015625 542.664062 C 87.8125 545.402344 85.660156 548.175781 83.5625 550.992188 C 81.460938 553.808594 79.414062 556.664062 77.421875 559.558594 C 75.429688 562.449219 73.488281 565.378906 71.605469 568.34375 C 69.71875 571.308594 67.890625 574.308594 66.117188 577.339844 C 64.347656 580.375 62.628906 583.4375 60.972656 586.535156 C 59.3125 589.632812 57.710938 592.757812 56.171875 595.914062 C 54.628906 599.070312 53.144531 602.253906 51.722656 605.464844 C 50.296875 608.675781 48.933594 611.914062 47.628906 615.175781 C 46.992188 616.882812 46.40625 618.605469 45.871094 620.34375 C 45.339844 622.085938 44.855469 623.839844 44.425781 625.609375 C 44 627.378906 43.621094 629.160156 43.300781 630.949219 C 42.976562 632.742188 42.710938 634.542969 42.496094 636.351562 C 42.28125 638.15625 42.121094 639.96875 42.015625 641.789062 C 41.910156 643.605469 41.859375 645.425781 41.859375 647.246094 C 41.863281 649.066406 41.921875 650.882812 42.035156 652.699219 C 42.148438 654.519531 42.3125 656.328125 42.535156 658.136719 C 42.753906 659.945312 43.03125 661.742188 43.359375 663.53125 C 43.6875 665.324219 44.070312 667.101562 44.503906 668.871094 C 44.941406 670.636719 45.429688 672.390625 45.96875 674.128906 C 46.511719 675.867188 47.101562 677.589844 47.746094 679.292969 C 48.390625 680.996094 49.082031 682.675781 49.828125 684.335938 C 50.574219 686 51.367188 687.636719 52.210938 689.25 C 53.050781 690.863281 53.941406 692.453125 54.878906 694.011719 C 55.820312 695.570312 56.800781 697.101562 57.832031 698.605469 C 58.863281 700.105469 59.933594 701.574219 61.054688 703.011719 C 62.171875 704.449219 63.332031 705.851562 64.53125 707.21875 C 65.734375 708.585938 66.976562 709.917969 68.257812 711.210938 C 69.539062 712.503906 70.859375 713.757812 72.214844 714.972656 C 73.574219 716.183594 74.964844 717.359375 76.390625 718.488281 C 77.820312 719.621094 79.277344 720.707031 80.769531 721.75 C 82.261719 722.792969 83.785156 723.789062 85.335938 724.742188 C 86.890625 725.695312 88.46875 726.597656 90.074219 727.457031 C 91.679688 728.3125 93.3125 729.121094 94.964844 729.882812 C 96.621094 730.640625 98.296875 731.351562 99.996094 732.007812 C 101.691406 732.667969 103.40625 733.277344 105.140625 733.832031 C 106.875 734.390625 108.625 734.894531 110.386719 735.34375 C 112.152344 735.796875 113.929688 736.195312 115.714844 736.539062 C 117.503906 736.886719 119.300781 737.175781 121.105469 737.414062 C 122.910156 737.652344 124.722656 737.835938 126.539062 737.964844 C 128.355469 738.09375 130.171875 738.167969 131.992188 738.1875 Z M 131.992188 738.1875 "/></g></svg>