<svg xmlns="http://www.w3.org/2000/svg" xmlns:xlink="http://www.w3.org/1999/xlink" width="1024" zoomAndPan="magnify" viewBox="0 0 768 767.999994" height="1024" preserveAspectRatio="xMidYMid meet" version="1.2"><g id="0763b2f184"><path style=" stroke:none;fill-rule:nonzero;fill:#ff007f;fill-opacity:1;" d="M 639.351562 417.507812 C 640.726562 406.507812 641.757812 395.339844 641.757812 383.996094 C 641.757812 372.65625 640.726562 361.488281 639.351562 350.488281 L 712.039062 293.609375 C 718.570312 288.457031 720.457031 279.175781 716.164062 271.617188 L 647.425781 152.53125 C 643.132812 145.144531 634.195312 142.050781 626.464844 145.144531 L 540.886719 179.683594 C 523.1875 166.105469 503.769531 154.59375 482.808594 145.828125 L 469.917969 54.753906 C 468.371094 46.679688 461.328125 40.320312 452.734375 40.320312 L 315.265625 40.320312 C 306.671875 40.320312 299.628906 46.679688 298.253906 54.753906 L 285.363281 145.828125 C 264.402344 154.59375 244.984375 165.933594 227.285156 179.683594 L 141.707031 145.144531 C 133.976562 142.222656 125.039062 145.144531 120.742188 152.53125 L 52.007812 271.617188 C 47.710938 279.003906 49.601562 288.285156 56.132812 293.609375 L 128.648438 350.488281 C 127.273438 361.488281 126.242188 372.65625 126.242188 383.996094 C 126.242188 395.339844 127.273438 406.507812 128.648438 417.507812 L 56.132812 474.382812 C 49.601562 479.539062 47.710938 488.820312 52.007812 496.378906 L 120.742188 615.464844 C 125.039062 622.851562 133.976562 625.945312 141.707031 622.851562 L 227.285156 588.3125 C 244.984375 601.886719 264.402344 613.402344 285.363281 622.164062 L 298.253906 713.238281 C 299.628906 721.316406 306.671875 727.675781 315.265625 727.675781 L 452.734375 727.675781 C 461.328125 727.675781 468.371094 721.316406 469.746094 713.238281 L 482.636719 622.164062 C 503.597656 613.402344 523.015625 602.058594 540.714844 588.3125 L 626.292969 622.851562 C 634.023438 625.773438 642.960938 622.851562 647.253906 615.464844 L 715.992188 496.378906 C 720.285156 488.992188 718.398438 479.710938 711.867188 474.382812 Z M 384 504.285156 C 317.5 504.285156 263.714844 450.5 263.714844 383.996094 C 263.714844 317.496094 317.5 263.710938 384 263.710938 C 450.5 263.710938 504.285156 317.496094 504.285156 383.996094 C 504.285156 450.5 450.5 504.285156 384 504.285156 Z M 384 504.285156 "/></g></svg>