<svg xmlns="http://www.w3.org/2000/svg" xmlns:xlink="http://www.w3.org/1999/xlink" width="1024" zoomAndPan="magnify" viewBox="0 0 768 767.999994" height="1024" preserveAspectRatio="xMidYMid meet" version="1.2"><g id="7ac3935606"><path style=" stroke:none;fill-rule:nonzero;fill:#000000;fill-opacity:1;" d="M 639.257812 417.671875 C 640.632812 406.671875 641.664062 395.496094 641.664062 384.148438 C 641.664062 372.804688 640.632812 361.628906 639.257812 350.625 L 711.933594 293.722656 C 718.464844 288.566406 720.351562 279.28125 716.058594 271.71875 L 647.332031 152.582031 C 643.039062 145.191406 634.105469 142.09375 626.371094 145.191406 L 540.8125 179.746094 C 523.113281 166.164062 503.699219 154.644531 482.738281 145.878906 L 469.851562 54.761719 C 468.304688 46.683594 461.261719 40.320312 452.671875 40.320312 L 315.222656 40.320312 C 306.632812 40.320312 299.585938 46.683594 298.214844 54.761719 L 285.328125 145.878906 C 264.367188 154.644531 244.953125 165.992188 227.253906 179.746094 L 141.691406 145.191406 C 133.960938 142.265625 125.027344 145.191406 120.730469 152.582031 L 52.007812 271.71875 C 47.710938 279.109375 49.601562 288.394531 56.132812 293.722656 L 128.636719 350.625 C 127.261719 361.628906 126.230469 372.804688 126.230469 384.148438 C 126.230469 395.496094 127.261719 406.671875 128.636719 417.671875 L 56.132812 474.578125 C 49.601562 479.734375 47.710938 489.015625 52.007812 496.582031 L 120.730469 615.71875 C 125.027344 623.109375 133.960938 626.203125 141.691406 623.109375 L 227.253906 588.554688 C 244.953125 602.136719 264.367188 613.65625 285.328125 622.421875 L 298.214844 713.535156 C 299.585938 721.617188 306.632812 727.976562 315.222656 727.976562 L 452.671875 727.976562 C 461.261719 727.976562 468.304688 721.617188 469.679688 713.535156 L 482.566406 622.421875 C 503.527344 613.65625 522.941406 602.308594 540.640625 588.554688 L 626.199219 623.109375 C 633.933594 626.03125 642.867188 623.109375 647.160156 615.71875 L 715.886719 496.582031 C 720.183594 489.1875 718.292969 479.90625 711.761719 474.578125 Z M 383.945312 504.488281 C 317.457031 504.488281 263.679688 450.679688 263.679688 384.148438 C 263.679688 317.621094 317.457031 263.808594 383.945312 263.808594 C 450.4375 263.808594 504.214844 317.621094 504.214844 384.148438 C 504.214844 450.679688 450.4375 504.488281 383.945312 504.488281 Z M 383.945312 504.488281 "/></g></svg>