<svg xmlns="http://www.w3.org/2000/svg" xmlns:xlink="http://www.w3.org/1999/xlink" width="1024" zoomAndPan="magnify" viewBox="0 0 768 767.999994" height="1024" preserveAspectRatio="xMidYMid meet" version="1.2"><defs><clipPath id="038dd9c301"><path d="M 30 65.328125 L 738 65.328125 L 738 702.828125 L 30 702.828125 Z M 30 65.328125 "/></clipPath></defs><g id="4f1dffd48f"><g clip-rule="nonzero" clip-path="url(#038dd9c301)"><path style=" stroke:none;fill-rule:nonzero;fill:#ffffff;fill-opacity:1;" d="M 719.046875 223.148438 L 620.289062 222.316406 L 656.707031 88.476562 C 660.183594 75.679688 652.632812 65.308594 639.855469 65.308594 L 566.109375 65.308594 C 553.3125 65.308594 540.136719 75.679688 536.644531 88.476562 L 500.496094 221.304688 L 350.761719 220.054688 L 386.566406 88.476562 C 390.042969 75.679688 382.496094 65.308594 369.714844 65.308594 L 295.972656 65.308594 C 283.175781 65.308594 269.996094 75.679688 266.503906 88.476562 L 230.972656 219.058594 L 106.5625 218.027344 C 93.3125 217.917969 79.753906 227.800781 76.296875 240.128906 L 56.351562 311.121094 C 52.894531 323.429688 60.820312 333.511719 74.089844 333.621094 L 199.546875 334.667969 L 174.675781 426.097656 L 81.53125 425.320312 C 68.28125 425.210938 54.722656 435.09375 51.265625 447.421875 L 31.300781 518.394531 C 27.84375 530.703125 35.769531 540.785156 49.039062 540.894531 L 143.21875 541.671875 L 105.710938 679.492188 C 102.238281 692.289062 109.785156 702.664062 122.5625 702.664062 L 196.308594 702.664062 C 209.105469 702.664062 222.28125 692.289062 225.777344 679.492188 L 263.011719 542.667969 L 412.742188 543.917969 L 375.851562 679.492188 C 372.375 692.289062 379.925781 702.664062 392.703125 702.664062 L 466.445312 702.664062 C 479.246094 702.664062 492.421875 692.289062 495.914062 679.492188 L 532.535156 544.914062 L 661.539062 545.980469 C 674.789062 546.089844 688.347656 536.207031 691.804688 523.878906 L 711.75 452.886719 C 715.207031 440.578125 707.28125 430.496094 694.011719 430.386719 L 563.976562 429.300781 L 588.847656 337.875 L 686.574219 338.6875 C 699.824219 338.796875 713.378906 328.914062 716.839844 316.585938 L 736.785156 245.59375 C 740.242188 233.320312 732.3125 223.257812 719.046875 223.148438 Z M 444.183594 428.34375 L 294.453125 427.09375 L 319.320312 335.664062 L 469.054688 336.914062 Z M 444.183594 428.34375 "/></g></g></svg>