<svg xmlns="http://www.w3.org/2000/svg" xmlns:xlink="http://www.w3.org/1999/xlink" width="1024" zoomAndPan="magnify" viewBox="0 0 768 767.999994" height="1024" preserveAspectRatio="xMidYMid meet" version="1.2"><defs><clipPath id="358ce857c9"><path d="M 30 65.328125 L 738 65.328125 L 738 702.828125 L 30 702.828125 Z M 30 65.328125 "/></clipPath></defs><g id="bc8817911f"><g clip-rule="nonzero" clip-path="url(#358ce857c9)"><path style=" stroke:none;fill-rule:nonzero;fill:#020000;fill-opacity:1;" d="M 719.183594 223.191406 L 620.402344 222.355469 L 656.832031 88.484375 C 660.304688 75.683594 652.757812 65.308594 639.976562 65.308594 L 566.21875 65.308594 C 553.417969 65.308594 540.238281 75.683594 536.742188 88.484375 L 500.589844 221.34375 L 350.828125 220.09375 L 386.636719 88.484375 C 390.113281 75.683594 382.566406 65.308594 369.78125 65.308594 L 296.023438 65.308594 C 283.226562 65.308594 270.042969 75.683594 266.550781 88.484375 L 231.011719 219.097656 L 106.578125 218.066406 C 93.324219 217.957031 79.765625 227.84375 76.308594 240.171875 L 56.355469 311.183594 C 52.898438 323.496094 60.828125 333.578125 74.097656 333.6875 L 199.582031 334.738281 L 174.707031 426.191406 L 81.539062 425.410156 C 68.289062 425.304688 54.726562 435.1875 51.269531 447.519531 L 31.300781 518.511719 C 27.84375 530.824219 35.773438 540.90625 49.042969 541.015625 L 143.242188 541.796875 L 105.726562 679.652344 C 102.25 692.453125 109.800781 702.828125 122.582031 702.828125 L 196.339844 702.828125 C 209.140625 702.828125 222.320312 692.453125 225.816406 679.652344 L 263.054688 542.789062 L 412.816406 544.039062 L 375.921875 679.652344 C 372.445312 692.453125 379.992188 702.828125 392.777344 702.828125 L 466.535156 702.828125 C 479.332031 702.828125 492.511719 692.453125 496.007812 679.652344 L 532.632812 545.035156 L 661.664062 546.105469 C 674.917969 546.210938 688.476562 536.328125 691.933594 523.996094 L 711.886719 452.988281 C 715.34375 440.675781 707.414062 430.589844 694.144531 430.480469 L 564.082031 429.394531 L 588.957031 337.941406 L 686.703125 338.757812 C 699.957031 338.867188 713.515625 328.980469 716.972656 316.652344 L 736.925781 245.640625 C 740.382812 233.363281 732.453125 223.296875 719.183594 223.191406 Z M 444.265625 428.433594 L 294.503906 427.1875 L 319.378906 335.734375 L 469.140625 336.984375 Z M 444.265625 428.433594 "/></g></g></svg>