<svg xmlns="http://www.w3.org/2000/svg" xmlns:xlink="http://www.w3.org/1999/xlink" width="1024" zoomAndPan="magnify" viewBox="0 0 768 767.999994" height="1024" preserveAspectRatio="xMidYMid meet" version="1.0"><defs><clipPath id="0b8191caa0"><path d="M 0 44.640625 L 768 44.640625 L 768 723.390625 L 0 723.390625 Z M 0 44.640625 " clip-rule="nonzero"/></clipPath><clipPath id="bb2db095e3"><path d="M 0 0.640625 L 768 0.640625 L 768 679.355469 L 0 679.355469 Z M 0 0.640625 " clip-rule="nonzero"/></clipPath><clipPath id="b18b906818"><rect x="0" width="768" y="0" height="680"/></clipPath></defs><g clip-path="url(#0b8191caa0)"><g transform="matrix(1, 0, 0, 1, 0, 44)"><g clip-path="url(#b18b906818)"><g clip-path="url(#bb2db095e3)"><path fill="#000000" d="M 678.355469 0.878906 L 90.179688 0.878906 C 40.820312 0.878906 0.664062 41.035156 0.664062 90.394531 L 0.664062 590.089844 C 0.664062 639.453125 40.820312 679.609375 90.179688 679.609375 L 678.34375 679.609375 C 727.703125 679.609375 767.855469 639.453125 767.855469 590.089844 L 767.855469 90.394531 C 767.867188 41.035156 727.710938 0.878906 678.355469 0.878906 Z M 90.179688 626.949219 C 69.851562 626.949219 53.320312 610.417969 53.320312 590.089844 L 53.320312 90.394531 C 53.320312 70.074219 69.851562 53.535156 90.179688 53.535156 L 678.34375 53.535156 C 698.664062 53.535156 715.203125 70.074219 715.203125 90.394531 L 715.203125 590.089844 C 715.203125 610.417969 698.664062 626.949219 678.34375 626.949219 Z M 90.179688 626.949219 " fill-opacity="1" fill-rule="nonzero"/></g><path fill="#000000" d="M 123.511719 487.183594 L 150.777344 487.183594 L 150.777344 114.722656 C 150.777344 108.203125 156.066406 102.917969 162.582031 102.917969 L 208.851562 102.917969 C 215.367188 102.917969 220.65625 108.203125 220.65625 114.722656 L 220.65625 487.183594 L 247.921875 487.183594 C 258.0625 487.183594 263.34375 499.265625 256.449219 506.707031 L 194.246094 573.839844 C 189.640625 578.804688 181.792969 578.804688 177.195312 573.839844 L 114.988281 506.707031 C 108.089844 499.265625 113.371094 487.183594 123.511719 487.183594 Z M 123.511719 487.183594 " fill-opacity="1" fill-rule="nonzero"/><path fill="#000000" d="M 275.511719 464.054688 L 275.511719 510.308594 C 275.511719 516.832031 280.796875 522.125 287.328125 522.125 L 644.851562 522.125 C 651.375 522.125 656.660156 516.839844 656.660156 510.308594 L 656.660156 464.054688 C 656.660156 457.53125 651.375 452.238281 644.851562 452.238281 L 287.328125 452.238281 C 280.796875 452.238281 275.511719 457.53125 275.511719 464.054688 Z M 275.511719 464.054688 " fill-opacity="1" fill-rule="nonzero"/><path fill="#000000" d="M 275.511719 347.613281 L 275.511719 393.867188 C 275.511719 400.394531 280.796875 405.683594 287.328125 405.683594 L 549.5625 405.683594 C 556.085938 405.683594 561.371094 400.398438 561.371094 393.867188 L 561.371094 347.613281 C 561.371094 341.089844 556.085938 335.800781 549.5625 335.800781 L 287.328125 335.800781 C 280.796875 335.800781 275.511719 341.089844 275.511719 347.613281 Z M 275.511719 347.613281 " fill-opacity="1" fill-rule="nonzero"/><path fill="#000000" d="M 275.511719 231.175781 L 275.511719 277.429688 C 275.511719 283.953125 280.796875 289.246094 287.328125 289.246094 L 478.097656 289.246094 C 484.621094 289.246094 489.914062 283.957031 489.914062 277.429688 L 489.914062 231.175781 C 489.914062 224.648438 484.628906 219.359375 478.097656 219.359375 L 287.328125 219.359375 C 280.796875 219.359375 275.511719 224.648438 275.511719 231.175781 Z M 275.511719 231.175781 " fill-opacity="1" fill-rule="nonzero"/><path fill="#000000" d="M 275.511719 114.734375 L 275.511719 160.988281 C 275.511719 167.511719 280.796875 172.796875 287.328125 172.796875 L 424.5 172.796875 C 431.027344 172.796875 436.316406 167.511719 436.316406 160.988281 L 436.316406 114.734375 C 436.316406 108.210938 431.03125 102.917969 424.5 102.917969 L 287.328125 102.917969 C 280.796875 102.921875 275.511719 108.210938 275.511719 114.734375 Z M 275.511719 114.734375 " fill-opacity="1" fill-rule="nonzero"/></g></g></g></svg>