<svg xmlns="http://www.w3.org/2000/svg" xmlns:xlink="http://www.w3.org/1999/xlink" width="1024" zoomAndPan="magnify" viewBox="0 0 768 767.999994" height="1024" preserveAspectRatio="xMidYMid meet" version="1.0"><defs><clipPath id="bed8b32ea2"><path d="M 0 44.640625 L 768 44.640625 L 768 723.390625 L 0 723.390625 Z M 0 44.640625 " clip-rule="nonzero"/></clipPath><clipPath id="3eb5a01a44"><path d="M 0 0.640625 L 768 0.640625 L 768 679.355469 L 0 679.355469 Z M 0 0.640625 " clip-rule="nonzero"/></clipPath><clipPath id="f157407f23"><rect x="0" width="768" y="0" height="680"/></clipPath></defs><g clip-path="url(#bed8b32ea2)"><g transform="matrix(1, 0, 0, 1, 0, 44)"><g clip-path="url(#f157407f23)"><g clip-path="url(#3eb5a01a44)"><path fill="#ffffff" d="M 678.355469 0.914062 L 90.179688 0.914062 C 40.820312 0.914062 0.664062 41.066406 0.664062 90.425781 L 0.664062 590.09375 C 0.664062 639.453125 40.820312 679.609375 90.179688 679.609375 L 678.34375 679.609375 C 727.703125 679.609375 767.855469 639.453125 767.855469 590.09375 L 767.855469 90.425781 C 767.867188 41.066406 727.710938 0.914062 678.355469 0.914062 Z M 90.179688 626.953125 C 69.851562 626.953125 53.320312 610.417969 53.320312 590.09375 L 53.320312 90.425781 C 53.320312 70.105469 69.851562 53.566406 90.179688 53.566406 L 678.34375 53.566406 C 698.664062 53.566406 715.203125 70.105469 715.203125 90.425781 L 715.203125 590.09375 C 715.203125 610.417969 698.664062 626.953125 678.34375 626.953125 Z M 90.179688 626.953125 " fill-opacity="1" fill-rule="nonzero"/></g><path fill="#ffffff" d="M 123.511719 487.191406 L 150.777344 487.191406 L 150.777344 114.753906 C 150.777344 108.234375 156.066406 102.949219 162.582031 102.949219 L 208.851562 102.949219 C 215.367188 102.949219 220.65625 108.234375 220.65625 114.753906 L 220.65625 487.191406 L 247.921875 487.191406 C 258.0625 487.191406 263.34375 499.277344 256.449219 506.71875 L 194.246094 573.847656 C 189.640625 578.8125 181.792969 578.8125 177.195312 573.847656 L 114.988281 506.71875 C 108.089844 499.277344 113.371094 487.191406 123.511719 487.191406 Z M 123.511719 487.191406 " fill-opacity="1" fill-rule="nonzero"/><path fill="#ffffff" d="M 275.511719 464.066406 L 275.511719 510.320312 C 275.511719 516.84375 280.796875 522.132812 287.328125 522.132812 L 644.851562 522.132812 C 651.375 522.132812 656.660156 516.847656 656.660156 510.320312 L 656.660156 464.066406 C 656.660156 457.542969 651.375 452.25 644.851562 452.25 L 287.328125 452.25 C 280.796875 452.25 275.511719 457.542969 275.511719 464.066406 Z M 275.511719 464.066406 " fill-opacity="1" fill-rule="nonzero"/><path fill="#ffffff" d="M 275.511719 347.632812 L 275.511719 393.882812 C 275.511719 400.40625 280.796875 405.699219 287.328125 405.699219 L 549.5625 405.699219 C 556.085938 405.699219 561.371094 400.414062 561.371094 393.882812 L 561.371094 347.632812 C 561.371094 341.109375 556.085938 335.816406 549.5625 335.816406 L 287.328125 335.816406 C 280.796875 335.816406 275.511719 341.109375 275.511719 347.632812 Z M 275.511719 347.632812 " fill-opacity="1" fill-rule="nonzero"/><path fill="#ffffff" d="M 275.511719 231.199219 L 275.511719 277.449219 C 275.511719 283.972656 280.796875 289.265625 287.328125 289.265625 L 478.097656 289.265625 C 484.621094 289.265625 489.914062 283.976562 489.914062 277.449219 L 489.914062 231.199219 C 489.914062 224.671875 484.628906 219.382812 478.097656 219.382812 L 287.328125 219.382812 C 280.796875 219.382812 275.511719 224.671875 275.511719 231.199219 Z M 275.511719 231.199219 " fill-opacity="1" fill-rule="nonzero"/><path fill="#ffffff" d="M 275.511719 114.761719 L 275.511719 161.015625 C 275.511719 167.539062 280.796875 172.824219 287.328125 172.824219 L 424.5 172.824219 C 431.027344 172.824219 436.316406 167.539062 436.316406 161.015625 L 436.316406 114.761719 C 436.316406 108.238281 431.03125 102.949219 424.5 102.949219 L 287.328125 102.949219 C 280.796875 102.953125 275.511719 108.238281 275.511719 114.761719 Z M 275.511719 114.761719 " fill-opacity="1" fill-rule="nonzero"/></g></g></g></svg>