<svg xmlns="http://www.w3.org/2000/svg" xmlns:xlink="http://www.w3.org/1999/xlink" width="1024" zoomAndPan="magnify" viewBox="0 0 768 767.999994" height="1024" preserveAspectRatio="xMidYMid meet" version="1.0"><defs><clipPath id="0ec0488f13"><path d="M 2 51.839844 L 768 51.839844 L 768 716 L 2 716 Z M 2 51.839844 " clip-rule="nonzero"/></clipPath><clipPath id="34b52e0025"><path d="M 4 0.839844 L 211 0.839844 L 211 664 L 4 664 Z M 4 0.839844 " clip-rule="nonzero"/></clipPath><clipPath id="e48211eb20"><path d="M 233 0.839844 L 458 0.839844 L 458 99 L 233 99 Z M 233 0.839844 " clip-rule="nonzero"/></clipPath><clipPath id="9cc36d158e"><rect x="0" width="766" y="0" height="665"/></clipPath></defs><g clip-path="url(#0ec0488f13)"><g transform="matrix(1, 0, 0, 1, 2, 51)"><g clip-path="url(#9cc36d158e)"><g clip-path="url(#34b52e0025)"><path fill="#ffffff" d="M 20.765625 537.378906 L 58.835938 537.378906 L 58.835938 17.339844 C 58.835938 8.242188 66.214844 0.859375 75.316406 0.859375 L 139.921875 0.859375 C 149.023438 0.859375 156.402344 8.242188 156.402344 17.339844 L 156.402344 537.378906 L 194.472656 537.378906 C 208.636719 537.378906 216.003906 554.246094 206.378906 564.640625 L 119.527344 658.375 C 113.101562 665.308594 102.136719 665.308594 95.71875 658.375 L 8.863281 564.640625 C -0.765625 554.253906 6.605469 537.378906 20.765625 537.378906 Z M 20.765625 537.378906 " fill-opacity="1" fill-rule="nonzero"/></g><path fill="#ffffff" d="M 233 505.089844 L 233 569.667969 C 233 578.78125 240.382812 586.167969 249.496094 586.167969 L 748.703125 586.167969 C 757.816406 586.167969 765.195312 578.78125 765.195312 569.667969 L 765.195312 505.089844 C 765.195312 495.976562 757.8125 488.59375 748.703125 488.59375 L 249.496094 488.59375 C 240.382812 488.59375 233 495.976562 233 505.089844 Z M 233 505.089844 " fill-opacity="1" fill-rule="nonzero"/><path fill="#ffffff" d="M 233 342.511719 L 233 407.09375 C 233 416.203125 240.382812 423.589844 249.496094 423.589844 L 615.65625 423.589844 C 624.765625 423.589844 632.148438 416.203125 632.148438 407.09375 L 632.148438 342.511719 C 632.148438 333.402344 624.761719 326.015625 615.65625 326.015625 L 249.496094 326.015625 C 240.382812 326.015625 233 333.402344 233 342.511719 Z M 233 342.511719 " fill-opacity="1" fill-rule="nonzero"/><path fill="#ffffff" d="M 233 179.933594 L 233 244.515625 C 233 253.625 240.382812 261.011719 249.496094 261.011719 L 515.867188 261.011719 C 524.980469 261.011719 532.363281 253.625 532.363281 244.515625 L 532.363281 179.933594 C 532.363281 170.824219 524.980469 163.4375 515.867188 163.4375 L 249.496094 163.4375 C 240.382812 163.4375 233 170.824219 233 179.933594 Z M 233 179.933594 " fill-opacity="1" fill-rule="nonzero"/><g clip-path="url(#e48211eb20)"><path fill="#ffffff" d="M 233 17.355469 L 233 81.9375 C 233 91.046875 240.382812 98.429688 249.496094 98.429688 L 441.035156 98.429688 C 450.148438 98.429688 457.53125 91.042969 457.53125 81.9375 L 457.53125 17.355469 C 457.53125 8.246094 450.148438 0.859375 441.035156 0.859375 L 249.496094 0.859375 C 240.382812 0.867188 233 8.246094 233 17.355469 Z M 233 17.355469 " fill-opacity="1" fill-rule="nonzero"/></g></g></g></g></svg>