<svg xmlns="http://www.w3.org/2000/svg" xmlns:xlink="http://www.w3.org/1999/xlink" width="1024" zoomAndPan="magnify" viewBox="0 0 768 767.999994" height="1024" preserveAspectRatio="xMidYMid meet" version="1.0"><defs><clipPath id="7f3b263677"><path d="M 0 51.839844 L 768 51.839844 L 768 716.339844 L 0 716.339844 Z M 0 51.839844 " clip-rule="nonzero"/></clipPath><clipPath id="f7336928a3"><path d="M 6 0.839844 L 213 0.839844 L 213 664 L 6 664 Z M 6 0.839844 " clip-rule="nonzero"/></clipPath><clipPath id="2480771b9c"><path d="M 235 0.839844 L 460 0.839844 L 460 99 L 235 99 Z M 235 0.839844 " clip-rule="nonzero"/></clipPath><clipPath id="d4b8eb7608"><rect x="0" width="768" y="0" height="666"/></clipPath></defs><g clip-path="url(#7f3b263677)"><g transform="matrix(1, 0, 0, 1, 0, 51)"><g clip-path="url(#d4b8eb7608)"><g clip-path="url(#f7336928a3)"><path fill="#000000" d="M 22.765625 537.339844 L 60.835938 537.339844 L 60.835938 17.160156 C 60.835938 8.054688 68.214844 0.671875 77.316406 0.671875 L 141.921875 0.671875 C 151.023438 0.671875 158.402344 8.054688 158.402344 17.160156 L 158.402344 537.339844 L 196.472656 537.339844 C 210.636719 537.339844 218.003906 554.214844 208.378906 564.609375 L 121.527344 658.371094 C 115.101562 665.308594 104.136719 665.308594 97.71875 658.371094 L 10.863281 564.609375 C 1.234375 554.222656 8.605469 537.339844 22.765625 537.339844 Z M 22.765625 537.339844 " fill-opacity="1" fill-rule="nonzero"/></g><path fill="#000000" d="M 235 505.042969 L 235 569.644531 C 235 578.757812 242.382812 586.144531 251.496094 586.144531 L 750.703125 586.144531 C 759.816406 586.144531 767.195312 578.757812 767.195312 569.644531 L 767.195312 505.042969 C 767.195312 495.929688 759.8125 488.542969 750.703125 488.542969 L 251.496094 488.542969 C 242.382812 488.542969 235 495.929688 235 505.042969 Z M 235 505.042969 " fill-opacity="1" fill-rule="nonzero"/><path fill="#000000" d="M 235 342.421875 L 235 407.019531 C 235 416.132812 242.382812 423.519531 251.496094 423.519531 L 617.65625 423.519531 C 626.765625 423.519531 634.148438 416.132812 634.148438 407.019531 L 634.148438 342.421875 C 634.148438 333.308594 626.761719 325.921875 617.65625 325.921875 L 251.496094 325.921875 C 242.382812 325.921875 235 333.308594 235 342.421875 Z M 235 342.421875 " fill-opacity="1" fill-rule="nonzero"/><path fill="#000000" d="M 235 179.796875 L 235 244.394531 C 235 253.511719 242.382812 260.898438 251.496094 260.898438 L 517.867188 260.898438 C 526.980469 260.898438 534.363281 253.511719 534.363281 244.394531 L 534.363281 179.796875 C 534.363281 170.683594 526.980469 163.296875 517.867188 163.296875 L 251.496094 163.296875 C 242.382812 163.296875 235 170.683594 235 179.796875 Z M 235 179.796875 " fill-opacity="1" fill-rule="nonzero"/><g clip-path="url(#2480771b9c)"><path fill="#000000" d="M 235 17.175781 L 235 81.773438 C 235 90.886719 242.382812 98.269531 251.496094 98.269531 L 443.035156 98.269531 C 452.148438 98.269531 459.53125 90.882812 459.53125 81.773438 L 459.53125 17.175781 C 459.53125 8.058594 452.148438 0.671875 443.035156 0.671875 L 251.496094 0.671875 C 242.382812 0.679688 235 8.058594 235 17.175781 Z M 235 17.175781 " fill-opacity="1" fill-rule="nonzero"/></g></g></g></g></svg>