<svg xmlns="http://www.w3.org/2000/svg" xmlns:xlink="http://www.w3.org/1999/xlink" width="1024" zoomAndPan="magnify" viewBox="0 0 768 767.999994" height="1024" preserveAspectRatio="xMidYMid meet" version="1.0"><defs><clipPath id="a28047b283"><path d="M 6 51.839844 L 213 51.839844 L 213 715 L 6 715 Z M 6 51.839844 " clip-rule="nonzero"/></clipPath><clipPath id="60545eba91"><path d="M 235 51.839844 L 768 51.839844 L 768 150 L 235 150 Z M 235 51.839844 " clip-rule="nonzero"/></clipPath></defs><g clip-path="url(#a28047b283)"><path fill="#ff007f" d="M 196.484375 588.378906 L 158.414062 588.378906 L 158.414062 68.347656 C 158.414062 59.246094 151.035156 51.867188 141.933594 51.867188 L 77.320312 51.867188 C 68.222656 51.867188 60.839844 59.246094 60.839844 68.347656 L 60.839844 588.382812 L 22.773438 588.382812 C 8.609375 588.382812 1.238281 605.253906 10.863281 615.644531 L 97.722656 709.378906 C 104.148438 716.3125 115.113281 716.3125 121.53125 709.378906 L 208.390625 615.644531 C 218.011719 605.253906 210.644531 588.378906 196.484375 588.378906 Z M 196.484375 588.378906 " fill-opacity="1" fill-rule="nonzero"/></g><g clip-path="url(#60545eba91)"><path fill="#ff007f" d="M 235 132.941406 L 235 68.355469 C 235 59.246094 242.382812 51.859375 251.496094 51.859375 L 750.703125 51.859375 C 759.816406 51.859375 767.195312 59.246094 767.195312 68.355469 L 767.195312 132.9375 C 767.195312 142.046875 759.8125 149.433594 750.703125 149.433594 L 251.496094 149.433594 C 242.382812 149.433594 235 142.046875 235 132.941406 Z M 235 132.941406 " fill-opacity="1" fill-rule="nonzero"/></g><path fill="#ff007f" d="M 235 295.515625 L 235 230.933594 C 235 221.824219 242.382812 214.4375 251.496094 214.4375 L 617.65625 214.4375 C 626.765625 214.4375 634.148438 221.824219 634.148438 230.933594 L 634.148438 295.515625 C 634.148438 304.625 626.761719 312.011719 617.65625 312.011719 L 251.496094 312.011719 C 242.382812 312.011719 235 304.625 235 295.515625 Z M 235 295.515625 " fill-opacity="1" fill-rule="nonzero"/><path fill="#ff007f" d="M 235 458.09375 L 235 393.511719 C 235 384.402344 242.382812 377.015625 251.496094 377.015625 L 517.867188 377.015625 C 526.980469 377.015625 534.363281 384.402344 534.363281 393.511719 L 534.363281 458.09375 C 534.363281 467.203125 526.980469 474.589844 517.867188 474.589844 L 251.496094 474.589844 C 242.382812 474.589844 235 467.203125 235 458.09375 Z M 235 458.09375 " fill-opacity="1" fill-rule="nonzero"/><path fill="#ff007f" d="M 235 620.671875 L 235 556.089844 C 235 546.976562 242.382812 539.59375 251.496094 539.59375 L 443.035156 539.59375 C 452.148438 539.59375 459.53125 546.976562 459.53125 556.089844 L 459.53125 620.671875 C 459.53125 629.78125 452.148438 637.167969 443.035156 637.167969 L 251.496094 637.167969 C 242.382812 637.167969 235 629.78125 235 620.671875 Z M 235 620.671875 " fill-opacity="1" fill-rule="nonzero"/></svg>