<svg xmlns="http://www.w3.org/2000/svg" xmlns:xlink="http://www.w3.org/1999/xlink" width="1024" zoomAndPan="magnify" viewBox="0 0 768 767.999994" height="1024" preserveAspectRatio="xMidYMid meet" version="1.0"><defs><clipPath id="542c808749"><path d="M 0 44.640625 L 768 44.640625 L 768 723.390625 L 0 723.390625 Z M 0 44.640625 " clip-rule="nonzero"/></clipPath></defs><path fill="#000000" d="M 247.882812 530.734375 L 220.609375 530.734375 L 220.609375 158.164062 C 220.609375 151.644531 215.320312 146.359375 208.804688 146.359375 L 162.515625 146.359375 C 155.996094 146.359375 150.710938 151.644531 150.710938 158.164062 L 150.710938 530.742188 L 123.433594 530.742188 C 113.289062 530.742188 108.007812 542.828125 114.90625 550.273438 L 177.132812 617.429688 C 181.734375 622.394531 189.589844 622.394531 194.1875 617.429688 L 256.414062 550.273438 C 263.300781 542.824219 258.03125 530.734375 247.882812 530.734375 Z M 247.882812 530.734375 " fill-opacity="1" fill-rule="nonzero"/><path fill="#000000" d="M 275.472656 204.4375 L 275.472656 158.167969 C 275.472656 151.640625 280.765625 146.351562 287.289062 146.351562 L 644.929688 146.351562 C 651.457031 146.351562 656.746094 151.644531 656.746094 158.167969 L 656.746094 204.4375 C 656.746094 210.96875 651.453125 216.253906 644.929688 216.253906 L 287.289062 216.253906 C 280.765625 216.253906 275.472656 210.960938 275.472656 204.4375 Z M 275.472656 204.4375 " fill-opacity="1" fill-rule="nonzero"/><path fill="#000000" d="M 275.472656 320.917969 L 275.472656 274.644531 C 275.472656 268.117188 280.765625 262.828125 287.289062 262.828125 L 549.609375 262.828125 C 556.136719 262.828125 561.425781 268.121094 561.425781 274.644531 L 561.425781 320.917969 C 561.425781 327.445312 556.132812 332.730469 549.609375 332.730469 L 287.289062 332.730469 C 280.765625 332.730469 275.472656 327.445312 275.472656 320.917969 Z M 275.472656 320.917969 " fill-opacity="1" fill-rule="nonzero"/><path fill="#000000" d="M 275.472656 437.394531 L 275.472656 391.125 C 275.472656 384.59375 280.765625 379.308594 287.289062 379.308594 L 478.125 379.308594 C 484.652344 379.308594 489.941406 384.597656 489.941406 391.125 L 489.941406 437.394531 C 489.941406 443.921875 484.648438 449.210938 478.125 449.210938 L 287.289062 449.210938 C 280.765625 449.210938 275.472656 443.921875 275.472656 437.394531 Z M 275.472656 437.394531 " fill-opacity="1" fill-rule="nonzero"/><path fill="#000000" d="M 275.472656 553.871094 L 275.472656 507.601562 C 275.472656 501.070312 280.765625 495.785156 287.289062 495.785156 L 424.511719 495.785156 C 431.042969 495.785156 436.328125 501.078125 436.328125 507.601562 L 436.328125 553.871094 C 436.328125 560.402344 431.035156 565.6875 424.511719 565.6875 L 287.289062 565.6875 C 280.765625 565.691406 275.472656 560.402344 275.472656 553.871094 Z M 275.472656 553.871094 " fill-opacity="1" fill-rule="nonzero"/><g clip-path="url(#542c808749)"><path fill="#000000" d="M 678.347656 723.117188 L 90.179688 723.117188 C 40.820312 723.117188 0.664062 682.960938 0.664062 633.597656 L 0.664062 133.90625 C 0.664062 84.542969 40.820312 44.386719 90.179688 44.386719 L 678.34375 44.386719 C 727.703125 44.386719 767.855469 84.542969 767.855469 133.90625 L 767.855469 633.597656 C 767.859375 682.960938 727.707031 723.117188 678.347656 723.117188 Z M 90.179688 97.042969 C 69.851562 97.042969 53.320312 113.578125 53.320312 133.90625 L 53.320312 633.597656 C 53.320312 653.917969 69.851562 670.460938 90.179688 670.460938 L 678.34375 670.460938 C 698.664062 670.460938 715.203125 653.917969 715.203125 633.597656 L 715.203125 133.90625 C 715.203125 113.578125 698.664062 97.042969 678.34375 97.042969 Z M 90.179688 97.042969 " fill-opacity="1" fill-rule="nonzero"/></g></svg>