<svg xmlns="http://www.w3.org/2000/svg" xmlns:xlink="http://www.w3.org/1999/xlink" width="1024" zoomAndPan="magnify" viewBox="0 0 768 767.999994" height="1024" preserveAspectRatio="xMidYMid meet" version="1.0"><defs><clipPath id="970756ae85"><path d="M 0 44.640625 L 768 44.640625 L 768 723.390625 L 0 723.390625 Z M 0 44.640625 " clip-rule="nonzero"/></clipPath></defs><path fill="#ffffff" d="M 247.882812 530.707031 L 220.609375 530.707031 L 220.609375 158.15625 C 220.609375 151.640625 215.320312 146.351562 208.804688 146.351562 L 162.515625 146.351562 C 155.996094 146.351562 150.710938 151.640625 150.710938 158.15625 L 150.710938 530.71875 L 123.433594 530.71875 C 113.289062 530.71875 108.007812 542.804688 114.90625 550.25 L 177.132812 617.398438 C 181.734375 622.363281 189.589844 622.363281 194.1875 617.398438 L 256.414062 550.25 C 263.300781 542.796875 258.03125 530.707031 247.882812 530.707031 Z M 247.882812 530.707031 " fill-opacity="1" fill-rule="nonzero"/><path fill="#ffffff" d="M 275.472656 204.429688 L 275.472656 158.164062 C 275.472656 151.632812 280.765625 146.347656 287.289062 146.347656 L 644.929688 146.347656 C 651.457031 146.347656 656.746094 151.640625 656.746094 158.164062 L 656.746094 204.429688 C 656.746094 210.960938 651.453125 216.246094 644.929688 216.246094 L 287.289062 216.246094 C 280.765625 216.246094 275.472656 210.953125 275.472656 204.429688 Z M 275.472656 204.429688 " fill-opacity="1" fill-rule="nonzero"/><path fill="#ffffff" d="M 275.472656 320.902344 L 275.472656 274.632812 C 275.472656 268.105469 280.765625 262.820312 287.289062 262.820312 L 549.609375 262.820312 C 556.136719 262.820312 561.425781 268.109375 561.425781 274.632812 L 561.425781 320.902344 C 561.425781 327.429688 556.132812 332.71875 549.609375 332.71875 L 287.289062 332.71875 C 280.765625 332.71875 275.472656 327.429688 275.472656 320.902344 Z M 275.472656 320.902344 " fill-opacity="1" fill-rule="nonzero"/><path fill="#ffffff" d="M 275.472656 437.375 L 275.472656 391.105469 C 275.472656 384.578125 280.765625 379.289062 287.289062 379.289062 L 478.125 379.289062 C 484.652344 379.289062 489.941406 384.582031 489.941406 391.105469 L 489.941406 437.375 C 489.941406 443.902344 484.648438 449.1875 478.125 449.1875 L 287.289062 449.1875 C 280.765625 449.1875 275.472656 443.902344 275.472656 437.375 Z M 275.472656 437.375 " fill-opacity="1" fill-rule="nonzero"/><path fill="#ffffff" d="M 275.472656 553.84375 L 275.472656 507.578125 C 275.472656 501.046875 280.765625 495.761719 287.289062 495.761719 L 424.511719 495.761719 C 431.042969 495.761719 436.328125 501.054688 436.328125 507.578125 L 436.328125 553.84375 C 436.328125 560.375 431.035156 565.660156 424.511719 565.660156 L 287.289062 565.660156 C 280.765625 565.664062 275.472656 560.375 275.472656 553.84375 Z M 275.472656 553.84375 " fill-opacity="1" fill-rule="nonzero"/><g clip-path="url(#970756ae85)"><path fill="#ffffff" d="M 678.347656 723.082031 L 90.179688 723.082031 C 40.820312 723.082031 0.664062 682.925781 0.664062 633.570312 L 0.664062 133.898438 C 0.664062 84.542969 40.820312 44.386719 90.179688 44.386719 L 678.34375 44.386719 C 727.703125 44.386719 767.855469 84.542969 767.855469 133.898438 L 767.855469 633.570312 C 767.859375 682.925781 727.707031 723.082031 678.347656 723.082031 Z M 90.179688 97.042969 C 69.851562 97.042969 53.320312 113.574219 53.320312 133.898438 L 53.320312 633.570312 C 53.320312 653.886719 69.851562 670.425781 90.179688 670.425781 L 678.34375 670.425781 C 698.664062 670.425781 715.203125 653.886719 715.203125 633.570312 L 715.203125 133.898438 C 715.203125 113.574219 698.664062 97.042969 678.34375 97.042969 Z M 90.179688 97.042969 " fill-opacity="1" fill-rule="nonzero"/></g></svg>