<svg xmlns="http://www.w3.org/2000/svg" xmlns:xlink="http://www.w3.org/1999/xlink" width="1024" zoomAndPan="magnify" viewBox="0 0 768 767.999994" height="1024" preserveAspectRatio="xMidYMid meet" version="1.0"><defs><clipPath id="0a6dd789af"><path d="M 6 51.839844 L 213 51.839844 L 213 715 L 6 715 Z M 6 51.839844 " clip-rule="nonzero"/></clipPath><clipPath id="a8acc2c5e0"><path d="M 235 51.839844 L 768 51.839844 L 768 150 L 235 150 Z M 235 51.839844 " clip-rule="nonzero"/></clipPath></defs><g clip-path="url(#0a6dd789af)"><path fill="#000000" d="M 196.484375 588.527344 L 158.414062 588.527344 L 158.414062 68.351562 C 158.414062 59.246094 151.035156 51.867188 141.933594 51.867188 L 77.320312 51.867188 C 68.222656 51.867188 60.839844 59.246094 60.839844 68.351562 L 60.839844 588.535156 L 22.773438 588.535156 C 8.609375 588.535156 1.238281 605.410156 10.863281 615.804688 L 97.722656 709.566406 C 104.148438 716.5 115.113281 716.5 121.53125 709.566406 L 208.390625 615.804688 C 218.011719 605.410156 210.644531 588.527344 196.484375 588.527344 Z M 196.484375 588.527344 " fill-opacity="1" fill-rule="nonzero"/></g><g clip-path="url(#a8acc2c5e0)"><path fill="#000000" d="M 235 132.964844 L 235 68.363281 C 235 59.246094 242.382812 51.859375 251.496094 51.859375 L 750.703125 51.859375 C 759.816406 51.859375 767.195312 59.246094 767.195312 68.363281 L 767.195312 132.960938 C 767.195312 142.074219 759.8125 149.460938 750.703125 149.460938 L 251.496094 149.460938 C 242.382812 149.460938 235 142.074219 235 132.964844 Z M 235 132.964844 " fill-opacity="1" fill-rule="nonzero"/></g><path fill="#000000" d="M 235 295.582031 L 235 230.984375 C 235 221.871094 242.382812 214.484375 251.496094 214.484375 L 617.65625 214.484375 C 626.765625 214.484375 634.148438 221.871094 634.148438 230.984375 L 634.148438 295.582031 C 634.148438 304.699219 626.761719 312.085938 617.65625 312.085938 L 251.496094 312.085938 C 242.382812 312.085938 235 304.699219 235 295.582031 Z M 235 295.582031 " fill-opacity="1" fill-rule="nonzero"/><path fill="#000000" d="M 235 458.207031 L 235 393.609375 C 235 384.496094 242.382812 377.109375 251.496094 377.109375 L 517.867188 377.109375 C 526.980469 377.109375 534.363281 384.496094 534.363281 393.609375 L 534.363281 458.207031 C 534.363281 467.320312 526.980469 474.707031 517.867188 474.707031 L 251.496094 474.707031 C 242.382812 474.707031 235 467.320312 235 458.207031 Z M 235 458.207031 " fill-opacity="1" fill-rule="nonzero"/><path fill="#000000" d="M 235 620.832031 L 235 556.230469 C 235 547.117188 242.382812 539.730469 251.496094 539.730469 L 443.035156 539.730469 C 452.148438 539.730469 459.53125 547.117188 459.53125 556.230469 L 459.53125 620.832031 C 459.53125 629.945312 452.148438 637.332031 443.035156 637.332031 L 251.496094 637.332031 C 242.382812 637.332031 235 629.945312 235 620.832031 Z M 235 620.832031 " fill-opacity="1" fill-rule="nonzero"/></svg>