<svg xmlns="http://www.w3.org/2000/svg" xmlns:xlink="http://www.w3.org/1999/xlink" width="1024" zoomAndPan="magnify" viewBox="0 0 768 767.999994" height="1024" preserveAspectRatio="xMidYMid meet" version="1.0"><path fill="#ffffff" d="M 158.335938 43.339844 C 158.21875 42.03125 158.171875 40.722656 158.191406 39.410156 C 158.207031 38.097656 158.296875 36.792969 158.449219 35.488281 C 158.605469 34.1875 158.828125 32.894531 159.117188 31.617188 C 159.402344 30.335938 159.757812 29.074219 160.179688 27.832031 C 160.597656 26.589844 161.082031 25.371094 161.625 24.179688 C 162.171875 22.984375 162.78125 21.824219 163.445312 20.695312 C 164.113281 19.566406 164.835938 18.472656 165.617188 17.417969 C 166.398438 16.363281 167.230469 15.351562 168.117188 14.382812 C 169 13.414062 169.933594 12.496094 170.914062 11.625 C 171.894531 10.753906 172.917969 9.9375 173.984375 9.171875 C 175.050781 8.40625 176.152344 7.699219 177.292969 7.046875 C 178.429688 6.398438 179.601562 5.808594 180.800781 5.277344 C 182 4.75 183.226562 4.285156 184.476562 3.882812 C 185.722656 3.480469 186.992188 3.144531 188.273438 2.875 C 189.558594 2.605469 190.851562 2.402344 192.15625 2.265625 C 193.460938 2.128906 194.769531 2.0625 196.082031 2.0625 C 197.394531 2.0625 198.703125 2.128906 200.007812 2.265625 C 201.3125 2.402344 202.605469 2.605469 203.890625 2.875 C 205.171875 3.144531 206.441406 3.480469 207.6875 3.882812 C 208.9375 4.285156 210.160156 4.75 211.363281 5.277344 C 212.5625 5.808594 213.734375 6.398438 214.871094 7.046875 C 216.011719 7.699219 217.113281 8.40625 218.179688 9.171875 C 219.246094 9.9375 220.269531 10.753906 221.25 11.625 C 222.230469 12.496094 223.164062 13.414062 224.046875 14.382812 C 224.933594 15.351562 225.765625 16.363281 226.546875 17.417969 C 227.328125 18.472656 228.050781 19.566406 228.71875 20.695312 C 229.382812 21.824219 229.992188 22.984375 230.535156 24.179688 C 231.082031 25.371094 231.566406 26.589844 231.984375 27.832031 C 232.40625 29.074219 232.761719 30.335938 233.046875 31.617188 C 233.335938 32.894531 233.558594 34.1875 233.714844 35.488281 C 233.867188 36.792969 233.957031 38.097656 233.972656 39.410156 C 233.992188 40.722656 233.945312 42.03125 233.828125 43.339844 L 233.828125 637.984375 L 320.402344 550.398438 C 321.285156 549.527344 322.207031 548.699219 323.171875 547.914062 C 324.132812 547.132812 325.132812 546.398438 326.167969 545.714844 C 327.203125 545.027344 328.269531 544.394531 329.363281 543.816406 C 330.460938 543.234375 331.585938 542.710938 332.734375 542.238281 C 333.882812 541.769531 335.050781 541.355469 336.242188 541.003906 C 337.429688 540.648438 338.632812 540.351562 339.851562 540.113281 C 341.070312 539.878906 342.296875 539.699219 343.53125 539.582031 C 344.769531 539.46875 346.007812 539.410156 347.25 539.417969 C 348.488281 539.421875 349.726562 539.488281 350.960938 539.613281 C 352.195312 539.742188 353.421875 539.929688 354.636719 540.175781 C 355.855469 540.421875 357.054688 540.726562 358.242188 541.09375 C 359.429688 541.457031 360.59375 541.878906 361.738281 542.359375 C 362.882812 542.839844 364 543.375 365.09375 543.964844 C 366.1875 544.550781 367.246094 545.195312 368.277344 545.886719 C 369.304688 546.582031 370.296875 547.324219 371.253906 548.113281 C 372.210938 548.90625 373.128906 549.742188 374 550.621094 C 374.875 551.503906 375.703125 552.425781 376.488281 553.386719 C 377.273438 554.347656 378.007812 555.347656 378.691406 556.382812 C 379.378906 557.417969 380.011719 558.484375 380.59375 559.578125 C 381.175781 560.675781 381.699219 561.796875 382.171875 562.945312 C 382.640625 564.09375 383.054688 565.265625 383.410156 566.453125 C 383.769531 567.640625 384.066406 568.84375 384.300781 570.0625 C 384.539062 571.28125 384.71875 572.507812 384.835938 573.742188 C 384.953125 574.980469 385.007812 576.21875 385.003906 577.457031 C 385 578.699219 384.9375 579.9375 384.808594 581.171875 C 384.683594 582.40625 384.5 583.632812 384.253906 584.847656 C 384.007812 586.066406 383.703125 587.265625 383.335938 588.453125 C 382.972656 589.640625 382.550781 590.804688 382.074219 591.953125 C 381.59375 593.097656 381.0625 594.214844 380.472656 595.308594 C 379.882812 596.402344 379.242188 597.460938 378.550781 598.492188 C 377.859375 599.523438 377.117188 600.515625 376.328125 601.472656 C 375.535156 602.429688 374.699219 603.34375 373.820312 604.21875 L 222.640625 756.710938 C 221.226562 757.820312 220.121094 759.03125 218.609375 760.136719 C 216.652344 761.679688 214.570312 763.023438 212.359375 764.171875 C 207.015625 766.617188 201.40625 767.859375 195.527344 767.898438 C 189.707031 767.894531 184.164062 766.652344 178.898438 764.171875 C 176.617188 762.980469 174.433594 761.636719 172.347656 760.136719 L 168.617188 756.710938 L 17.4375 604.21875 C 16.554688 603.339844 15.71875 602.421875 14.929688 601.457031 C 14.136719 600.496094 13.394531 599.5 12.703125 598.464844 C 12.007812 597.429688 11.371094 596.363281 10.78125 595.265625 C 10.191406 594.167969 9.660156 593.042969 9.183594 591.894531 C 8.707031 590.742188 8.285156 589.574219 7.921875 588.382812 C 7.558594 587.191406 7.257812 585.984375 7.011719 584.761719 C 6.769531 583.542969 6.585938 582.3125 6.460938 581.074219 C 6.339844 579.832031 6.277344 578.589844 6.273438 577.347656 C 6.273438 576.101562 6.332031 574.859375 6.453125 573.617188 C 6.574219 572.378906 6.757812 571.148438 7 569.925781 C 7.242188 568.707031 7.542969 567.5 7.902344 566.308594 C 8.261719 565.117188 8.679688 563.945312 9.15625 562.792969 C 9.632812 561.640625 10.160156 560.515625 10.746094 559.417969 C 11.332031 558.320312 11.972656 557.253906 12.664062 556.214844 C 13.355469 555.179688 14.09375 554.179688 14.882812 553.21875 C 15.671875 552.253906 16.507812 551.332031 17.386719 550.449219 C 18.265625 549.570312 19.1875 548.734375 20.148438 547.941406 C 21.109375 547.152344 22.109375 546.410156 23.144531 545.714844 C 24.179688 545.023438 25.242188 544.382812 26.339844 543.796875 C 27.4375 543.207031 28.5625 542.675781 29.714844 542.195312 C 30.863281 541.71875 32.035156 541.300781 33.226562 540.9375 C 34.417969 540.574219 35.621094 540.269531 36.84375 540.027344 C 38.066406 539.78125 39.292969 539.597656 40.535156 539.476562 C 41.773438 539.351562 43.015625 539.289062 44.261719 539.289062 C 45.503906 539.289062 46.746094 539.347656 47.988281 539.46875 C 49.226562 539.589844 50.457031 539.769531 51.679688 540.011719 C 52.898438 540.253906 54.105469 540.554688 55.300781 540.914062 C 56.492188 541.277344 57.664062 541.695312 58.8125 542.167969 C 59.964844 542.644531 61.089844 543.175781 62.1875 543.761719 C 63.285156 544.347656 64.355469 544.984375 65.390625 545.675781 C 66.425781 546.367188 67.425781 547.109375 68.390625 547.898438 C 69.351562 548.6875 70.273438 549.519531 71.15625 550.398438 L 157.730469 637.984375 Z M 173.355469 760.039062 Z M 517.039062 81.132812 C 515.832031 81.070312 514.628906 80.953125 513.429688 80.777344 C 512.234375 80.597656 511.046875 80.367188 509.871094 80.078125 C 508.699219 79.789062 507.539062 79.445312 506.398438 79.042969 C 505.253906 78.644531 504.132812 78.191406 503.035156 77.6875 C 501.933594 77.179688 500.863281 76.625 499.816406 76.015625 C 498.769531 75.410156 497.753906 74.753906 496.769531 74.050781 C 495.785156 73.34375 494.839844 72.59375 493.925781 71.800781 C 493.011719 71.007812 492.140625 70.171875 491.304688 69.292969 C 490.472656 68.417969 489.683594 67.5 488.9375 66.550781 C 488.191406 65.597656 487.488281 64.609375 486.835938 63.59375 C 486.183594 62.574219 485.582031 61.527344 485.027344 60.449219 C 484.476562 59.375 483.972656 58.273438 483.527344 57.148438 C 483.078125 56.027344 482.683594 54.882812 482.34375 53.722656 C 482.003906 52.558594 481.71875 51.386719 481.488281 50.195312 C 481.261719 49.007812 481.089844 47.8125 480.976562 46.609375 C 480.859375 45.402344 480.800781 44.195312 480.800781 42.984375 C 480.800781 41.777344 480.859375 40.570312 480.976562 39.363281 C 481.089844 38.160156 481.261719 36.960938 481.488281 35.773438 C 481.71875 34.585938 482.003906 33.410156 482.34375 32.25 C 482.683594 31.089844 483.078125 29.945312 483.527344 28.824219 C 483.972656 27.699219 484.476562 26.597656 485.027344 25.523438 C 485.582031 24.445312 486.183594 23.398438 486.835938 22.378906 C 487.488281 21.359375 488.191406 20.375 488.9375 19.421875 C 489.683594 18.46875 490.472656 17.554688 491.304688 16.679688 C 492.140625 15.800781 493.011719 14.964844 493.925781 14.171875 C 494.835938 13.375 495.785156 12.628906 496.769531 11.921875 C 497.753906 11.21875 498.769531 10.5625 499.816406 9.953125 C 500.863281 9.347656 501.933594 8.789062 503.035156 8.285156 C 504.132812 7.777344 505.253906 7.324219 506.398438 6.925781 C 507.539062 6.527344 508.699219 6.183594 509.871094 5.894531 C 511.046875 5.605469 512.234375 5.371094 513.429688 5.195312 C 514.628906 5.019531 515.832031 4.898438 517.039062 4.835938 L 706.21875 4.835938 C 708.019531 4.839844 709.808594 4.96875 711.589844 5.222656 C 713.375 5.480469 715.128906 5.859375 716.855469 6.363281 C 718.585938 6.871094 720.269531 7.492188 721.910156 8.238281 C 723.546875 8.980469 725.128906 9.835938 726.644531 10.800781 C 728.164062 11.769531 729.609375 12.839844 730.972656 14.011719 C 732.339844 15.183594 733.617188 16.445312 734.808594 17.796875 C 735.996094 19.152344 737.082031 20.582031 738.066406 22.085938 C 739.050781 23.59375 739.925781 25.164062 740.6875 26.792969 C 741.453125 28.425781 742.09375 30.101562 742.621094 31.824219 C 743.144531 33.546875 743.546875 35.296875 743.824219 37.074219 C 744.101562 38.855469 744.25 40.644531 744.273438 42.445312 C 744.296875 44.242188 744.191406 46.035156 743.960938 47.824219 C 743.730469 49.609375 743.375 51.367188 742.894531 53.101562 C 742.414062 54.839844 741.8125 56.53125 741.09375 58.179688 C 740.371094 59.832031 739.539062 61.421875 738.59375 62.953125 C 737.648438 64.484375 736.597656 65.941406 735.445312 67.324219 L 590.511719 271.621094 L 706.21875 271.621094 C 707.46875 271.621094 708.714844 271.683594 709.960938 271.804688 C 711.207031 271.929688 712.441406 272.113281 713.667969 272.355469 C 714.898438 272.601562 716.109375 272.902344 717.304688 273.265625 C 718.503906 273.628906 719.679688 274.050781 720.835938 274.53125 C 721.992188 275.007812 723.121094 275.542969 724.222656 276.132812 C 725.328125 276.722656 726.398438 277.363281 727.4375 278.058594 C 728.480469 278.753906 729.484375 279.5 730.449219 280.292969 C 731.417969 281.085938 732.34375 281.925781 733.226562 282.808594 C 734.113281 283.695312 734.953125 284.621094 735.746094 285.585938 C 736.539062 286.554688 737.28125 287.558594 737.976562 288.597656 C 738.671875 289.640625 739.316406 290.710938 739.90625 291.8125 C 740.496094 292.917969 741.027344 294.046875 741.507812 295.203125 C 741.988281 296.359375 742.40625 297.535156 742.769531 298.730469 C 743.132812 299.929688 743.4375 301.140625 743.683594 302.367188 C 743.925781 303.59375 744.109375 304.832031 744.230469 306.078125 C 744.355469 307.320312 744.414062 308.570312 744.414062 309.820312 C 744.414062 311.070312 744.355469 312.320312 744.230469 313.566406 C 744.109375 314.808594 743.925781 316.046875 743.683594 317.273438 C 743.4375 318.5 743.132812 319.710938 742.769531 320.910156 C 742.40625 322.105469 741.988281 323.28125 741.507812 324.4375 C 741.027344 325.59375 740.496094 326.722656 739.90625 327.828125 C 739.316406 328.929688 738.671875 330.003906 737.976562 331.042969 C 737.28125 332.082031 736.539062 333.085938 735.746094 334.054688 C 734.953125 335.019531 734.113281 335.945312 733.226562 336.832031 C 732.34375 337.714844 731.417969 338.554688 730.449219 339.347656 C 729.484375 340.140625 728.480469 340.886719 727.4375 341.582031 C 726.398438 342.277344 725.328125 342.917969 724.222656 343.507812 C 723.121094 344.097656 721.992188 344.632812 720.835938 345.109375 C 719.679688 345.589844 718.503906 346.011719 717.304688 346.375 C 716.109375 346.738281 714.898438 347.039062 713.667969 347.285156 C 712.441406 347.527344 711.207031 347.710938 709.960938 347.835938 C 708.714844 347.957031 707.46875 348.019531 706.21875 348.019531 L 517.441406 348.019531 C 513.554688 347.980469 509.769531 347.339844 506.082031 346.101562 C 502.398438 344.859375 498.996094 343.082031 495.875 340.761719 C 494.867188 340.03125 493.898438 339.257812 492.96875 338.433594 C 492.039062 337.609375 491.152344 336.742188 490.304688 335.835938 C 489.460938 334.925781 488.660156 333.976562 487.90625 332.988281 C 487.152344 332 486.449219 330.980469 485.792969 329.921875 C 485.140625 328.867188 484.539062 327.78125 483.988281 326.667969 C 483.441406 325.554688 482.949219 324.414062 482.511719 323.253906 C 482.074219 322.089844 481.691406 320.910156 481.371094 319.710938 C 481.046875 318.511719 480.78125 317.296875 480.578125 316.074219 C 480.371094 314.847656 480.226562 313.613281 480.140625 312.375 C 480.058594 311.136719 480.03125 309.894531 480.066406 308.652344 C 480.105469 307.414062 480.199219 306.175781 480.355469 304.941406 C 480.511719 303.710938 480.726562 302.488281 481 301.277344 C 481.277344 300.066406 481.609375 298.871094 482 297.691406 C 482.390625 296.511719 482.839844 295.355469 483.34375 294.21875 C 483.847656 293.085938 484.40625 291.976562 485.015625 290.894531 C 485.628906 289.8125 486.289062 288.765625 487.003906 287.75 L 633.550781 81.132812 Z M 571.566406 652.800781 L 651.289062 652.800781 L 611.578125 558.867188 Z M 683.84375 729.195312 L 539.414062 729.195312 L 533.164062 744.214844 C 532.695312 745.363281 532.171875 746.484375 531.589844 747.582031 C 531.007812 748.679688 530.371094 749.742188 529.6875 750.777344 C 529 751.808594 528.261719 752.808594 527.472656 753.765625 C 526.6875 754.726562 525.855469 755.644531 524.976562 756.523438 C 524.097656 757.398438 523.179688 758.230469 522.21875 759.015625 C 521.257812 759.800781 520.261719 760.539062 519.226562 761.222656 C 518.191406 761.910156 517.125 762.542969 516.027344 763.121094 C 514.933594 763.703125 513.808594 764.226562 512.660156 764.695312 C 511.507812 765.164062 510.339844 765.574219 509.148438 765.925781 C 507.960938 766.277344 506.753906 766.566406 505.535156 766.800781 C 504.316406 767.03125 503.089844 767.203125 501.851562 767.3125 C 500.617188 767.421875 499.378906 767.46875 498.136719 767.457031 C 496.894531 767.441406 495.65625 767.367188 494.425781 767.230469 C 493.191406 767.09375 491.96875 766.894531 490.753906 766.636719 C 489.539062 766.375 488.34375 766.058594 487.160156 765.679688 C 485.976562 765.300781 484.816406 764.867188 483.679688 764.371094 C 482.523438 763.878906 481.390625 763.328125 480.289062 762.726562 C 479.1875 762.121094 478.117188 761.464844 477.078125 760.753906 C 476.039062 760.042969 475.039062 759.285156 474.074219 758.476562 C 473.109375 757.667969 472.191406 756.816406 471.308594 755.914062 C 470.429688 755.015625 469.597656 754.078125 468.8125 753.09375 C 468.023438 752.113281 467.289062 751.097656 466.601562 750.042969 C 465.914062 748.988281 465.28125 747.902344 464.703125 746.789062 C 464.121094 745.671875 463.597656 744.53125 463.132812 743.363281 C 462.664062 742.195312 462.257812 741.007812 461.90625 739.796875 C 461.558594 738.589844 461.265625 737.367188 461.035156 736.132812 C 460.808594 734.894531 460.640625 733.648438 460.53125 732.398438 C 460.425781 731.144531 460.378906 729.890625 460.394531 728.632812 C 460.414062 727.375 460.492188 726.121094 460.632812 724.871094 C 460.773438 723.621094 460.972656 722.378906 461.234375 721.148438 C 461.496094 719.921875 461.820312 718.707031 462.203125 717.507812 C 462.582031 716.308594 463.023438 715.132812 463.519531 713.976562 L 577.109375 447.394531 C 577.589844 446.253906 578.125 445.140625 578.714844 444.054688 C 579.304688 442.964844 579.945312 441.910156 580.640625 440.886719 C 581.332031 439.859375 582.074219 438.871094 582.867188 437.921875 C 583.65625 436.96875 584.492188 436.058594 585.375 435.1875 C 586.253906 434.320312 587.175781 433.496094 588.136719 432.714844 C 589.097656 431.9375 590.09375 431.207031 591.125 430.523438 C 592.160156 429.84375 593.222656 429.214844 594.316406 428.636719 C 595.414062 428.058594 596.53125 427.539062 597.679688 427.070312 C 598.824219 426.605469 599.992188 426.195312 601.175781 425.84375 C 602.363281 425.492188 603.5625 425.199219 604.777344 424.964844 C 605.992188 424.730469 607.21875 424.554688 608.449219 424.441406 C 609.679688 424.328125 610.917969 424.273438 612.152344 424.28125 C 613.390625 424.289062 614.625 424.355469 615.855469 424.484375 C 617.085938 424.613281 618.308594 424.800781 619.519531 425.046875 C 620.730469 425.296875 621.929688 425.601562 623.113281 425.96875 C 624.292969 426.335938 625.453125 426.757812 626.59375 427.238281 C 628.839844 428.195312 630.976562 429.359375 633 430.726562 C 635.023438 432.09375 636.898438 433.640625 638.625 435.367188 C 640.351562 437.09375 641.898438 438.96875 643.265625 440.992188 C 644.632812 443.015625 645.796875 445.148438 646.753906 447.394531 L 759.9375 714.179688 C 760.4375 715.335938 760.882812 716.511719 761.265625 717.707031 C 761.652344 718.90625 761.976562 720.121094 762.242188 721.351562 C 762.507812 722.582031 762.710938 723.824219 762.851562 725.074219 C 762.996094 726.324219 763.074219 727.578125 763.09375 728.835938 C 763.109375 730.09375 763.066406 731.351562 762.960938 732.605469 C 762.855469 733.859375 762.6875 735.105469 762.460938 736.34375 C 762.230469 737.582031 761.941406 738.804688 761.589844 740.011719 C 761.242188 741.222656 760.832031 742.410156 760.363281 743.578125 C 759.898438 744.746094 759.375 745.890625 758.792969 747.007812 C 758.214844 748.125 757.578125 749.210938 756.890625 750.261719 C 756.203125 751.316406 755.464844 752.335938 754.675781 753.316406 C 753.890625 754.296875 753.054688 755.238281 752.171875 756.136719 C 751.292969 757.035156 750.367188 757.886719 749.402344 758.695312 C 748.4375 759.503906 747.433594 760.261719 746.394531 760.96875 C 745.355469 761.675781 744.28125 762.332031 743.175781 762.933594 C 742.070312 763.535156 740.9375 764.082031 739.78125 764.574219 C 738.640625 765.0625 737.484375 765.496094 736.304688 765.871094 C 735.121094 766.246094 733.925781 766.558594 732.714844 766.816406 C 731.503906 767.070312 730.28125 767.265625 729.050781 767.402344 C 727.820312 767.535156 726.585938 767.609375 725.347656 767.621094 C 724.109375 767.632812 722.875 767.582031 721.640625 767.472656 C 720.40625 767.359375 719.183594 767.1875 717.964844 766.957031 C 716.75 766.722656 715.546875 766.429688 714.359375 766.078125 C 713.171875 765.726562 712.007812 765.316406 710.859375 764.847656 C 709.714844 764.382812 708.59375 763.859375 707.5 763.277344 C 706.402344 762.699219 705.339844 762.066406 704.308594 761.382812 C 703.277344 760.699219 702.28125 759.964844 701.324219 759.179688 C 700.363281 758.394531 699.449219 757.566406 698.570312 756.691406 C 697.695312 755.816406 696.863281 754.898438 696.078125 753.941406 C 695.292969 752.984375 694.558594 751.992188 693.871094 750.960938 C 693.183594 749.929688 692.550781 748.867188 691.96875 747.773438 C 691.390625 746.679688 690.863281 745.5625 690.394531 744.414062 Z M 683.84375 729.195312 " fill-opacity="1" fill-rule="nonzero"/></svg>