<svg xmlns="http://www.w3.org/2000/svg" xmlns:xlink="http://www.w3.org/1999/xlink" width="1024" zoomAndPan="magnify" viewBox="0 0 768 767.999994" height="1024" preserveAspectRatio="xMidYMid meet" version="1.0"><defs><clipPath id="b8a81275e1"><path d="M 0 44.640625 L 768 44.640625 L 768 723.390625 L 0 723.390625 Z M 0 44.640625 " clip-rule="nonzero"/></clipPath><clipPath id="b338ac8caf"><path d="M 76.800781 117.386719 L 691.933594 117.386719 L 691.933594 633.691406 L 76.800781 633.691406 Z M 76.800781 117.386719 " clip-rule="nonzero"/></clipPath><clipPath id="b1ffee8809"><path d="M 112.800781 117.386719 L 655.199219 117.386719 C 675.082031 117.386719 691.199219 133.503906 691.199219 153.386719 L 691.199219 597.691406 C 691.199219 617.574219 675.082031 633.691406 655.199219 633.691406 L 112.800781 633.691406 C 92.917969 633.691406 76.800781 617.574219 76.800781 597.691406 L 76.800781 153.386719 C 76.800781 133.503906 92.917969 117.386719 112.800781 117.386719 Z M 112.800781 117.386719 " clip-rule="nonzero"/></clipPath><clipPath id="081ff196c4"><path d="M 0.800781 0.386719 L 615.199219 0.386719 L 615.199219 516.691406 L 0.800781 516.691406 Z M 0.800781 0.386719 " clip-rule="nonzero"/></clipPath><clipPath id="eba13abb42"><path d="M 36.800781 0.386719 L 579.199219 0.386719 C 599.082031 0.386719 615.199219 16.503906 615.199219 36.386719 L 615.199219 480.691406 C 615.199219 500.574219 599.082031 516.691406 579.199219 516.691406 L 36.800781 516.691406 C 16.917969 516.691406 0.800781 500.574219 0.800781 480.691406 L 0.800781 36.386719 C 0.800781 16.503906 16.917969 0.386719 36.800781 0.386719 Z M 36.800781 0.386719 " clip-rule="nonzero"/></clipPath><clipPath id="d15527f281"><rect x="0" width="616" y="0" height="517"/></clipPath></defs><path fill="#ffffff" d="M 247.882812 530.707031 L 220.609375 530.707031 L 220.609375 158.15625 C 220.609375 151.640625 215.320312 146.351562 208.804688 146.351562 L 162.515625 146.351562 C 155.996094 146.351562 150.710938 151.640625 150.710938 158.15625 L 150.710938 530.71875 L 123.433594 530.71875 C 113.289062 530.71875 108.007812 542.804688 114.90625 550.25 L 177.132812 617.398438 C 181.734375 622.363281 189.589844 622.363281 194.1875 617.398438 L 256.414062 550.25 C 263.300781 542.796875 258.03125 530.707031 247.882812 530.707031 Z M 247.882812 530.707031 " fill-opacity="1" fill-rule="nonzero"/><path fill="#ffffff" d="M 275.472656 204.429688 L 275.472656 158.164062 C 275.472656 151.632812 280.765625 146.347656 287.289062 146.347656 L 644.929688 146.347656 C 651.457031 146.347656 656.746094 151.640625 656.746094 158.164062 L 656.746094 204.429688 C 656.746094 210.960938 651.453125 216.246094 644.929688 216.246094 L 287.289062 216.246094 C 280.765625 216.246094 275.472656 210.953125 275.472656 204.429688 Z M 275.472656 204.429688 " fill-opacity="1" fill-rule="nonzero"/><path fill="#ffffff" d="M 275.472656 320.902344 L 275.472656 274.632812 C 275.472656 268.105469 280.765625 262.820312 287.289062 262.820312 L 549.609375 262.820312 C 556.136719 262.820312 561.425781 268.109375 561.425781 274.632812 L 561.425781 320.902344 C 561.425781 327.429688 556.132812 332.71875 549.609375 332.71875 L 287.289062 332.71875 C 280.765625 332.71875 275.472656 327.429688 275.472656 320.902344 Z M 275.472656 320.902344 " fill-opacity="1" fill-rule="nonzero"/><path fill="#ffffff" d="M 275.472656 437.375 L 275.472656 391.105469 C 275.472656 384.578125 280.765625 379.289062 287.289062 379.289062 L 478.125 379.289062 C 484.652344 379.289062 489.941406 384.582031 489.941406 391.105469 L 489.941406 437.375 C 489.941406 443.902344 484.648438 449.1875 478.125 449.1875 L 287.289062 449.1875 C 280.765625 449.1875 275.472656 443.902344 275.472656 437.375 Z M 275.472656 437.375 " fill-opacity="1" fill-rule="nonzero"/><path fill="#ffffff" d="M 275.472656 553.84375 L 275.472656 507.578125 C 275.472656 501.046875 280.765625 495.761719 287.289062 495.761719 L 424.511719 495.761719 C 431.042969 495.761719 436.328125 501.054688 436.328125 507.578125 L 436.328125 553.84375 C 436.328125 560.375 431.035156 565.660156 424.511719 565.660156 L 287.289062 565.660156 C 280.765625 565.664062 275.472656 560.375 275.472656 553.84375 Z M 275.472656 553.84375 " fill-opacity="1" fill-rule="nonzero"/><g clip-path="url(#b8a81275e1)"><path fill="#ffffff" d="M 678.347656 723.082031 L 90.179688 723.082031 C 40.820312 723.082031 0.664062 682.925781 0.664062 633.570312 L 0.664062 133.898438 C 0.664062 84.542969 40.820312 44.386719 90.179688 44.386719 L 678.34375 44.386719 C 727.703125 44.386719 767.855469 84.542969 767.855469 133.898438 L 767.855469 633.570312 C 767.859375 682.925781 727.707031 723.082031 678.347656 723.082031 Z M 90.179688 97.042969 C 69.851562 97.042969 53.320312 113.574219 53.320312 133.898438 L 53.320312 633.570312 C 53.320312 653.886719 69.851562 670.425781 90.179688 670.425781 L 678.34375 670.425781 C 698.664062 670.425781 715.203125 653.886719 715.203125 633.570312 L 715.203125 133.898438 C 715.203125 113.574219 698.664062 97.042969 678.34375 97.042969 Z M 90.179688 97.042969 " fill-opacity="1" fill-rule="nonzero"/></g><g clip-path="url(#b338ac8caf)"><g clip-path="url(#b1ffee8809)"><g transform="matrix(1, 0, 0, 1, 76, 117)"><g clip-path="url(#d15527f281)"><g clip-path="url(#081ff196c4)"><g clip-path="url(#eba13abb42)"><path fill="#ffffff" d="M 0.800781 0.386719 L 615.933594 0.386719 L 615.933594 516.691406 L 0.800781 516.691406 Z M 0.800781 0.386719 " fill-opacity="1" fill-rule="nonzero"/></g></g></g></g></g></g><path fill="#ffffff" d="M 236.003906 160.585938 C 235.925781 159.726562 235.894531 158.867188 235.90625 158.007812 C 235.917969 157.148438 235.976562 156.292969 236.078125 155.4375 C 236.179688 154.582031 236.324219 153.734375 236.511719 152.898438 C 236.703125 152.058594 236.933594 151.230469 237.210938 150.414062 C 237.484375 149.601562 237.800781 148.800781 238.160156 148.019531 C 238.519531 147.238281 238.917969 146.476562 239.355469 145.734375 C 239.792969 144.992188 240.265625 144.277344 240.777344 143.585938 C 241.289062 142.894531 241.835938 142.230469 242.417969 141.59375 C 242.996094 140.960938 243.609375 140.359375 244.25 139.785156 C 244.894531 139.214844 245.566406 138.679688 246.265625 138.175781 C 246.964844 137.675781 247.6875 137.210938 248.433594 136.785156 C 249.179688 136.359375 249.949219 135.972656 250.734375 135.625 C 251.523438 135.277344 252.328125 134.972656 253.144531 134.707031 C 253.964844 134.445312 254.792969 134.222656 255.636719 134.046875 C 256.480469 133.871094 257.328125 133.738281 258.183594 133.648438 C 259.039062 133.558594 259.898438 133.515625 260.757812 133.515625 C 261.617188 133.515625 262.476562 133.558594 263.332031 133.648438 C 264.1875 133.738281 265.035156 133.871094 265.878906 134.046875 C 266.71875 134.222656 267.550781 134.445312 268.367188 134.707031 C 269.1875 134.972656 269.992188 135.277344 270.777344 135.625 C 271.566406 135.972656 272.332031 136.359375 273.082031 136.785156 C 273.828125 137.210938 274.550781 137.675781 275.25 138.175781 C 275.949219 138.679688 276.621094 139.214844 277.261719 139.785156 C 277.90625 140.359375 278.519531 140.960938 279.097656 141.59375 C 279.679688 142.230469 280.226562 142.894531 280.738281 143.585938 C 281.25 144.277344 281.722656 144.992188 282.160156 145.734375 C 282.597656 146.476562 282.996094 147.238281 283.355469 148.019531 C 283.710938 148.800781 284.027344 149.601562 284.304688 150.414062 C 284.578125 151.230469 284.8125 152.058594 285 152.898438 C 285.191406 153.734375 285.335938 154.582031 285.4375 155.4375 C 285.539062 156.292969 285.59375 157.148438 285.609375 158.007812 C 285.621094 158.867188 285.589844 159.726562 285.511719 160.585938 L 285.511719 550.566406 L 342.289062 493.128906 C 342.867188 492.554688 343.472656 492.011719 344.105469 491.496094 C 344.734375 490.984375 345.390625 490.503906 346.070312 490.054688 C 346.75 489.605469 347.449219 489.1875 348.167969 488.808594 C 348.886719 488.429688 349.625 488.082031 350.375 487.773438 C 351.128906 487.46875 351.898438 487.195312 352.675781 486.964844 C 353.457031 486.730469 354.246094 486.535156 355.046875 486.382812 C 355.84375 486.226562 356.648438 486.109375 357.460938 486.035156 C 358.269531 485.957031 359.082031 485.921875 359.894531 485.925781 C 360.710938 485.925781 361.519531 485.96875 362.332031 486.054688 C 363.140625 486.136719 363.945312 486.257812 364.742188 486.421875 C 365.539062 486.582031 366.328125 486.785156 367.105469 487.023438 C 367.882812 487.261719 368.648438 487.539062 369.398438 487.855469 C 370.148438 488.167969 370.882812 488.519531 371.597656 488.90625 C 372.316406 489.292969 373.011719 489.710938 373.6875 490.167969 C 374.363281 490.621094 375.011719 491.109375 375.640625 491.628906 C 376.265625 492.148438 376.867188 492.695312 377.441406 493.273438 C 378.015625 493.851562 378.558594 494.453125 379.070312 495.085938 C 379.585938 495.71875 380.066406 496.371094 380.515625 497.050781 C 380.96875 497.730469 381.382812 498.425781 381.765625 499.148438 C 382.144531 499.867188 382.488281 500.601562 382.796875 501.355469 C 383.109375 502.109375 383.378906 502.875 383.613281 503.65625 C 383.847656 504.433594 384.039062 505.222656 384.195312 506.023438 C 384.351562 506.820312 384.46875 507.625 384.546875 508.4375 C 384.625 509.246094 384.660156 510.058594 384.65625 510.871094 C 384.65625 511.6875 384.613281 512.5 384.53125 513.308594 C 384.445312 514.117188 384.324219 514.921875 384.164062 515.71875 C 384.003906 516.515625 383.800781 517.304688 383.5625 518.082031 C 383.324219 518.863281 383.046875 519.625 382.734375 520.378906 C 382.421875 521.128906 382.070312 521.863281 381.683594 522.578125 C 381.296875 523.296875 380.878906 523.992188 380.425781 524.667969 C 379.96875 525.34375 379.484375 525.992188 378.964844 526.621094 C 378.445312 527.25 377.898438 527.851562 377.320312 528.421875 L 278.175781 628.429688 C 277.25 629.15625 276.523438 629.953125 275.53125 630.679688 C 274.25 631.691406 272.882812 632.570312 271.433594 633.320312 C 267.925781 634.925781 264.246094 635.742188 260.394531 635.769531 C 256.578125 635.765625 252.941406 634.949219 249.488281 633.320312 C 247.992188 632.542969 246.5625 631.660156 245.191406 630.679688 L 242.746094 628.429688 L 143.597656 528.421875 C 143.019531 527.847656 142.472656 527.242188 141.953125 526.613281 C 141.433594 525.980469 140.945312 525.328125 140.492188 524.648438 C 140.039062 523.96875 139.617188 523.269531 139.234375 522.550781 C 138.847656 521.832031 138.496094 521.09375 138.183594 520.339844 C 137.871094 519.585938 137.597656 518.816406 137.359375 518.035156 C 137.121094 517.253906 136.921875 516.464844 136.761719 515.664062 C 136.601562 514.863281 136.480469 514.054688 136.398438 513.242188 C 136.320312 512.429688 136.277344 511.617188 136.277344 510.796875 C 136.277344 509.980469 136.316406 509.167969 136.394531 508.355469 C 136.472656 507.542969 136.59375 506.734375 136.753906 505.933594 C 136.910156 505.132812 137.109375 504.339844 137.34375 503.558594 C 137.582031 502.777344 137.855469 502.007812 138.167969 501.253906 C 138.476562 500.5 138.828125 499.761719 139.210938 499.042969 C 139.59375 498.320312 140.015625 497.621094 140.464844 496.941406 C 140.917969 496.261719 141.40625 495.605469 141.921875 494.976562 C 142.441406 494.34375 142.988281 493.738281 143.5625 493.160156 C 144.140625 492.582031 144.746094 492.035156 145.375 491.515625 C 146.007812 490.996094 146.660156 490.511719 147.339844 490.054688 C 148.019531 489.601562 148.71875 489.179688 149.4375 488.796875 C 150.15625 488.410156 150.894531 488.058594 151.648438 487.746094 C 152.402344 487.433594 153.171875 487.160156 153.953125 486.921875 C 154.734375 486.683594 155.523438 486.484375 156.324219 486.324219 C 157.125 486.164062 157.933594 486.042969 158.746094 485.960938 C 159.558594 485.882812 160.371094 485.839844 161.1875 485.839844 C 162.007812 485.839844 162.820312 485.878906 163.632812 485.957031 C 164.445312 486.039062 165.253906 486.15625 166.054688 486.316406 C 166.855469 486.472656 167.648438 486.671875 168.429688 486.90625 C 169.210938 487.144531 169.976562 487.417969 170.734375 487.730469 C 171.488281 488.042969 172.226562 488.390625 172.945312 488.773438 C 173.667969 489.15625 174.367188 489.578125 175.046875 490.03125 C 175.726562 490.484375 176.382812 490.96875 177.011719 491.484375 C 177.644531 492.003906 178.25 492.550781 178.828125 493.128906 L 235.605469 550.566406 Z M 245.851562 630.613281 Z M 471.25 185.371094 C 470.457031 185.332031 469.667969 185.253906 468.882812 185.136719 C 468.097656 185.019531 467.320312 184.867188 466.546875 184.679688 C 465.777344 184.488281 465.019531 184.261719 464.269531 184 C 463.519531 183.738281 462.785156 183.441406 462.0625 183.109375 C 461.34375 182.78125 460.640625 182.414062 459.953125 182.015625 C 459.265625 181.617188 458.601562 181.1875 457.957031 180.726562 C 457.308594 180.261719 456.6875 179.773438 456.089844 179.25 C 455.492188 178.730469 454.917969 178.183594 454.371094 177.605469 C 453.824219 177.03125 453.308594 176.429688 452.816406 175.804688 C 452.328125 175.183594 451.871094 174.535156 451.441406 173.867188 C 451.011719 173.199219 450.617188 172.511719 450.253906 171.804688 C 449.890625 171.101562 449.5625 170.378906 449.269531 169.640625 C 448.976562 168.90625 448.714844 168.15625 448.492188 167.394531 C 448.269531 166.632812 448.082031 165.863281 447.933594 165.082031 C 447.785156 164.304688 447.671875 163.519531 447.597656 162.730469 C 447.519531 161.9375 447.484375 161.148438 447.484375 160.351562 C 447.484375 159.558594 447.519531 158.769531 447.597656 157.976562 C 447.671875 157.1875 447.785156 156.402344 447.933594 155.625 C 448.082031 154.84375 448.269531 154.074219 448.492188 153.3125 C 448.714844 152.550781 448.976562 151.800781 449.269531 151.066406 C 449.5625 150.328125 449.890625 149.605469 450.253906 148.898438 C 450.617188 148.195312 451.011719 147.507812 451.441406 146.839844 C 451.871094 146.171875 452.328125 145.523438 452.816406 144.898438 C 453.308594 144.277344 453.824219 143.675781 454.371094 143.101562 C 454.917969 142.523438 455.492188 141.976562 456.089844 141.457031 C 456.6875 140.933594 457.308594 140.441406 457.957031 139.980469 C 458.601562 139.519531 459.265625 139.089844 459.953125 138.691406 C 460.640625 138.292969 461.34375 137.925781 462.0625 137.59375 C 462.785156 137.261719 463.519531 136.96875 464.269531 136.703125 C 465.019531 136.441406 465.777344 136.21875 466.546875 136.027344 C 467.320312 135.839844 468.097656 135.683594 468.882812 135.570312 C 469.667969 135.453125 470.457031 135.375 471.25 135.335938 L 595.316406 135.335938 C 596.496094 135.335938 597.671875 135.421875 598.839844 135.589844 C 600.007812 135.757812 601.160156 136.003906 602.292969 136.335938 C 603.425781 136.667969 604.53125 137.078125 605.605469 137.5625 C 606.683594 138.050781 607.71875 138.613281 608.714844 139.246094 C 609.710938 139.882812 610.65625 140.582031 611.550781 141.351562 C 612.449219 142.121094 613.285156 142.945312 614.066406 143.835938 C 614.84375 144.722656 615.558594 145.660156 616.203125 146.648438 C 616.847656 147.636719 617.421875 148.664062 617.921875 149.734375 C 618.421875 150.804688 618.84375 151.902344 619.191406 153.03125 C 619.535156 154.160156 619.796875 155.308594 619.976562 156.476562 C 620.160156 157.644531 620.257812 158.816406 620.273438 159.996094 C 620.289062 161.179688 620.222656 162.355469 620.070312 163.523438 C 619.917969 164.695312 619.683594 165.851562 619.371094 166.988281 C 619.054688 168.125 618.660156 169.238281 618.1875 170.320312 C 617.714844 171.402344 617.167969 172.445312 616.546875 173.449219 C 615.929688 174.453125 615.238281 175.410156 614.484375 176.316406 L 519.433594 310.296875 L 595.316406 310.296875 C 596.136719 310.296875 596.953125 310.339844 597.769531 310.417969 C 598.585938 310.5 599.398438 310.621094 600.203125 310.78125 C 601.007812 310.941406 601.800781 311.136719 602.585938 311.375 C 603.371094 311.613281 604.144531 311.890625 604.902344 312.203125 C 605.660156 312.519531 606.402344 312.871094 607.125 313.257812 C 607.847656 313.644531 608.550781 314.0625 609.234375 314.519531 C 609.914062 314.976562 610.574219 315.464844 611.207031 315.984375 C 611.84375 316.503906 612.449219 317.054688 613.03125 317.636719 C 613.609375 318.214844 614.160156 318.824219 614.679688 319.457031 C 615.199219 320.089844 615.6875 320.75 616.144531 321.433594 C 616.601562 322.113281 617.023438 322.816406 617.410156 323.539062 C 617.796875 324.265625 618.144531 325.003906 618.460938 325.761719 C 618.773438 326.519531 619.050781 327.292969 619.289062 328.078125 C 619.527344 328.863281 619.726562 329.65625 619.886719 330.460938 C 620.046875 331.265625 620.164062 332.078125 620.246094 332.894531 C 620.328125 333.710938 620.367188 334.527344 620.367188 335.347656 C 620.367188 336.171875 620.328125 336.988281 620.246094 337.804688 C 620.164062 338.621094 620.046875 339.433594 619.886719 340.238281 C 619.726562 341.042969 619.527344 341.835938 619.289062 342.621094 C 619.050781 343.40625 618.773438 344.179688 618.460938 344.9375 C 618.144531 345.695312 617.796875 346.433594 617.410156 347.160156 C 617.023438 347.882812 616.601562 348.585938 616.144531 349.265625 C 615.6875 349.949219 615.199219 350.609375 614.679688 351.242188 C 614.160156 351.875 613.609375 352.484375 613.03125 353.0625 C 612.449219 353.644531 611.84375 354.195312 611.207031 354.714844 C 610.574219 355.234375 609.914062 355.722656 609.234375 356.179688 C 608.550781 356.636719 607.847656 357.054688 607.125 357.441406 C 606.402344 357.828125 605.660156 358.179688 604.902344 358.492188 C 604.144531 358.808594 603.371094 359.085938 602.585938 359.320312 C 601.800781 359.558594 601.007812 359.757812 600.203125 359.917969 C 599.398438 360.078125 598.585938 360.199219 597.769531 360.28125 C 596.953125 360.359375 596.136719 360.402344 595.316406 360.402344 L 471.511719 360.402344 C 468.964844 360.375 466.480469 359.957031 464.0625 359.144531 C 461.644531 358.328125 459.414062 357.164062 457.367188 355.640625 C 456.707031 355.164062 456.074219 354.65625 455.464844 354.113281 C 454.851562 353.574219 454.269531 353.007812 453.714844 352.410156 C 453.160156 351.8125 452.636719 351.191406 452.140625 350.542969 C 451.648438 349.894531 451.1875 349.226562 450.757812 348.535156 C 450.328125 347.839844 449.933594 347.128906 449.574219 346.398438 C 449.214844 345.667969 448.890625 344.921875 448.601562 344.160156 C 448.316406 343.394531 448.066406 342.621094 447.855469 341.835938 C 447.644531 341.046875 447.46875 340.253906 447.335938 339.449219 C 447.203125 338.644531 447.105469 337.839844 447.050781 337.023438 C 446.996094 336.210938 446.976562 335.398438 447 334.585938 C 447.023438 333.769531 447.089844 332.957031 447.191406 332.152344 C 447.292969 331.34375 447.433594 330.542969 447.613281 329.746094 C 447.792969 328.953125 448.011719 328.167969 448.269531 327.394531 C 448.527344 326.621094 448.820312 325.863281 449.148438 325.117188 C 449.480469 324.375 449.847656 323.648438 450.246094 322.9375 C 450.648438 322.230469 451.082031 321.539062 451.550781 320.875 L 547.660156 185.371094 Z M 507.007812 560.285156 L 559.292969 560.285156 L 533.25 498.679688 Z M 580.640625 610.386719 L 485.921875 610.386719 L 481.824219 620.234375 C 481.515625 620.988281 481.171875 621.722656 480.789062 622.445312 C 480.410156 623.164062 479.992188 623.859375 479.542969 624.539062 C 479.089844 625.214844 478.609375 625.871094 478.09375 626.5 C 477.574219 627.128906 477.03125 627.730469 476.453125 628.304688 C 475.878906 628.882812 475.273438 629.425781 474.644531 629.941406 C 474.015625 630.457031 473.359375 630.941406 472.683594 631.390625 C 472.003906 631.839844 471.304688 632.253906 470.585938 632.636719 C 469.867188 633.015625 469.128906 633.359375 468.375 633.667969 C 467.621094 633.972656 466.855469 634.242188 466.074219 634.472656 C 465.292969 634.703125 464.503906 634.894531 463.703125 635.046875 C 462.902344 635.199219 462.097656 635.3125 461.289062 635.382812 C 460.476562 635.453125 459.664062 635.484375 458.851562 635.476562 C 458.039062 635.46875 457.226562 635.417969 456.417969 635.328125 C 455.609375 635.238281 454.804688 635.109375 454.007812 634.9375 C 453.214844 634.769531 452.429688 634.558594 451.652344 634.3125 C 450.878906 634.0625 450.117188 633.777344 449.371094 633.453125 C 448.609375 633.132812 447.871094 632.769531 447.148438 632.375 C 446.421875 631.980469 445.722656 631.546875 445.039062 631.082031 C 444.359375 630.617188 443.703125 630.117188 443.070312 629.589844 C 442.4375 629.058594 441.835938 628.5 441.257812 627.910156 C 440.679688 627.320312 440.136719 626.703125 439.621094 626.058594 C 439.101562 625.414062 438.621094 624.75 438.171875 624.058594 C 437.71875 623.367188 437.304688 622.65625 436.925781 621.921875 C 436.542969 621.191406 436.203125 620.441406 435.894531 619.675781 C 435.589844 618.910156 435.320312 618.132812 435.089844 617.339844 C 434.863281 616.546875 434.671875 615.746094 434.519531 614.933594 C 434.371094 614.121094 434.261719 613.308594 434.191406 612.484375 C 434.121094 611.664062 434.089844 610.839844 434.101562 610.015625 C 434.113281 609.191406 434.164062 608.367188 434.253906 607.546875 C 434.347656 606.730469 434.480469 605.914062 434.652344 605.109375 C 434.824219 604.300781 435.035156 603.507812 435.285156 602.71875 C 435.535156 601.933594 435.824219 601.164062 436.148438 600.40625 L 510.644531 425.574219 C 510.957031 424.828125 511.308594 424.097656 511.695312 423.382812 C 512.082031 422.667969 512.503906 421.976562 512.960938 421.304688 C 513.414062 420.632812 513.902344 419.984375 514.417969 419.359375 C 514.9375 418.738281 515.484375 418.140625 516.0625 417.570312 C 516.640625 417 517.246094 416.457031 517.875 415.945312 C 518.503906 415.4375 519.160156 414.957031 519.835938 414.511719 C 520.515625 414.0625 521.210938 413.652344 521.929688 413.273438 C 522.648438 412.894531 523.382812 412.550781 524.132812 412.246094 C 524.886719 411.941406 525.648438 411.671875 526.429688 411.441406 C 527.207031 411.207031 527.992188 411.015625 528.789062 410.863281 C 529.585938 410.710938 530.390625 410.59375 531.195312 410.519531 C 532.003906 410.445312 532.816406 410.410156 533.625 410.414062 C 534.4375 410.417969 535.246094 410.464844 536.054688 410.546875 C 536.863281 410.632812 537.664062 410.753906 538.457031 410.917969 C 539.253906 411.082031 540.039062 411.28125 540.8125 411.523438 C 541.589844 411.761719 542.351562 412.039062 543.097656 412.355469 C 544.570312 412.984375 545.972656 413.746094 547.296875 414.640625 C 548.625 415.539062 549.855469 416.550781 550.988281 417.683594 C 552.121094 418.816406 553.132812 420.046875 554.03125 421.375 C 554.925781 422.699219 555.6875 424.101562 556.316406 425.574219 L 630.546875 600.539062 C 630.875 601.292969 631.164062 602.066406 631.417969 602.851562 C 631.671875 603.636719 631.882812 604.433594 632.058594 605.242188 C 632.230469 606.046875 632.363281 606.863281 632.457031 607.679688 C 632.550781 608.5 632.605469 609.324219 632.617188 610.148438 C 632.628906 610.976562 632.597656 611.800781 632.53125 612.621094 C 632.460938 613.445312 632.351562 614.261719 632.199219 615.074219 C 632.050781 615.882812 631.859375 616.6875 631.632812 617.480469 C 631.402344 618.273438 631.132812 619.050781 630.828125 619.816406 C 630.519531 620.585938 630.175781 621.335938 629.796875 622.066406 C 629.414062 622.796875 629 623.511719 628.546875 624.203125 C 628.097656 624.894531 627.613281 625.5625 627.097656 626.203125 C 626.578125 626.847656 626.03125 627.464844 625.453125 628.054688 C 624.875 628.644531 624.269531 629.203125 623.636719 629.730469 C 623.003906 630.261719 622.347656 630.757812 621.664062 631.222656 C 620.980469 631.6875 620.277344 632.117188 619.554688 632.511719 C 618.828125 632.90625 618.085938 633.265625 617.328125 633.585938 C 616.582031 633.90625 615.820312 634.191406 615.046875 634.4375 C 614.273438 634.683594 613.488281 634.890625 612.695312 635.058594 C 611.898438 635.226562 611.097656 635.351562 610.289062 635.441406 C 609.484375 635.53125 608.671875 635.578125 607.863281 635.585938 C 607.050781 635.59375 606.238281 635.558594 605.429688 635.488281 C 604.621094 635.414062 603.816406 635.300781 603.019531 635.148438 C 602.222656 634.996094 601.433594 634.804688 600.65625 634.574219 C 599.878906 634.34375 599.113281 634.074219 598.359375 633.769531 C 597.609375 633.460938 596.875 633.117188 596.15625 632.738281 C 595.4375 632.359375 594.742188 631.941406 594.0625 631.492188 C 593.386719 631.042969 592.734375 630.5625 592.105469 630.050781 C 591.476562 629.535156 590.875 628.992188 590.300781 628.417969 C 589.726562 627.84375 589.179688 627.242188 588.667969 626.613281 C 588.152344 625.988281 587.667969 625.335938 587.21875 624.660156 C 586.769531 623.984375 586.351562 623.285156 585.972656 622.570312 C 585.589844 621.851562 585.246094 621.117188 584.9375 620.367188 Z M 580.640625 610.386719 " fill-opacity="1" fill-rule="nonzero"/></svg>