<svg xmlns="http://www.w3.org/2000/svg" xmlns:xlink="http://www.w3.org/1999/xlink" width="1024" zoomAndPan="magnify" viewBox="0 0 768 767.999994" height="1024" preserveAspectRatio="xMidYMid meet" version="1.0"><defs><clipPath id="d8b66aa984"><path d="M 0 44.640625 L 768 44.640625 L 768 723.390625 L 0 723.390625 Z M 0 44.640625 " clip-rule="nonzero"/></clipPath><clipPath id="aa1ea836bf"><path d="M 76.800781 117.386719 L 691.933594 117.386719 L 691.933594 633.691406 L 76.800781 633.691406 Z M 76.800781 117.386719 " clip-rule="nonzero"/></clipPath><clipPath id="6dadd69ddd"><path d="M 112.800781 117.386719 L 655.199219 117.386719 C 675.082031 117.386719 691.199219 133.503906 691.199219 153.386719 L 691.199219 597.691406 C 691.199219 617.574219 675.082031 633.691406 655.199219 633.691406 L 112.800781 633.691406 C 92.917969 633.691406 76.800781 617.574219 76.800781 597.691406 L 76.800781 153.386719 C 76.800781 133.503906 92.917969 117.386719 112.800781 117.386719 Z M 112.800781 117.386719 " clip-rule="nonzero"/></clipPath><clipPath id="55a0ddd8e1"><path d="M 0.800781 0.386719 L 615.199219 0.386719 L 615.199219 516.691406 L 0.800781 516.691406 Z M 0.800781 0.386719 " clip-rule="nonzero"/></clipPath><clipPath id="d5fcdde48c"><path d="M 36.800781 0.386719 L 579.199219 0.386719 C 599.082031 0.386719 615.199219 16.503906 615.199219 36.386719 L 615.199219 480.691406 C 615.199219 500.574219 599.082031 516.691406 579.199219 516.691406 L 36.800781 516.691406 C 16.917969 516.691406 0.800781 500.574219 0.800781 480.691406 L 0.800781 36.386719 C 0.800781 16.503906 16.917969 0.386719 36.800781 0.386719 Z M 36.800781 0.386719 " clip-rule="nonzero"/></clipPath><clipPath id="6b6886fc7f"><rect x="0" width="616" y="0" height="517"/></clipPath><clipPath id="7b72b0e7af"><path d="M 136 133 L 633 133 L 633 636.164062 L 136 636.164062 Z M 136 133 " clip-rule="nonzero"/></clipPath></defs><path fill="#000000" d="M 247.882812 530.734375 L 220.609375 530.734375 L 220.609375 158.164062 C 220.609375 151.644531 215.320312 146.359375 208.804688 146.359375 L 162.515625 146.359375 C 155.996094 146.359375 150.710938 151.644531 150.710938 158.164062 L 150.710938 530.742188 L 123.433594 530.742188 C 113.289062 530.742188 108.007812 542.828125 114.90625 550.273438 L 177.132812 617.429688 C 181.734375 622.394531 189.589844 622.394531 194.1875 617.429688 L 256.414062 550.273438 C 263.300781 542.824219 258.03125 530.734375 247.882812 530.734375 Z M 247.882812 530.734375 " fill-opacity="1" fill-rule="nonzero"/><path fill="#000000" d="M 275.472656 204.4375 L 275.472656 158.167969 C 275.472656 151.640625 280.765625 146.351562 287.289062 146.351562 L 644.929688 146.351562 C 651.457031 146.351562 656.746094 151.644531 656.746094 158.167969 L 656.746094 204.4375 C 656.746094 210.96875 651.453125 216.253906 644.929688 216.253906 L 287.289062 216.253906 C 280.765625 216.253906 275.472656 210.960938 275.472656 204.4375 Z M 275.472656 204.4375 " fill-opacity="1" fill-rule="nonzero"/><path fill="#000000" d="M 275.472656 320.917969 L 275.472656 274.644531 C 275.472656 268.117188 280.765625 262.828125 287.289062 262.828125 L 549.609375 262.828125 C 556.136719 262.828125 561.425781 268.121094 561.425781 274.644531 L 561.425781 320.917969 C 561.425781 327.445312 556.132812 332.730469 549.609375 332.730469 L 287.289062 332.730469 C 280.765625 332.730469 275.472656 327.445312 275.472656 320.917969 Z M 275.472656 320.917969 " fill-opacity="1" fill-rule="nonzero"/><path fill="#000000" d="M 275.472656 437.394531 L 275.472656 391.125 C 275.472656 384.59375 280.765625 379.308594 287.289062 379.308594 L 478.125 379.308594 C 484.652344 379.308594 489.941406 384.597656 489.941406 391.125 L 489.941406 437.394531 C 489.941406 443.921875 484.648438 449.210938 478.125 449.210938 L 287.289062 449.210938 C 280.765625 449.210938 275.472656 443.921875 275.472656 437.394531 Z M 275.472656 437.394531 " fill-opacity="1" fill-rule="nonzero"/><path fill="#000000" d="M 275.472656 553.871094 L 275.472656 507.601562 C 275.472656 501.070312 280.765625 495.785156 287.289062 495.785156 L 424.511719 495.785156 C 431.042969 495.785156 436.328125 501.078125 436.328125 507.601562 L 436.328125 553.871094 C 436.328125 560.402344 431.035156 565.6875 424.511719 565.6875 L 287.289062 565.6875 C 280.765625 565.691406 275.472656 560.402344 275.472656 553.871094 Z M 275.472656 553.871094 " fill-opacity="1" fill-rule="nonzero"/><g clip-path="url(#d8b66aa984)"><path fill="#000000" d="M 678.347656 723.117188 L 90.179688 723.117188 C 40.820312 723.117188 0.664062 682.960938 0.664062 633.597656 L 0.664062 133.90625 C 0.664062 84.542969 40.820312 44.386719 90.179688 44.386719 L 678.34375 44.386719 C 727.703125 44.386719 767.855469 84.542969 767.855469 133.90625 L 767.855469 633.597656 C 767.859375 682.960938 727.707031 723.117188 678.347656 723.117188 Z M 90.179688 97.042969 C 69.851562 97.042969 53.320312 113.578125 53.320312 133.90625 L 53.320312 633.597656 C 53.320312 653.917969 69.851562 670.460938 90.179688 670.460938 L 678.34375 670.460938 C 698.664062 670.460938 715.203125 653.917969 715.203125 633.597656 L 715.203125 133.90625 C 715.203125 113.578125 698.664062 97.042969 678.34375 97.042969 Z M 90.179688 97.042969 " fill-opacity="1" fill-rule="nonzero"/></g><g clip-path="url(#aa1ea836bf)"><g clip-path="url(#6dadd69ddd)"><g transform="matrix(1, 0, 0, 1, 76, 117)"><g clip-path="url(#6b6886fc7f)"><g clip-path="url(#55a0ddd8e1)"><g clip-path="url(#d5fcdde48c)"><path fill="#ffffff" d="M 0.800781 0.386719 L 615.933594 0.386719 L 615.933594 516.691406 L 0.800781 516.691406 Z M 0.800781 0.386719 " fill-opacity="1" fill-rule="nonzero"/></g></g></g></g></g></g><g clip-path="url(#7b72b0e7af)"><path fill="#000000" d="M 236.070312 160.601562 C 235.992188 159.746094 235.960938 158.886719 235.972656 158.027344 C 235.988281 157.164062 236.042969 156.308594 236.144531 155.453125 C 236.246094 154.597656 236.390625 153.75 236.582031 152.910156 C 236.769531 152.070312 237.003906 151.242188 237.277344 150.425781 C 237.554688 149.609375 237.871094 148.8125 238.230469 148.027344 C 238.589844 147.246094 238.988281 146.484375 239.425781 145.742188 C 239.863281 145 240.335938 144.285156 240.847656 143.59375 C 241.359375 142.902344 241.90625 142.238281 242.488281 141.601562 C 243.070312 140.964844 243.679688 140.363281 244.324219 139.792969 C 244.96875 139.21875 245.640625 138.683594 246.339844 138.179688 C 247.039062 137.679688 247.761719 137.214844 248.511719 136.785156 C 249.257812 136.359375 250.023438 135.972656 250.8125 135.625 C 251.601562 135.277344 252.40625 134.972656 253.222656 134.710938 C 254.042969 134.445312 254.875 134.226562 255.71875 134.046875 C 256.558594 133.871094 257.410156 133.738281 258.265625 133.648438 C 259.121094 133.558594 259.980469 133.515625 260.839844 133.515625 C 261.703125 133.515625 262.558594 133.558594 263.417969 133.648438 C 264.273438 133.738281 265.121094 133.871094 265.964844 134.046875 C 266.808594 134.226562 267.636719 134.445312 268.457031 134.710938 C 269.277344 134.972656 270.082031 135.277344 270.867188 135.625 C 271.65625 135.972656 272.425781 136.359375 273.171875 136.785156 C 273.917969 137.214844 274.644531 137.679688 275.34375 138.179688 C 276.042969 138.683594 276.714844 139.21875 277.355469 139.792969 C 278 140.363281 278.613281 140.964844 279.195312 141.601562 C 279.773438 142.238281 280.320312 142.902344 280.832031 143.59375 C 281.34375 144.285156 281.820312 145 282.257812 145.742188 C 282.695312 146.484375 283.09375 147.246094 283.453125 148.027344 C 283.808594 148.8125 284.128906 149.609375 284.402344 150.425781 C 284.679688 151.242188 284.910156 152.070312 285.101562 152.910156 C 285.289062 153.75 285.433594 154.597656 285.535156 155.453125 C 285.636719 156.308594 285.695312 157.164062 285.707031 158.027344 C 285.71875 158.886719 285.6875 159.746094 285.609375 160.601562 L 285.609375 550.839844 L 342.425781 493.363281 C 343.003906 492.789062 343.609375 492.246094 344.242188 491.730469 C 344.875 491.21875 345.53125 490.734375 346.210938 490.285156 C 346.886719 489.835938 347.589844 489.421875 348.308594 489.039062 C 349.027344 488.660156 349.765625 488.316406 350.519531 488.007812 C 351.273438 487.699219 352.039062 487.429688 352.820312 487.195312 C 353.601562 486.960938 354.390625 486.765625 355.191406 486.613281 C 355.988281 486.457031 356.792969 486.339844 357.605469 486.265625 C 358.417969 486.1875 359.230469 486.152344 360.042969 486.15625 C 360.859375 486.15625 361.671875 486.199219 362.480469 486.285156 C 363.292969 486.367188 364.09375 486.488281 364.894531 486.652344 C 365.691406 486.8125 366.480469 487.015625 367.257812 487.253906 C 368.035156 487.496094 368.800781 487.769531 369.554688 488.085938 C 370.304688 488.402344 371.039062 488.75 371.753906 489.136719 C 372.472656 489.523438 373.167969 489.945312 373.84375 490.402344 C 374.519531 490.855469 375.171875 491.34375 375.796875 491.863281 C 376.425781 492.382812 377.027344 492.929688 377.601562 493.507812 C 378.175781 494.085938 378.71875 494.691406 379.234375 495.324219 C 379.746094 495.953125 380.230469 496.609375 380.679688 497.289062 C 381.128906 497.96875 381.546875 498.667969 381.925781 499.386719 C 382.308594 500.105469 382.652344 500.84375 382.960938 501.597656 C 383.269531 502.347656 383.542969 503.117188 383.777344 503.898438 C 384.007812 504.675781 384.203125 505.46875 384.359375 506.265625 C 384.515625 507.066406 384.632812 507.871094 384.710938 508.679688 C 384.789062 509.492188 384.824219 510.304688 384.820312 511.121094 C 384.820312 511.933594 384.777344 512.746094 384.695312 513.558594 C 384.613281 514.367188 384.488281 515.171875 384.328125 515.96875 C 384.167969 516.769531 383.964844 517.554688 383.726562 518.335938 C 383.488281 519.113281 383.210938 519.878906 382.898438 520.628906 C 382.582031 521.382812 382.234375 522.117188 381.847656 522.832031 C 381.460938 523.550781 381.039062 524.246094 380.585938 524.921875 C 380.132812 525.597656 379.644531 526.25 379.125 526.878906 C 378.609375 527.507812 378.058594 528.109375 377.480469 528.683594 L 278.269531 628.753906 C 277.34375 629.480469 276.617188 630.277344 275.625 631.003906 C 274.339844 632.015625 272.972656 632.898438 271.523438 633.648438 C 268.015625 635.253906 264.332031 636.070312 260.476562 636.097656 C 256.65625 636.09375 253.019531 635.277344 249.5625 633.648438 C 248.066406 632.867188 246.636719 631.988281 245.265625 631.003906 L 242.816406 628.753906 L 143.605469 528.683594 C 143.027344 528.105469 142.476562 527.5 141.957031 526.867188 C 141.441406 526.238281 140.953125 525.582031 140.5 524.902344 C 140.042969 524.226562 139.625 523.523438 139.238281 522.804688 C 138.851562 522.085938 138.5 521.347656 138.1875 520.59375 C 137.875 519.835938 137.597656 519.070312 137.359375 518.289062 C 137.125 517.503906 136.925781 516.714844 136.765625 515.914062 C 136.605469 515.113281 136.484375 514.304688 136.402344 513.492188 C 136.320312 512.679688 136.28125 511.863281 136.28125 511.046875 C 136.28125 510.226562 136.320312 509.414062 136.398438 508.601562 C 136.476562 507.785156 136.597656 506.980469 136.753906 506.175781 C 136.914062 505.375 137.109375 504.582031 137.347656 503.800781 C 137.585938 503.019531 137.859375 502.25 138.171875 501.496094 C 138.484375 500.738281 138.832031 500 139.214844 499.28125 C 139.601562 498.558594 140.019531 497.859375 140.472656 497.179688 C 140.925781 496.5 141.410156 495.84375 141.929688 495.210938 C 142.445312 494.578125 142.996094 493.972656 143.570312 493.394531 C 144.148438 492.816406 144.753906 492.269531 145.382812 491.75 C 146.015625 491.230469 146.671875 490.742188 147.351562 490.289062 C 148.027344 489.835938 148.730469 489.414062 149.449219 489.027344 C 150.167969 488.640625 150.90625 488.292969 151.660156 487.980469 C 152.417969 487.664062 153.183594 487.390625 153.964844 487.152344 C 154.746094 486.914062 155.539062 486.714844 156.339844 486.554688 C 157.140625 486.394531 157.949219 486.273438 158.761719 486.191406 C 159.574219 486.113281 160.390625 486.070312 161.207031 486.070312 C 162.023438 486.070312 162.839844 486.109375 163.652344 486.1875 C 164.46875 486.269531 165.273438 486.386719 166.078125 486.546875 C 166.878906 486.703125 167.671875 486.902344 168.453125 487.136719 C 169.234375 487.375 170.003906 487.648438 170.757812 487.960938 C 171.511719 488.273438 172.25 488.621094 172.972656 489.003906 C 173.695312 489.390625 174.394531 489.808594 175.074219 490.261719 C 175.753906 490.714844 176.410156 491.203125 177.042969 491.71875 C 177.675781 492.238281 178.28125 492.785156 178.859375 493.363281 L 235.675781 550.839844 Z M 245.925781 630.9375 Z M 471.46875 185.40625 C 470.675781 185.367188 469.886719 185.289062 469.101562 185.171875 C 468.316406 185.054688 467.539062 184.902344 466.765625 184.714844 C 465.996094 184.523438 465.234375 184.296875 464.484375 184.035156 C 463.734375 183.773438 463 183.476562 462.277344 183.144531 C 461.558594 182.8125 460.851562 182.445312 460.167969 182.046875 C 459.480469 181.648438 458.8125 181.21875 458.167969 180.757812 C 457.523438 180.292969 456.898438 179.804688 456.300781 179.28125 C 455.703125 178.761719 455.128906 178.210938 454.582031 177.636719 C 454.035156 177.058594 453.515625 176.460938 453.027344 175.835938 C 452.535156 175.210938 452.078125 174.5625 451.648438 173.894531 C 451.222656 173.226562 450.824219 172.539062 450.460938 171.832031 C 450.097656 171.125 449.769531 170.402344 449.476562 169.667969 C 449.179688 168.929688 448.921875 168.179688 448.699219 167.417969 C 448.476562 166.65625 448.289062 165.882812 448.140625 165.105469 C 447.988281 164.324219 447.878906 163.539062 447.800781 162.75 C 447.726562 161.957031 447.6875 161.164062 447.6875 160.371094 C 447.6875 159.578125 447.726562 158.785156 447.800781 157.996094 C 447.878906 157.203125 447.988281 156.417969 448.140625 155.640625 C 448.289062 154.859375 448.476562 154.089844 448.699219 153.328125 C 448.921875 152.5625 449.179688 151.8125 449.476562 151.078125 C 449.769531 150.339844 450.097656 149.617188 450.460938 148.910156 C 450.824219 148.203125 451.222656 147.515625 451.648438 146.847656 C 452.078125 146.179688 452.535156 145.535156 453.027344 144.910156 C 453.515625 144.285156 454.035156 143.683594 454.582031 143.105469 C 455.128906 142.53125 455.703125 141.984375 456.300781 141.460938 C 456.898438 140.941406 457.523438 140.449219 458.167969 139.988281 C 458.8125 139.523438 459.480469 139.09375 460.167969 138.695312 C 460.851562 138.296875 461.558594 137.929688 462.277344 137.597656 C 463 137.265625 463.734375 136.96875 464.484375 136.707031 C 465.234375 136.445312 465.996094 136.21875 466.765625 136.03125 C 467.539062 135.839844 468.316406 135.6875 469.101562 135.570312 C 469.886719 135.457031 470.675781 135.378906 471.46875 135.335938 L 595.617188 135.335938 C 596.800781 135.339844 597.972656 135.421875 599.144531 135.589844 C 600.3125 135.757812 601.464844 136.007812 602.597656 136.339844 C 603.734375 136.671875 604.839844 137.078125 605.914062 137.566406 C 606.992188 138.054688 608.027344 138.617188 609.023438 139.25 C 610.019531 139.886719 610.96875 140.585938 611.863281 141.355469 C 612.761719 142.125 613.597656 142.953125 614.378906 143.84375 C 615.160156 144.730469 615.871094 145.667969 616.519531 146.65625 C 617.164062 147.644531 617.738281 148.675781 618.238281 149.746094 C 618.738281 150.816406 619.164062 151.917969 619.507812 153.046875 C 619.851562 154.175781 620.113281 155.324219 620.296875 156.492188 C 620.476562 157.660156 620.578125 158.835938 620.59375 160.015625 C 620.605469 161.199219 620.539062 162.375 620.386719 163.546875 C 620.234375 164.71875 620.003906 165.871094 619.6875 167.011719 C 619.371094 168.148438 618.976562 169.261719 618.503906 170.34375 C 618.03125 171.425781 617.484375 172.46875 616.863281 173.476562 C 616.242188 174.480469 615.554688 175.4375 614.796875 176.34375 L 519.6875 310.414062 L 595.617188 310.414062 C 596.4375 310.414062 597.257812 310.453125 598.074219 310.535156 C 598.890625 310.617188 599.703125 310.734375 600.507812 310.894531 C 601.3125 311.054688 602.109375 311.253906 602.894531 311.492188 C 603.679688 311.730469 604.453125 312.007812 605.210938 312.324219 C 605.96875 312.636719 606.710938 312.988281 607.433594 313.375 C 608.160156 313.761719 608.863281 314.183594 609.542969 314.640625 C 610.226562 315.09375 610.886719 315.582031 611.519531 316.105469 C 612.15625 316.625 612.761719 317.175781 613.34375 317.757812 C 613.921875 318.335938 614.472656 318.945312 614.996094 319.578125 C 615.515625 320.214844 616.003906 320.871094 616.460938 321.554688 C 616.917969 322.238281 617.339844 322.941406 617.726562 323.664062 C 618.113281 324.390625 618.460938 325.128906 618.777344 325.890625 C 619.089844 326.648438 619.367188 327.417969 619.605469 328.207031 C 619.84375 328.992188 620.042969 329.785156 620.203125 330.589844 C 620.363281 331.398438 620.484375 332.207031 620.5625 333.023438 C 620.644531 333.84375 620.683594 334.660156 620.683594 335.480469 C 620.683594 336.304688 620.644531 337.121094 620.5625 337.9375 C 620.484375 338.757812 620.363281 339.566406 620.203125 340.371094 C 620.042969 341.175781 619.84375 341.972656 619.605469 342.757812 C 619.367188 343.542969 619.089844 344.316406 618.777344 345.074219 C 618.460938 345.832031 618.113281 346.574219 617.726562 347.296875 C 617.339844 348.023438 616.917969 348.726562 616.460938 349.410156 C 616.003906 350.089844 615.515625 350.75 614.996094 351.382812 C 614.472656 352.019531 613.921875 352.625 613.34375 353.207031 C 612.761719 353.789062 612.15625 354.339844 611.519531 354.859375 C 610.886719 355.378906 610.226562 355.867188 609.542969 356.324219 C 608.863281 356.78125 608.160156 357.203125 607.433594 357.589844 C 606.710938 357.976562 605.96875 358.328125 605.210938 358.640625 C 604.453125 358.957031 603.679688 359.230469 602.894531 359.46875 C 602.109375 359.707031 601.3125 359.90625 600.507812 360.066406 C 599.703125 360.226562 598.890625 360.347656 598.074219 360.429688 C 597.257812 360.507812 596.4375 360.550781 595.617188 360.550781 L 471.734375 360.550781 C 469.183594 360.523438 466.699219 360.105469 464.277344 359.289062 C 461.859375 358.476562 459.628906 357.308594 457.578125 355.789062 C 456.917969 355.308594 456.285156 354.800781 455.671875 354.257812 C 455.0625 353.71875 454.480469 353.152344 453.925781 352.554688 C 453.371094 351.957031 452.84375 351.335938 452.351562 350.6875 C 451.855469 350.039062 451.394531 349.367188 450.964844 348.675781 C 450.535156 347.980469 450.140625 347.269531 449.78125 346.539062 C 449.421875 345.804688 449.097656 345.058594 448.808594 344.296875 C 448.523438 343.535156 448.273438 342.757812 448.0625 341.972656 C 447.847656 341.183594 447.675781 340.386719 447.542969 339.585938 C 447.40625 338.78125 447.3125 337.972656 447.253906 337.160156 C 447.199219 336.34375 447.183594 335.53125 447.207031 334.714844 C 447.230469 333.902344 447.292969 333.089844 447.394531 332.28125 C 447.496094 331.472656 447.640625 330.671875 447.820312 329.875 C 448 329.082031 448.21875 328.296875 448.476562 327.523438 C 448.730469 326.75 449.027344 325.988281 449.355469 325.242188 C 449.6875 324.5 450.054688 323.769531 450.453125 323.0625 C 450.855469 322.351562 451.289062 321.664062 451.757812 320.996094 L 547.929688 185.40625 Z M 507.253906 560.5625 L 559.570312 560.5625 L 533.511719 498.917969 Z M 580.933594 610.699219 L 486.152344 610.699219 L 482.050781 620.554688 C 481.742188 621.308594 481.398438 622.042969 481.015625 622.761719 C 480.636719 623.484375 480.21875 624.179688 479.769531 624.859375 C 479.316406 625.539062 478.832031 626.191406 478.316406 626.820312 C 477.800781 627.453125 477.253906 628.054688 476.679688 628.628906 C 476.101562 629.207031 475.5 629.75 474.867188 630.265625 C 474.238281 630.78125 473.582031 631.265625 472.90625 631.714844 C 472.226562 632.164062 471.527344 632.582031 470.804688 632.960938 C 470.085938 633.34375 469.347656 633.6875 468.59375 633.992188 C 467.839844 634.300781 467.074219 634.570312 466.292969 634.800781 C 465.511719 635.03125 464.71875 635.222656 463.917969 635.375 C 463.121094 635.527344 462.3125 635.640625 461.503906 635.710938 C 460.691406 635.78125 459.878906 635.8125 459.0625 635.804688 C 458.25 635.796875 457.4375 635.746094 456.628906 635.65625 C 455.820312 635.566406 455.015625 635.4375 454.21875 635.265625 C 453.421875 635.097656 452.636719 634.886719 451.859375 634.640625 C 451.085938 634.390625 450.324219 634.105469 449.578125 633.78125 C 448.816406 633.457031 448.074219 633.097656 447.351562 632.699219 C 446.628906 632.304688 445.925781 631.875 445.242188 631.40625 C 444.5625 630.941406 443.90625 630.441406 443.273438 629.914062 C 442.640625 629.382812 442.035156 628.820312 441.460938 628.230469 C 440.882812 627.640625 440.335938 627.023438 439.820312 626.382812 C 439.304688 625.738281 438.820312 625.070312 438.371094 624.378906 C 437.917969 623.6875 437.503906 622.972656 437.125 622.242188 C 436.742188 621.507812 436.398438 620.761719 436.09375 619.992188 C 435.785156 619.226562 435.519531 618.449219 435.289062 617.65625 C 435.058594 616.863281 434.867188 616.058594 434.71875 615.25 C 434.566406 614.4375 434.457031 613.621094 434.386719 612.796875 C 434.316406 611.976562 434.285156 611.152344 434.296875 610.328125 C 434.308594 609.5 434.359375 608.679688 434.453125 607.859375 C 434.542969 607.039062 434.675781 606.222656 434.847656 605.417969 C 435.019531 604.609375 435.230469 603.8125 435.480469 603.027344 C 435.734375 602.242188 436.019531 601.46875 436.347656 600.710938 L 510.890625 425.765625 C 511.207031 425.015625 511.554688 424.285156 511.945312 423.574219 C 512.332031 422.859375 512.753906 422.164062 513.207031 421.492188 C 513.664062 420.820312 514.148438 420.171875 514.667969 419.546875 C 515.1875 418.921875 515.734375 418.324219 516.3125 417.753906 C 516.890625 417.183594 517.496094 416.644531 518.125 416.132812 C 518.757812 415.621094 519.410156 415.140625 520.089844 414.695312 C 520.765625 414.246094 521.464844 413.832031 522.183594 413.457031 C 522.902344 413.078125 523.636719 412.734375 524.390625 412.429688 C 525.140625 412.121094 525.90625 411.851562 526.683594 411.621094 C 527.464844 411.390625 528.25 411.199219 529.046875 411.042969 C 529.847656 410.890625 530.648438 410.777344 531.457031 410.703125 C 532.265625 410.625 533.074219 410.589844 533.886719 410.597656 C 534.699219 410.601562 535.511719 410.644531 536.316406 410.730469 C 537.125 410.8125 537.925781 410.9375 538.722656 411.101562 C 539.519531 411.261719 540.304688 411.464844 541.078125 411.703125 C 541.855469 411.945312 542.617188 412.222656 543.367188 412.535156 C 544.839844 413.164062 546.242188 413.929688 547.566406 414.824219 C 548.894531 415.722656 550.125 416.738281 551.261719 417.871094 C 552.394531 419.003906 553.40625 420.234375 554.304688 421.5625 C 555.203125 422.890625 555.964844 424.292969 556.59375 425.765625 L 630.871094 600.84375 C 631.199219 601.601562 631.492188 602.371094 631.742188 603.160156 C 631.996094 603.945312 632.210938 604.742188 632.382812 605.550781 C 632.558594 606.355469 632.691406 607.171875 632.785156 607.992188 C 632.878906 608.8125 632.929688 609.636719 632.941406 610.460938 C 632.953125 611.285156 632.925781 612.113281 632.855469 612.933594 C 632.785156 613.757812 632.675781 614.574219 632.527344 615.386719 C 632.375 616.199219 632.1875 617.003906 631.957031 617.796875 C 631.726562 618.589844 631.457031 619.367188 631.152344 620.136719 C 630.84375 620.902344 630.5 621.652344 630.121094 622.386719 C 629.738281 623.117188 629.324219 623.832031 628.871094 624.523438 C 628.421875 625.214844 627.9375 625.882812 627.417969 626.527344 C 626.902344 627.171875 626.355469 627.785156 625.777344 628.375 C 625.199219 628.964844 624.589844 629.527344 623.957031 630.054688 C 623.324219 630.585938 622.667969 631.082031 621.984375 631.546875 C 621.300781 632.011719 620.597656 632.441406 619.871094 632.835938 C 619.144531 633.234375 618.402344 633.589844 617.640625 633.914062 C 616.894531 634.234375 616.136719 634.519531 615.359375 634.765625 C 614.585938 635.011719 613.800781 635.21875 613.007812 635.386719 C 612.210938 635.554688 611.410156 635.679688 610.601562 635.769531 C 609.792969 635.855469 608.984375 635.90625 608.171875 635.914062 C 607.359375 635.921875 606.546875 635.886719 605.738281 635.816406 C 604.929688 635.742188 604.125 635.628906 603.328125 635.476562 C 602.527344 635.324219 601.742188 635.132812 600.960938 634.902344 C 600.183594 634.671875 599.417969 634.402344 598.664062 634.09375 C 597.910156 633.789062 597.175781 633.445312 596.457031 633.0625 C 595.738281 632.683594 595.042969 632.269531 594.367188 631.820312 C 593.6875 631.371094 593.035156 630.886719 592.40625 630.375 C 591.777344 629.859375 591.175781 629.316406 590.601562 628.742188 C 590.023438 628.167969 589.480469 627.566406 588.964844 626.9375 C 588.449219 626.308594 587.964844 625.65625 587.515625 624.980469 C 587.066406 624.304688 586.648438 623.605469 586.265625 622.890625 C 585.886719 622.171875 585.542969 621.4375 585.234375 620.683594 Z M 580.933594 610.699219 " fill-opacity="1" fill-rule="nonzero"/></g></svg>