<svg xmlns="http://www.w3.org/2000/svg" xmlns:xlink="http://www.w3.org/1999/xlink" width="1024" zoomAndPan="magnify" viewBox="0 0 768 767.999994" height="1024" preserveAspectRatio="xMidYMid meet" version="1.0"><defs><clipPath id="263e384e62"><path d="M 0 44.640625 L 768 44.640625 L 768 723.390625 L 0 723.390625 Z M 0 44.640625 " clip-rule="nonzero"/></clipPath><clipPath id="3795a0d5d0"><path d="M 76.800781 117.386719 L 691.933594 117.386719 L 691.933594 633.691406 L 76.800781 633.691406 Z M 76.800781 117.386719 " clip-rule="nonzero"/></clipPath><clipPath id="d5322ae6ff"><path d="M 112.800781 117.386719 L 655.199219 117.386719 C 675.082031 117.386719 691.199219 133.503906 691.199219 153.386719 L 691.199219 597.691406 C 691.199219 617.574219 675.082031 633.691406 655.199219 633.691406 L 112.800781 633.691406 C 92.917969 633.691406 76.800781 617.574219 76.800781 597.691406 L 76.800781 153.386719 C 76.800781 133.503906 92.917969 117.386719 112.800781 117.386719 Z M 112.800781 117.386719 " clip-rule="nonzero"/></clipPath><clipPath id="074a96789f"><path d="M 0.800781 0.386719 L 615.199219 0.386719 L 615.199219 516.691406 L 0.800781 516.691406 Z M 0.800781 0.386719 " clip-rule="nonzero"/></clipPath><clipPath id="4aa99fa731"><path d="M 36.800781 0.386719 L 579.199219 0.386719 C 599.082031 0.386719 615.199219 16.503906 615.199219 36.386719 L 615.199219 480.691406 C 615.199219 500.574219 599.082031 516.691406 579.199219 516.691406 L 36.800781 516.691406 C 16.917969 516.691406 0.800781 500.574219 0.800781 480.691406 L 0.800781 36.386719 C 0.800781 16.503906 16.917969 0.386719 36.800781 0.386719 Z M 36.800781 0.386719 " clip-rule="nonzero"/></clipPath><clipPath id="970e2e4b75"><rect x="0" width="616" y="0" height="517"/></clipPath><clipPath id="9a28c45b05"><path d="M 143.199219 143.199219 L 433 143.199219 L 433 624.699219 L 143.199219 624.699219 Z M 143.199219 143.199219 " clip-rule="nonzero"/></clipPath><clipPath id="f60d582b87"><path d="M 560 303 L 624.699219 303 L 624.699219 368 L 560 368 Z M 560 303 " clip-rule="nonzero"/></clipPath><clipPath id="398ef9dec5"><path d="M 560 400 L 624.699219 400 L 624.699219 465 L 560 465 Z M 560 400 " clip-rule="nonzero"/></clipPath></defs><path fill="#000000" d="M 247.882812 530.734375 L 220.609375 530.734375 L 220.609375 158.164062 C 220.609375 151.644531 215.320312 146.359375 208.804688 146.359375 L 162.515625 146.359375 C 155.996094 146.359375 150.710938 151.644531 150.710938 158.164062 L 150.710938 530.742188 L 123.433594 530.742188 C 113.289062 530.742188 108.007812 542.828125 114.90625 550.273438 L 177.132812 617.429688 C 181.734375 622.394531 189.589844 622.394531 194.1875 617.429688 L 256.414062 550.273438 C 263.300781 542.824219 258.03125 530.734375 247.882812 530.734375 Z M 247.882812 530.734375 " fill-opacity="1" fill-rule="nonzero"/><path fill="#000000" d="M 275.472656 204.4375 L 275.472656 158.167969 C 275.472656 151.640625 280.765625 146.351562 287.289062 146.351562 L 644.929688 146.351562 C 651.457031 146.351562 656.746094 151.644531 656.746094 158.167969 L 656.746094 204.4375 C 656.746094 210.96875 651.453125 216.253906 644.929688 216.253906 L 287.289062 216.253906 C 280.765625 216.253906 275.472656 210.960938 275.472656 204.4375 Z M 275.472656 204.4375 " fill-opacity="1" fill-rule="nonzero"/><path fill="#000000" d="M 275.472656 320.917969 L 275.472656 274.644531 C 275.472656 268.117188 280.765625 262.828125 287.289062 262.828125 L 549.609375 262.828125 C 556.136719 262.828125 561.425781 268.121094 561.425781 274.644531 L 561.425781 320.917969 C 561.425781 327.445312 556.132812 332.730469 549.609375 332.730469 L 287.289062 332.730469 C 280.765625 332.730469 275.472656 327.445312 275.472656 320.917969 Z M 275.472656 320.917969 " fill-opacity="1" fill-rule="nonzero"/><path fill="#000000" d="M 275.472656 437.394531 L 275.472656 391.125 C 275.472656 384.59375 280.765625 379.308594 287.289062 379.308594 L 478.125 379.308594 C 484.652344 379.308594 489.941406 384.597656 489.941406 391.125 L 489.941406 437.394531 C 489.941406 443.921875 484.648438 449.210938 478.125 449.210938 L 287.289062 449.210938 C 280.765625 449.210938 275.472656 443.921875 275.472656 437.394531 Z M 275.472656 437.394531 " fill-opacity="1" fill-rule="nonzero"/><path fill="#000000" d="M 275.472656 553.871094 L 275.472656 507.601562 C 275.472656 501.070312 280.765625 495.785156 287.289062 495.785156 L 424.511719 495.785156 C 431.042969 495.785156 436.328125 501.078125 436.328125 507.601562 L 436.328125 553.871094 C 436.328125 560.402344 431.035156 565.6875 424.511719 565.6875 L 287.289062 565.6875 C 280.765625 565.691406 275.472656 560.402344 275.472656 553.871094 Z M 275.472656 553.871094 " fill-opacity="1" fill-rule="nonzero"/><g clip-path="url(#263e384e62)"><path fill="#000000" d="M 678.347656 723.117188 L 90.179688 723.117188 C 40.820312 723.117188 0.664062 682.960938 0.664062 633.597656 L 0.664062 133.90625 C 0.664062 84.542969 40.820312 44.386719 90.179688 44.386719 L 678.34375 44.386719 C 727.703125 44.386719 767.855469 84.542969 767.855469 133.90625 L 767.855469 633.597656 C 767.859375 682.960938 727.707031 723.117188 678.347656 723.117188 Z M 90.179688 97.042969 C 69.851562 97.042969 53.320312 113.578125 53.320312 133.90625 L 53.320312 633.597656 C 53.320312 653.917969 69.851562 670.460938 90.179688 670.460938 L 678.34375 670.460938 C 698.664062 670.460938 715.203125 653.917969 715.203125 633.597656 L 715.203125 133.90625 C 715.203125 113.578125 698.664062 97.042969 678.34375 97.042969 Z M 90.179688 97.042969 " fill-opacity="1" fill-rule="nonzero"/></g><g clip-path="url(#3795a0d5d0)"><g clip-path="url(#d5322ae6ff)"><g transform="matrix(1, 0, 0, 1, 76, 117)"><g clip-path="url(#970e2e4b75)"><g clip-path="url(#074a96789f)"><g clip-path="url(#4aa99fa731)"><path fill="#ffffff" d="M 0.800781 0.386719 L 615.933594 0.386719 L 615.933594 516.691406 L 0.800781 516.691406 Z M 0.800781 0.386719 " fill-opacity="1" fill-rule="nonzero"/></g></g></g></g></g></g><g clip-path="url(#9a28c45b05)"><path fill="#000000" d="M 175.300781 383.949219 C 175.300781 268.714844 268.714844 175.300781 383.949219 175.300781 C 394.085938 175.300781 404.042969 176.023438 413.777344 177.414062 C 422.550781 178.667969 430.683594 172.574219 431.9375 163.796875 C 433.191406 155.023438 427.097656 146.894531 418.324219 145.636719 C 407.085938 144.03125 395.613281 143.199219 383.949219 143.199219 C 250.988281 143.199219 143.199219 250.988281 143.199219 383.949219 C 143.199219 516.914062 250.988281 624.699219 383.949219 624.699219 C 395.613281 624.699219 407.085938 623.871094 418.324219 622.261719 C 427.097656 621.007812 433.191406 612.875 431.9375 604.101562 C 430.683594 595.328125 422.550781 589.230469 413.777344 590.488281 C 404.042969 591.878906 394.085938 592.601562 383.949219 592.601562 C 268.714844 592.601562 175.300781 499.183594 175.300781 383.949219 Z M 175.300781 383.949219 " fill-opacity="1" fill-rule="nonzero"/></g><path fill="#000000" d="M 496.300781 159.25 C 478.570312 159.25 464.199219 173.621094 464.199219 191.351562 C 464.199219 209.078125 478.570312 223.449219 496.300781 223.449219 C 514.027344 223.449219 528.398438 209.078125 528.398438 191.351562 C 528.398438 173.621094 514.027344 159.25 496.300781 159.25 Z M 496.300781 159.25 " fill-opacity="1" fill-rule="nonzero"/><path fill="#000000" d="M 560.5 223.449219 C 542.769531 223.449219 528.398438 237.820312 528.398438 255.550781 C 528.398438 273.277344 542.769531 287.648438 560.5 287.648438 C 578.230469 287.648438 592.601562 273.277344 592.601562 255.550781 C 592.601562 237.820312 578.230469 223.449219 560.5 223.449219 Z M 560.5 223.449219 " fill-opacity="1" fill-rule="nonzero"/><g clip-path="url(#f60d582b87)"><path fill="#000000" d="M 592.601562 303.699219 C 574.871094 303.699219 560.5 318.070312 560.5 335.800781 C 560.5 353.527344 574.871094 367.898438 592.601562 367.898438 C 610.328125 367.898438 624.699219 353.527344 624.699219 335.800781 C 624.699219 318.070312 610.328125 303.699219 592.601562 303.699219 Z M 592.601562 303.699219 " fill-opacity="1" fill-rule="nonzero"/></g><g clip-path="url(#398ef9dec5)"><path fill="#000000" d="M 592.601562 400 C 574.871094 400 560.5 414.371094 560.5 432.101562 C 560.5 449.828125 574.871094 464.199219 592.601562 464.199219 C 610.328125 464.199219 624.699219 449.828125 624.699219 432.101562 C 624.699219 414.371094 610.328125 400 592.601562 400 Z M 592.601562 400 " fill-opacity="1" fill-rule="nonzero"/></g><path fill="#000000" d="M 528.398438 512.351562 C 528.398438 494.621094 542.769531 480.25 560.5 480.25 C 578.230469 480.25 592.601562 494.621094 592.601562 512.351562 C 592.601562 530.078125 578.230469 544.449219 560.5 544.449219 C 542.769531 544.449219 528.398438 530.078125 528.398438 512.351562 Z M 528.398438 512.351562 " fill-opacity="1" fill-rule="nonzero"/><path fill="#000000" d="M 464.199219 576.550781 C 464.199219 558.820312 478.570312 544.449219 496.300781 544.449219 C 514.027344 544.449219 528.398438 558.820312 528.398438 576.550781 C 528.398438 594.277344 514.027344 608.648438 496.300781 608.648438 C 478.570312 608.648438 464.199219 594.277344 464.199219 576.550781 Z M 464.199219 576.550781 " fill-opacity="1" fill-rule="nonzero"/><path fill="#000000" d="M 383.949219 239.5 C 392.816406 239.5 400 246.6875 400 255.550781 L 400 383.949219 C 400 388.207031 398.308594 392.289062 395.300781 395.300781 L 331.097656 459.5 C 324.832031 465.765625 314.667969 465.765625 308.402344 459.5 C 302.132812 453.230469 302.132812 443.070312 308.402344 436.800781 L 367.898438 377.300781 L 367.898438 255.550781 C 367.898438 246.6875 375.085938 239.5 383.949219 239.5 Z M 383.949219 239.5 " fill-opacity="1" fill-rule="nonzero"/></svg>