<svg xmlns="http://www.w3.org/2000/svg" xmlns:xlink="http://www.w3.org/1999/xlink" width="1024" zoomAndPan="magnify" viewBox="0 0 768 767.999994" height="1024" preserveAspectRatio="xMidYMid meet" version="1.0"><path fill="#ffffff" d="M 51.199219 384 C 51.199219 200.199219 200.199219 51.199219 384 51.199219 C 400.167969 51.199219 416.050781 52.351562 431.574219 54.570312 C 445.570312 56.574219 458.539062 46.851562 460.542969 32.855469 C 462.542969 18.859375 452.820312 5.890625 438.824219 3.886719 C 420.90625 1.324219 402.601562 0 384 0 C 171.921875 0 0 171.921875 0 384 C 0 596.078125 171.921875 768 384 768 C 402.601562 768 420.90625 766.675781 438.824219 764.113281 C 452.820312 762.109375 462.542969 749.140625 460.542969 735.144531 C 458.539062 721.148438 445.570312 711.425781 431.574219 713.429688 C 416.050781 715.648438 400.167969 716.800781 384 716.800781 C 200.199219 716.800781 51.199219 567.800781 51.199219 384 Z M 51.199219 384 " fill-opacity="1" fill-rule="nonzero"/><path fill="#ffffff" d="M 563.199219 25.601562 C 534.921875 25.601562 512 48.523438 512 76.800781 C 512 105.078125 534.921875 128 563.199219 128 C 591.476562 128 614.398438 105.078125 614.398438 76.800781 C 614.398438 48.523438 591.476562 25.601562 563.199219 25.601562 Z M 563.199219 25.601562 " fill-opacity="1" fill-rule="nonzero"/><path fill="#ffffff" d="M 665.601562 128 C 637.320312 128 614.398438 150.921875 614.398438 179.199219 C 614.398438 207.476562 637.320312 230.398438 665.601562 230.398438 C 693.878906 230.398438 716.800781 207.476562 716.800781 179.199219 C 716.800781 150.921875 693.878906 128 665.601562 128 Z M 665.601562 128 " fill-opacity="1" fill-rule="nonzero"/><path fill="#ffffff" d="M 716.800781 256 C 688.523438 256 665.601562 278.921875 665.601562 307.199219 C 665.601562 335.476562 688.523438 358.398438 716.800781 358.398438 C 745.078125 358.398438 768 335.476562 768 307.199219 C 768 278.921875 745.078125 256 716.800781 256 Z M 716.800781 256 " fill-opacity="1" fill-rule="nonzero"/><path fill="#ffffff" d="M 716.800781 409.601562 C 688.523438 409.601562 665.601562 432.523438 665.601562 460.800781 C 665.601562 489.078125 688.523438 512 716.800781 512 C 745.078125 512 768 489.078125 768 460.800781 C 768 432.523438 745.078125 409.601562 716.800781 409.601562 Z M 716.800781 409.601562 " fill-opacity="1" fill-rule="nonzero"/><path fill="#ffffff" d="M 614.398438 588.800781 C 614.398438 560.523438 637.320312 537.601562 665.601562 537.601562 C 693.878906 537.601562 716.800781 560.523438 716.800781 588.800781 C 716.800781 617.078125 693.878906 640 665.601562 640 C 637.320312 640 614.398438 617.078125 614.398438 588.800781 Z M 614.398438 588.800781 " fill-opacity="1" fill-rule="nonzero"/><path fill="#ffffff" d="M 512 691.199219 C 512 662.921875 534.921875 640 563.199219 640 C 591.476562 640 614.398438 662.921875 614.398438 691.199219 C 614.398438 719.476562 591.476562 742.398438 563.199219 742.398438 C 534.921875 742.398438 512 719.476562 512 691.199219 Z M 512 691.199219 " fill-opacity="1" fill-rule="nonzero"/><path fill="#ffffff" d="M 384 153.601562 C 398.140625 153.601562 409.601562 165.0625 409.601562 179.199219 L 409.601562 384 C 409.601562 390.789062 406.902344 397.300781 402.101562 402.101562 L 299.703125 504.5 C 289.703125 514.5 273.496094 514.5 263.5 504.5 C 253.5 494.503906 253.5 478.296875 263.5 468.296875 L 358.398438 373.398438 L 358.398438 179.199219 C 358.398438 165.0625 369.859375 153.601562 384 153.601562 Z M 384 153.601562 " fill-opacity="1" fill-rule="nonzero"/></svg>