<svg xmlns="http://www.w3.org/2000/svg" xmlns:xlink="http://www.w3.org/1999/xlink" width="1024" zoomAndPan="magnify" viewBox="0 0 768 767.999994" height="1024" preserveAspectRatio="xMidYMid meet" version="1.0"><defs><clipPath id="f0df4bd8ef"><path d="M 0 44.640625 L 768 44.640625 L 768 723.390625 L 0 723.390625 Z M 0 44.640625 " clip-rule="nonzero"/></clipPath><clipPath id="d22bf1e01b"><path d="M 76.800781 117.386719 L 691.933594 117.386719 L 691.933594 633.691406 L 76.800781 633.691406 Z M 76.800781 117.386719 " clip-rule="nonzero"/></clipPath><clipPath id="bc63467c22"><path d="M 112.800781 117.386719 L 655.199219 117.386719 C 675.082031 117.386719 691.199219 133.503906 691.199219 153.386719 L 691.199219 597.691406 C 691.199219 617.574219 675.082031 633.691406 655.199219 633.691406 L 112.800781 633.691406 C 92.917969 633.691406 76.800781 617.574219 76.800781 597.691406 L 76.800781 153.386719 C 76.800781 133.503906 92.917969 117.386719 112.800781 117.386719 Z M 112.800781 117.386719 " clip-rule="nonzero"/></clipPath><clipPath id="03d0470b12"><path d="M 0.800781 0.386719 L 615.199219 0.386719 L 615.199219 516.691406 L 0.800781 516.691406 Z M 0.800781 0.386719 " clip-rule="nonzero"/></clipPath><clipPath id="84e0732bb4"><path d="M 36.800781 0.386719 L 579.199219 0.386719 C 599.082031 0.386719 615.199219 16.503906 615.199219 36.386719 L 615.199219 480.691406 C 615.199219 500.574219 599.082031 516.691406 579.199219 516.691406 L 36.800781 516.691406 C 16.917969 516.691406 0.800781 500.574219 0.800781 480.691406 L 0.800781 36.386719 C 0.800781 16.503906 16.917969 0.386719 36.800781 0.386719 Z M 36.800781 0.386719 " clip-rule="nonzero"/></clipPath><clipPath id="1c31856e18"><rect x="0" width="616" y="0" height="517"/></clipPath><clipPath id="d08a141183"><path d="M 143.199219 143.199219 L 433 143.199219 L 433 624.699219 L 143.199219 624.699219 Z M 143.199219 143.199219 " clip-rule="nonzero"/></clipPath><clipPath id="69dd331f86"><path d="M 560 303 L 624.699219 303 L 624.699219 368 L 560 368 Z M 560 303 " clip-rule="nonzero"/></clipPath><clipPath id="2d4bcaec73"><path d="M 560 400 L 624.699219 400 L 624.699219 465 L 560 465 Z M 560 400 " clip-rule="nonzero"/></clipPath></defs><path fill="#ffffff" d="M 247.882812 530.707031 L 220.609375 530.707031 L 220.609375 158.15625 C 220.609375 151.640625 215.320312 146.351562 208.804688 146.351562 L 162.515625 146.351562 C 155.996094 146.351562 150.710938 151.640625 150.710938 158.15625 L 150.710938 530.71875 L 123.433594 530.71875 C 113.289062 530.71875 108.007812 542.804688 114.90625 550.25 L 177.132812 617.398438 C 181.734375 622.363281 189.589844 622.363281 194.1875 617.398438 L 256.414062 550.25 C 263.300781 542.796875 258.03125 530.707031 247.882812 530.707031 Z M 247.882812 530.707031 " fill-opacity="1" fill-rule="nonzero"/><path fill="#ffffff" d="M 275.472656 204.429688 L 275.472656 158.164062 C 275.472656 151.632812 280.765625 146.347656 287.289062 146.347656 L 644.929688 146.347656 C 651.457031 146.347656 656.746094 151.640625 656.746094 158.164062 L 656.746094 204.429688 C 656.746094 210.960938 651.453125 216.246094 644.929688 216.246094 L 287.289062 216.246094 C 280.765625 216.246094 275.472656 210.953125 275.472656 204.429688 Z M 275.472656 204.429688 " fill-opacity="1" fill-rule="nonzero"/><path fill="#ffffff" d="M 275.472656 320.902344 L 275.472656 274.632812 C 275.472656 268.105469 280.765625 262.820312 287.289062 262.820312 L 549.609375 262.820312 C 556.136719 262.820312 561.425781 268.109375 561.425781 274.632812 L 561.425781 320.902344 C 561.425781 327.429688 556.132812 332.71875 549.609375 332.71875 L 287.289062 332.71875 C 280.765625 332.71875 275.472656 327.429688 275.472656 320.902344 Z M 275.472656 320.902344 " fill-opacity="1" fill-rule="nonzero"/><path fill="#ffffff" d="M 275.472656 437.375 L 275.472656 391.105469 C 275.472656 384.578125 280.765625 379.289062 287.289062 379.289062 L 478.125 379.289062 C 484.652344 379.289062 489.941406 384.582031 489.941406 391.105469 L 489.941406 437.375 C 489.941406 443.902344 484.648438 449.1875 478.125 449.1875 L 287.289062 449.1875 C 280.765625 449.1875 275.472656 443.902344 275.472656 437.375 Z M 275.472656 437.375 " fill-opacity="1" fill-rule="nonzero"/><path fill="#ffffff" d="M 275.472656 553.84375 L 275.472656 507.578125 C 275.472656 501.046875 280.765625 495.761719 287.289062 495.761719 L 424.511719 495.761719 C 431.042969 495.761719 436.328125 501.054688 436.328125 507.578125 L 436.328125 553.84375 C 436.328125 560.375 431.035156 565.660156 424.511719 565.660156 L 287.289062 565.660156 C 280.765625 565.664062 275.472656 560.375 275.472656 553.84375 Z M 275.472656 553.84375 " fill-opacity="1" fill-rule="nonzero"/><g clip-path="url(#f0df4bd8ef)"><path fill="#ffffff" d="M 678.347656 723.082031 L 90.179688 723.082031 C 40.820312 723.082031 0.664062 682.925781 0.664062 633.570312 L 0.664062 133.898438 C 0.664062 84.542969 40.820312 44.386719 90.179688 44.386719 L 678.34375 44.386719 C 727.703125 44.386719 767.855469 84.542969 767.855469 133.898438 L 767.855469 633.570312 C 767.859375 682.925781 727.707031 723.082031 678.347656 723.082031 Z M 90.179688 97.042969 C 69.851562 97.042969 53.320312 113.574219 53.320312 133.898438 L 53.320312 633.570312 C 53.320312 653.886719 69.851562 670.425781 90.179688 670.425781 L 678.34375 670.425781 C 698.664062 670.425781 715.203125 653.886719 715.203125 633.570312 L 715.203125 133.898438 C 715.203125 113.574219 698.664062 97.042969 678.34375 97.042969 Z M 90.179688 97.042969 " fill-opacity="1" fill-rule="nonzero"/></g><g clip-path="url(#d22bf1e01b)"><g clip-path="url(#bc63467c22)"><g transform="matrix(1, 0, 0, 1, 76, 117)"><g clip-path="url(#1c31856e18)"><g clip-path="url(#03d0470b12)"><g clip-path="url(#84e0732bb4)"><path fill="#ffffff" d="M 0.800781 0.386719 L 615.933594 0.386719 L 615.933594 516.691406 L 0.800781 516.691406 Z M 0.800781 0.386719 " fill-opacity="1" fill-rule="nonzero"/></g></g></g></g></g></g><g clip-path="url(#d08a141183)"><path fill="#ffffff" d="M 175.304688 383.996094 C 175.304688 268.742188 268.742188 175.304688 383.996094 175.304688 C 394.132812 175.304688 404.09375 176.027344 413.832031 177.421875 C 422.605469 178.675781 430.738281 172.578125 431.996094 163.800781 C 433.25 155.027344 427.152344 146.894531 418.375 145.636719 C 407.140625 144.03125 395.660156 143.199219 383.996094 143.199219 C 251.007812 143.199219 143.199219 251.007812 143.199219 383.996094 C 143.199219 516.984375 251.007812 624.792969 383.996094 624.792969 C 395.660156 624.792969 407.140625 623.964844 418.375 622.355469 C 427.152344 621.101562 433.25 612.96875 431.996094 604.191406 C 430.738281 595.414062 422.605469 589.316406 413.832031 590.574219 C 404.09375 591.964844 394.132812 592.6875 383.996094 592.6875 C 268.742188 592.6875 175.304688 499.253906 175.304688 383.996094 Z M 175.304688 383.996094 " fill-opacity="1" fill-rule="nonzero"/></g><path fill="#ffffff" d="M 496.367188 159.253906 C 478.636719 159.253906 464.261719 173.628906 464.261719 191.359375 C 464.261719 209.089844 478.636719 223.464844 496.367188 223.464844 C 514.101562 223.464844 528.476562 209.089844 528.476562 191.359375 C 528.476562 173.628906 514.101562 159.253906 496.367188 159.253906 Z M 496.367188 159.253906 " fill-opacity="1" fill-rule="nonzero"/><path fill="#ffffff" d="M 560.582031 223.464844 C 542.847656 223.464844 528.476562 237.839844 528.476562 255.570312 C 528.476562 273.304688 542.847656 287.679688 560.582031 287.679688 C 578.3125 287.679688 592.6875 273.304688 592.6875 255.570312 C 592.6875 237.839844 578.3125 223.464844 560.582031 223.464844 Z M 560.582031 223.464844 " fill-opacity="1" fill-rule="nonzero"/><g clip-path="url(#69dd331f86)"><path fill="#ffffff" d="M 592.6875 303.730469 C 574.957031 303.730469 560.582031 318.105469 560.582031 335.835938 C 560.582031 353.570312 574.957031 367.945312 592.6875 367.945312 C 610.421875 367.945312 624.792969 353.570312 624.792969 335.835938 C 624.792969 318.105469 610.421875 303.730469 592.6875 303.730469 Z M 592.6875 303.730469 " fill-opacity="1" fill-rule="nonzero"/></g><g clip-path="url(#2d4bcaec73)"><path fill="#ffffff" d="M 592.6875 400.050781 C 574.957031 400.050781 560.582031 414.425781 560.582031 432.15625 C 560.582031 449.890625 574.957031 464.261719 592.6875 464.261719 C 610.421875 464.261719 624.792969 449.890625 624.792969 432.15625 C 624.792969 414.425781 610.421875 400.050781 592.6875 400.050781 Z M 592.6875 400.050781 " fill-opacity="1" fill-rule="nonzero"/></g><path fill="#ffffff" d="M 528.476562 512.421875 C 528.476562 494.691406 542.847656 480.316406 560.582031 480.316406 C 578.3125 480.316406 592.6875 494.691406 592.6875 512.421875 C 592.6875 530.15625 578.3125 544.527344 560.582031 544.527344 C 542.847656 544.527344 528.476562 530.15625 528.476562 512.421875 Z M 528.476562 512.421875 " fill-opacity="1" fill-rule="nonzero"/><path fill="#ffffff" d="M 464.261719 576.632812 C 464.261719 558.902344 478.636719 544.527344 496.367188 544.527344 C 514.101562 544.527344 528.476562 558.902344 528.476562 576.632812 C 528.476562 594.367188 514.101562 608.742188 496.367188 608.742188 C 478.636719 608.742188 464.261719 594.367188 464.261719 576.632812 Z M 464.261719 576.632812 " fill-opacity="1" fill-rule="nonzero"/><path fill="#ffffff" d="M 383.996094 239.519531 C 392.863281 239.519531 400.050781 246.707031 400.050781 255.570312 L 400.050781 383.996094 C 400.050781 388.253906 398.359375 392.339844 395.347656 395.347656 L 331.136719 459.5625 C 324.867188 465.828125 314.703125 465.828125 308.433594 459.5625 C 302.164062 453.292969 302.164062 443.128906 308.433594 436.859375 L 367.945312 377.347656 L 367.945312 255.570312 C 367.945312 246.707031 375.132812 239.519531 383.996094 239.519531 Z M 383.996094 239.519531 " fill-opacity="1" fill-rule="nonzero"/></svg>