<svg xmlns="http://www.w3.org/2000/svg" xmlns:xlink="http://www.w3.org/1999/xlink" width="1024" zoomAndPan="magnify" viewBox="0 0 768 767.999994" height="1024" preserveAspectRatio="xMidYMid meet" version="1.0"><defs><clipPath id="5481c1c232"><path d="M 0 44.640625 L 768 44.640625 L 768 723.390625 L 0 723.390625 Z M 0 44.640625 " clip-rule="nonzero"/></clipPath><clipPath id="9a6c58dc26"><path d="M 76.800781 117.386719 L 691.933594 117.386719 L 691.933594 633.691406 L 76.800781 633.691406 Z M 76.800781 117.386719 " clip-rule="nonzero"/></clipPath><clipPath id="679e2e7a2b"><path d="M 112.800781 117.386719 L 655.199219 117.386719 C 675.082031 117.386719 691.199219 133.503906 691.199219 153.386719 L 691.199219 597.691406 C 691.199219 617.574219 675.082031 633.691406 655.199219 633.691406 L 112.800781 633.691406 C 92.917969 633.691406 76.800781 617.574219 76.800781 597.691406 L 76.800781 153.386719 C 76.800781 133.503906 92.917969 117.386719 112.800781 117.386719 Z M 112.800781 117.386719 " clip-rule="nonzero"/></clipPath><clipPath id="26c5829e44"><path d="M 0.800781 0.386719 L 615.199219 0.386719 L 615.199219 516.691406 L 0.800781 516.691406 Z M 0.800781 0.386719 " clip-rule="nonzero"/></clipPath><clipPath id="eb21dd10c2"><path d="M 36.800781 0.386719 L 579.199219 0.386719 C 599.082031 0.386719 615.199219 16.503906 615.199219 36.386719 L 615.199219 480.691406 C 615.199219 500.574219 599.082031 516.691406 579.199219 516.691406 L 36.800781 516.691406 C 16.917969 516.691406 0.800781 500.574219 0.800781 480.691406 L 0.800781 36.386719 C 0.800781 16.503906 16.917969 0.386719 36.800781 0.386719 Z M 36.800781 0.386719 " clip-rule="nonzero"/></clipPath><clipPath id="30151060eb"><rect x="0" width="616" y="0" height="517"/></clipPath></defs><path fill="#ffffff" d="M 247.882812 530.707031 L 220.609375 530.707031 L 220.609375 158.15625 C 220.609375 151.640625 215.320312 146.351562 208.804688 146.351562 L 162.515625 146.351562 C 155.996094 146.351562 150.710938 151.640625 150.710938 158.15625 L 150.710938 530.71875 L 123.433594 530.71875 C 113.289062 530.71875 108.007812 542.804688 114.90625 550.25 L 177.132812 617.398438 C 181.734375 622.363281 189.589844 622.363281 194.1875 617.398438 L 256.414062 550.25 C 263.300781 542.796875 258.03125 530.707031 247.882812 530.707031 Z M 247.882812 530.707031 " fill-opacity="1" fill-rule="nonzero"/><path fill="#ffffff" d="M 275.472656 204.429688 L 275.472656 158.164062 C 275.472656 151.632812 280.765625 146.347656 287.289062 146.347656 L 644.929688 146.347656 C 651.457031 146.347656 656.746094 151.640625 656.746094 158.164062 L 656.746094 204.429688 C 656.746094 210.960938 651.453125 216.246094 644.929688 216.246094 L 287.289062 216.246094 C 280.765625 216.246094 275.472656 210.953125 275.472656 204.429688 Z M 275.472656 204.429688 " fill-opacity="1" fill-rule="nonzero"/><path fill="#ffffff" d="M 275.472656 320.902344 L 275.472656 274.632812 C 275.472656 268.105469 280.765625 262.820312 287.289062 262.820312 L 549.609375 262.820312 C 556.136719 262.820312 561.425781 268.109375 561.425781 274.632812 L 561.425781 320.902344 C 561.425781 327.429688 556.132812 332.71875 549.609375 332.71875 L 287.289062 332.71875 C 280.765625 332.71875 275.472656 327.429688 275.472656 320.902344 Z M 275.472656 320.902344 " fill-opacity="1" fill-rule="nonzero"/><path fill="#ffffff" d="M 275.472656 437.375 L 275.472656 391.105469 C 275.472656 384.578125 280.765625 379.289062 287.289062 379.289062 L 478.125 379.289062 C 484.652344 379.289062 489.941406 384.582031 489.941406 391.105469 L 489.941406 437.375 C 489.941406 443.902344 484.648438 449.1875 478.125 449.1875 L 287.289062 449.1875 C 280.765625 449.1875 275.472656 443.902344 275.472656 437.375 Z M 275.472656 437.375 " fill-opacity="1" fill-rule="nonzero"/><path fill="#ffffff" d="M 275.472656 553.84375 L 275.472656 507.578125 C 275.472656 501.046875 280.765625 495.761719 287.289062 495.761719 L 424.511719 495.761719 C 431.042969 495.761719 436.328125 501.054688 436.328125 507.578125 L 436.328125 553.84375 C 436.328125 560.375 431.035156 565.660156 424.511719 565.660156 L 287.289062 565.660156 C 280.765625 565.664062 275.472656 560.375 275.472656 553.84375 Z M 275.472656 553.84375 " fill-opacity="1" fill-rule="nonzero"/><g clip-path="url(#5481c1c232)"><path fill="#ffffff" d="M 678.347656 723.082031 L 90.179688 723.082031 C 40.820312 723.082031 0.664062 682.925781 0.664062 633.570312 L 0.664062 133.898438 C 0.664062 84.542969 40.820312 44.386719 90.179688 44.386719 L 678.34375 44.386719 C 727.703125 44.386719 767.855469 84.542969 767.855469 133.898438 L 767.855469 633.570312 C 767.859375 682.925781 727.707031 723.082031 678.347656 723.082031 Z M 90.179688 97.042969 C 69.851562 97.042969 53.320312 113.574219 53.320312 133.898438 L 53.320312 633.570312 C 53.320312 653.886719 69.851562 670.425781 90.179688 670.425781 L 678.34375 670.425781 C 698.664062 670.425781 715.203125 653.886719 715.203125 633.570312 L 715.203125 133.898438 C 715.203125 113.574219 698.664062 97.042969 678.34375 97.042969 Z M 90.179688 97.042969 " fill-opacity="1" fill-rule="nonzero"/></g><g clip-path="url(#9a6c58dc26)"><g clip-path="url(#679e2e7a2b)"><g transform="matrix(1, 0, 0, 1, 76, 117)"><g clip-path="url(#30151060eb)"><g clip-path="url(#26c5829e44)"><g clip-path="url(#eb21dd10c2)"><path fill="#ffffff" d="M 0.800781 0.386719 L 615.933594 0.386719 L 615.933594 516.691406 L 0.800781 516.691406 Z M 0.800781 0.386719 " fill-opacity="1" fill-rule="nonzero"/></g></g></g></g></g></g><path fill="#ffffff" d="M 563.636719 445.964844 C 565.492188 500.71875 540.585938 552.996094 496.882812 586.042969 C 450.613281 621.03125 390.058594 629.488281 336.511719 609.550781 C 321.457031 603.945312 293.71875 586.042969 293.71875 586.042969 L 211.195312 610.890625 C 210.738281 611.03125 210.261719 610.839844 210.027344 610.421875 C 209.792969 610.007812 209.875 609.5 210.230469 609.179688 L 313.058594 516.066406 C 313.378906 515.773438 313.828125 515.71875 314.207031 515.921875 L 368.351562 544.769531 C 368.746094 544.980469 369.21875 544.910156 369.535156 544.59375 L 448.660156 465.472656 C 448.894531 465.234375 449.203125 465.132812 449.535156 465.1875 C 449.863281 465.242188 450.125 465.433594 450.273438 465.734375 L 465.160156 495.503906 C 465.335938 495.859375 465.683594 496.070312 466.085938 496.058594 C 466.484375 496.046875 466.820312 495.824219 466.984375 495.457031 L 513.996094 388.300781 C 514.164062 387.925781 514.09375 387.507812 513.808594 387.210938 C 513.527344 386.910156 513.117188 386.808594 512.730469 386.949219 L 402.171875 427.003906 C 401.796875 427.136719 401.550781 427.457031 401.511719 427.855469 C 401.472656 428.25 401.65625 428.609375 401.996094 428.816406 L 431.28125 446.308594 C 431.574219 446.480469 431.746094 446.761719 431.769531 447.097656 C 431.796875 447.4375 431.667969 447.738281 431.402344 447.953125 L 367.902344 500.066406 C 367.558594 500.347656 367.097656 500.375 366.722656 500.136719 L 319.265625 469.941406 C 318.875 469.691406 318.378906 469.734375 318.039062 470.050781 L 249.082031 534.082031 C 248.835938 534.308594 248.523438 534.398438 248.195312 534.332031 C 247.867188 534.265625 247.613281 534.058594 247.476562 533.753906 L 240.09375 517.21875 C 240.089844 517.207031 240.085938 517.199219 240.082031 517.1875 C 202.390625 425.109375 253.804688 306.457031 351.140625 267.25 C 351.609375 267.058594 352.136719 267.242188 352.390625 267.683594 C 352.648438 268.128906 352.53125 268.695312 352.113281 269 C 336.753906 280.226562 327.84375 298.65625 329.03125 318.132812 C 330.445312 341.304688 345.285156 363.390625 367.9375 368.480469 C 413.175781 378.644531 448.785156 346.648438 421.128906 295.222656 C 421.125 295.210938 421.117188 295.203125 421.109375 295.1875 C 389.648438 242 408.355469 189.886719 477.226562 138.847656 C 477.605469 138.566406 478.113281 138.582031 478.476562 138.886719 C 478.839844 139.191406 478.941406 139.6875 478.726562 140.113281 C 462.867188 171.441406 459.347656 201.347656 468.160156 229.828125 C 490.65625 302.539062 559.679688 329.304688 563.636719 445.964844 Z M 563.636719 445.964844 " fill-opacity="1" fill-rule="evenodd"/></svg>