<svg xmlns="http://www.w3.org/2000/svg" xmlns:xlink="http://www.w3.org/1999/xlink" width="1024" zoomAndPan="magnify" viewBox="0 0 768 767.999994" height="1024" preserveAspectRatio="xMidYMid meet" version="1.0"><path fill="#ff007f" d="M 664.210938 480.664062 C 667.105469 566.070312 628.257812 647.617188 560.082031 699.167969 C 487.914062 753.738281 393.453125 766.933594 309.929688 735.832031 C 286.445312 727.085938 243.179688 699.167969 243.179688 699.167969 L 114.457031 737.925781 C 113.742188 738.140625 113 737.84375 112.632812 737.195312 C 112.269531 736.546875 112.398438 735.753906 112.949219 735.253906 L 273.347656 590.011719 C 273.847656 589.558594 274.542969 589.472656 275.140625 589.789062 L 359.59375 634.785156 C 360.210938 635.117188 360.945312 635.007812 361.445312 634.511719 L 484.863281 511.089844 C 485.230469 510.722656 485.710938 510.566406 486.226562 510.652344 C 486.742188 510.734375 487.148438 511.03125 487.382812 511.5 L 510.597656 557.933594 C 510.878906 558.492188 511.421875 558.820312 512.042969 558.804688 C 512.667969 558.789062 513.195312 558.4375 513.445312 557.863281 L 586.78125 390.71875 C 587.039062 390.128906 586.929688 389.484375 586.488281 389.015625 C 586.046875 388.546875 585.410156 388.390625 584.804688 388.609375 L 412.347656 451.085938 C 411.765625 451.296875 411.378906 451.792969 411.320312 452.414062 C 411.261719 453.035156 411.542969 453.59375 412.078125 453.914062 L 457.757812 481.199219 C 458.210938 481.472656 458.480469 481.90625 458.519531 482.433594 C 458.558594 482.960938 458.355469 483.429688 457.949219 483.765625 L 358.894531 565.054688 C 358.359375 565.492188 357.636719 565.539062 357.054688 565.167969 L 283.027344 518.0625 C 282.417969 517.671875 281.648438 517.742188 281.113281 518.234375 L 173.554688 618.113281 C 173.167969 618.46875 172.683594 618.609375 172.167969 618.5 C 171.65625 618.398438 171.261719 618.078125 171.046875 617.601562 L 159.535156 591.808594 C 159.527344 591.792969 159.523438 591.78125 159.515625 591.765625 C 100.722656 448.132812 180.917969 263.054688 332.75 201.894531 C 333.480469 201.597656 334.304688 201.886719 334.699219 202.570312 C 335.101562 203.269531 334.917969 204.148438 334.265625 204.625 C 310.308594 222.136719 296.410156 250.882812 298.261719 281.261719 C 300.46875 317.410156 323.613281 351.859375 358.949219 359.796875 C 429.511719 375.652344 485.058594 325.746094 441.921875 245.53125 C 441.910156 245.511719 441.902344 245.496094 441.890625 245.476562 C 392.816406 162.511719 421.996094 81.222656 529.425781 1.605469 C 530.015625 1.167969 530.808594 1.191406 531.375 1.664062 C 531.9375 2.140625 532.097656 2.917969 531.765625 3.578125 C 507.027344 52.449219 501.535156 99.097656 515.28125 143.523438 C 550.375 256.945312 658.039062 298.691406 664.210938 480.664062 Z M 664.210938 480.664062 " fill-opacity="1" fill-rule="evenodd"/></svg>