<svg xmlns="http://www.w3.org/2000/svg" xmlns:xlink="http://www.w3.org/1999/xlink" width="1024" zoomAndPan="magnify" viewBox="0 0 768 767.999994" height="1024" preserveAspectRatio="xMidYMid meet" version="1.0"><defs><clipPath id="6aeffd134c"><path d="M 0 44.640625 L 768 44.640625 L 768 723.390625 L 0 723.390625 Z M 0 44.640625 " clip-rule="nonzero"/></clipPath><clipPath id="98ccdb84cf"><path d="M 76.800781 117.386719 L 691.933594 117.386719 L 691.933594 633.691406 L 76.800781 633.691406 Z M 76.800781 117.386719 " clip-rule="nonzero"/></clipPath><clipPath id="9d96e639a7"><path d="M 112.800781 117.386719 L 655.199219 117.386719 C 675.082031 117.386719 691.199219 133.503906 691.199219 153.386719 L 691.199219 597.691406 C 691.199219 617.574219 675.082031 633.691406 655.199219 633.691406 L 112.800781 633.691406 C 92.917969 633.691406 76.800781 617.574219 76.800781 597.691406 L 76.800781 153.386719 C 76.800781 133.503906 92.917969 117.386719 112.800781 117.386719 Z M 112.800781 117.386719 " clip-rule="nonzero"/></clipPath><clipPath id="33a150ff2e"><path d="M 0.800781 0.386719 L 615.199219 0.386719 L 615.199219 516.691406 L 0.800781 516.691406 Z M 0.800781 0.386719 " clip-rule="nonzero"/></clipPath><clipPath id="fb463eade2"><path d="M 36.800781 0.386719 L 579.199219 0.386719 C 599.082031 0.386719 615.199219 16.503906 615.199219 36.386719 L 615.199219 480.691406 C 615.199219 500.574219 599.082031 516.691406 579.199219 516.691406 L 36.800781 516.691406 C 16.917969 516.691406 0.800781 500.574219 0.800781 480.691406 L 0.800781 36.386719 C 0.800781 16.503906 16.917969 0.386719 36.800781 0.386719 Z M 36.800781 0.386719 " clip-rule="nonzero"/></clipPath><clipPath id="453c8c6c23"><rect x="0" width="616" y="0" height="517"/></clipPath></defs><path fill="#000000" d="M 247.882812 530.734375 L 220.609375 530.734375 L 220.609375 158.164062 C 220.609375 151.644531 215.320312 146.359375 208.804688 146.359375 L 162.515625 146.359375 C 155.996094 146.359375 150.710938 151.644531 150.710938 158.164062 L 150.710938 530.742188 L 123.433594 530.742188 C 113.289062 530.742188 108.007812 542.828125 114.90625 550.273438 L 177.132812 617.429688 C 181.734375 622.394531 189.589844 622.394531 194.1875 617.429688 L 256.414062 550.273438 C 263.300781 542.824219 258.03125 530.734375 247.882812 530.734375 Z M 247.882812 530.734375 " fill-opacity="1" fill-rule="nonzero"/><path fill="#000000" d="M 275.472656 204.4375 L 275.472656 158.167969 C 275.472656 151.640625 280.765625 146.351562 287.289062 146.351562 L 644.929688 146.351562 C 651.457031 146.351562 656.746094 151.644531 656.746094 158.167969 L 656.746094 204.4375 C 656.746094 210.96875 651.453125 216.253906 644.929688 216.253906 L 287.289062 216.253906 C 280.765625 216.253906 275.472656 210.960938 275.472656 204.4375 Z M 275.472656 204.4375 " fill-opacity="1" fill-rule="nonzero"/><path fill="#000000" d="M 275.472656 320.917969 L 275.472656 274.644531 C 275.472656 268.117188 280.765625 262.828125 287.289062 262.828125 L 549.609375 262.828125 C 556.136719 262.828125 561.425781 268.121094 561.425781 274.644531 L 561.425781 320.917969 C 561.425781 327.445312 556.132812 332.730469 549.609375 332.730469 L 287.289062 332.730469 C 280.765625 332.730469 275.472656 327.445312 275.472656 320.917969 Z M 275.472656 320.917969 " fill-opacity="1" fill-rule="nonzero"/><path fill="#000000" d="M 275.472656 437.394531 L 275.472656 391.125 C 275.472656 384.59375 280.765625 379.308594 287.289062 379.308594 L 478.125 379.308594 C 484.652344 379.308594 489.941406 384.597656 489.941406 391.125 L 489.941406 437.394531 C 489.941406 443.921875 484.648438 449.210938 478.125 449.210938 L 287.289062 449.210938 C 280.765625 449.210938 275.472656 443.921875 275.472656 437.394531 Z M 275.472656 437.394531 " fill-opacity="1" fill-rule="nonzero"/><path fill="#000000" d="M 275.472656 553.871094 L 275.472656 507.601562 C 275.472656 501.070312 280.765625 495.785156 287.289062 495.785156 L 424.511719 495.785156 C 431.042969 495.785156 436.328125 501.078125 436.328125 507.601562 L 436.328125 553.871094 C 436.328125 560.402344 431.035156 565.6875 424.511719 565.6875 L 287.289062 565.6875 C 280.765625 565.691406 275.472656 560.402344 275.472656 553.871094 Z M 275.472656 553.871094 " fill-opacity="1" fill-rule="nonzero"/><g clip-path="url(#6aeffd134c)"><path fill="#000000" d="M 678.347656 723.117188 L 90.179688 723.117188 C 40.820312 723.117188 0.664062 682.960938 0.664062 633.597656 L 0.664062 133.90625 C 0.664062 84.542969 40.820312 44.386719 90.179688 44.386719 L 678.34375 44.386719 C 727.703125 44.386719 767.855469 84.542969 767.855469 133.90625 L 767.855469 633.597656 C 767.859375 682.960938 727.707031 723.117188 678.347656 723.117188 Z M 90.179688 97.042969 C 69.851562 97.042969 53.320312 113.578125 53.320312 133.90625 L 53.320312 633.597656 C 53.320312 653.917969 69.851562 670.460938 90.179688 670.460938 L 678.34375 670.460938 C 698.664062 670.460938 715.203125 653.917969 715.203125 633.597656 L 715.203125 133.90625 C 715.203125 113.578125 698.664062 97.042969 678.34375 97.042969 Z M 90.179688 97.042969 " fill-opacity="1" fill-rule="nonzero"/></g><g clip-path="url(#98ccdb84cf)"><g clip-path="url(#9d96e639a7)"><g transform="matrix(1, 0, 0, 1, 76, 117)"><g clip-path="url(#453c8c6c23)"><g clip-path="url(#33a150ff2e)"><g clip-path="url(#fb463eade2)"><path fill="#ffffff" d="M 0.800781 0.386719 L 615.933594 0.386719 L 615.933594 516.691406 L 0.800781 516.691406 Z M 0.800781 0.386719 " fill-opacity="1" fill-rule="nonzero"/></g></g></g></g></g></g><path fill="#000000" d="M 563.53125 445.746094 C 565.386719 500.457031 540.488281 552.699219 496.796875 585.726562 C 450.542969 620.683594 390.003906 629.136719 336.472656 609.210938 C 321.421875 603.609375 293.691406 585.726562 293.691406 585.726562 L 211.195312 610.554688 C 210.738281 610.691406 210.261719 610.5 210.027344 610.085938 C 209.792969 609.671875 209.875 609.164062 210.226562 608.84375 L 313.027344 515.796875 C 313.347656 515.503906 313.792969 515.449219 314.175781 515.652344 L 368.300781 544.480469 C 368.699219 544.691406 369.167969 544.621094 369.488281 544.304688 L 448.585938 465.238281 C 448.824219 465 449.132812 464.902344 449.460938 464.953125 C 449.792969 465.007812 450.050781 465.199219 450.203125 465.5 L 465.082031 495.246094 C 465.261719 495.605469 465.609375 495.8125 466.007812 495.804688 C 466.410156 495.792969 466.746094 495.566406 466.90625 495.199219 L 513.90625 388.125 C 514.074219 387.746094 514 387.332031 513.71875 387.03125 C 513.4375 386.730469 513.027344 386.632812 512.640625 386.773438 L 402.113281 426.796875 C 401.738281 426.929688 401.492188 427.25 401.453125 427.648438 C 401.417969 428.042969 401.597656 428.402344 401.941406 428.605469 L 431.214844 446.089844 C 431.507812 446.261719 431.679688 446.539062 431.703125 446.878906 C 431.730469 447.214844 431.601562 447.515625 431.335938 447.730469 L 367.855469 499.808594 C 367.511719 500.089844 367.046875 500.117188 366.675781 499.878906 L 319.230469 469.703125 C 318.839844 469.453125 318.347656 469.496094 318.003906 469.8125 L 249.070312 533.800781 C 248.824219 534.027344 248.511719 534.117188 248.183594 534.046875 C 247.851562 533.980469 247.601562 533.777344 247.464844 533.472656 L 240.085938 516.949219 C 240.078125 516.9375 240.074219 516.929688 240.070312 516.917969 C 202.390625 424.902344 253.789062 306.335938 351.097656 267.15625 C 351.566406 266.96875 352.09375 267.152344 352.347656 267.589844 C 352.605469 268.039062 352.488281 268.601562 352.070312 268.90625 C 336.714844 280.125 327.808594 298.539062 328.996094 318.003906 C 330.410156 341.160156 345.242188 363.230469 367.890625 368.316406 C 413.113281 378.472656 448.710938 346.5 421.066406 295.113281 C 421.058594 295.097656 421.054688 295.089844 421.046875 295.078125 C 389.59375 241.925781 408.296875 189.851562 477.148438 138.847656 C 477.527344 138.566406 478.035156 138.582031 478.394531 138.882812 C 478.757812 139.1875 478.859375 139.6875 478.648438 140.109375 C 462.792969 171.417969 459.273438 201.304688 468.082031 229.761719 C 490.574219 302.421875 559.574219 329.167969 563.53125 445.746094 Z M 563.53125 445.746094 " fill-opacity="1" fill-rule="evenodd"/></svg>