<svg xmlns="http://www.w3.org/2000/svg" xmlns:xlink="http://www.w3.org/1999/xlink" width="1024" zoomAndPan="magnify" viewBox="0 0 768 767.999994" height="1024" preserveAspectRatio="xMidYMid meet" version="1.0"><path fill="#000000" d="M 664.070312 480.664062 C 666.964844 566.070312 628.125 647.617188 559.96875 699.167969 C 487.816406 753.738281 393.382812 766.933594 309.878906 735.832031 C 286.402344 727.085938 243.144531 699.167969 243.144531 699.167969 L 114.453125 737.925781 C 113.742188 738.140625 112.996094 737.84375 112.632812 737.195312 C 112.265625 736.546875 112.394531 735.753906 112.945312 735.253906 L 273.304688 590.011719 C 273.804688 589.558594 274.5 589.472656 275.097656 589.789062 L 359.527344 634.785156 C 360.148438 635.117188 360.882812 635.007812 361.378906 634.511719 L 484.769531 511.089844 C 485.136719 510.722656 485.617188 510.566406 486.132812 510.652344 C 486.648438 510.734375 487.050781 511.03125 487.285156 511.5 L 510.496094 557.933594 C 510.777344 558.492188 511.320312 558.820312 511.941406 558.804688 C 512.566406 558.789062 513.089844 558.4375 513.34375 557.863281 L 586.660156 390.71875 C 586.917969 390.128906 586.808594 389.484375 586.367188 389.015625 C 585.929688 388.546875 585.289062 388.390625 584.6875 388.609375 L 412.273438 451.085938 C 411.6875 451.296875 411.300781 451.792969 411.242188 452.414062 C 411.183594 453.035156 411.46875 453.59375 412 453.914062 L 457.667969 481.199219 C 458.121094 481.472656 458.390625 481.90625 458.429688 482.433594 C 458.46875 482.960938 458.269531 483.429688 457.859375 483.765625 L 358.832031 565.054688 C 358.296875 565.492188 357.574219 565.539062 356.988281 565.167969 L 282.984375 518.0625 C 282.371094 517.671875 281.601562 517.742188 281.070312 518.234375 L 173.535156 618.113281 C 173.152344 618.46875 172.664062 618.609375 172.152344 618.5 C 171.636719 618.398438 171.246094 618.078125 171.03125 617.601562 L 159.519531 591.808594 C 159.511719 591.792969 159.507812 591.78125 159.5 591.765625 C 100.722656 448.132812 180.898438 263.054688 332.691406 201.894531 C 333.425781 201.597656 334.246094 201.886719 334.640625 202.570312 C 335.042969 203.269531 334.859375 204.148438 334.207031 204.625 C 310.257812 222.136719 296.359375 250.882812 298.214844 281.261719 C 300.417969 317.410156 323.558594 351.859375 358.882812 359.796875 C 429.429688 375.652344 484.960938 325.746094 441.835938 245.53125 C 441.828125 245.511719 441.816406 245.496094 441.804688 245.476562 C 392.746094 162.511719 421.914062 81.222656 529.316406 1.605469 C 529.910156 1.167969 530.703125 1.191406 531.265625 1.664062 C 531.832031 2.140625 531.992188 2.917969 531.65625 3.578125 C 506.925781 52.449219 501.433594 99.097656 515.175781 143.523438 C 550.261719 256.945312 657.898438 298.691406 664.070312 480.664062 Z M 664.070312 480.664062 " fill-opacity="1" fill-rule="evenodd"/></svg>