<svg xmlns="http://www.w3.org/2000/svg" xmlns:xlink="http://www.w3.org/1999/xlink" width="1024" zoomAndPan="magnify" viewBox="0 0 768 767.999994" height="1024" preserveAspectRatio="xMidYMid meet" version="1.0"><defs><clipPath id="f5afbf5e60"><path d="M 0 44.640625 L 768 44.640625 L 768 723.390625 L 0 723.390625 Z M 0 44.640625 " clip-rule="nonzero"/></clipPath><clipPath id="d802b14b46"><path d="M 76.800781 117.386719 L 691.933594 117.386719 L 691.933594 633.691406 L 76.800781 633.691406 Z M 76.800781 117.386719 " clip-rule="nonzero"/></clipPath><clipPath id="d6e8497099"><path d="M 112.800781 117.386719 L 655.199219 117.386719 C 675.082031 117.386719 691.199219 133.503906 691.199219 153.386719 L 691.199219 597.691406 C 691.199219 617.574219 675.082031 633.691406 655.199219 633.691406 L 112.800781 633.691406 C 92.917969 633.691406 76.800781 617.574219 76.800781 597.691406 L 76.800781 153.386719 C 76.800781 133.503906 92.917969 117.386719 112.800781 117.386719 Z M 112.800781 117.386719 " clip-rule="nonzero"/></clipPath><clipPath id="0e64015054"><path d="M 0.800781 0.386719 L 615.199219 0.386719 L 615.199219 516.691406 L 0.800781 516.691406 Z M 0.800781 0.386719 " clip-rule="nonzero"/></clipPath><clipPath id="a5ea77ab25"><path d="M 36.800781 0.386719 L 579.199219 0.386719 C 599.082031 0.386719 615.199219 16.503906 615.199219 36.386719 L 615.199219 480.691406 C 615.199219 500.574219 599.082031 516.691406 579.199219 516.691406 L 36.800781 516.691406 C 16.917969 516.691406 0.800781 500.574219 0.800781 480.691406 L 0.800781 36.386719 C 0.800781 16.503906 16.917969 0.386719 36.800781 0.386719 Z M 36.800781 0.386719 " clip-rule="nonzero"/></clipPath><clipPath id="58d62766c1"><rect x="0" width="616" y="0" height="517"/></clipPath></defs><path fill="#000000" d="M 247.882812 530.734375 L 220.609375 530.734375 L 220.609375 158.164062 C 220.609375 151.644531 215.320312 146.359375 208.804688 146.359375 L 162.515625 146.359375 C 155.996094 146.359375 150.710938 151.644531 150.710938 158.164062 L 150.710938 530.742188 L 123.433594 530.742188 C 113.289062 530.742188 108.007812 542.828125 114.90625 550.273438 L 177.132812 617.429688 C 181.734375 622.394531 189.589844 622.394531 194.1875 617.429688 L 256.414062 550.273438 C 263.300781 542.824219 258.03125 530.734375 247.882812 530.734375 Z M 247.882812 530.734375 " fill-opacity="1" fill-rule="nonzero"/><path fill="#000000" d="M 275.472656 204.4375 L 275.472656 158.167969 C 275.472656 151.640625 280.765625 146.351562 287.289062 146.351562 L 644.929688 146.351562 C 651.457031 146.351562 656.746094 151.644531 656.746094 158.167969 L 656.746094 204.4375 C 656.746094 210.96875 651.453125 216.253906 644.929688 216.253906 L 287.289062 216.253906 C 280.765625 216.253906 275.472656 210.960938 275.472656 204.4375 Z M 275.472656 204.4375 " fill-opacity="1" fill-rule="nonzero"/><path fill="#000000" d="M 275.472656 320.917969 L 275.472656 274.644531 C 275.472656 268.117188 280.765625 262.828125 287.289062 262.828125 L 549.609375 262.828125 C 556.136719 262.828125 561.425781 268.121094 561.425781 274.644531 L 561.425781 320.917969 C 561.425781 327.445312 556.132812 332.730469 549.609375 332.730469 L 287.289062 332.730469 C 280.765625 332.730469 275.472656 327.445312 275.472656 320.917969 Z M 275.472656 320.917969 " fill-opacity="1" fill-rule="nonzero"/><path fill="#000000" d="M 275.472656 437.394531 L 275.472656 391.125 C 275.472656 384.59375 280.765625 379.308594 287.289062 379.308594 L 478.125 379.308594 C 484.652344 379.308594 489.941406 384.597656 489.941406 391.125 L 489.941406 437.394531 C 489.941406 443.921875 484.648438 449.210938 478.125 449.210938 L 287.289062 449.210938 C 280.765625 449.210938 275.472656 443.921875 275.472656 437.394531 Z M 275.472656 437.394531 " fill-opacity="1" fill-rule="nonzero"/><path fill="#000000" d="M 275.472656 553.871094 L 275.472656 507.601562 C 275.472656 501.070312 280.765625 495.785156 287.289062 495.785156 L 424.511719 495.785156 C 431.042969 495.785156 436.328125 501.078125 436.328125 507.601562 L 436.328125 553.871094 C 436.328125 560.402344 431.035156 565.6875 424.511719 565.6875 L 287.289062 565.6875 C 280.765625 565.691406 275.472656 560.402344 275.472656 553.871094 Z M 275.472656 553.871094 " fill-opacity="1" fill-rule="nonzero"/><g clip-path="url(#f5afbf5e60)"><path fill="#000000" d="M 678.347656 723.117188 L 90.179688 723.117188 C 40.820312 723.117188 0.664062 682.960938 0.664062 633.597656 L 0.664062 133.90625 C 0.664062 84.542969 40.820312 44.386719 90.179688 44.386719 L 678.34375 44.386719 C 727.703125 44.386719 767.855469 84.542969 767.855469 133.90625 L 767.855469 633.597656 C 767.859375 682.960938 727.707031 723.117188 678.347656 723.117188 Z M 90.179688 97.042969 C 69.851562 97.042969 53.320312 113.578125 53.320312 133.90625 L 53.320312 633.597656 C 53.320312 653.917969 69.851562 670.460938 90.179688 670.460938 L 678.34375 670.460938 C 698.664062 670.460938 715.203125 653.917969 715.203125 633.597656 L 715.203125 133.90625 C 715.203125 113.578125 698.664062 97.042969 678.34375 97.042969 Z M 90.179688 97.042969 " fill-opacity="1" fill-rule="nonzero"/></g><g clip-path="url(#d802b14b46)"><g clip-path="url(#d6e8497099)"><g transform="matrix(1, 0, 0, 1, 76, 117)"><g clip-path="url(#58d62766c1)"><g clip-path="url(#0e64015054)"><g clip-path="url(#a5ea77ab25)"><path fill="#ffffff" d="M 0.800781 0.386719 L 615.933594 0.386719 L 615.933594 516.691406 L 0.800781 516.691406 Z M 0.800781 0.386719 " fill-opacity="1" fill-rule="nonzero"/></g></g></g></g></g></g><path fill="#000000" d="M 235.082031 158.289062 C 235.019531 157.433594 235 156.578125 235.027344 155.722656 C 235.050781 154.867188 235.121094 154.011719 235.234375 153.164062 C 235.347656 152.3125 235.503906 151.472656 235.703125 150.640625 C 235.902344 149.808594 236.144531 148.984375 236.429688 148.179688 C 236.710938 147.371094 237.039062 146.578125 237.402344 145.804688 C 237.769531 145.027344 238.171875 144.273438 238.617188 143.539062 C 239.058594 142.808594 239.539062 142.097656 240.054688 141.414062 C 240.570312 140.730469 241.121094 140.074219 241.703125 139.449219 C 242.285156 138.820312 242.898438 138.222656 243.542969 137.660156 C 244.1875 137.09375 244.859375 136.566406 245.558594 136.070312 C 246.257812 135.574219 246.980469 135.117188 247.726562 134.695312 C 248.472656 134.273438 249.238281 133.894531 250.023438 133.550781 C 250.8125 133.207031 251.613281 132.90625 252.429688 132.648438 C 253.246094 132.386719 254.070312 132.171875 254.910156 131.996094 C 255.75 131.820312 256.59375 131.691406 257.449219 131.601562 C 258.300781 131.515625 259.152344 131.46875 260.011719 131.46875 C 260.867188 131.46875 261.722656 131.515625 262.574219 131.601562 C 263.425781 131.691406 264.273438 131.820312 265.109375 131.996094 C 265.949219 132.171875 266.777344 132.386719 267.59375 132.648438 C 268.410156 132.90625 269.210938 133.207031 269.996094 133.550781 C 270.78125 133.894531 271.546875 134.273438 272.292969 134.695312 C 273.039062 135.117188 273.761719 135.574219 274.460938 136.070312 C 275.160156 136.566406 275.832031 137.09375 276.476562 137.660156 C 277.121094 138.222656 277.734375 138.820312 278.320312 139.449219 C 278.902344 140.074219 279.453125 140.730469 279.96875 141.414062 C 280.484375 142.097656 280.964844 142.808594 281.40625 143.539062 C 281.847656 144.273438 282.253906 145.027344 282.617188 145.804688 C 282.984375 146.578125 283.308594 147.371094 283.59375 148.179688 C 283.878906 148.984375 284.117188 149.808594 284.320312 150.640625 C 284.519531 151.472656 284.675781 152.3125 284.789062 153.164062 C 284.902344 154.011719 284.96875 154.867188 284.996094 155.722656 C 285.019531 156.578125 285.003906 157.433594 284.941406 158.289062 L 284.941406 551.523438 L 342.195312 493.804688 C 342.773438 493.214844 343.375 492.65625 344.007812 492.125 C 344.640625 491.597656 345.296875 491.101562 345.976562 490.636719 C 346.660156 490.175781 347.359375 489.746094 348.085938 489.351562 C 348.808594 488.960938 349.550781 488.601562 350.308594 488.28125 C 351.070312 487.964844 351.84375 487.683594 352.628906 487.441406 C 353.417969 487.199219 354.214844 486.996094 355.023438 486.832031 C 355.828125 486.667969 356.644531 486.546875 357.460938 486.464844 C 358.28125 486.382812 359.105469 486.339844 359.925781 486.339844 C 360.75 486.339844 361.574219 486.382812 362.394531 486.464844 C 363.210938 486.546875 364.027344 486.667969 364.832031 486.832031 C 365.640625 486.996094 366.4375 487.199219 367.226562 487.441406 C 368.011719 487.683594 368.785156 487.964844 369.546875 488.28125 C 370.304688 488.601562 371.046875 488.960938 371.769531 489.351562 C 372.496094 489.746094 373.195312 490.175781 373.878906 490.636719 C 374.558594 491.101562 375.214844 491.597656 375.847656 492.125 C 376.476562 492.65625 377.082031 493.214844 377.65625 493.804688 C 378.230469 494.390625 378.777344 495.003906 379.292969 495.644531 C 379.808594 496.285156 380.289062 496.949219 380.738281 497.636719 C 381.191406 498.324219 381.605469 499.03125 381.988281 499.757812 C 382.371094 500.484375 382.71875 501.230469 383.027344 501.988281 C 383.339844 502.75 383.609375 503.523438 383.84375 504.3125 C 384.082031 505.101562 384.277344 505.898438 384.433594 506.703125 C 384.59375 507.507812 384.710938 508.320312 384.792969 509.140625 C 384.871094 509.957031 384.910156 510.777344 384.910156 511.597656 C 384.910156 512.421875 384.871094 513.238281 384.792969 514.058594 C 384.710938 514.875 384.59375 515.6875 384.433594 516.492188 C 384.277344 517.300781 384.082031 518.097656 383.84375 518.882812 C 383.609375 519.671875 383.339844 520.445312 383.027344 521.207031 C 382.71875 521.96875 382.371094 522.710938 381.988281 523.4375 C 381.605469 524.167969 381.191406 524.875 380.738281 525.5625 C 380.289062 526.246094 379.808594 526.910156 379.292969 527.550781 C 378.777344 528.191406 378.230469 528.804688 377.65625 529.394531 L 277.675781 630.035156 C 276.898438 630.839844 276.078125 631.59375 275.207031 632.300781 C 273.882812 633.378906 272.4375 634.269531 270.875 634.96875 C 267.433594 636.78125 263.769531 637.667969 259.878906 637.632812 C 255.953125 637.636719 252.242188 636.75 248.746094 634.96875 C 247.328125 633.976562 246.0625 632.820312 244.945312 631.5 L 242.28125 629.234375 L 142.296875 528.59375 C 141.714844 528.011719 141.164062 527.402344 140.640625 526.761719 C 140.117188 526.125 139.628906 525.464844 139.171875 524.777344 C 138.714844 524.09375 138.292969 523.386719 137.902344 522.660156 C 137.515625 521.933594 137.164062 521.1875 136.847656 520.425781 C 136.535156 519.664062 136.257812 518.890625 136.019531 518.101562 C 135.78125 517.3125 135.578125 516.515625 135.417969 515.707031 C 135.257812 514.898438 135.136719 514.085938 135.058594 513.265625 C 134.976562 512.445312 134.9375 511.621094 134.9375 510.796875 C 134.9375 509.972656 134.976562 509.152344 135.058594 508.332031 C 135.136719 507.511719 135.257812 506.699219 135.417969 505.890625 C 135.578125 505.082031 135.78125 504.285156 136.019531 503.496094 C 136.257812 502.707031 136.535156 501.929688 136.847656 501.167969 C 137.164062 500.410156 137.515625 499.664062 137.902344 498.9375 C 138.292969 498.210938 138.714844 497.503906 139.171875 496.820312 C 139.628906 496.132812 140.117188 495.472656 140.640625 494.835938 C 141.164062 494.195312 141.714844 493.585938 142.296875 493.003906 C 142.871094 492.414062 143.472656 491.855469 144.105469 491.328125 C 144.734375 490.800781 145.390625 490.304688 146.070312 489.839844 C 146.75 489.378906 147.449219 488.949219 148.171875 488.554688 C 148.894531 488.164062 149.632812 487.804688 150.390625 487.488281 C 151.148438 487.167969 151.921875 486.886719 152.707031 486.644531 C 153.492188 486.402344 154.289062 486.199219 155.097656 486.039062 C 155.902344 485.875 156.714844 485.75 157.53125 485.671875 C 158.351562 485.589844 159.171875 485.546875 159.992188 485.546875 C 160.816406 485.546875 161.636719 485.589844 162.457031 485.671875 C 163.273438 485.75 164.085938 485.875 164.890625 486.039062 C 165.699219 486.199219 166.496094 486.402344 167.28125 486.644531 C 168.066406 486.886719 168.839844 487.167969 169.597656 487.488281 C 170.355469 487.804688 171.09375 488.164062 171.816406 488.554688 C 172.539062 488.949219 173.238281 489.378906 173.917969 489.839844 C 174.597656 490.304688 175.253906 490.800781 175.882812 491.328125 C 176.515625 491.855469 177.117188 492.414062 177.691406 493.003906 L 235.082031 550.722656 Z M 245.28125 632.367188 Z M 472.441406 460.542969 C 471.617188 460.542969 470.789062 460.503906 469.96875 460.421875 C 469.144531 460.339844 468.328125 460.21875 467.515625 460.054688 C 466.707031 459.894531 465.90625 459.691406 465.113281 459.449219 C 464.324219 459.210938 463.546875 458.933594 462.78125 458.613281 C 462.019531 458.296875 461.273438 457.945312 460.542969 457.554688 C 459.8125 457.164062 459.105469 456.738281 458.417969 456.277344 C 457.730469 455.820312 457.070312 455.328125 456.429688 454.800781 C 455.792969 454.277344 455.179688 453.722656 454.59375 453.136719 C 454.011719 452.550781 453.457031 451.941406 452.933594 451.300781 C 452.40625 450.660156 451.917969 450 451.457031 449.308594 C 450.996094 448.621094 450.574219 447.914062 450.183594 447.183594 C 449.792969 446.457031 449.441406 445.710938 449.125 444.945312 C 448.808594 444.179688 448.53125 443.402344 448.289062 442.613281 C 448.050781 441.820312 447.851562 441.019531 447.6875 440.210938 C 447.527344 439.398438 447.40625 438.582031 447.324219 437.757812 C 447.246094 436.9375 447.203125 436.109375 447.203125 435.285156 C 447.203125 434.457031 447.246094 433.632812 447.324219 432.808594 C 447.40625 431.988281 447.527344 431.171875 447.6875 430.359375 C 447.851562 429.546875 448.050781 428.746094 448.289062 427.957031 C 448.53125 427.164062 448.808594 426.386719 449.125 425.625 C 449.441406 424.859375 449.792969 424.113281 450.183594 423.382812 C 450.574219 422.652344 450.996094 421.945312 451.457031 421.257812 C 451.917969 420.570312 452.40625 419.90625 452.933594 419.269531 C 453.457031 418.628906 454.011719 418.015625 454.59375 417.429688 C 455.179688 416.847656 455.792969 416.292969 456.429688 415.765625 C 457.070312 415.242188 457.730469 414.75 458.417969 414.289062 C 459.105469 413.828125 459.8125 413.40625 460.542969 413.015625 C 461.273438 412.625 462.019531 412.269531 462.78125 411.953125 C 463.546875 411.636719 464.324219 411.359375 465.113281 411.117188 C 465.90625 410.878906 466.707031 410.675781 467.515625 410.511719 C 468.328125 410.351562 469.144531 410.230469 469.96875 410.148438 C 470.789062 410.066406 471.617188 410.023438 472.441406 410.023438 L 597.488281 410.023438 C 598.679688 410.039062 599.859375 410.140625 601.035156 410.324219 C 602.210938 410.503906 603.371094 410.769531 604.507812 411.113281 C 605.648438 411.460938 606.757812 411.882812 607.835938 412.382812 C 608.914062 412.886719 609.953125 413.460938 610.953125 414.105469 C 611.949219 414.753906 612.898438 415.46875 613.796875 416.25 C 614.695312 417.027344 615.535156 417.867188 616.316406 418.765625 C 617.09375 419.664062 617.808594 420.613281 618.457031 421.613281 C 619.101562 422.609375 619.675781 423.648438 620.175781 424.730469 C 620.675781 425.808594 621.101562 426.917969 621.445312 428.054688 C 621.789062 429.195312 622.054688 430.351562 622.234375 431.527344 C 622.417969 432.703125 622.515625 433.886719 622.53125 435.078125 C 622.546875 436.265625 622.480469 437.453125 622.328125 438.632812 C 622.179688 439.8125 621.945312 440.976562 621.632812 442.125 C 621.316406 443.269531 620.925781 444.390625 620.453125 445.484375 C 619.980469 446.574219 619.433594 447.628906 618.816406 448.644531 C 618.195312 449.660156 617.507812 450.628906 616.75 451.546875 L 520.96875 586.511719 L 597.488281 586.511719 C 598.289062 586.554688 599.082031 586.632812 599.875 586.75 C 600.667969 586.867188 601.449219 587.019531 602.226562 587.210938 C 603.003906 587.402344 603.769531 587.628906 604.527344 587.894531 C 605.28125 588.15625 606.023438 588.457031 606.75 588.792969 C 607.476562 589.125 608.1875 589.496094 608.878906 589.898438 C 609.570312 590.296875 610.242188 590.730469 610.894531 591.199219 C 611.542969 591.664062 612.171875 592.160156 612.773438 592.683594 C 613.378906 593.210938 613.957031 593.761719 614.507812 594.34375 C 615.058594 594.921875 615.582031 595.527344 616.074219 596.15625 C 616.566406 596.789062 617.03125 597.4375 617.460938 598.113281 C 617.894531 598.785156 618.292969 599.480469 618.660156 600.191406 C 619.023438 600.902344 619.355469 601.628906 619.652344 602.375 C 619.949219 603.117188 620.210938 603.871094 620.433594 604.640625 C 620.660156 605.40625 620.847656 606.183594 621 606.972656 C 621.148438 607.757812 621.261719 608.546875 621.339844 609.34375 C 621.414062 610.140625 621.453125 610.9375 621.453125 611.738281 C 621.453125 612.539062 621.414062 613.339844 621.339844 614.136719 C 621.261719 614.929688 621.148438 615.722656 621 616.507812 C 620.847656 617.292969 620.660156 618.070312 620.433594 618.839844 C 620.210938 619.605469 619.949219 620.363281 619.652344 621.105469 C 619.355469 621.847656 619.023438 622.578125 618.660156 623.289062 C 618.292969 624 617.894531 624.691406 617.460938 625.367188 C 617.03125 626.039062 616.566406 626.691406 616.074219 627.320312 C 615.582031 627.953125 615.058594 628.554688 614.507812 629.136719 C 613.957031 629.71875 613.378906 630.269531 612.773438 630.792969 C 612.171875 631.320312 611.542969 631.816406 610.894531 632.28125 C 610.242188 632.746094 609.570312 633.179688 608.878906 633.582031 C 608.1875 633.984375 607.476562 634.351562 606.75 634.6875 C 606.023438 635.023438 605.28125 635.320312 604.527344 635.585938 C 603.769531 635.847656 603.003906 636.078125 602.226562 636.269531 C 601.449219 636.460938 600.667969 636.613281 599.875 636.730469 C 599.082031 636.847656 598.289062 636.925781 597.488281 636.964844 L 472.441406 636.964844 C 471.300781 636.960938 470.167969 636.875 469.039062 636.710938 C 467.910156 636.546875 466.796875 636.308594 465.699219 635.992188 C 464.601562 635.675781 463.535156 635.285156 462.492188 634.824219 C 461.449219 634.359375 460.441406 633.828125 459.472656 633.226562 C 458.503906 632.628906 457.578125 631.960938 456.699219 631.234375 C 455.820312 630.507812 454.996094 629.722656 454.226562 628.882812 C 453.457031 628.039062 452.746094 627.152344 452.097656 626.210938 C 451.449219 625.273438 450.867188 624.296875 450.351562 623.277344 C 449.839844 622.257812 449.394531 621.210938 449.027344 620.132812 C 448.65625 619.054688 448.359375 617.953125 448.140625 616.835938 C 447.921875 615.714844 447.78125 614.585938 447.714844 613.445312 C 447.652344 612.308594 447.664062 611.167969 447.757812 610.03125 C 447.847656 608.894531 448.019531 607.769531 448.265625 606.65625 C 448.511719 605.542969 448.832031 604.449219 449.226562 603.382812 C 449.625 602.3125 450.09375 601.273438 450.632812 600.269531 C 451.167969 599.261719 451.773438 598.300781 452.445312 597.375 L 549.230469 460.746094 Z M 508.503906 284.121094 L 561.425781 284.121094 L 534.765625 221.804688 Z M 582.757812 334.375 L 487.171875 334.375 L 482.972656 344.308594 C 482.644531 345.058594 482.28125 345.792969 481.882812 346.507812 C 481.484375 347.222656 481.050781 347.914062 480.582031 348.589844 C 480.113281 349.261719 479.617188 349.910156 479.085938 350.53125 C 478.554688 351.15625 477.992188 351.753906 477.402344 352.320312 C 476.8125 352.890625 476.195312 353.425781 475.554688 353.933594 C 474.910156 354.441406 474.246094 354.917969 473.554688 355.359375 C 472.867188 355.804688 472.15625 356.210938 471.425781 356.582031 C 470.695312 356.957031 469.949219 357.292969 469.1875 357.589844 C 468.425781 357.890625 467.648438 358.152344 466.863281 358.375 C 466.074219 358.597656 465.277344 358.78125 464.46875 358.929688 C 463.664062 359.074219 462.851562 359.179688 462.035156 359.242188 C 461.21875 359.308594 460.402344 359.332031 459.582031 359.316406 C 458.761719 359.304688 457.945312 359.246094 457.132812 359.152344 C 456.320312 359.058594 455.511719 358.921875 454.710938 358.746094 C 453.910156 358.574219 453.121094 358.359375 452.339844 358.105469 C 451.5625 357.855469 450.796875 357.566406 450.046875 357.238281 C 449.296875 356.910156 448.5625 356.546875 447.847656 356.148438 C 447.132812 355.746094 446.4375 355.3125 445.765625 354.847656 C 445.09375 354.378906 444.445312 353.878906 443.820312 353.347656 C 443.195312 352.816406 442.601562 352.257812 442.03125 351.667969 C 441.464844 351.078125 440.925781 350.460938 440.417969 349.816406 C 439.910156 349.175781 439.433594 348.507812 438.992188 347.820312 C 438.550781 347.128906 438.140625 346.421875 437.769531 345.691406 C 437.394531 344.960938 437.058594 344.214844 436.761719 343.453125 C 436.460938 342.691406 436.199219 341.914062 435.976562 341.125 C 435.753906 340.339844 435.570312 339.542969 435.425781 338.734375 C 435.28125 337.929688 435.175781 337.117188 435.109375 336.300781 C 435.042969 335.484375 435.019531 334.667969 435.035156 333.847656 C 435.050781 333.027344 435.105469 332.210938 435.199219 331.398438 C 435.296875 330.585938 435.429688 329.777344 435.605469 328.976562 C 435.78125 328.175781 435.992188 327.386719 436.246094 326.609375 C 436.496094 325.828125 436.789062 325.0625 437.113281 324.3125 L 512.101562 148.023438 C 512.410156 147.265625 512.757812 146.523438 513.140625 145.796875 C 513.523438 145.074219 513.941406 144.371094 514.394531 143.6875 C 514.847656 143.003906 515.332031 142.34375 515.851562 141.710938 C 516.371094 141.074219 516.917969 140.46875 517.496094 139.890625 C 518.078125 139.308594 518.683594 138.757812 519.316406 138.242188 C 519.953125 137.722656 520.609375 137.234375 521.292969 136.78125 C 521.976562 136.328125 522.679688 135.910156 523.402344 135.523438 C 524.125 135.140625 524.867188 134.792969 525.628906 134.484375 C 526.386719 134.175781 527.160156 133.902344 527.945312 133.671875 C 528.730469 133.4375 529.523438 133.246094 530.332031 133.09375 C 531.136719 132.9375 531.945312 132.824219 532.761719 132.753906 C 533.578125 132.679688 534.398438 132.648438 535.214844 132.65625 C 536.035156 132.667969 536.851562 132.714844 537.667969 132.804688 C 538.480469 132.898438 539.289062 133.027344 540.09375 133.199219 C 540.894531 133.371094 541.683594 133.578125 542.464844 133.828125 C 543.246094 134.078125 544.011719 134.367188 544.765625 134.695312 C 546.261719 135.308594 547.683594 136.0625 549.03125 136.957031 C 550.378906 137.855469 551.625 138.875 552.769531 140.019531 C 553.914062 141.164062 554.933594 142.410156 555.832031 143.757812 C 556.726562 145.105469 557.480469 146.527344 558.09375 148.023438 L 632.816406 324.511719 C 633.148438 325.277344 633.441406 326.054688 633.695312 326.847656 C 633.949219 327.636719 634.164062 328.441406 634.339844 329.253906 C 634.515625 330.070312 634.648438 330.890625 634.742188 331.714844 C 634.835938 332.542969 634.890625 333.371094 634.902344 334.203125 C 634.914062 335.035156 634.886719 335.867188 634.816406 336.695312 C 634.746094 337.527344 634.636719 338.351562 634.484375 339.167969 C 634.332031 339.988281 634.140625 340.796875 633.910156 341.59375 C 633.679688 342.394531 633.40625 343.179688 633.097656 343.953125 C 632.789062 344.726562 632.441406 345.484375 632.058594 346.222656 C 631.675781 346.960938 631.257812 347.675781 630.800781 348.375 C 630.347656 349.070312 629.859375 349.746094 629.335938 350.394531 C 628.816406 351.042969 628.265625 351.664062 627.679688 352.257812 C 627.097656 352.851562 626.488281 353.417969 625.847656 353.949219 C 625.210938 354.484375 624.546875 354.984375 623.859375 355.453125 C 623.171875 355.921875 622.460938 356.355469 621.730469 356.753906 C 621 357.152344 620.25 357.511719 619.484375 357.835938 C 618.730469 358.15625 617.960938 358.4375 617.179688 358.683594 C 616.398438 358.925781 615.605469 359.132812 614.804688 359.296875 C 614.003906 359.464844 613.195312 359.589844 612.382812 359.675781 C 611.566406 359.761719 610.75 359.808594 609.929688 359.8125 C 609.113281 359.820312 608.292969 359.785156 607.480469 359.710938 C 606.664062 359.636719 605.855469 359.519531 605.050781 359.367188 C 604.246094 359.210938 603.449219 359.019531 602.664062 358.785156 C 601.878906 358.550781 601.109375 358.28125 600.351562 357.972656 C 599.59375 357.664062 598.851562 357.316406 598.125 356.9375 C 597.402344 356.554688 596.699219 356.136719 596.015625 355.6875 C 595.332031 355.234375 594.671875 354.75 594.035156 354.234375 C 593.402344 353.71875 592.792969 353.171875 592.210938 352.597656 C 591.628906 352.019531 591.078125 351.417969 590.554688 350.785156 C 590.03125 350.15625 589.542969 349.5 589.082031 348.820312 C 588.625 348.140625 588.203125 347.441406 587.8125 346.722656 C 587.425781 346 587.074219 345.261719 586.757812 344.507812 Z M 582.757812 334.375 " fill-opacity="1" fill-rule="nonzero"/></svg>