<svg xmlns="http://www.w3.org/2000/svg" xmlns:xlink="http://www.w3.org/1999/xlink" width="1024" zoomAndPan="magnify" viewBox="0 0 768 767.999994" height="1024" preserveAspectRatio="xMidYMid meet" version="1.0"><defs><clipPath id="b3734cb603"><path d="M 0 44.640625 L 768 44.640625 L 768 723.390625 L 0 723.390625 Z M 0 44.640625 " clip-rule="nonzero"/></clipPath><clipPath id="7f807d40b7"><path d="M 76.800781 117.386719 L 691.933594 117.386719 L 691.933594 633.691406 L 76.800781 633.691406 Z M 76.800781 117.386719 " clip-rule="nonzero"/></clipPath><clipPath id="8ac3b26db3"><path d="M 112.800781 117.386719 L 655.199219 117.386719 C 675.082031 117.386719 691.199219 133.503906 691.199219 153.386719 L 691.199219 597.691406 C 691.199219 617.574219 675.082031 633.691406 655.199219 633.691406 L 112.800781 633.691406 C 92.917969 633.691406 76.800781 617.574219 76.800781 597.691406 L 76.800781 153.386719 C 76.800781 133.503906 92.917969 117.386719 112.800781 117.386719 Z M 112.800781 117.386719 " clip-rule="nonzero"/></clipPath><clipPath id="cd8534f14e"><path d="M 0.800781 0.386719 L 615.199219 0.386719 L 615.199219 516.691406 L 0.800781 516.691406 Z M 0.800781 0.386719 " clip-rule="nonzero"/></clipPath><clipPath id="a509c46501"><path d="M 36.800781 0.386719 L 579.199219 0.386719 C 599.082031 0.386719 615.199219 16.503906 615.199219 36.386719 L 615.199219 480.691406 C 615.199219 500.574219 599.082031 516.691406 579.199219 516.691406 L 36.800781 516.691406 C 16.917969 516.691406 0.800781 500.574219 0.800781 480.691406 L 0.800781 36.386719 C 0.800781 16.503906 16.917969 0.386719 36.800781 0.386719 Z M 36.800781 0.386719 " clip-rule="nonzero"/></clipPath><clipPath id="4882a18862"><rect x="0" width="616" y="0" height="517"/></clipPath><clipPath id="b190e24211"><path d="M 134 131 L 635.546875 131 L 635.546875 638 L 134 638 Z M 134 131 " clip-rule="nonzero"/></clipPath></defs><path fill="#ffffff" d="M 247.882812 530.707031 L 220.609375 530.707031 L 220.609375 158.15625 C 220.609375 151.640625 215.320312 146.351562 208.804688 146.351562 L 162.515625 146.351562 C 155.996094 146.351562 150.710938 151.640625 150.710938 158.15625 L 150.710938 530.71875 L 123.433594 530.71875 C 113.289062 530.71875 108.007812 542.804688 114.90625 550.25 L 177.132812 617.398438 C 181.734375 622.363281 189.589844 622.363281 194.1875 617.398438 L 256.414062 550.25 C 263.300781 542.796875 258.03125 530.707031 247.882812 530.707031 Z M 247.882812 530.707031 " fill-opacity="1" fill-rule="nonzero"/><path fill="#ffffff" d="M 275.472656 204.429688 L 275.472656 158.164062 C 275.472656 151.632812 280.765625 146.347656 287.289062 146.347656 L 644.929688 146.347656 C 651.457031 146.347656 656.746094 151.640625 656.746094 158.164062 L 656.746094 204.429688 C 656.746094 210.960938 651.453125 216.246094 644.929688 216.246094 L 287.289062 216.246094 C 280.765625 216.246094 275.472656 210.953125 275.472656 204.429688 Z M 275.472656 204.429688 " fill-opacity="1" fill-rule="nonzero"/><path fill="#ffffff" d="M 275.472656 320.902344 L 275.472656 274.632812 C 275.472656 268.105469 280.765625 262.820312 287.289062 262.820312 L 549.609375 262.820312 C 556.136719 262.820312 561.425781 268.109375 561.425781 274.632812 L 561.425781 320.902344 C 561.425781 327.429688 556.132812 332.71875 549.609375 332.71875 L 287.289062 332.71875 C 280.765625 332.71875 275.472656 327.429688 275.472656 320.902344 Z M 275.472656 320.902344 " fill-opacity="1" fill-rule="nonzero"/><path fill="#ffffff" d="M 275.472656 437.375 L 275.472656 391.105469 C 275.472656 384.578125 280.765625 379.289062 287.289062 379.289062 L 478.125 379.289062 C 484.652344 379.289062 489.941406 384.582031 489.941406 391.105469 L 489.941406 437.375 C 489.941406 443.902344 484.648438 449.1875 478.125 449.1875 L 287.289062 449.1875 C 280.765625 449.1875 275.472656 443.902344 275.472656 437.375 Z M 275.472656 437.375 " fill-opacity="1" fill-rule="nonzero"/><path fill="#ffffff" d="M 275.472656 553.84375 L 275.472656 507.578125 C 275.472656 501.046875 280.765625 495.761719 287.289062 495.761719 L 424.511719 495.761719 C 431.042969 495.761719 436.328125 501.054688 436.328125 507.578125 L 436.328125 553.84375 C 436.328125 560.375 431.035156 565.660156 424.511719 565.660156 L 287.289062 565.660156 C 280.765625 565.664062 275.472656 560.375 275.472656 553.84375 Z M 275.472656 553.84375 " fill-opacity="1" fill-rule="nonzero"/><g clip-path="url(#b3734cb603)"><path fill="#ffffff" d="M 678.347656 723.082031 L 90.179688 723.082031 C 40.820312 723.082031 0.664062 682.925781 0.664062 633.570312 L 0.664062 133.898438 C 0.664062 84.542969 40.820312 44.386719 90.179688 44.386719 L 678.34375 44.386719 C 727.703125 44.386719 767.855469 84.542969 767.855469 133.898438 L 767.855469 633.570312 C 767.859375 682.925781 727.707031 723.082031 678.347656 723.082031 Z M 90.179688 97.042969 C 69.851562 97.042969 53.320312 113.574219 53.320312 133.898438 L 53.320312 633.570312 C 53.320312 653.886719 69.851562 670.425781 90.179688 670.425781 L 678.34375 670.425781 C 698.664062 670.425781 715.203125 653.886719 715.203125 633.570312 L 715.203125 133.898438 C 715.203125 113.574219 698.664062 97.042969 678.34375 97.042969 Z M 90.179688 97.042969 " fill-opacity="1" fill-rule="nonzero"/></g><g clip-path="url(#7f807d40b7)"><g clip-path="url(#8ac3b26db3)"><g transform="matrix(1, 0, 0, 1, 76, 117)"><g clip-path="url(#4882a18862)"><g clip-path="url(#cd8534f14e)"><g clip-path="url(#a509c46501)"><path fill="#ffffff" d="M 0.800781 0.386719 L 615.933594 0.386719 L 615.933594 516.691406 L 0.800781 516.691406 Z M 0.800781 0.386719 " fill-opacity="1" fill-rule="nonzero"/></g></g></g></g></g></g><g clip-path="url(#b190e24211)"><path fill="#ffffff" d="M 235.113281 158.300781 C 235.050781 157.445312 235.03125 156.589844 235.058594 155.730469 C 235.082031 154.875 235.152344 154.023438 235.265625 153.171875 C 235.378906 152.324219 235.535156 151.480469 235.734375 150.648438 C 235.933594 149.816406 236.175781 148.992188 236.460938 148.183594 C 236.746094 147.375 237.070312 146.585938 237.433594 145.808594 C 237.800781 145.035156 238.203125 144.28125 238.648438 143.546875 C 239.089844 142.8125 239.570312 142.105469 240.085938 141.417969 C 240.601562 140.734375 241.152344 140.078125 241.734375 139.453125 C 242.320312 138.824219 242.933594 138.226562 243.578125 137.664062 C 244.222656 137.097656 244.894531 136.570312 245.59375 136.074219 C 246.292969 135.578125 247.015625 135.121094 247.761719 134.699219 C 248.507812 134.277344 249.273438 133.894531 250.0625 133.554688 C 250.847656 133.210938 251.648438 132.910156 252.464844 132.648438 C 253.28125 132.390625 254.109375 132.171875 254.949219 131.996094 C 255.785156 131.824219 256.632812 131.691406 257.484375 131.601562 C 258.335938 131.515625 259.191406 131.472656 260.050781 131.472656 C 260.90625 131.472656 261.761719 131.515625 262.613281 131.601562 C 263.464844 131.691406 264.3125 131.824219 265.152344 131.996094 C 265.988281 132.171875 266.816406 132.390625 267.632812 132.648438 C 268.453125 132.910156 269.253906 133.210938 270.039062 133.554688 C 270.824219 133.894531 271.589844 134.277344 272.335938 134.699219 C 273.082031 135.121094 273.804688 135.578125 274.503906 136.074219 C 275.203125 136.570312 275.875 137.097656 276.519531 137.664062 C 277.164062 138.226562 277.78125 138.824219 278.363281 139.453125 C 278.945312 140.078125 279.496094 140.734375 280.011719 141.417969 C 280.527344 142.105469 281.007812 142.8125 281.453125 143.546875 C 281.894531 144.28125 282.300781 145.035156 282.664062 145.808594 C 283.03125 146.585938 283.355469 147.375 283.640625 148.183594 C 283.921875 148.992188 284.164062 149.816406 284.363281 150.648438 C 284.5625 151.480469 284.722656 152.324219 284.832031 153.171875 C 284.945312 154.023438 285.015625 154.875 285.042969 155.730469 C 285.066406 156.589844 285.046875 157.445312 284.984375 158.300781 L 284.984375 551.6875 L 342.261719 493.945312 C 342.835938 493.355469 343.441406 492.796875 344.074219 492.269531 C 344.703125 491.738281 345.359375 491.242188 346.042969 490.777344 C 346.722656 490.316406 347.425781 489.886719 348.148438 489.492188 C 348.875 489.101562 349.617188 488.742188 350.375 488.421875 C 351.136719 488.105469 351.910156 487.824219 352.695312 487.578125 C 353.484375 487.335938 354.28125 487.132812 355.089844 486.972656 C 355.898438 486.808594 356.710938 486.6875 357.53125 486.605469 C 358.351562 486.523438 359.171875 486.480469 359.996094 486.480469 C 360.820312 486.480469 361.644531 486.523438 362.460938 486.605469 C 363.28125 486.6875 364.097656 486.808594 364.902344 486.972656 C 365.710938 487.132812 366.507812 487.335938 367.296875 487.578125 C 368.085938 487.824219 368.859375 488.105469 369.617188 488.421875 C 370.378906 488.742188 371.117188 489.101562 371.84375 489.492188 C 372.566406 489.886719 373.269531 490.316406 373.949219 490.777344 C 374.632812 491.242188 375.289062 491.738281 375.921875 492.269531 C 376.550781 492.796875 377.15625 493.355469 377.730469 493.945312 C 378.308594 494.535156 378.851562 495.148438 379.367188 495.789062 C 379.882812 496.429688 380.363281 497.09375 380.816406 497.78125 C 381.265625 498.46875 381.683594 499.175781 382.066406 499.902344 C 382.445312 500.628906 382.792969 501.375 383.105469 502.136719 C 383.414062 502.898438 383.6875 503.671875 383.921875 504.460938 C 384.15625 505.246094 384.355469 506.042969 384.511719 506.851562 C 384.667969 507.65625 384.789062 508.46875 384.867188 509.289062 C 384.949219 510.105469 384.988281 510.925781 384.988281 511.746094 C 384.988281 512.570312 384.949219 513.390625 384.867188 514.207031 C 384.789062 515.027344 384.667969 515.839844 384.511719 516.644531 C 384.355469 517.453125 384.15625 518.25 383.921875 519.035156 C 383.6875 519.824219 383.414062 520.597656 383.105469 521.359375 C 382.792969 522.121094 382.445312 522.867188 382.066406 523.59375 C 381.683594 524.320312 381.265625 525.027344 380.816406 525.714844 C 380.363281 526.402344 379.882812 527.066406 379.367188 527.707031 C 378.851562 528.347656 378.308594 528.960938 377.730469 529.550781 L 277.71875 630.230469 C 276.941406 631.035156 276.121094 631.792969 275.25 632.496094 C 273.925781 633.578125 272.480469 634.464844 270.917969 635.164062 C 267.476562 636.980469 263.808594 637.867188 259.917969 637.832031 C 255.992188 637.835938 252.277344 636.945312 248.78125 635.164062 C 247.363281 634.171875 246.097656 633.015625 244.980469 631.699219 L 242.3125 629.429688 L 142.300781 528.75 C 141.71875 528.167969 141.164062 527.554688 140.644531 526.917969 C 140.121094 526.28125 139.632812 525.617188 139.171875 524.933594 C 138.714844 524.246094 138.292969 523.539062 137.90625 522.8125 C 137.515625 522.085938 137.164062 521.34375 136.851562 520.582031 C 136.535156 519.820312 136.257812 519.042969 136.019531 518.253906 C 135.78125 517.464844 135.582031 516.667969 135.421875 515.859375 C 135.257812 515.050781 135.140625 514.234375 135.058594 513.414062 C 134.976562 512.59375 134.9375 511.773438 134.9375 510.949219 C 134.9375 510.125 134.976562 509.300781 135.058594 508.480469 C 135.140625 507.660156 135.257812 506.847656 135.421875 506.039062 C 135.582031 505.230469 135.78125 504.429688 136.019531 503.640625 C 136.257812 502.851562 136.535156 502.078125 136.851562 501.316406 C 137.164062 500.554688 137.515625 499.808594 137.90625 499.082031 C 138.292969 498.355469 138.714844 497.648438 139.171875 496.960938 C 139.632812 496.277344 140.121094 495.613281 140.644531 494.976562 C 141.164062 494.339844 141.71875 493.730469 142.300781 493.144531 C 142.875 492.554688 143.476562 491.996094 144.109375 491.46875 C 144.738281 490.941406 145.394531 490.445312 146.074219 489.980469 C 146.753906 489.519531 147.453125 489.089844 148.175781 488.695312 C 148.898438 488.304688 149.640625 487.945312 150.398438 487.628906 C 151.15625 487.308594 151.929688 487.027344 152.714844 486.785156 C 153.5 486.542969 154.296875 486.339844 155.101562 486.175781 C 155.910156 486.011719 156.722656 485.890625 157.539062 485.808594 C 158.359375 485.726562 159.179688 485.6875 160.003906 485.6875 C 160.824219 485.6875 161.644531 485.726562 162.464844 485.808594 C 163.28125 485.890625 164.09375 486.011719 164.902344 486.175781 C 165.707031 486.339844 166.503906 486.542969 167.289062 486.785156 C 168.078125 487.027344 168.847656 487.308594 169.605469 487.628906 C 170.367188 487.945312 171.105469 488.304688 171.828125 488.695312 C 172.550781 489.089844 173.253906 489.519531 173.933594 489.980469 C 174.613281 490.445312 175.265625 490.941406 175.898438 491.46875 C 176.527344 491.996094 177.128906 492.554688 177.703125 493.144531 L 235.113281 550.886719 Z M 245.3125 632.5625 Z M 472.546875 460.675781 C 471.71875 460.671875 470.894531 460.632812 470.070312 460.550781 C 469.246094 460.46875 468.429688 460.347656 467.617188 460.183594 C 466.808594 460.023438 466.007812 459.820312 465.214844 459.582031 C 464.425781 459.339844 463.644531 459.0625 462.882812 458.742188 C 462.117188 458.425781 461.371094 458.074219 460.644531 457.683594 C 459.914062 457.292969 459.207031 456.867188 458.519531 456.40625 C 457.832031 455.945312 457.167969 455.453125 456.527344 454.929688 C 455.890625 454.402344 455.277344 453.847656 454.691406 453.265625 C 454.109375 452.679688 453.554688 452.066406 453.027344 451.425781 C 452.503906 450.789062 452.011719 450.125 451.554688 449.4375 C 451.09375 448.746094 450.667969 448.039062 450.28125 447.308594 C 449.890625 446.578125 449.539062 445.832031 449.222656 445.070312 C 448.90625 444.304688 448.625 443.527344 448.386719 442.734375 C 448.148438 441.945312 447.945312 441.140625 447.785156 440.332031 C 447.625 439.519531 447.503906 438.703125 447.421875 437.878906 C 447.339844 437.054688 447.300781 436.230469 447.300781 435.402344 C 447.300781 434.578125 447.339844 433.75 447.421875 432.929688 C 447.503906 432.105469 447.625 431.289062 447.785156 430.476562 C 447.945312 429.664062 448.148438 428.863281 448.386719 428.074219 C 448.625 427.28125 448.90625 426.503906 449.222656 425.738281 C 449.539062 424.976562 449.890625 424.226562 450.28125 423.5 C 450.667969 422.769531 451.09375 422.058594 451.554688 421.371094 C 452.011719 420.683594 452.503906 420.019531 453.027344 419.382812 C 453.554688 418.742188 454.109375 418.128906 454.691406 417.542969 C 455.277344 416.957031 455.890625 416.402344 456.527344 415.878906 C 457.167969 415.355469 457.832031 414.859375 458.519531 414.402344 C 459.207031 413.941406 459.914062 413.515625 460.644531 413.125 C 461.371094 412.734375 462.117188 412.382812 462.882812 412.066406 C 463.644531 411.746094 464.425781 411.46875 465.214844 411.226562 C 466.007812 410.988281 466.808594 410.785156 467.617188 410.625 C 468.429688 410.460938 469.246094 410.339844 470.070312 410.257812 C 470.894531 410.175781 471.71875 410.132812 472.546875 410.132812 L 597.628906 410.132812 C 598.820312 410.148438 600.003906 410.25 601.179688 410.433594 C 602.355469 410.613281 603.511719 410.878906 604.652344 411.226562 C 605.789062 411.570312 606.898438 411.992188 607.980469 412.496094 C 609.058594 412.996094 610.097656 413.570312 611.097656 414.21875 C 612.097656 414.867188 613.042969 415.578125 613.941406 416.359375 C 614.839844 417.140625 615.679688 417.980469 616.460938 418.878906 C 617.242188 419.777344 617.957031 420.726562 618.601562 421.726562 C 619.25 422.726562 619.824219 423.765625 620.324219 424.84375 C 620.824219 425.925781 621.246094 427.035156 621.59375 428.171875 C 621.9375 429.3125 622.203125 430.46875 622.382812 431.648438 C 622.566406 432.824219 622.664062 434.007812 622.679688 435.195312 C 622.695312 436.386719 622.628906 437.570312 622.476562 438.753906 C 622.328125 439.933594 622.09375 441.097656 621.78125 442.246094 C 621.464844 443.394531 621.074219 444.515625 620.601562 445.605469 C 620.128906 446.699219 619.582031 447.753906 618.960938 448.769531 C 618.34375 449.785156 617.65625 450.753906 616.898438 451.671875 L 521.085938 586.691406 L 597.628906 586.691406 C 598.429688 586.734375 599.222656 586.8125 600.015625 586.929688 C 600.808594 587.046875 601.59375 587.199219 602.371094 587.390625 C 603.148438 587.582031 603.914062 587.808594 604.667969 588.074219 C 605.425781 588.335938 606.167969 588.636719 606.894531 588.972656 C 607.621094 589.304688 608.332031 589.675781 609.023438 590.078125 C 609.714844 590.480469 610.386719 590.914062 611.039062 591.378906 C 611.6875 591.84375 612.316406 592.339844 612.921875 592.867188 C 613.523438 593.390625 614.101562 593.945312 614.652344 594.523438 C 615.203125 595.105469 615.726562 595.710938 616.21875 596.339844 C 616.714844 596.96875 617.175781 597.621094 617.609375 598.296875 C 618.039062 598.96875 618.441406 599.664062 618.804688 600.375 C 619.171875 601.085938 619.503906 601.816406 619.800781 602.558594 C 620.097656 603.300781 620.359375 604.058594 620.582031 604.824219 C 620.808594 605.59375 620.996094 606.371094 621.148438 607.15625 C 621.296875 607.945312 621.410156 608.734375 621.488281 609.53125 C 621.5625 610.328125 621.601562 611.128906 621.601562 611.929688 C 621.601562 612.730469 621.5625 613.527344 621.488281 614.324219 C 621.410156 615.121094 621.296875 615.914062 621.148438 616.699219 C 620.996094 617.484375 620.808594 618.261719 620.582031 619.03125 C 620.359375 619.796875 620.097656 620.554688 619.800781 621.296875 C 619.503906 622.042969 619.171875 622.769531 618.804688 623.480469 C 618.441406 624.191406 618.039062 624.886719 617.609375 625.558594 C 617.175781 626.234375 616.714844 626.886719 616.21875 627.515625 C 615.726562 628.144531 615.203125 628.75 614.652344 629.332031 C 614.101562 629.914062 613.523438 630.464844 612.921875 630.992188 C 612.316406 631.515625 611.6875 632.011719 611.039062 632.476562 C 610.386719 632.945312 609.714844 633.378906 609.023438 633.78125 C 608.332031 634.183594 607.621094 634.550781 606.894531 634.886719 C 606.167969 635.21875 605.425781 635.519531 604.667969 635.78125 C 603.914062 636.046875 603.148438 636.273438 602.371094 636.464844 C 601.59375 636.65625 600.808594 636.8125 600.015625 636.929688 C 599.222656 637.046875 598.429688 637.125 597.628906 637.164062 L 472.546875 637.164062 C 471.402344 637.15625 470.269531 637.070312 469.140625 636.910156 C 468.011719 636.746094 466.898438 636.503906 465.800781 636.191406 C 464.703125 635.875 463.632812 635.484375 462.589844 635.019531 C 461.546875 634.558594 460.542969 634.027344 459.570312 633.425781 C 458.601562 632.824219 457.675781 632.160156 456.796875 631.429688 C 455.917969 630.703125 455.09375 629.917969 454.324219 629.078125 C 453.554688 628.234375 452.84375 627.34375 452.195312 626.40625 C 451.546875 625.46875 450.964844 624.488281 450.449219 623.46875 C 449.933594 622.453125 449.492188 621.402344 449.121094 620.324219 C 448.75 619.246094 448.457031 618.144531 448.238281 617.023438 C 448.015625 615.90625 447.875 614.773438 447.8125 613.636719 C 447.746094 612.496094 447.761719 611.359375 447.851562 610.222656 C 447.945312 609.082031 448.113281 607.957031 448.359375 606.84375 C 448.605469 605.730469 448.929688 604.636719 449.324219 603.566406 C 449.71875 602.496094 450.1875 601.457031 450.726562 600.453125 C 451.265625 599.445312 451.871094 598.480469 452.542969 597.558594 L 549.355469 460.875 Z M 508.617188 284.183594 L 561.558594 284.183594 L 534.886719 221.839844 Z M 582.894531 334.457031 L 487.28125 334.457031 L 483.078125 344.390625 C 482.753906 345.144531 482.390625 345.875 481.988281 346.589844 C 481.589844 347.308594 481.15625 348 480.6875 348.675781 C 480.21875 349.347656 479.722656 349.996094 479.1875 350.617188 C 478.65625 351.242188 478.097656 351.839844 477.507812 352.40625 C 476.917969 352.976562 476.300781 353.515625 475.65625 354.023438 C 475.015625 354.53125 474.347656 355.007812 473.65625 355.449219 C 472.96875 355.890625 472.257812 356.300781 471.527344 356.671875 C 470.800781 357.046875 470.054688 357.382812 469.289062 357.679688 C 468.527344 357.980469 467.75 358.242188 466.964844 358.464844 C 466.175781 358.6875 465.378906 358.871094 464.570312 359.019531 C 463.765625 359.164062 462.953125 359.269531 462.136719 359.332031 C 461.320312 359.398438 460.5 359.421875 459.679688 359.40625 C 458.863281 359.394531 458.042969 359.335938 457.230469 359.242188 C 456.417969 359.148438 455.609375 359.011719 454.808594 358.835938 C 454.007812 358.664062 453.21875 358.449219 452.4375 358.195312 C 451.660156 357.945312 450.894531 357.652344 450.140625 357.328125 C 449.390625 357 448.65625 356.636719 447.941406 356.234375 C 447.226562 355.835938 446.53125 355.402344 445.859375 354.933594 C 445.1875 354.46875 444.539062 353.96875 443.914062 353.4375 C 443.289062 352.902344 442.695312 352.34375 442.125 351.753906 C 441.558594 351.164062 441.019531 350.546875 440.511719 349.902344 C 440.003906 349.261719 439.527344 348.59375 439.085938 347.90625 C 438.640625 347.214844 438.234375 346.503906 437.863281 345.777344 C 437.488281 345.046875 437.152344 344.300781 436.851562 343.535156 C 436.554688 342.773438 436.292969 342 436.070312 341.210938 C 435.84375 340.421875 435.660156 339.625 435.515625 338.816406 C 435.371094 338.011719 435.265625 337.199219 435.199219 336.382812 C 435.136719 335.566406 435.109375 334.746094 435.125 333.925781 C 435.140625 333.109375 435.195312 332.292969 435.292969 331.476562 C 435.386719 330.664062 435.523438 329.855469 435.695312 329.054688 C 435.871094 328.253906 436.085938 327.464844 436.335938 326.683594 C 436.589844 325.90625 436.878906 325.140625 437.207031 324.390625 L 512.21875 148.03125 C 512.527344 147.273438 512.871094 146.53125 513.253906 145.804688 C 513.636719 145.078125 514.054688 144.375 514.507812 143.691406 C 514.960938 143.007812 515.449219 142.351562 515.96875 141.714844 C 516.484375 141.082031 517.035156 140.472656 517.613281 139.894531 C 518.195312 139.3125 518.800781 138.761719 519.433594 138.242188 C 520.070312 137.722656 520.726562 137.238281 521.410156 136.785156 C 522.09375 136.328125 522.796875 135.910156 523.519531 135.527344 C 524.246094 135.144531 524.988281 134.796875 525.746094 134.488281 C 526.503906 134.175781 527.277344 133.90625 528.0625 133.671875 C 528.851562 133.441406 529.644531 133.246094 530.449219 133.09375 C 531.257812 132.941406 532.066406 132.828125 532.882812 132.753906 C 533.699219 132.683594 534.519531 132.648438 535.339844 132.660156 C 536.15625 132.667969 536.976562 132.71875 537.789062 132.808594 C 538.605469 132.898438 539.414062 133.03125 540.214844 133.199219 C 541.015625 133.371094 541.808594 133.582031 542.589844 133.832031 C 543.371094 134.082031 544.136719 134.371094 544.886719 134.695312 C 546.386719 135.308594 547.808594 136.066406 549.15625 136.960938 C 550.503906 137.859375 551.75 138.878906 552.894531 140.023438 C 554.042969 141.167969 555.0625 142.414062 555.957031 143.761719 C 556.855469 145.109375 557.609375 146.53125 558.222656 148.03125 L 632.96875 324.589844 C 633.300781 325.351562 633.59375 326.128906 633.847656 326.921875 C 634.101562 327.714844 634.316406 328.519531 634.492188 329.332031 C 634.667969 330.148438 634.800781 330.96875 634.894531 331.796875 C 634.988281 332.621094 635.042969 333.453125 635.054688 334.285156 C 635.066406 335.117188 635.039062 335.949219 634.96875 336.777344 C 634.898438 337.609375 634.789062 338.433594 634.636719 339.25 C 634.484375 340.070312 634.292969 340.878906 634.0625 341.679688 C 633.828125 342.480469 633.558594 343.265625 633.25 344.039062 C 632.941406 344.8125 632.59375 345.566406 632.210938 346.304688 C 631.828125 347.042969 631.40625 347.761719 630.953125 348.460938 C 630.496094 349.15625 630.007812 349.832031 629.488281 350.480469 C 628.964844 351.128906 628.414062 351.75 627.832031 352.34375 C 627.25 352.941406 626.636719 353.503906 626 354.039062 C 625.359375 354.574219 624.695312 355.074219 624.007812 355.542969 C 623.320312 356.011719 622.609375 356.445312 621.878906 356.84375 C 621.148438 357.242188 620.398438 357.601562 619.632812 357.925781 C 618.878906 358.246094 618.109375 358.527344 617.328125 358.773438 C 616.546875 359.015625 615.753906 359.222656 614.953125 359.386719 C 614.148438 359.554688 613.339844 359.679688 612.527344 359.765625 C 611.710938 359.851562 610.894531 359.898438 610.074219 359.902344 C 609.257812 359.910156 608.4375 359.875 607.625 359.800781 C 606.808594 359.726562 605.996094 359.609375 605.191406 359.457031 C 604.386719 359.300781 603.59375 359.109375 602.808594 358.875 C 602.023438 358.640625 601.25 358.371094 600.492188 358.0625 C 599.734375 357.753906 598.992188 357.40625 598.265625 357.023438 C 597.542969 356.644531 596.839844 356.226562 596.15625 355.773438 C 595.472656 355.324219 594.8125 354.839844 594.175781 354.324219 C 593.539062 353.804688 592.929688 353.261719 592.347656 352.683594 C 591.765625 352.105469 591.214844 351.503906 590.691406 350.871094 C 590.171875 350.242188 589.679688 349.585938 589.222656 348.90625 C 588.765625 348.226562 588.339844 347.527344 587.953125 346.804688 C 587.5625 346.085938 587.210938 345.347656 586.894531 344.589844 Z M 582.894531 334.457031 " fill-opacity="1" fill-rule="nonzero"/></g></svg>