<svg xmlns="http://www.w3.org/2000/svg" xmlns:xlink="http://www.w3.org/1999/xlink" width="1024" zoomAndPan="magnify" viewBox="0 0 768 767.999994" height="1024" preserveAspectRatio="xMidYMid meet" version="1.0"><path fill="#000000" d="M 159.832031 44.261719 C 159.738281 42.976562 159.707031 41.6875 159.746094 40.398438 C 159.785156 39.109375 159.890625 37.824219 160.058594 36.546875 C 160.230469 35.269531 160.464844 34 160.765625 32.746094 C 161.066406 31.492188 161.429688 30.257812 161.859375 29.039062 C 162.285156 27.820312 162.773438 26.628906 163.324219 25.464844 C 163.875 24.296875 164.484375 23.160156 165.148438 22.058594 C 165.816406 20.953125 166.539062 19.886719 167.316406 18.855469 C 168.089844 17.824219 168.917969 16.835938 169.796875 15.894531 C 170.675781 14.949219 171.597656 14.050781 172.570312 13.199219 C 173.539062 12.351562 174.550781 11.554688 175.601562 10.808594 C 176.65625 10.0625 177.742188 9.371094 178.867188 8.738281 C 179.988281 8.105469 181.140625 7.527344 182.324219 7.011719 C 183.507812 6.5 184.710938 6.042969 185.941406 5.652344 C 187.167969 5.261719 188.414062 4.933594 189.675781 4.671875 C 190.941406 4.410156 192.210938 4.210938 193.496094 4.078125 C 194.777344 3.945312 196.066406 3.878906 197.355469 3.878906 C 198.644531 3.878906 199.929688 3.945312 201.214844 4.078125 C 202.496094 4.210938 203.769531 4.410156 205.03125 4.671875 C 206.292969 4.933594 207.539062 5.261719 208.769531 5.652344 C 209.996094 6.042969 211.203125 6.5 212.386719 7.011719 C 213.566406 7.527344 214.71875 8.105469 215.84375 8.738281 C 216.964844 9.371094 218.054688 10.0625 219.105469 10.808594 C 220.160156 11.554688 221.167969 12.351562 222.140625 13.199219 C 223.109375 14.050781 224.035156 14.949219 224.914062 15.894531 C 225.789062 16.835938 226.617188 17.824219 227.394531 18.855469 C 228.171875 19.886719 228.890625 20.953125 229.558594 22.058594 C 230.226562 23.160156 230.835938 24.296875 231.382812 25.464844 C 231.933594 26.628906 232.421875 27.820312 232.851562 29.039062 C 233.277344 30.257812 233.640625 31.492188 233.941406 32.746094 C 234.242188 34 234.480469 35.269531 234.648438 36.546875 C 234.820312 37.824219 234.921875 39.109375 234.960938 40.398438 C 235 41.6875 234.972656 42.976562 234.878906 44.261719 L 234.878906 636.417969 L 321.0625 549.503906 C 321.929688 548.617188 322.839844 547.773438 323.789062 546.976562 C 324.738281 546.179688 325.726562 545.433594 326.753906 544.734375 C 327.777344 544.039062 328.835938 543.394531 329.925781 542.800781 C 331.015625 542.207031 332.128906 541.671875 333.273438 541.191406 C 334.417969 540.710938 335.582031 540.285156 336.765625 539.921875 C 337.949219 539.554688 339.152344 539.25 340.367188 539.003906 C 341.582031 538.757812 342.804688 538.574219 344.039062 538.453125 C 345.273438 538.328125 346.511719 538.265625 347.75 538.265625 C 348.992188 538.265625 350.226562 538.328125 351.460938 538.453125 C 352.695312 538.574219 353.921875 538.757812 355.136719 539.003906 C 356.351562 539.25 357.550781 539.554688 358.738281 539.921875 C 359.921875 540.285156 361.085938 540.710938 362.226562 541.191406 C 363.371094 541.671875 364.488281 542.207031 365.578125 542.800781 C 366.667969 543.394531 367.722656 544.039062 368.75 544.734375 C 369.773438 545.433594 370.761719 546.179688 371.710938 546.976562 C 372.664062 547.773438 373.570312 548.617188 374.4375 549.503906 C 375.304688 550.386719 376.125 551.3125 376.898438 552.277344 C 377.671875 553.242188 378.398438 554.238281 379.078125 555.273438 C 379.757812 556.308594 380.382812 557.375 380.957031 558.46875 C 381.535156 559.566406 382.054688 560.683594 382.523438 561.832031 C 382.988281 562.976562 383.398438 564.144531 383.753906 565.328125 C 384.105469 566.515625 384.402344 567.714844 384.640625 568.929688 C 384.878906 570.140625 385.058594 571.363281 385.175781 572.597656 C 385.296875 573.828125 385.355469 575.0625 385.355469 576.300781 C 385.355469 577.539062 385.296875 578.773438 385.175781 580.003906 C 385.058594 581.234375 384.878906 582.457031 384.640625 583.671875 C 384.402344 584.886719 384.105469 586.085938 383.753906 587.269531 C 383.398438 588.457031 382.988281 589.621094 382.523438 590.769531 C 382.054688 591.914062 381.535156 593.035156 380.957031 594.128906 C 380.382812 595.226562 379.757812 596.289062 379.078125 597.324219 C 378.398438 598.359375 377.671875 599.359375 376.898438 600.324219 C 376.125 601.289062 375.304688 602.210938 374.4375 603.097656 L 223.941406 754.648438 C 222.773438 755.863281 221.535156 757 220.230469 758.0625 C 218.230469 759.6875 216.058594 761.023438 213.707031 762.074219 C 211.15625 763.421875 208.480469 764.433594 205.679688 765.113281 C 202.878906 765.792969 200.035156 766.117188 197.152344 766.089844 C 191.246094 766.097656 185.660156 764.757812 180.398438 762.074219 C 178.265625 760.582031 176.359375 758.84375 174.679688 756.855469 L 170.667969 753.445312 L 20.167969 601.894531 C 19.292969 601.015625 18.460938 600.09375 17.675781 599.136719 C 16.890625 598.175781 16.152344 597.179688 15.464844 596.148438 C 14.777344 595.113281 14.140625 594.050781 13.554688 592.957031 C 12.972656 591.863281 12.445312 590.742188 11.96875 589.59375 C 11.496094 588.449219 11.078125 587.28125 10.71875 586.09375 C 10.359375 584.90625 10.058594 583.703125 9.816406 582.488281 C 9.574219 581.269531 9.394531 580.042969 9.273438 578.808594 C 9.152344 577.574219 9.089844 576.335938 9.089844 575.09375 C 9.089844 573.855469 9.152344 572.617188 9.273438 571.382812 C 9.394531 570.148438 9.574219 568.921875 9.816406 567.703125 C 10.058594 566.488281 10.359375 565.285156 10.71875 564.097656 C 11.078125 562.910156 11.496094 561.742188 11.96875 560.597656 C 12.445312 559.449219 12.972656 558.328125 13.554688 557.234375 C 14.140625 556.140625 14.777344 555.074219 15.464844 554.042969 C 16.152344 553.011719 16.890625 552.015625 17.675781 551.054688 C 18.460938 550.09375 19.292969 549.175781 20.167969 548.296875 C 21.035156 547.410156 21.941406 546.570312 22.890625 545.773438 C 23.839844 544.980469 24.824219 544.234375 25.847656 543.535156 C 26.871094 542.839844 27.925781 542.191406 29.011719 541.601562 C 30.101562 541.007812 31.214844 540.472656 32.355469 539.992188 C 33.496094 539.511719 34.65625 539.089844 35.839844 538.722656 C 37.023438 538.359375 38.222656 538.054688 39.433594 537.808594 C 40.648438 537.5625 41.871094 537.378906 43.101562 537.253906 C 44.335938 537.132812 45.570312 537.070312 46.808594 537.070312 C 48.046875 537.070312 49.28125 537.132812 50.511719 537.253906 C 51.742188 537.378906 52.964844 537.5625 54.179688 537.808594 C 55.394531 538.054688 56.589844 538.359375 57.773438 538.722656 C 58.957031 539.089844 60.121094 539.511719 61.261719 539.992188 C 62.402344 540.472656 63.515625 541.007812 64.601562 541.601562 C 65.691406 542.191406 66.746094 542.839844 67.769531 543.535156 C 68.792969 544.234375 69.777344 544.980469 70.726562 545.773438 C 71.675781 546.570312 72.582031 547.410156 73.445312 548.296875 L 159.832031 635.214844 Z M 175.179688 758.160156 Z M 517.109375 499.421875 C 515.863281 499.417969 514.625 499.355469 513.386719 499.234375 C 512.148438 499.109375 510.917969 498.925781 509.695312 498.683594 C 508.476562 498.4375 507.269531 498.136719 506.078125 497.773438 C 504.890625 497.410156 503.71875 496.992188 502.570312 496.515625 C 501.417969 496.035156 500.296875 495.503906 499.199219 494.917969 C 498.101562 494.328125 497.035156 493.6875 496 492.996094 C 494.96875 492.304688 493.96875 491.5625 493.007812 490.773438 C 492.046875 489.980469 491.125 489.148438 490.246094 488.265625 C 489.367188 487.386719 488.53125 486.464844 487.742188 485.5 C 486.953125 484.539062 486.214844 483.539062 485.523438 482.503906 C 484.832031 481.46875 484.191406 480.402344 483.605469 479.300781 C 483.019531 478.203125 482.488281 477.082031 482.011719 475.929688 C 481.535156 474.78125 481.117188 473.609375 480.757812 472.417969 C 480.394531 471.226562 480.09375 470.019531 479.851562 468.796875 C 479.609375 467.578125 479.425781 466.347656 479.304688 465.109375 C 479.183594 463.867188 479.121094 462.625 479.121094 461.382812 C 479.121094 460.136719 479.183594 458.894531 479.304688 457.65625 C 479.425781 456.417969 479.609375 455.1875 479.851562 453.964844 C 480.09375 452.742188 480.394531 451.539062 480.757812 450.347656 C 481.117188 449.15625 481.535156 447.984375 482.011719 446.832031 C 482.488281 445.683594 483.019531 444.558594 483.605469 443.460938 C 484.191406 442.363281 484.832031 441.296875 485.523438 440.261719 C 486.214844 439.226562 486.953125 438.226562 487.742188 437.261719 C 488.53125 436.300781 489.367188 435.378906 490.246094 434.496094 C 491.125 433.617188 492.046875 432.78125 493.007812 431.992188 C 493.96875 431.199219 494.96875 430.460938 496 429.765625 C 497.035156 429.074219 498.101562 428.433594 499.199219 427.847656 C 500.296875 427.257812 501.417969 426.726562 502.570312 426.25 C 503.71875 425.773438 504.890625 425.351562 506.078125 424.988281 C 507.269531 424.628906 508.476562 424.324219 509.695312 424.082031 C 510.917969 423.835938 512.148438 423.652344 513.386719 423.53125 C 514.625 423.40625 515.863281 423.34375 517.109375 423.34375 L 705.332031 423.34375 C 707.121094 423.367188 708.902344 423.519531 710.671875 423.792969 C 712.441406 424.066406 714.183594 424.464844 715.898438 424.984375 C 717.613281 425.503906 719.28125 426.140625 720.90625 426.898438 C 722.53125 427.652344 724.09375 428.515625 725.597656 429.492188 C 727.101562 430.464844 728.527344 431.539062 729.878906 432.714844 C 731.230469 433.890625 732.496094 435.15625 733.667969 436.507812 C 734.84375 437.859375 735.917969 439.289062 736.890625 440.792969 C 737.863281 442.296875 738.726562 443.863281 739.480469 445.488281 C 740.234375 447.113281 740.871094 448.78125 741.390625 450.496094 C 741.910156 452.210938 742.304688 453.957031 742.582031 455.726562 C 742.855469 457.496094 743.003906 459.277344 743.027344 461.070312 C 743.050781 462.859375 742.949219 464.644531 742.722656 466.421875 C 742.496094 468.199219 742.144531 469.953125 741.671875 471.679688 C 741.199219 473.410156 740.609375 475.09375 739.898438 476.738281 C 739.1875 478.382812 738.367188 479.972656 737.433594 481.5 C 736.5 483.03125 735.464844 484.488281 734.328125 485.871094 L 590.152344 689.109375 L 705.332031 689.109375 C 706.535156 689.171875 707.730469 689.292969 708.921875 689.46875 C 710.113281 689.644531 711.296875 689.875 712.464844 690.164062 C 713.632812 690.449219 714.789062 690.792969 715.925781 691.191406 C 717.0625 691.589844 718.179688 692.039062 719.273438 692.542969 C 720.367188 693.046875 721.433594 693.601562 722.476562 694.207031 C 723.519531 694.8125 724.527344 695.464844 725.507812 696.164062 C 726.488281 696.867188 727.429688 697.613281 728.339844 698.402344 C 729.25 699.195312 730.117188 700.027344 730.949219 700.902344 C 731.777344 701.773438 732.5625 702.6875 733.308594 703.632812 C 734.050781 704.582031 734.746094 705.5625 735.394531 706.578125 C 736.046875 707.59375 736.644531 708.636719 737.195312 709.707031 C 737.746094 710.78125 738.246094 711.875 738.691406 712.996094 C 739.140625 714.113281 739.53125 715.25 739.871094 716.40625 C 740.210938 717.5625 740.492188 718.734375 740.71875 719.917969 C 740.945312 721.101562 741.117188 722.292969 741.230469 723.492188 C 741.347656 724.691406 741.402344 725.894531 741.402344 727.097656 C 741.402344 728.304688 741.347656 729.507812 741.230469 730.707031 C 741.117188 731.90625 740.945312 733.097656 740.71875 734.28125 C 740.492188 735.464844 740.210938 736.632812 739.871094 737.789062 C 739.53125 738.945312 739.140625 740.082031 738.691406 741.203125 C 738.246094 742.320312 737.746094 743.417969 737.195312 744.488281 C 736.644531 745.558594 736.046875 746.605469 735.394531 747.617188 C 734.746094 748.632812 734.050781 749.613281 733.308594 750.5625 C 732.5625 751.511719 731.777344 752.421875 730.949219 753.296875 C 730.117188 754.167969 729.25 755.003906 728.339844 755.792969 C 727.429688 756.585938 726.488281 757.332031 725.507812 758.03125 C 724.527344 758.734375 723.519531 759.386719 722.476562 759.992188 C 721.433594 760.597656 720.367188 761.152344 719.273438 761.65625 C 718.179688 762.160156 717.0625 762.609375 715.925781 763.007812 C 714.789062 763.402344 713.632812 763.746094 712.464844 764.035156 C 711.296875 764.324219 710.113281 764.554688 708.921875 764.730469 C 707.730469 764.90625 706.535156 765.023438 705.332031 765.085938 L 517.109375 765.085938 C 515.390625 765.074219 513.683594 764.945312 511.984375 764.703125 C 510.285156 764.457031 508.609375 764.09375 506.960938 763.617188 C 505.308594 763.144531 503.699219 762.554688 502.132812 761.859375 C 500.5625 761.164062 499.046875 760.363281 497.585938 759.457031 C 496.128906 758.550781 494.738281 757.550781 493.414062 756.457031 C 492.09375 755.359375 490.851562 754.179688 489.691406 752.910156 C 488.53125 751.644531 487.460938 750.304688 486.484375 748.894531 C 485.511719 747.480469 484.632812 746.007812 483.859375 744.472656 C 483.085938 742.941406 482.421875 741.359375 481.863281 739.734375 C 481.304688 738.109375 480.863281 736.457031 480.53125 734.769531 C 480.203125 733.085938 479.988281 731.382812 479.890625 729.667969 C 479.792969 727.953125 479.816406 726.242188 479.953125 724.527344 C 480.089844 722.816406 480.347656 721.121094 480.714844 719.445312 C 481.085938 717.765625 481.570312 716.125 482.167969 714.511719 C 482.765625 712.902344 483.46875 711.339844 484.277344 709.824219 C 485.089844 708.3125 486 706.859375 487.011719 705.46875 L 632.691406 499.722656 Z M 571.390625 233.753906 L 651.050781 233.753906 L 610.917969 139.910156 Z M 683.15625 309.429688 L 539.28125 309.429688 L 532.960938 324.382812 C 532.46875 325.515625 531.921875 326.617188 531.320312 327.695312 C 530.71875 328.773438 530.066406 329.816406 529.363281 330.828125 C 528.660156 331.84375 527.90625 332.816406 527.105469 333.757812 C 526.308594 334.695312 525.464844 335.59375 524.574219 336.449219 C 523.6875 337.304688 522.761719 338.117188 521.792969 338.878906 C 520.824219 339.644531 519.820312 340.359375 518.785156 341.027344 C 517.746094 341.695312 516.679688 342.308594 515.582031 342.867188 C 514.480469 343.429688 513.359375 343.9375 512.210938 344.386719 C 511.0625 344.839844 509.894531 345.230469 508.710938 345.566406 C 507.523438 345.902344 506.324219 346.179688 505.109375 346.398438 C 503.894531 346.617188 502.675781 346.777344 501.445312 346.875 C 500.214844 346.972656 498.984375 347.011719 497.75 346.988281 C 496.519531 346.964844 495.289062 346.882812 494.066406 346.738281 C 492.839844 346.59375 491.625 346.390625 490.421875 346.128906 C 489.214844 345.863281 488.027344 345.542969 486.855469 345.164062 C 485.679688 344.785156 484.527344 344.347656 483.398438 343.855469 C 482.269531 343.359375 481.164062 342.8125 480.089844 342.210938 C 479.011719 341.609375 477.964844 340.957031 476.953125 340.253906 C 475.941406 339.550781 474.964844 338.796875 474.027344 337.996094 C 473.089844 337.195312 472.191406 336.351562 471.335938 335.464844 C 470.480469 334.578125 469.671875 333.648438 468.90625 332.679688 C 468.140625 331.710938 467.425781 330.710938 466.761719 329.671875 C 466.09375 328.632812 465.480469 327.566406 464.917969 326.464844 C 464.359375 325.367188 463.851562 324.246094 463.402344 323.097656 C 462.949219 321.949219 462.558594 320.78125 462.222656 319.59375 C 461.886719 318.40625 461.609375 317.207031 461.390625 315.992188 C 461.171875 314.777344 461.011719 313.554688 460.914062 312.328125 C 460.816406 311.097656 460.78125 309.867188 460.800781 308.632812 C 460.824219 307.398438 460.90625 306.167969 461.050781 304.945312 C 461.195312 303.71875 461.398438 302.503906 461.660156 301.296875 C 461.925781 300.09375 462.246094 298.902344 462.625 297.730469 C 463.003906 296.554688 463.441406 295.402344 463.933594 294.273438 L 576.808594 28.808594 C 577.273438 27.664062 577.792969 26.546875 578.367188 25.457031 C 578.945312 24.363281 579.574219 23.304688 580.253906 22.277344 C 580.9375 21.246094 581.667969 20.257812 582.449219 19.300781 C 583.230469 18.34375 584.054688 17.429688 584.929688 16.558594 C 585.800781 15.683594 586.710938 14.855469 587.667969 14.074219 C 588.621094 13.292969 589.613281 12.558594 590.640625 11.875 C 591.667969 11.195312 592.726562 10.5625 593.816406 9.984375 C 594.90625 9.40625 596.023438 8.886719 597.164062 8.417969 C 598.304688 7.953125 599.46875 7.542969 600.652344 7.195312 C 601.835938 6.84375 603.03125 6.554688 604.242188 6.320312 C 605.457031 6.089844 606.675781 5.921875 607.90625 5.8125 C 609.132812 5.703125 610.363281 5.65625 611.597656 5.667969 C 612.832031 5.679688 614.0625 5.757812 615.289062 5.890625 C 616.515625 6.027344 617.730469 6.226562 618.9375 6.484375 C 620.144531 6.738281 621.335938 7.058594 622.507812 7.433594 C 623.683594 7.808594 624.835938 8.242188 625.96875 8.734375 C 628.222656 9.65625 630.363281 10.792969 632.394531 12.144531 C 634.421875 13.492188 636.296875 15.03125 638.019531 16.753906 C 639.742188 18.476562 641.277344 20.351562 642.625 22.382812 C 643.976562 24.410156 645.113281 26.550781 646.035156 28.808594 L 758.507812 294.574219 C 759.003906 295.722656 759.445312 296.894531 759.828125 298.089844 C 760.214844 299.28125 760.535156 300.492188 760.800781 301.714844 C 761.0625 302.941406 761.265625 304.175781 761.40625 305.421875 C 761.550781 306.667969 761.628906 307.917969 761.648438 309.171875 C 761.667969 310.421875 761.621094 311.675781 761.515625 312.921875 C 761.410156 314.171875 761.246094 315.414062 761.015625 316.644531 C 760.789062 317.878906 760.5 319.09375 760.152344 320.300781 C 759.804688 321.503906 759.398438 322.6875 758.933594 323.851562 C 758.46875 325.015625 757.945312 326.152344 757.367188 327.265625 C 756.789062 328.375 756.160156 329.457031 755.472656 330.507812 C 754.789062 331.558594 754.054688 332.570312 753.269531 333.546875 C 752.484375 334.523438 751.65625 335.460938 750.777344 336.355469 C 749.902344 337.25 748.980469 338.101562 748.019531 338.902344 C 747.058594 339.707031 746.0625 340.460938 745.023438 341.167969 C 743.988281 341.875 742.921875 342.527344 741.820312 343.125 C 740.722656 343.726562 739.59375 344.269531 738.441406 344.757812 C 737.304688 345.238281 736.148438 345.664062 734.972656 346.03125 C 733.796875 346.398438 732.605469 346.707031 731.398438 346.957031 C 730.191406 347.207031 728.972656 347.394531 727.746094 347.527344 C 726.523438 347.65625 725.292969 347.726562 724.058594 347.734375 C 722.828125 347.742188 721.597656 347.691406 720.371094 347.578125 C 719.140625 347.464844 717.921875 347.292969 716.710938 347.058594 C 715.503906 346.828125 714.304688 346.535156 713.125 346.183594 C 711.941406 345.835938 710.78125 345.425781 709.640625 344.960938 C 708.496094 344.496094 707.382812 343.976562 706.292969 343.402344 C 705.199219 342.824219 704.140625 342.199219 703.113281 341.519531 C 702.085938 340.839844 701.089844 340.109375 700.136719 339.332031 C 699.179688 338.554688 698.261719 337.734375 697.386719 336.863281 C 696.511719 335.996094 695.679688 335.089844 694.894531 334.136719 C 694.105469 333.1875 693.371094 332.203125 692.679688 331.179688 C 691.992188 330.15625 691.355469 329.105469 690.769531 328.019531 C 690.183594 326.933594 689.652344 325.820312 689.175781 324.683594 Z M 683.15625 309.429688 " fill-opacity="1" fill-rule="nonzero"/></svg>