<svg xmlns="http://www.w3.org/2000/svg" xmlns:xlink="http://www.w3.org/1999/xlink" width="1024" zoomAndPan="magnify" viewBox="0 0 768 767.999994" height="1024" preserveAspectRatio="xMidYMid meet" version="1.0"><path fill="#ffffff" d="M 159.882812 44.261719 C 159.789062 42.976562 159.761719 41.6875 159.800781 40.398438 C 159.835938 39.109375 159.941406 37.824219 160.113281 36.546875 C 160.28125 35.269531 160.519531 34 160.820312 32.746094 C 161.121094 31.492188 161.484375 30.257812 161.910156 29.039062 C 162.339844 27.820312 162.828125 26.628906 163.378906 25.464844 C 163.929688 24.296875 164.535156 23.160156 165.203125 22.058594 C 165.871094 20.953125 166.59375 19.886719 167.371094 18.855469 C 168.148438 17.824219 168.972656 16.835938 169.851562 15.894531 C 170.730469 14.949219 171.65625 14.050781 172.625 13.199219 C 173.597656 12.351562 174.609375 11.554688 175.660156 10.808594 C 176.714844 10.0625 177.800781 9.371094 178.925781 8.738281 C 180.046875 8.105469 181.203125 7.527344 182.382812 7.011719 C 183.566406 6.5 184.773438 6.042969 186.003906 5.652344 C 187.230469 5.261719 188.476562 4.933594 189.742188 4.671875 C 191.003906 4.410156 192.277344 4.210938 193.558594 4.078125 C 194.84375 3.945312 196.128906 3.878906 197.417969 3.878906 C 198.710938 3.878906 199.996094 3.945312 201.28125 4.078125 C 202.5625 4.210938 203.835938 4.410156 205.097656 4.671875 C 206.363281 4.933594 207.609375 5.261719 208.835938 5.652344 C 210.066406 6.042969 211.273438 6.5 212.457031 7.011719 C 213.636719 7.527344 214.792969 8.105469 215.914062 8.738281 C 217.039062 9.371094 218.125 10.0625 219.179688 10.808594 C 220.230469 11.554688 221.242188 12.351562 222.214844 13.199219 C 223.183594 14.050781 224.109375 14.949219 224.988281 15.894531 C 225.867188 16.835938 226.691406 17.824219 227.46875 18.855469 C 228.246094 19.886719 228.96875 20.953125 229.636719 22.058594 C 230.300781 23.160156 230.910156 24.296875 231.460938 25.464844 C 232.011719 26.628906 232.5 27.820312 232.929688 29.039062 C 233.355469 30.257812 233.71875 31.492188 234.019531 32.746094 C 234.320312 34 234.558594 35.269531 234.726562 36.546875 C 234.898438 37.824219 235 39.109375 235.039062 40.398438 C 235.078125 41.6875 235.050781 42.976562 234.957031 44.261719 L 234.957031 636.417969 L 321.171875 549.503906 C 322.039062 548.617188 322.945312 547.773438 323.898438 546.976562 C 324.847656 546.179688 325.835938 545.433594 326.863281 544.734375 C 327.886719 544.039062 328.945312 543.394531 330.035156 542.800781 C 331.125 542.207031 332.242188 541.671875 333.386719 541.191406 C 334.527344 540.710938 335.691406 540.285156 336.878906 539.921875 C 338.0625 539.554688 339.265625 539.25 340.480469 539.003906 C 341.695312 538.757812 342.921875 538.574219 344.15625 538.453125 C 345.390625 538.328125 346.628906 538.265625 347.867188 538.265625 C 349.109375 538.265625 350.34375 538.328125 351.578125 538.453125 C 352.8125 538.574219 354.039062 538.757812 355.253906 539.003906 C 356.46875 539.25 357.671875 539.554688 358.855469 539.921875 C 360.042969 540.285156 361.207031 540.710938 362.351562 541.191406 C 363.492188 541.671875 364.609375 542.207031 365.699219 542.800781 C 366.789062 543.394531 367.847656 544.039062 368.871094 544.734375 C 369.898438 545.433594 370.886719 546.179688 371.835938 546.976562 C 372.789062 547.773438 373.699219 548.617188 374.566406 549.503906 C 375.429688 550.386719 376.25 551.3125 377.023438 552.277344 C 377.800781 553.242188 378.527344 554.238281 379.207031 555.273438 C 379.882812 556.308594 380.511719 557.375 381.085938 558.46875 C 381.660156 559.566406 382.183594 560.683594 382.648438 561.832031 C 383.117188 562.976562 383.527344 564.144531 383.882812 565.328125 C 384.234375 566.515625 384.53125 567.714844 384.769531 568.929688 C 385.007812 570.140625 385.1875 571.363281 385.304688 572.597656 C 385.425781 573.828125 385.484375 575.0625 385.484375 576.300781 C 385.484375 577.539062 385.425781 578.773438 385.304688 580.003906 C 385.1875 581.234375 385.007812 582.457031 384.769531 583.671875 C 384.53125 584.886719 384.234375 586.085938 383.882812 587.269531 C 383.527344 588.457031 383.117188 589.621094 382.648438 590.769531 C 382.183594 591.914062 381.660156 593.035156 381.085938 594.128906 C 380.511719 595.226562 379.882812 596.289062 379.207031 597.324219 C 378.527344 598.359375 377.800781 599.359375 377.023438 600.324219 C 376.25 601.289062 375.429688 602.210938 374.566406 603.097656 L 224.015625 754.648438 C 222.847656 755.863281 221.609375 757 220.304688 758.0625 C 218.304688 759.6875 216.128906 761.023438 213.78125 762.074219 C 211.226562 763.421875 208.550781 764.433594 205.75 765.113281 C 202.945312 765.792969 200.101562 766.117188 197.21875 766.089844 C 191.308594 766.097656 185.722656 764.757812 180.457031 762.074219 C 178.324219 760.582031 176.417969 758.84375 174.738281 756.855469 L 170.722656 753.445312 L 20.175781 601.894531 C 19.296875 601.015625 18.46875 600.09375 17.679688 599.136719 C 16.894531 598.175781 16.15625 597.179688 15.46875 596.148438 C 14.78125 595.113281 14.144531 594.050781 13.558594 592.957031 C 12.976562 591.863281 12.445312 590.742188 11.972656 589.59375 C 11.496094 588.449219 11.082031 587.28125 10.722656 586.09375 C 10.359375 584.90625 10.058594 583.703125 9.820312 582.488281 C 9.578125 581.269531 9.394531 580.042969 9.273438 578.808594 C 9.152344 577.574219 9.089844 576.335938 9.089844 575.09375 C 9.089844 573.855469 9.152344 572.617188 9.273438 571.382812 C 9.394531 570.148438 9.578125 568.921875 9.820312 567.703125 C 10.058594 566.488281 10.359375 565.285156 10.722656 564.097656 C 11.082031 562.910156 11.496094 561.742188 11.972656 560.597656 C 12.445312 559.449219 12.976562 558.328125 13.558594 557.234375 C 14.144531 556.140625 14.78125 555.074219 15.46875 554.042969 C 16.15625 553.011719 16.894531 552.015625 17.679688 551.054688 C 18.46875 550.09375 19.296875 549.175781 20.175781 548.296875 C 21.039062 547.410156 21.945312 546.570312 22.894531 545.773438 C 23.84375 544.980469 24.832031 544.234375 25.855469 543.535156 C 26.878906 542.839844 27.933594 542.191406 29.019531 541.601562 C 30.109375 541.007812 31.222656 540.472656 32.363281 539.992188 C 33.503906 539.511719 34.667969 539.089844 35.851562 538.722656 C 37.035156 538.359375 38.234375 538.054688 39.445312 537.808594 C 40.660156 537.5625 41.882812 537.378906 43.117188 537.253906 C 44.347656 537.132812 45.582031 537.070312 46.820312 537.070312 C 48.058594 537.070312 49.296875 537.132812 50.527344 537.253906 C 51.761719 537.378906 52.984375 537.5625 54.195312 537.808594 C 55.410156 538.054688 56.609375 538.359375 57.792969 538.722656 C 58.976562 539.089844 60.136719 539.511719 61.28125 539.992188 C 62.421875 540.472656 63.535156 541.007812 64.621094 541.601562 C 65.710938 542.191406 66.765625 542.839844 67.789062 543.535156 C 68.8125 544.234375 69.800781 544.980469 70.746094 545.773438 C 71.695312 546.570312 72.605469 547.410156 73.46875 548.296875 L 159.882812 635.214844 Z M 175.238281 758.160156 Z M 517.285156 499.421875 C 516.039062 499.417969 514.796875 499.355469 513.558594 499.234375 C 512.320312 499.109375 511.089844 498.925781 509.867188 498.683594 C 508.648438 498.4375 507.441406 498.136719 506.25 497.773438 C 505.058594 497.410156 503.886719 496.992188 502.738281 496.515625 C 501.589844 496.035156 500.464844 495.503906 499.367188 494.917969 C 498.269531 494.328125 497.203125 493.6875 496.167969 492.996094 C 495.132812 492.304688 494.136719 491.5625 493.171875 490.773438 C 492.210938 489.980469 491.289062 489.148438 490.410156 488.265625 C 489.53125 487.386719 488.695312 486.464844 487.90625 485.5 C 487.117188 484.539062 486.375 483.539062 485.6875 482.503906 C 484.996094 481.46875 484.355469 480.402344 483.769531 479.300781 C 483.183594 478.203125 482.652344 477.082031 482.175781 475.929688 C 481.699219 474.78125 481.28125 473.609375 480.917969 472.417969 C 480.558594 471.226562 480.253906 470.019531 480.011719 468.796875 C 479.769531 467.578125 479.585938 466.347656 479.464844 465.109375 C 479.34375 463.867188 479.28125 462.625 479.28125 461.382812 C 479.28125 460.136719 479.34375 458.894531 479.464844 457.65625 C 479.585938 456.417969 479.769531 455.1875 480.011719 453.964844 C 480.253906 452.742188 480.558594 451.539062 480.917969 450.347656 C 481.28125 449.15625 481.699219 447.984375 482.175781 446.832031 C 482.652344 445.683594 483.183594 444.558594 483.769531 443.460938 C 484.355469 442.363281 484.996094 441.296875 485.683594 440.261719 C 486.375 439.226562 487.117188 438.226562 487.90625 437.261719 C 488.695312 436.300781 489.53125 435.378906 490.410156 434.496094 C 491.289062 433.617188 492.210938 432.78125 493.171875 431.992188 C 494.136719 431.199219 495.132812 430.460938 496.167969 429.765625 C 497.203125 429.074219 498.269531 428.433594 499.367188 427.847656 C 500.464844 427.257812 501.589844 426.726562 502.738281 426.25 C 503.886719 425.773438 505.058594 425.351562 506.25 424.988281 C 507.441406 424.628906 508.648438 424.324219 509.867188 424.082031 C 511.089844 423.835938 512.320312 423.652344 513.558594 423.53125 C 514.796875 423.40625 516.039062 423.34375 517.285156 423.34375 L 705.570312 423.34375 C 707.359375 423.367188 709.140625 423.519531 710.914062 423.792969 C 712.683594 424.066406 714.425781 424.464844 716.140625 424.984375 C 717.855469 425.503906 719.523438 426.140625 721.148438 426.898438 C 722.773438 427.652344 724.339844 428.515625 725.84375 429.492188 C 727.347656 430.464844 728.773438 431.539062 730.125 432.714844 C 731.476562 433.890625 732.742188 435.15625 733.917969 436.507812 C 735.089844 437.859375 736.164062 439.289062 737.140625 440.792969 C 738.113281 442.296875 738.976562 443.863281 739.730469 445.488281 C 740.484375 447.113281 741.121094 448.78125 741.640625 450.496094 C 742.160156 452.210938 742.558594 453.957031 742.832031 455.726562 C 743.105469 457.496094 743.253906 459.277344 743.277344 461.070312 C 743.300781 462.859375 743.199219 464.644531 742.972656 466.421875 C 742.746094 468.199219 742.398438 469.953125 741.921875 471.679688 C 741.449219 473.410156 740.859375 475.09375 740.148438 476.738281 C 739.4375 478.382812 738.617188 479.972656 737.683594 481.5 C 736.75 483.03125 735.714844 484.488281 734.574219 485.871094 L 590.351562 689.109375 L 705.570312 689.109375 C 706.773438 689.171875 707.96875 689.292969 709.164062 689.46875 C 710.355469 689.644531 711.535156 689.875 712.707031 690.164062 C 713.875 690.449219 715.03125 690.792969 716.167969 691.191406 C 717.304688 691.589844 718.421875 692.039062 719.515625 692.542969 C 720.609375 693.046875 721.679688 693.601562 722.71875 694.207031 C 723.761719 694.8125 724.773438 695.464844 725.753906 696.164062 C 726.734375 696.867188 727.675781 697.613281 728.585938 698.402344 C 729.496094 699.195312 730.363281 700.027344 731.195312 700.902344 C 732.023438 701.773438 732.8125 702.6875 733.554688 703.632812 C 734.296875 704.582031 734.996094 705.5625 735.644531 706.578125 C 736.292969 707.59375 736.894531 708.636719 737.445312 709.707031 C 737.996094 710.78125 738.496094 711.875 738.941406 712.996094 C 739.390625 714.113281 739.78125 715.25 740.121094 716.40625 C 740.460938 717.5625 740.742188 718.734375 740.96875 719.917969 C 741.199219 721.101562 741.367188 722.292969 741.484375 723.492188 C 741.597656 724.691406 741.652344 725.894531 741.652344 727.097656 C 741.652344 728.304688 741.597656 729.507812 741.484375 730.707031 C 741.367188 731.90625 741.199219 733.097656 740.96875 734.28125 C 740.742188 735.464844 740.460938 736.632812 740.121094 737.789062 C 739.78125 738.945312 739.390625 740.082031 738.941406 741.203125 C 738.496094 742.320312 737.996094 743.417969 737.445312 744.488281 C 736.894531 745.558594 736.292969 746.605469 735.644531 747.617188 C 734.996094 748.632812 734.296875 749.613281 733.554688 750.5625 C 732.8125 751.511719 732.023438 752.421875 731.195312 753.296875 C 730.363281 754.167969 729.496094 755.003906 728.585938 755.792969 C 727.675781 756.585938 726.734375 757.332031 725.753906 758.03125 C 724.773438 758.734375 723.761719 759.386719 722.71875 759.992188 C 721.679688 760.597656 720.609375 761.152344 719.515625 761.65625 C 718.421875 762.160156 717.304688 762.609375 716.167969 763.007812 C 715.03125 763.402344 713.875 763.746094 712.707031 764.035156 C 711.535156 764.324219 710.355469 764.554688 709.164062 764.730469 C 707.96875 764.90625 706.773438 765.023438 705.570312 765.085938 L 517.285156 765.085938 C 515.566406 765.074219 513.855469 764.945312 512.15625 764.703125 C 510.457031 764.457031 508.78125 764.09375 507.132812 763.617188 C 505.480469 763.144531 503.871094 762.554688 502.300781 761.859375 C 500.730469 761.164062 499.214844 760.363281 497.753906 759.457031 C 496.296875 758.550781 494.902344 757.550781 493.582031 756.457031 C 492.257812 755.359375 491.015625 754.179688 489.855469 752.910156 C 488.695312 751.644531 487.625 750.304688 486.648438 748.894531 C 485.671875 747.480469 484.796875 746.007812 484.023438 744.472656 C 483.25 742.941406 482.582031 741.359375 482.027344 739.734375 C 481.46875 738.109375 481.023438 736.457031 480.695312 734.769531 C 480.363281 733.085938 480.148438 731.382812 480.050781 729.667969 C 479.957031 727.953125 479.976562 726.242188 480.113281 724.527344 C 480.253906 722.816406 480.507812 721.121094 480.878906 719.445312 C 481.25 717.765625 481.734375 716.125 482.328125 714.511719 C 482.925781 712.902344 483.628906 711.339844 484.441406 709.824219 C 485.253906 708.3125 486.164062 706.859375 487.175781 705.46875 L 632.90625 499.722656 Z M 571.582031 233.753906 L 651.273438 233.753906 L 611.125 139.910156 Z M 683.386719 309.429688 L 539.464844 309.429688 L 533.140625 324.382812 C 532.648438 325.515625 532.101562 326.617188 531.5 327.695312 C 530.898438 328.773438 530.246094 329.816406 529.542969 330.828125 C 528.835938 331.84375 528.085938 332.816406 527.285156 333.757812 C 526.484375 334.695312 525.640625 335.59375 524.753906 336.449219 C 523.863281 337.304688 522.9375 338.117188 521.96875 338.878906 C 521 339.644531 519.996094 340.359375 518.960938 341.027344 C 517.921875 341.695312 516.851562 342.308594 515.753906 342.867188 C 514.65625 343.429688 513.53125 343.9375 512.382812 344.386719 C 511.234375 344.839844 510.066406 345.230469 508.882812 345.566406 C 507.695312 345.902344 506.492188 346.179688 505.28125 346.398438 C 504.066406 346.617188 502.84375 346.777344 501.613281 346.875 C 500.382812 346.972656 499.152344 347.011719 497.917969 346.988281 C 496.6875 346.964844 495.457031 346.882812 494.230469 346.738281 C 493.007812 346.59375 491.792969 346.390625 490.585938 346.128906 C 489.378906 345.863281 488.191406 345.542969 487.019531 345.164062 C 485.84375 344.785156 484.691406 344.347656 483.5625 343.855469 C 482.429688 343.359375 481.328125 342.8125 480.25 342.210938 C 479.171875 341.609375 478.128906 340.957031 477.113281 340.253906 C 476.101562 339.550781 475.125 338.796875 474.1875 337.996094 C 473.25 337.195312 472.351562 336.351562 471.496094 335.464844 C 470.640625 334.578125 469.828125 333.648438 469.0625 332.679688 C 468.296875 331.710938 467.582031 330.710938 466.917969 329.671875 C 466.25 328.632812 465.636719 327.566406 465.074219 326.464844 C 464.515625 325.367188 464.007812 324.246094 463.558594 323.097656 C 463.105469 321.949219 462.710938 320.78125 462.375 319.59375 C 462.039062 318.40625 461.761719 317.207031 461.546875 315.992188 C 461.328125 314.777344 461.167969 313.554688 461.070312 312.328125 C 460.972656 311.097656 460.933594 309.867188 460.957031 308.632812 C 460.980469 307.398438 461.0625 306.167969 461.207031 304.945312 C 461.351562 303.71875 461.554688 302.503906 461.816406 301.296875 C 462.078125 300.09375 462.402344 298.902344 462.78125 297.730469 C 463.160156 296.554688 463.597656 295.402344 464.089844 294.273438 L 577 28.808594 C 577.464844 27.664062 577.988281 26.546875 578.5625 25.457031 C 579.140625 24.363281 579.769531 23.304688 580.453125 22.277344 C 581.132812 21.246094 581.863281 20.257812 582.644531 19.300781 C 583.425781 18.34375 584.253906 17.429688 585.125 16.558594 C 585.996094 15.683594 586.910156 14.855469 587.867188 14.074219 C 588.820312 13.292969 589.8125 12.558594 590.839844 11.875 C 591.867188 11.195312 592.925781 10.5625 594.015625 9.984375 C 595.105469 9.40625 596.222656 8.886719 597.367188 8.417969 C 598.507812 7.953125 599.671875 7.542969 600.855469 7.195312 C 602.039062 6.84375 603.234375 6.554688 604.449219 6.320312 C 605.660156 6.089844 606.878906 5.921875 608.109375 5.8125 C 609.339844 5.703125 610.570312 5.65625 611.804688 5.667969 C 613.039062 5.679688 614.269531 5.757812 615.496094 5.890625 C 616.722656 6.027344 617.9375 6.226562 619.144531 6.484375 C 620.351562 6.738281 621.542969 7.058594 622.71875 7.433594 C 623.894531 7.808594 625.046875 8.242188 626.179688 8.734375 C 628.433594 9.65625 630.578125 10.792969 632.605469 12.144531 C 634.636719 13.492188 636.511719 15.03125 638.234375 16.753906 C 639.957031 18.476562 641.492188 20.351562 642.84375 22.382812 C 644.191406 24.410156 645.328125 26.550781 646.253906 28.808594 L 758.761719 294.574219 C 759.261719 295.722656 759.703125 296.894531 760.085938 298.089844 C 760.46875 299.28125 760.792969 300.492188 761.058594 301.714844 C 761.320312 302.941406 761.523438 304.175781 761.664062 305.421875 C 761.808594 306.667969 761.886719 307.917969 761.90625 309.171875 C 761.925781 310.421875 761.878906 311.675781 761.773438 312.921875 C 761.667969 314.171875 761.503906 315.414062 761.273438 316.644531 C 761.046875 317.878906 760.757812 319.09375 760.410156 320.300781 C 760.0625 321.503906 759.65625 322.6875 759.1875 323.851562 C 758.722656 325.015625 758.203125 326.152344 757.625 327.265625 C 757.046875 328.375 756.414062 329.457031 755.730469 330.507812 C 755.042969 331.558594 754.308594 332.570312 753.523438 333.546875 C 752.738281 334.523438 751.910156 335.460938 751.03125 336.355469 C 750.152344 337.25 749.234375 338.101562 748.273438 338.902344 C 747.3125 339.707031 746.3125 340.460938 745.277344 341.167969 C 744.242188 341.875 743.171875 342.527344 742.070312 343.125 C 740.972656 343.726562 739.84375 344.269531 738.691406 344.757812 C 737.554688 345.238281 736.398438 345.664062 735.222656 346.03125 C 734.042969 346.398438 732.851562 346.707031 731.644531 346.957031 C 730.4375 347.207031 729.21875 347.394531 727.992188 347.527344 C 726.765625 347.65625 725.539062 347.726562 724.304688 347.734375 C 723.070312 347.742188 721.839844 347.691406 720.613281 347.578125 C 719.386719 347.464844 718.164062 347.292969 716.953125 347.058594 C 715.742188 346.828125 714.546875 346.535156 713.363281 346.183594 C 712.183594 345.835938 711.019531 345.425781 709.878906 344.960938 C 708.738281 344.496094 707.621094 343.976562 706.53125 343.402344 C 705.4375 342.824219 704.378906 342.199219 703.351562 341.519531 C 702.320312 340.839844 701.328125 340.109375 700.371094 339.332031 C 699.414062 338.554688 698.496094 337.734375 697.621094 336.863281 C 696.746094 335.996094 695.914062 335.089844 695.128906 334.136719 C 694.339844 333.1875 693.605469 332.203125 692.914062 331.179688 C 692.226562 330.15625 691.585938 329.105469 691.003906 328.019531 C 690.417969 326.933594 689.886719 325.820312 689.410156 324.683594 Z M 683.386719 309.429688 " fill-opacity="1" fill-rule="nonzero"/></svg>