<svg xmlns="http://www.w3.org/2000/svg" xmlns:xlink="http://www.w3.org/1999/xlink" width="1080" zoomAndPan="magnify" viewBox="0 0 810 809.999993" height="1080" preserveAspectRatio="xMidYMid meet" version="1.0"><path fill="#fa55a3" d="M 653.9375 419.039062 L 296.222656 657.519531 C 294.953125 658.363281 293.59375 659.023438 292.144531 659.5 C 290.695312 659.980469 289.207031 660.25 287.683594 660.324219 C 286.15625 660.398438 284.648438 660.265625 283.164062 659.929688 C 281.671875 659.597656 280.253906 659.0625 278.910156 658.347656 C 277.5625 657.625 276.339844 656.742188 275.238281 655.6875 C 274.128906 654.632812 273.183594 653.453125 272.402344 652.144531 C 271.613281 650.832031 271.019531 649.445312 270.613281 647.972656 C 270.207031 646.503906 270 645.003906 270 643.480469 L 270 166.519531 C 270 164.996094 270.207031 163.496094 270.613281 162.027344 C 271.019531 160.554688 271.613281 159.167969 272.402344 157.855469 C 273.183594 156.546875 274.128906 155.367188 275.238281 154.3125 C 276.339844 153.257812 277.5625 152.375 278.910156 151.652344 C 280.253906 150.9375 281.671875 150.402344 283.164062 150.070312 C 284.648438 149.734375 286.15625 149.601562 287.683594 149.675781 C 289.207031 149.75 290.695312 150.023438 292.144531 150.5 C 293.59375 150.976562 294.953125 151.636719 296.222656 152.480469 L 653.9375 390.960938 C 654.515625 391.34375 655.0625 391.761719 655.589844 392.210938 C 656.113281 392.664062 656.609375 393.148438 657.074219 393.65625 C 657.539062 394.167969 657.96875 394.707031 658.367188 395.273438 C 658.769531 395.839844 659.128906 396.425781 659.457031 397.035156 C 659.78125 397.644531 660.070312 398.277344 660.320312 398.921875 C 660.566406 399.566406 660.777344 400.226562 660.945312 400.898438 C 661.117188 401.566406 661.238281 402.242188 661.324219 402.933594 C 661.414062 403.621094 661.453125 404.308594 661.453125 405 C 661.453125 405.691406 661.414062 406.378906 661.324219 407.066406 C 661.238281 407.757812 661.117188 408.433594 660.945312 409.101562 C 660.777344 409.773438 660.566406 410.433594 660.320312 411.078125 C 660.070312 411.722656 659.78125 412.355469 659.457031 412.964844 C 659.128906 413.574219 658.769531 414.160156 658.367188 414.726562 C 657.96875 415.292969 657.539062 415.832031 657.074219 416.34375 C 656.609375 416.851562 656.113281 417.335938 655.589844 417.789062 C 655.0625 418.238281 654.515625 418.65625 653.9375 419.039062 Z M 653.9375 419.039062 " fill-opacity="1" fill-rule="nonzero"/></svg>