<svg xmlns="http://www.w3.org/2000/svg" xmlns:xlink="http://www.w3.org/1999/xlink" width="1080" zoomAndPan="magnify" viewBox="0 0 810 809.999993" height="1080" preserveAspectRatio="xMidYMid meet" version="1.0"><path fill="#fa55a3" d="M 337.5 243.675781 L 222.851562 337.5 L 101.25 337.5 L 101.25 472.5 L 222.851562 472.5 L 337.5 566.324219 Z M 198.753906 540 L 67.5 540 C 66.394531 540 65.292969 539.945312 64.191406 539.839844 C 63.089844 539.726562 62 539.566406 60.917969 539.351562 C 59.832031 539.136719 58.761719 538.867188 57.703125 538.546875 C 56.644531 538.222656 55.605469 537.855469 54.585938 537.429688 C 53.5625 537.007812 52.566406 536.535156 51.589844 536.015625 C 50.617188 535.492188 49.667969 534.925781 48.75 534.308594 C 47.832031 533.695312 46.941406 533.042969 46.089844 532.339844 C 45.234375 531.636719 44.417969 530.894531 43.632812 530.117188 C 42.855469 529.332031 42.113281 528.515625 41.410156 527.660156 C 40.707031 526.808594 40.054688 525.917969 39.441406 525 C 38.824219 524.082031 38.257812 523.132812 37.734375 522.160156 C 37.214844 521.183594 36.742188 520.1875 36.320312 519.164062 C 35.894531 518.144531 35.527344 517.105469 35.203125 516.046875 C 34.882812 514.988281 34.613281 513.917969 34.398438 512.832031 C 34.183594 511.75 34.023438 510.660156 33.910156 509.558594 C 33.804688 508.457031 33.75 507.355469 33.75 506.25 L 33.75 303.75 C 33.75 302.644531 33.804688 301.542969 33.910156 300.441406 C 34.023438 299.339844 34.183594 298.25 34.398438 297.167969 C 34.613281 296.082031 34.882812 295.011719 35.203125 293.953125 C 35.527344 292.894531 35.894531 291.855469 36.320312 290.835938 C 36.742188 289.8125 37.214844 288.816406 37.734375 287.839844 C 38.257812 286.867188 38.824219 285.917969 39.441406 285 C 40.054688 284.082031 40.707031 283.191406 41.410156 282.339844 C 42.113281 281.484375 42.855469 280.667969 43.632812 279.882812 C 44.417969 279.105469 45.234375 278.363281 46.089844 277.660156 C 46.941406 276.957031 47.832031 276.304688 48.75 275.691406 C 49.667969 275.074219 50.617188 274.507812 51.589844 273.984375 C 52.566406 273.464844 53.5625 272.992188 54.585938 272.570312 C 55.605469 272.144531 56.644531 271.777344 57.703125 271.453125 C 58.761719 271.132812 59.832031 270.863281 60.917969 270.648438 C 62 270.433594 63.089844 270.273438 64.191406 270.160156 C 65.292969 270.054688 66.394531 270 67.5 270 L 198.753906 270 L 377.425781 123.792969 C 378.660156 122.78125 380.015625 121.960938 381.484375 121.332031 C 382.953125 120.703125 384.484375 120.292969 386.070312 120.09375 C 387.65625 119.902344 389.238281 119.929688 390.816406 120.183594 C 392.394531 120.441406 393.90625 120.910156 395.347656 121.59375 C 396.792969 122.277344 398.117188 123.152344 399.308594 124.210938 C 400.507812 125.269531 401.535156 126.476562 402.386719 127.828125 C 403.242188 129.179688 403.890625 130.621094 404.335938 132.15625 C 404.777344 133.691406 405 135.257812 405 136.859375 L 405 673.140625 C 405 674.742188 404.777344 676.308594 404.335938 677.84375 C 403.890625 679.378906 403.242188 680.820312 402.386719 682.171875 C 401.535156 683.523438 400.507812 684.730469 399.308594 685.789062 C 398.117188 686.847656 396.792969 687.722656 395.347656 688.40625 C 393.90625 689.089844 392.394531 689.558594 390.816406 689.816406 C 389.238281 690.070312 387.65625 690.097656 386.070312 689.90625 C 384.484375 689.707031 382.953125 689.296875 381.484375 688.667969 C 380.015625 688.039062 378.660156 687.21875 377.425781 686.207031 L 198.789062 540 Z M 654.953125 679.523438 L 607.164062 631.734375 C 611.144531 628.1875 615.035156 624.535156 618.828125 620.785156 C 622.621094 617.035156 626.3125 613.183594 629.902344 609.238281 C 633.492188 605.292969 636.972656 601.253906 640.351562 597.125 C 643.726562 592.992188 646.988281 588.777344 650.144531 584.472656 C 653.296875 580.171875 656.335938 575.789062 659.257812 571.328125 C 662.179688 566.863281 664.980469 562.324219 667.664062 557.714844 C 670.34375 553.105469 672.902344 548.425781 675.335938 543.679688 C 677.773438 538.933594 680.082031 534.125 682.261719 529.253906 C 684.441406 524.390625 686.496094 519.464844 688.417969 514.488281 C 690.339844 509.511719 692.125 504.492188 693.78125 499.417969 C 695.4375 494.347656 696.957031 489.234375 698.34375 484.085938 C 699.730469 478.933594 700.980469 473.75 702.09375 468.53125 C 703.203125 463.316406 704.175781 458.070312 705.011719 452.804688 C 705.847656 447.535156 706.546875 442.246094 707.097656 436.941406 C 707.652344 431.636719 708.070312 426.320312 708.347656 420.992188 C 708.621094 415.667969 708.757812 410.335938 708.75 405 C 708.753906 399.394531 708.605469 393.792969 708.300781 388.195312 C 707.992188 382.597656 707.535156 377.015625 706.917969 371.441406 C 706.304688 365.871094 705.53125 360.320312 704.609375 354.792969 C 703.6875 349.261719 702.613281 343.761719 701.382812 338.292969 C 700.15625 332.824219 698.777344 327.390625 697.246094 321.996094 C 695.714844 316.605469 694.039062 311.257812 692.210938 305.957031 C 690.382812 300.660156 688.414062 295.410156 686.296875 290.222656 C 684.179688 285.035156 681.921875 279.902344 679.519531 274.839844 C 677.117188 269.773438 674.574219 264.78125 671.898438 259.851562 C 669.21875 254.929688 666.40625 250.085938 663.457031 245.316406 C 660.511719 240.546875 657.433594 235.867188 654.222656 231.269531 C 651.019531 226.671875 647.683594 222.164062 644.230469 217.75 C 640.769531 213.339844 637.191406 209.027344 633.496094 204.8125 C 629.800781 200.597656 625.988281 196.488281 622.0625 192.488281 C 618.136719 188.484375 614.109375 184.59375 609.96875 180.8125 C 605.828125 177.035156 601.582031 173.371094 597.242188 169.828125 L 645.164062 121.90625 C 650.285156 126.242188 655.285156 130.710938 660.164062 135.320312 C 665.042969 139.925781 669.792969 144.664062 674.414062 149.53125 C 679.035156 154.394531 683.519531 159.382812 687.871094 164.488281 C 692.222656 169.601562 696.425781 174.828125 700.492188 180.160156 C 704.558594 185.5 708.476562 190.945312 712.246094 196.496094 C 716.023438 202.046875 719.632812 207.695312 723.097656 213.441406 C 726.5625 219.191406 729.867188 225.027344 733.011719 230.957031 C 736.160156 236.882812 739.140625 242.890625 741.960938 248.980469 C 744.78125 255.070312 747.4375 261.230469 749.917969 267.460938 C 752.402344 273.695312 754.714844 279.996094 756.859375 286.351562 C 759 292.710938 760.96875 299.125 762.765625 305.589844 C 764.558594 312.054688 766.175781 318.566406 767.613281 325.121094 C 769.058594 331.675781 770.316406 338.261719 771.402344 344.882812 C 772.480469 351.507812 773.382812 358.152344 774.101562 364.828125 C 774.824219 371.496094 775.363281 378.183594 775.722656 384.882812 C 776.082031 391.585938 776.257812 398.289062 776.25 405 C 776.25 513.777344 729.472656 611.617188 654.953125 679.523438 Z M 535.378906 559.945312 L 487.386719 511.953125 C 491.46875 508.8125 495.355469 505.449219 499.050781 501.867188 C 502.753906 498.28125 506.230469 494.496094 509.496094 490.511719 C 512.757812 486.527344 515.785156 482.371094 518.570312 478.039062 C 521.359375 473.707031 523.886719 469.234375 526.160156 464.609375 C 528.429688 459.988281 530.433594 455.253906 532.164062 450.402344 C 533.894531 445.550781 535.34375 440.617188 536.507812 435.601562 C 537.671875 430.585938 538.546875 425.515625 539.128906 420.398438 C 539.714844 415.285156 540.003906 410.148438 540 405 C 540 356.734375 514.6875 314.378906 476.550781 290.519531 L 525.113281 241.953125 C 528.300781 244.296875 531.410156 246.726562 534.445312 249.25 C 537.488281 251.773438 540.449219 254.382812 543.335938 257.074219 C 546.222656 259.773438 549.027344 262.550781 551.75 265.414062 C 554.472656 268.273438 557.109375 271.210938 559.664062 274.226562 C 562.214844 277.242188 564.675781 280.332031 567.046875 283.492188 C 569.414062 286.648438 571.691406 289.878906 573.875 293.171875 C 576.054688 296.460938 578.136719 299.816406 580.125 303.230469 C 582.105469 306.644531 583.988281 310.113281 585.773438 313.640625 C 587.550781 317.167969 589.226562 320.746094 590.800781 324.367188 C 592.371094 327.992188 593.839844 331.65625 595.195312 335.367188 C 596.550781 339.074219 597.796875 342.824219 598.933594 346.605469 C 600.070312 350.386719 601.097656 354.199219 602.011719 358.042969 C 602.925781 361.886719 603.726562 365.75 604.414062 369.640625 C 605.101562 373.53125 605.675781 377.4375 606.132812 381.359375 C 606.59375 385.28125 606.9375 389.214844 607.164062 393.160156 C 607.394531 397.101562 607.503906 401.050781 607.5 405 C 607.5 467.167969 579.488281 522.789062 535.378906 559.945312 Z M 535.378906 559.945312 " fill-opacity="1" fill-rule="nonzero"/></svg>