<svg xmlns="http://www.w3.org/2000/svg" xmlns:xlink="http://www.w3.org/1999/xlink" width="1024" zoomAndPan="magnify" viewBox="0 0 768 767.999994" height="1024" preserveAspectRatio="xMidYMid meet" version="1.2"><defs><clipPath id="266aac1a2d"><path d="M 48 401 L 367 401 L 367 719.925781 L 48 719.925781 Z M 48 401 "/></clipPath><clipPath id="4ee71b8a46"><path d="M 229 48 L 719.925781 48 L 719.925781 539 L 229 539 Z M 229 48 "/></clipPath></defs><g id="15b6048d67"><rect x="0" width="768" y="0" height="767.999994" style="fill:#ffffff;fill-opacity:1;stroke:none;"/><rect x="0" width="768" y="0" height="767.999994" style="fill:#ffffff;fill-opacity:1;stroke:none;"/><g clip-rule="nonzero" clip-path="url(#266aac1a2d)"><path style=" stroke:none;fill-rule:nonzero;fill:#000000;fill-opacity:1;" d="M 364.324219 507.121094 C 367.144531 504.300781 367.144531 499.71875 364.324219 496.902344 C 361.503906 494.082031 356.921875 494.082031 354.105469 496.902344 C 387.46875 480.9375 293.558594 408.636719 271.023438 413.820312 C 273.84375 411 273.84375 406.425781 271.023438 403.605469 C 268.203125 400.78125 263.628906 400.78125 260.808594 403.605469 L 53.367188 611.050781 C 49.789062 614.621094 48 619.332031 48 624.023438 C 48 628.726562 49.789062 633.433594 53.367188 637.011719 L 130.917969 714.5625 C 134.492188 718.136719 139.199219 719.925781 143.894531 719.925781 C 148.59375 719.925781 153.304688 718.136719 156.875 714.5625 L 364.324219 507.121094 "/></g><g clip-rule="nonzero" clip-path="url(#4ee71b8a46)"><path style=" stroke:none;fill-rule:evenodd;fill:#000000;fill-opacity:1;" d="M 648.035156 467.019531 Z M 719.925781 293.457031 C 719.925781 230.636719 695.960938 167.820312 648.035156 119.894531 C 600.109375 71.964844 537.289062 48 474.472656 48 C 411.652344 48 348.835938 71.964844 300.910156 119.894531 C 252.976562 167.820312 229.015625 230.636719 229.015625 293.457031 C 229.015625 332.640625 238.34375 371.835938 256.996094 407.414062 C 268.246094 428.859375 282.882812 448.992188 300.910156 467.019531 C 318.933594 485.042969 339.0625 499.683594 360.511719 510.929688 C 396.085938 529.582031 435.277344 538.910156 474.472656 538.910156 C 537.28125 538.910156 600.101562 514.945312 648.035156 467.019531 C 695.960938 419.09375 719.925781 356.273438 719.925781 293.457031 Z M 599.875 418.859375 Z M 598.246094 420.472656 Z M 596.597656 422.058594 Z M 589.863281 428.144531 Z M 588.140625 429.597656 Z M 586.410156 431.039062 Z M 349.0625 418.859375 Z M 347.453125 417.230469 Z M 345.867188 415.585938 Z M 339.78125 408.847656 Z M 335.484375 403.648438 Z M 349.0625 168.042969 C 383.695312 133.417969 429.082031 116.105469 474.472656 116.105469 C 519.859375 116.105469 565.25 133.417969 599.875 168.042969 L 599.925781 168.09375 L 601.410156 169.601562 L 601.488281 169.679688 L 601.511719 169.710938 L 603.023438 171.273438 L 603.046875 171.300781 L 603.074219 171.324219 L 603.097656 171.351562 L 603.125 171.382812 L 604.558594 172.910156 L 604.578125 172.9375 L 604.609375 172.960938 L 604.628906 172.988281 L 606.070312 174.558594 L 606.121094 174.609375 L 606.164062 174.667969 L 606.238281 174.742188 L 607.5625 176.226562 L 607.582031 176.246094 L 607.625 176.304688 L 607.675781 176.355469 L 607.722656 176.414062 L 609.089844 177.984375 L 609.117188 178.015625 L 609.132812 178.035156 L 609.160156 178.066406 L 610.550781 179.699219 L 610.59375 179.757812 L 610.617188 179.78125 L 612.003906 181.460938 L 612.027344 181.488281 L 612.054688 181.519531 L 612.070312 181.546875 L 612.121094 181.597656 L 613.414062 183.214844 L 613.4375 183.242188 L 613.457031 183.265625 L 614.753906 184.921875 L 614.773438 184.945312 L 614.863281 185.058594 L 614.882812 185.082031 L 616.15625 186.746094 L 616.242188 186.863281 L 617.429688 188.449219 L 617.441406 188.476562 L 617.53125 188.59375 L 617.550781 188.617188 L 617.574219 188.644531 L 618.773438 190.308594 L 618.816406 190.367188 L 618.855469 190.425781 L 619.996094 192.035156 L 620.0625 192.121094 L 620.074219 192.148438 L 620.140625 192.238281 L 620.15625 192.265625 L 621.332031 193.976562 L 621.355469 194.003906 L 621.371094 194.03125 L 621.414062 194.089844 L 621.429688 194.121094 L 622.527344 195.757812 L 622.546875 195.785156 L 622.5625 195.8125 L 622.605469 195.871094 L 622.621094 195.902344 L 622.664062 195.960938 L 623.753906 197.632812 L 623.769531 197.660156 L 623.792969 197.691406 L 623.804688 197.71875 L 624.960938 199.550781 L 624.992188 199.582031 L 625.003906 199.609375 L 625.027344 199.640625 L 626.101562 201.398438 L 626.125 201.429688 L 626.140625 201.457031 L 627.253906 203.3125 L 627.265625 203.339844 L 627.289062 203.371094 L 627.304688 203.398438 L 627.324219 203.425781 L 628.34375 205.171875 L 628.386719 205.261719 L 628.410156 205.289062 L 629.417969 207.078125 L 629.449219 207.136719 L 629.46875 207.164062 L 629.484375 207.195312 L 630.453125 208.960938 L 630.464844 208.992188 L 630.488281 209.027344 L 630.503906 209.054688 L 630.523438 209.085938 L 630.53125 209.113281 L 630.554688 209.144531 L 631.5 210.917969 L 631.511719 210.945312 L 631.527344 210.984375 L 631.542969 211.011719 L 631.5625 211.039062 L 631.578125 211.070312 L 632.488281 212.824219 L 632.515625 212.878906 L 632.53125 212.917969 L 633.460938 214.769531 L 633.503906 214.859375 L 633.527344 214.886719 L 633.542969 214.921875 L 633.558594 214.953125 L 634.429688 216.757812 L 634.488281 216.871094 L 634.503906 216.910156 L 635.390625 218.777344 L 635.402344 218.808594 L 635.417969 218.84375 L 636.261719 220.691406 L 636.269531 220.71875 L 636.285156 220.75 L 636.296875 220.785156 L 637.097656 222.574219 L 637.105469 222.609375 L 637.148438 222.695312 L 637.164062 222.734375 L 637.191406 222.792969 L 637.984375 224.660156 L 638 224.6875 L 638.007812 224.71875 L 638.8125 226.652344 L 638.820312 226.6875 L 638.851562 226.746094 L 638.859375 226.785156 L 639.597656 228.628906 L 639.605469 228.660156 L 639.621094 228.6875 L 639.636719 228.726562 L 640.371094 230.644531 L 640.382812 230.671875 L 640.390625 230.703125 L 640.40625 230.730469 L 640.421875 230.769531 L 640.433594 230.796875 L 641.132812 232.695312 L 641.148438 232.722656 L 641.15625 232.753906 L 641.851562 234.722656 L 641.867188 234.753906 L 641.875 234.78125 L 641.890625 234.820312 L 641.90625 234.847656 L 642.550781 236.753906 L 642.566406 236.789062 L 642.574219 236.816406 L 643.21875 238.765625 L 643.226562 238.796875 L 643.242188 238.824219 L 643.25 238.863281 L 643.257812 238.890625 L 643.269531 238.917969 L 643.875 240.847656 L 643.882812 240.875 L 643.898438 240.90625 L 644.5 242.898438 L 644.507812 242.925781 L 644.515625 242.960938 L 644.523438 242.992188 L 644.535156 243.027344 L 644.542969 243.058594 L 645.089844 244.925781 L 645.097656 244.953125 L 645.105469 244.992188 L 645.109375 245.019531 L 645.65625 246.992188 L 645.664062 247.019531 L 645.671875 247.054688 L 645.683594 247.085938 L 645.691406 247.121094 L 645.699219 247.152344 L 646.210938 249.09375 L 646.222656 249.121094 L 646.230469 249.15625 L 646.734375 251.164062 L 646.738281 251.203125 L 646.746094 251.230469 L 646.753906 251.265625 L 646.761719 251.296875 L 646.769531 251.332031 L 647.21875 253.214844 L 647.226562 253.25 L 647.242188 253.308594 L 647.25 253.347656 L 647.257812 253.375 L 647.691406 255.300781 L 647.699219 255.332031 L 647.707031 255.367188 L 647.714844 255.398438 L 647.722656 255.433594 L 647.730469 255.460938 L 647.734375 255.5 L 648.144531 257.425781 L 648.152344 257.453125 L 648.15625 257.492188 L 648.164062 257.519531 L 648.171875 257.554688 L 648.179688 257.585938 L 648.566406 259.519531 L 648.574219 259.546875 L 648.578125 259.585938 L 648.578125 259.613281 L 648.585938 259.652344 L 648.957031 261.613281 L 648.964844 261.648438 L 648.972656 261.679688 L 648.972656 261.714844 L 648.980469 261.746094 L 649.320312 263.6875 L 649.320312 263.714844 L 649.328125 263.75 L 649.335938 263.78125 L 649.34375 263.816406 L 649.351562 263.847656 L 649.351562 263.882812 L 649.671875 265.824219 L 649.675781 265.851562 L 649.675781 265.890625 L 649.683594 265.917969 L 649.691406 265.953125 L 649.691406 265.984375 L 649.992188 267.925781 L 649.992188 267.960938 L 649.996094 268 L 649.996094 268.027344 L 650.003906 268.0625 L 650.273438 270.003906 L 650.28125 270.042969 L 650.28125 270.070312 L 650.289062 270.105469 L 650.542969 272.121094 L 650.542969 272.148438 L 650.550781 272.1875 L 650.550781 272.222656 L 650.558594 272.253906 L 650.558594 272.289062 L 650.78125 274.273438 L 650.789062 274.300781 L 650.789062 274.339844 L 651.007812 276.390625 L 651.007812 276.453125 L 651.015625 276.492188 L 651.015625 276.519531 L 651.191406 278.476562 L 651.199219 278.511719 L 651.199219 278.578125 L 651.203125 278.605469 L 651.203125 278.644531 L 651.355469 280.601562 L 651.363281 280.628906 L 651.363281 280.703125 L 651.371094 280.730469 L 651.371094 280.796875 L 651.503906 282.757812 L 651.503906 282.855469 L 651.511719 282.890625 L 651.511719 282.917969 L 651.617188 284.882812 L 651.617188 284.984375 L 651.625 285.011719 L 651.707031 286.976562 L 651.707031 287.136719 L 651.773438 289.101562 L 651.773438 289.304688 L 651.808594 291.257812 L 651.808594 291.425781 L 651.824219 293.390625 L 651.824219 293.457031 C 651.824219 338.84375 634.503906 384.234375 599.875 418.867188 L 598.296875 420.421875 L 598.269531 420.445312 L 598.246094 420.472656 L 598.21875 420.503906 L 596.648438 422.007812 L 596.625 422.035156 L 596.597656 422.058594 C 595.492188 423.105469 594.386719 424.136719 593.257812 425.15625 L 591.570312 426.660156 L 589.863281 428.144531 L 588.199219 429.554688 L 588.167969 429.585938 L 588.140625 429.605469 L 586.460938 430.988281 L 586.410156 431.039062 L 584.714844 432.398438 L 584.628906 432.464844 L 582.925781 433.800781 L 582.894531 433.824219 L 581.179688 435.140625 L 581.121094 435.183594 L 579.390625 436.472656 L 579.332031 436.515625 L 577.617188 437.765625 L 577.589844 437.78125 L 577.5 437.84375 L 575.71875 439.101562 L 575.691406 439.125 L 575.660156 439.140625 L 573.945312 440.316406 L 573.921875 440.339844 L 573.894531 440.359375 L 573.867188 440.375 L 572.113281 441.546875 L 572.054688 441.589844 L 572.027344 441.605469 L 570.265625 442.753906 L 570.238281 442.773438 L 570.199219 442.796875 L 570.179688 442.8125 L 570.140625 442.832031 L 568.375 443.953125 L 568.339844 443.976562 L 568.316406 443.988281 L 568.28125 444.011719 L 566.527344 445.085938 L 566.46875 445.132812 L 564.644531 446.222656 L 564.617188 446.238281 L 564.585938 446.257812 L 564.558594 446.273438 L 564.527344 446.292969 L 564.5 446.308594 L 562.746094 447.328125 L 562.726562 447.339844 L 562.6875 447.355469 L 562.660156 447.378906 L 562.601562 447.40625 L 562.574219 447.429688 L 560.847656 448.402344 L 560.8125 448.417969 L 560.785156 448.441406 L 560.726562 448.46875 L 558.929688 449.457031 L 558.902344 449.472656 L 558.871094 449.492188 L 558.84375 449.507812 L 558.804688 449.523438 L 558.785156 449.539062 L 558.746094 449.550781 L 557.003906 450.484375 L 556.972656 450.503906 L 556.945312 450.519531 L 555.097656 451.472656 L 555.011719 451.515625 L 553.15625 452.445312 L 553.128906 452.46875 L 553.097656 452.484375 L 553.0625 452.496094 L 553.003906 452.527344 L 551.171875 453.414062 L 551.140625 453.433594 L 551.113281 453.449219 L 549.148438 454.375 L 549.113281 454.386719 L 549.085938 454.402344 L 547.238281 455.246094 L 547.207031 455.261719 L 547.171875 455.273438 L 547.144531 455.289062 L 545.195312 456.148438 L 545.136719 456.175781 L 543.265625 456.96875 L 543.230469 456.984375 L 543.203125 457 L 541.265625 457.796875 L 541.238281 457.8125 L 541.210938 457.820312 L 541.171875 457.835938 L 541.144531 457.847656 L 539.296875 458.582031 L 539.261719 458.597656 L 539.230469 458.605469 L 539.203125 458.621094 L 537.28125 459.363281 L 537.246094 459.367188 L 537.1875 459.398438 L 535.230469 460.117188 L 535.203125 460.132812 L 535.167969 460.148438 L 533.203125 460.84375 L 533.175781 460.851562 L 533.136719 460.867188 L 531.195312 461.527344 L 531.167969 461.542969 L 531.136719 461.550781 L 531.101562 461.566406 L 529.160156 462.203125 L 529.132812 462.210938 L 529.09375 462.226562 L 529.066406 462.234375 L 529.03125 462.25 L 529 462.253906 L 527.082031 462.859375 L 527.050781 462.875 L 527.015625 462.882812 L 525.03125 463.484375 L 524.992188 463.492188 L 524.964844 463.507812 L 523 464.074219 L 522.964844 464.082031 L 522.9375 464.089844 L 522.898438 464.101562 L 520.9375 464.640625 L 520.90625 464.65625 L 520.871094 464.664062 L 520.839844 464.667969 L 520.804688 464.675781 L 520.777344 464.691406 L 518.835938 465.199219 L 518.796875 465.207031 L 518.769531 465.214844 L 518.734375 465.222656 L 516.753906 465.714844 L 516.726562 465.730469 L 516.691406 465.730469 L 516.660156 465.746094 L 516.625 465.753906 L 516.59375 465.761719 L 514.710938 466.203125 L 514.675781 466.210938 L 514.644531 466.226562 L 514.574219 466.242188 L 514.542969 466.246094 L 512.625 466.675781 L 512.589844 466.683594 L 512.558594 466.691406 L 512.523438 466.699219 L 512.492188 466.707031 L 512.457031 466.714844 L 512.429688 466.71875 L 510.5 467.128906 L 510.464844 467.132812 L 510.4375 467.140625 L 510.398438 467.148438 L 510.371094 467.15625 L 508.371094 467.554688 L 508.34375 467.5625 L 508.304688 467.5625 L 508.277344 467.570312 L 506.304688 467.941406 L 506.246094 467.957031 L 506.210938 467.964844 L 506.183594 467.964844 L 504.242188 468.304688 L 504.203125 468.3125 L 504.175781 468.320312 L 504.140625 468.320312 L 504.109375 468.328125 L 504.074219 468.335938 L 504.042969 468.339844 L 502.101562 468.65625 L 502.074219 468.660156 L 502.039062 468.667969 L 502.007812 468.667969 L 501.972656 468.675781 L 501.9375 468.675781 L 499.996094 468.972656 L 499.964844 468.980469 L 499.929688 468.980469 L 499.898438 468.988281 L 499.863281 468.988281 L 497.914062 469.265625 L 497.886719 469.265625 L 497.847656 469.273438 L 497.820312 469.273438 L 495.804688 469.527344 L 495.769531 469.535156 L 495.734375 469.535156 L 495.703125 469.542969 L 495.667969 469.542969 L 495.640625 469.546875 L 493.652344 469.773438 L 493.625 469.773438 L 493.589844 469.78125 L 491.539062 469.992188 L 491.464844 469.992188 L 491.4375 470 L 491.398438 470 L 489.445312 470.179688 L 489.378906 470.179688 L 489.347656 470.1875 L 489.3125 470.1875 L 489.285156 470.195312 L 487.328125 470.347656 L 487.261719 470.347656 L 487.226562 470.355469 L 487.125 470.355469 L 485.167969 470.488281 L 485.132812 470.488281 L 485.101562 470.492188 L 485.035156 470.492188 L 485 470.5 L 483.042969 470.601562 L 482.980469 470.601562 L 482.941406 470.609375 L 482.914062 470.609375 L 480.949219 470.691406 L 480.847656 470.691406 L 480.820312 470.699219 L 480.785156 470.699219 L 478.820312 470.757812 L 478.6875 470.757812 L 478.660156 470.761719 L 478.625 470.761719 L 476.660156 470.792969 L 476.632812 470.800781 L 476.492188 470.800781 L 474.535156 470.808594 L 474.472656 470.808594 C 429.082031 470.808594 383.695312 453.492188 349.0625 418.859375 L 348.988281 418.785156 L 347.503906 417.28125 L 347.476562 417.257812 L 347.453125 417.230469 L 347.402344 417.179688 L 345.910156 415.636719 L 345.890625 415.609375 L 345.867188 415.585938 L 345.847656 415.558594 L 345.796875 415.507812 L 345.773438 415.476562 L 344.386719 414.003906 L 344.304688 413.921875 L 344.285156 413.894531 L 342.769531 412.25 L 342.726562 412.191406 L 342.699219 412.167969 L 341.308594 410.605469 L 341.289062 410.585938 L 341.242188 410.527344 L 341.214844 410.503906 L 339.847656 408.925781 L 339.824219 408.90625 L 339.78125 408.847656 L 339.753906 408.824219 L 339.730469 408.796875 L 338.386719 407.210938 L 338.34375 407.152344 L 338.320312 407.128906 L 338.296875 407.101562 L 336.933594 405.445312 L 336.910156 405.421875 L 336.867188 405.363281 L 336.84375 405.339844 L 335.527344 403.699219 L 335.5 403.667969 L 335.484375 403.648438 L 335.464844 403.617188 L 335.433594 403.589844 L 335.410156 403.558594 L 335.398438 403.53125 L 334.125 401.910156 L 334.097656 401.878906 L 332.785156 400.164062 L 332.699219 400.046875 L 332.679688 400.027344 L 332.65625 399.996094 L 331.449219 398.375 L 331.433594 398.347656 L 331.40625 398.316406 L 331.390625 398.289062 L 330.148438 396.574219 L 330.125 396.542969 L 330.105469 396.519531 L 330.058594 396.464844 L 328.824219 394.703125 L 328.800781 394.675781 L 328.789062 394.644531 L 327.601562 392.9375 L 327.589844 392.90625 L 327.566406 392.878906 L 327.550781 392.847656 L 327.507812 392.792969 L 327.492188 392.761719 L 326.375 391.097656 L 326.359375 391.066406 L 326.316406 391.007812 L 325.167969 389.25 L 325.152344 389.222656 L 325.128906 389.191406 L 325.117188 389.164062 L 325.09375 389.132812 L 325.078125 389.105469 L 325.035156 389.046875 L 323.972656 387.359375 L 323.929688 387.300781 L 323.902344 387.242188 L 322.832031 385.511719 L 322.816406 385.492188 L 322.796875 385.453125 L 322.765625 385.394531 L 322.746094 385.367188 L 321.707031 383.628906 L 321.683594 383.601562 L 321.65625 383.542969 L 321.632812 383.511719 L 321.601562 383.453125 L 320.601562 381.738281 L 320.585938 381.710938 L 320.5625 381.679688 L 320.535156 381.621094 L 319.523438 379.832031 L 319.507812 379.804688 L 319.488281 379.773438 L 319.472656 379.746094 L 319.457031 379.710938 L 319.4375 379.679688 L 318.46875 377.921875 L 318.453125 377.890625 L 318.433594 377.855469 L 318.390625 377.769531 L 318.367188 377.738281 L 317.4375 375.992188 L 317.421875 375.964844 L 317.40625 375.929688 L 317.363281 375.839844 L 316.457031 374.089844 L 316.433594 374.058594 L 316.417969 374.023438 L 316.40625 373.996094 L 315.472656 372.140625 L 315.414062 372.023438 L 315.402344 371.988281 L 314.507812 370.15625 L 314.476562 370.097656 L 313.554688 368.132812 L 313.539062 368.105469 L 313.523438 368.066406 L 313.511719 368.039062 L 312.679688 366.222656 L 312.652344 366.164062 L 312.636719 366.125 L 312.609375 366.070312 L 311.78125 364.179688 L 311.75 364.121094 L 310.957031 362.25 L 310.929688 362.191406 L 310.128906 360.25 L 310.113281 360.222656 L 310.105469 360.191406 L 310.09375 360.164062 L 310.078125 360.128906 L 310.0625 360.097656 L 309.328125 358.25 L 309.316406 358.222656 L 309.300781 358.1875 L 308.566406 356.265625 L 308.558594 356.238281 L 308.542969 356.207031 L 308.53125 356.171875 L 308.515625 356.144531 L 308.507812 356.113281 L 307.800781 354.214844 L 307.796875 354.1875 L 307.78125 354.15625 L 307.082031 352.1875 L 307.074219 352.160156 L 307.0625 352.128906 L 307.046875 352.09375 L 307.039062 352.0625 L 307.023438 352.027344 L 307.015625 352 L 306.390625 350.1875 L 306.382812 350.160156 L 306.378906 350.121094 L 306.363281 350.09375 L 305.722656 348.144531 L 305.707031 348.117188 L 305.699219 348.085938 L 305.695312 348.050781 L 305.679688 348.019531 L 305.671875 347.984375 L 305.0625 346.066406 L 305.046875 346.007812 L 304.441406 344.015625 L 304.4375 343.984375 L 304.421875 343.949219 L 304.414062 343.917969 L 304.398438 343.882812 L 304.390625 343.855469 L 303.855469 341.984375 L 303.847656 341.957031 L 303.832031 341.921875 L 303.824219 341.890625 L 303.28125 339.921875 L 303.273438 339.890625 L 303.265625 339.855469 L 303.257812 339.824219 L 303.242188 339.789062 L 303.234375 339.761719 L 302.726562 337.820312 L 302.71875 337.789062 L 302.710938 337.753906 L 302.203125 335.738281 L 302.1875 335.679688 L 302.179688 335.644531 L 302.175781 335.617188 L 302.167969 335.578125 L 301.714844 333.695312 L 301.707031 333.660156 L 301.695312 333.601562 L 301.6875 333.566406 L 301.679688 333.535156 L 301.25 331.609375 L 301.234375 331.578125 L 301.234375 331.542969 L 301.230469 331.515625 L 301.222656 331.476562 L 301.214844 331.449219 L 301.207031 331.414062 L 300.800781 329.484375 L 300.792969 329.457031 L 300.785156 329.421875 L 300.769531 329.390625 L 300.769531 329.355469 L 300.761719 329.324219 L 300.378906 327.390625 L 300.371094 327.363281 L 300.363281 327.324219 L 300.355469 327.296875 L 300.347656 327.261719 L 299.984375 325.296875 L 299.976562 325.261719 L 299.972656 325.230469 L 299.964844 325.195312 L 299.957031 325.167969 L 299.621094 323.226562 L 299.613281 323.195312 L 299.605469 323.160156 L 299.601562 323.128906 L 299.601562 323.09375 L 299.59375 323.066406 L 299.585938 323.027344 L 299.273438 321.085938 L 299.265625 321.058594 L 299.257812 321.023438 L 299.257812 320.992188 L 299.25 320.957031 L 299.242188 320.925781 L 298.953125 318.980469 L 298.945312 318.949219 L 298.945312 318.914062 L 298.9375 318.882812 L 298.929688 318.847656 L 298.660156 316.898438 L 298.660156 316.871094 L 298.65625 316.839844 L 298.65625 316.804688 L 298.398438 314.789062 L 298.394531 314.753906 L 298.394531 314.726562 L 298.386719 314.6875 L 298.378906 314.660156 L 298.378906 314.621094 L 298.152344 312.636719 L 298.144531 312.609375 L 298.144531 312.574219 L 297.933594 310.523438 L 297.933594 310.484375 L 297.925781 310.457031 L 297.925781 310.421875 L 297.921875 310.390625 L 297.746094 308.433594 L 297.746094 308.398438 L 297.738281 308.371094 L 297.738281 308.304688 L 297.730469 308.269531 L 297.578125 306.3125 L 297.578125 306.246094 L 297.570312 306.210938 L 297.570312 306.144531 L 297.5625 306.109375 L 297.441406 304.152344 L 297.433594 304.121094 L 297.433594 304.019531 L 297.425781 303.984375 L 297.324219 302.027344 L 297.324219 301.964844 L 297.316406 301.925781 L 297.316406 301.898438 L 297.238281 299.933594 L 297.238281 299.90625 L 297.230469 299.867188 L 297.230469 299.765625 L 297.171875 297.8125 L 297.171875 297.671875 L 297.164062 297.644531 L 297.164062 297.609375 L 297.136719 295.652344 L 297.136719 295.617188 L 297.128906 295.585938 L 297.128906 295.484375 L 297.113281 293.519531 L 297.113281 293.457031 C 297.113281 248.066406 314.433594 202.679688 349.0625 168.042969 "/></g></g></svg>