<svg xmlns="http://www.w3.org/2000/svg" xmlns:xlink="http://www.w3.org/1999/xlink" width="1080" zoomAndPan="magnify" viewBox="0 0 810 809.999993" height="1080" preserveAspectRatio="xMidYMid meet" version="1.0"><path fill="#fa55a3" d="M 67.5 405 C 67.5 375.804688 71.210938 347.523438 78.167969 320.488281 C 80.480469 320.613281 82.800781 320.652344 85.121094 320.617188 C 87.441406 320.578125 89.753906 320.460938 92.066406 320.265625 C 94.378906 320.070312 96.679688 319.792969 98.976562 319.4375 C 101.265625 319.078125 103.542969 318.648438 105.804688 318.136719 C 108.074219 317.625 110.3125 317.035156 112.539062 316.371094 C 114.757812 315.707031 116.953125 314.964844 119.125 314.148438 C 121.296875 313.328125 123.441406 312.4375 125.550781 311.476562 C 127.664062 310.511719 129.734375 309.476562 131.773438 308.367188 C 133.8125 307.265625 135.8125 306.085938 137.773438 304.839844 C 139.730469 303.597656 141.640625 302.289062 143.511719 300.914062 C 145.378906 299.539062 147.199219 298.101562 148.964844 296.597656 C 150.738281 295.097656 152.453125 293.539062 154.117188 291.921875 C 155.777344 290.304688 157.382812 288.625 158.929688 286.898438 C 160.476562 285.167969 161.964844 283.390625 163.386719 281.558594 C 164.8125 279.726562 166.175781 277.847656 167.46875 275.925781 C 168.765625 274 169.996094 272.035156 171.152344 270.023438 C 172.3125 268.015625 173.40625 265.972656 174.421875 263.886719 C 175.445312 261.800781 176.390625 259.683594 177.265625 257.539062 C 178.140625 255.386719 178.9375 253.210938 179.664062 251.007812 C 180.386719 248.804688 181.035156 246.574219 181.609375 244.328125 C 182.179688 242.078125 182.675781 239.8125 183.089844 237.53125 C 183.507812 235.25 183.839844 232.953125 184.101562 230.648438 C 184.359375 228.34375 184.539062 226.03125 184.636719 223.714844 C 184.734375 221.394531 184.753906 219.074219 184.699219 216.753906 C 184.636719 214.4375 184.496094 212.125 184.277344 209.8125 C 184.058594 207.5 183.757812 205.203125 183.382812 202.917969 C 183.003906 200.625 182.550781 198.351562 182.015625 196.09375 C 181.480469 193.835938 180.871094 191.597656 180.183594 189.382812 C 179.5 187.164062 178.734375 184.976562 177.894531 182.816406 C 177.058594 180.648438 176.148438 178.519531 175.164062 176.417969 C 174.179688 174.316406 173.121094 172.25 171.996094 170.226562 C 170.871094 168.195312 169.675781 166.207031 168.414062 164.257812 C 178.570312 154.265625 189.320312 144.953125 200.664062 136.320312 C 212.003906 127.6875 223.84375 119.804688 236.183594 112.675781 C 248.523438 105.542969 261.265625 99.222656 274.402344 93.707031 C 287.546875 88.191406 300.984375 83.53125 314.71875 79.71875 C 315.773438 81.789062 316.890625 83.820312 318.085938 85.808594 C 319.277344 87.804688 320.539062 89.75 321.863281 91.660156 C 323.191406 93.5625 324.578125 95.421875 326.035156 97.230469 C 327.488281 99.042969 329.003906 100.796875 330.578125 102.503906 C 332.152344 104.210938 333.789062 105.859375 335.472656 107.453125 C 337.164062 109.050781 338.90625 110.582031 340.695312 112.054688 C 342.492188 113.527344 344.335938 114.941406 346.226562 116.289062 C 348.117188 117.628906 350.054688 118.910156 352.03125 120.128906 C 354.011719 121.34375 356.03125 122.484375 358.085938 123.558594 C 360.148438 124.632812 362.238281 125.640625 364.367188 126.570312 C 366.492188 127.5 368.648438 128.359375 370.832031 129.140625 C 373.023438 129.925781 375.230469 130.628906 377.46875 131.257812 C 379.699219 131.890625 381.953125 132.441406 384.226562 132.917969 C 386.496094 133.394531 388.785156 133.792969 391.082031 134.109375 C 393.386719 134.425781 395.691406 134.667969 398.007812 134.828125 C 400.324219 134.988281 402.644531 135.066406 404.96875 135.066406 C 407.285156 135.066406 409.605469 134.988281 411.925781 134.828125 C 414.242188 134.667969 416.546875 134.425781 418.847656 134.109375 C 421.144531 133.792969 423.433594 133.394531 425.707031 132.917969 C 427.980469 132.441406 430.234375 131.890625 432.46875 131.257812 C 434.699219 130.628906 436.914062 129.925781 439.097656 129.140625 C 441.285156 128.359375 443.4375 127.5 445.570312 126.570312 C 447.695312 125.640625 449.789062 124.632812 451.84375 123.558594 C 453.902344 122.484375 455.921875 121.34375 457.898438 120.128906 C 459.878906 118.910156 461.8125 117.628906 463.703125 116.289062 C 465.59375 114.941406 467.441406 113.527344 469.234375 112.054688 C 471.027344 110.582031 472.769531 109.050781 474.457031 107.453125 C 476.144531 105.859375 477.777344 104.210938 479.355469 102.503906 C 480.929688 100.796875 482.445312 99.042969 483.894531 97.230469 C 485.351562 95.421875 486.742188 93.5625 488.070312 91.660156 C 489.394531 89.75 490.652344 87.804688 491.847656 85.808594 C 493.039062 83.820312 494.164062 81.789062 495.210938 79.71875 C 508.949219 83.53125 522.382812 88.191406 535.527344 93.707031 C 548.667969 99.222656 561.410156 105.542969 573.75 112.675781 C 586.089844 119.804688 597.929688 127.6875 609.273438 136.320312 C 620.609375 144.953125 631.363281 154.265625 641.523438 164.257812 C 640.257812 166.207031 639.058594 168.195312 637.933594 170.226562 C 636.804688 172.25 635.746094 174.320312 634.761719 176.421875 C 633.777344 178.523438 632.863281 180.652344 632.027344 182.820312 C 631.183594 184.980469 630.421875 187.175781 629.734375 189.390625 C 629.046875 191.605469 628.433594 193.84375 627.898438 196.101562 C 627.367188 198.363281 626.910156 200.636719 626.53125 202.929688 C 626.152344 205.21875 625.855469 207.519531 625.636719 209.828125 C 625.414062 212.140625 625.273438 214.457031 625.210938 216.773438 C 625.152344 219.09375 625.171875 221.414062 625.269531 223.734375 C 625.367188 226.054688 625.550781 228.363281 625.804688 230.671875 C 626.0625 232.980469 626.402344 235.273438 626.816406 237.558594 C 627.234375 239.84375 627.730469 242.109375 628.296875 244.359375 C 628.871094 246.605469 629.519531 248.835938 630.246094 251.039062 C 630.972656 253.246094 631.769531 255.425781 632.644531 257.574219 C 633.515625 259.726562 634.464844 261.84375 635.484375 263.925781 C 636.507812 266.011719 637.59375 268.058594 638.757812 270.066406 C 639.917969 272.078125 641.148438 274.046875 642.445312 275.96875 C 643.742188 277.898438 645.101562 279.777344 646.527344 281.605469 C 647.953125 283.4375 649.441406 285.21875 650.988281 286.949219 C 652.539062 288.679688 654.144531 290.351562 655.804688 291.972656 C 657.46875 293.589844 659.1875 295.152344 660.960938 296.652344 C 662.726562 298.152344 664.546875 299.589844 666.417969 300.964844 C 668.289062 302.339844 670.199219 303.652344 672.160156 304.894531 C 674.121094 306.140625 676.121094 307.3125 678.164062 308.421875 C 680.203125 309.527344 682.28125 310.5625 684.390625 311.527344 C 686.503906 312.492188 688.644531 313.382812 690.816406 314.199219 C 692.992188 315.015625 695.1875 315.753906 697.410156 316.417969 C 699.636719 317.085938 701.882812 317.671875 704.144531 318.183594 C 706.410156 318.691406 708.6875 319.125 710.984375 319.480469 C 713.277344 319.835938 715.582031 320.109375 717.890625 320.308594 C 720.203125 320.5 722.523438 320.617188 724.84375 320.652344 C 727.164062 320.691406 729.484375 320.644531 731.800781 320.523438 C 738.753906 347.523438 742.46875 375.804688 742.46875 405 C 742.46875 434.195312 738.753906 462.476562 731.800781 489.511719 C 729.484375 489.386719 727.164062 489.347656 724.847656 489.382812 C 722.523438 489.417969 720.207031 489.535156 717.894531 489.730469 C 715.585938 489.925781 713.28125 490.203125 710.988281 490.558594 C 708.695312 490.910156 706.417969 491.34375 704.152344 491.855469 C 701.890625 492.367188 699.644531 492.957031 697.425781 493.617188 C 695.199219 494.285156 693.003906 495.023438 690.828125 495.84375 C 688.65625 496.660156 686.515625 497.550781 684.40625 498.511719 C 682.292969 499.476562 680.21875 500.511719 678.179688 501.613281 C 676.140625 502.722656 674.140625 503.898438 672.183594 505.140625 C 670.222656 506.386719 668.308594 507.695312 666.4375 509.070312 C 664.570312 510.449219 662.75 511.886719 660.980469 513.386719 C 659.207031 514.886719 657.496094 516.441406 655.832031 518.0625 C 654.164062 519.679688 652.5625 521.351562 651.015625 523.082031 C 649.464844 524.8125 647.980469 526.59375 646.554688 528.421875 C 645.132812 530.257812 643.765625 532.136719 642.472656 534.058594 C 641.175781 535.984375 639.949219 537.949219 638.785156 539.957031 C 637.625 541.96875 636.53125 544.011719 635.515625 546.097656 C 634.492188 548.183594 633.546875 550.300781 632.671875 552.449219 C 631.792969 554.597656 630.996094 556.777344 630.269531 558.980469 C 629.546875 561.183594 628.898438 563.410156 628.324219 565.660156 C 627.753906 567.90625 627.257812 570.175781 626.84375 572.457031 C 626.425781 574.738281 626.089844 577.035156 625.828125 579.339844 C 625.574219 581.648438 625.394531 583.960938 625.292969 586.277344 C 625.195312 588.59375 625.175781 590.914062 625.234375 593.234375 C 625.292969 595.550781 625.433594 597.867188 625.652344 600.179688 C 625.875 602.488281 626.171875 604.789062 626.550781 607.078125 C 626.925781 609.371094 627.382812 611.640625 627.914062 613.902344 C 628.449219 616.160156 629.058594 618.398438 629.746094 620.613281 C 630.433594 622.828125 631.199219 625.019531 632.035156 627.183594 C 632.875 629.347656 633.785156 631.480469 634.769531 633.582031 C 635.753906 635.683594 636.808594 637.75 637.933594 639.773438 C 639.0625 641.804688 640.257812 643.792969 641.523438 645.742188 C 631.363281 655.734375 620.609375 665.046875 609.273438 673.679688 C 597.929688 682.3125 586.089844 690.195312 573.75 697.324219 C 561.410156 704.457031 548.667969 710.777344 535.527344 716.292969 C 522.382812 721.808594 508.949219 726.46875 495.210938 730.285156 C 494.164062 728.210938 493.039062 726.179688 491.847656 724.191406 C 490.652344 722.195312 489.394531 720.25 488.070312 718.339844 C 486.742188 716.4375 485.351562 714.578125 483.894531 712.769531 C 482.441406 710.957031 480.929688 709.203125 479.355469 707.496094 C 477.777344 705.789062 476.144531 704.140625 474.457031 702.546875 C 472.769531 700.949219 471.027344 699.417969 469.234375 697.949219 C 467.441406 696.472656 465.59375 695.058594 463.703125 693.710938 C 461.8125 692.371094 459.878906 691.089844 457.898438 689.871094 C 455.921875 688.65625 453.902344 687.515625 451.84375 686.441406 C 449.789062 685.367188 447.695312 684.359375 445.570312 683.429688 C 443.4375 682.5 441.285156 681.640625 439.097656 680.859375 C 436.914062 680.074219 434.699219 679.371094 432.46875 678.742188 C 430.234375 678.109375 427.980469 677.558594 425.707031 677.082031 C 423.433594 676.605469 421.144531 676.207031 418.847656 675.890625 C 416.546875 675.574219 414.242188 675.332031 411.925781 675.171875 C 409.605469 675.011719 407.285156 674.933594 404.96875 674.933594 C 402.644531 674.933594 400.324219 675.011719 398.007812 675.171875 C 395.691406 675.332031 393.386719 675.574219 391.082031 675.890625 C 388.785156 676.207031 386.496094 676.605469 384.226562 677.082031 C 381.953125 677.558594 379.699219 678.109375 377.46875 678.742188 C 375.230469 679.371094 373.023438 680.074219 370.832031 680.859375 C 368.648438 681.640625 366.492188 682.5 364.367188 683.429688 C 362.238281 684.359375 360.148438 685.367188 358.085938 686.441406 C 356.03125 687.515625 354.011719 688.65625 352.03125 689.871094 C 350.054688 691.089844 348.117188 692.371094 346.226562 693.710938 C 344.335938 695.058594 342.492188 696.472656 340.695312 697.949219 C 338.90625 699.417969 337.164062 700.949219 335.472656 702.546875 C 333.789062 704.140625 332.152344 705.789062 330.578125 707.496094 C 329.003906 709.203125 327.488281 710.957031 326.035156 712.769531 C 324.578125 714.578125 323.191406 716.4375 321.863281 718.339844 C 320.539062 720.25 319.277344 722.195312 318.085938 724.191406 C 316.890625 726.179688 315.773438 728.210938 314.71875 730.285156 C 300.984375 726.46875 287.546875 721.808594 274.402344 716.292969 C 261.265625 710.777344 248.523438 704.457031 236.183594 697.324219 C 223.84375 690.195312 212.003906 682.3125 200.664062 673.679688 C 189.320312 665.046875 178.570312 655.734375 168.414062 645.742188 C 169.675781 643.792969 170.871094 641.804688 172 639.773438 C 173.128906 637.75 174.183594 635.679688 175.171875 633.578125 C 176.15625 631.476562 177.066406 629.347656 177.910156 627.179688 C 178.75 625.019531 179.511719 622.824219 180.199219 620.609375 C 180.886719 618.394531 181.496094 616.15625 182.03125 613.898438 C 182.566406 611.636719 183.023438 609.363281 183.398438 607.070312 C 183.777344 604.78125 184.078125 602.480469 184.296875 600.171875 C 184.515625 597.859375 184.65625 595.542969 184.71875 593.226562 C 184.78125 590.90625 184.761719 588.585938 184.660156 586.265625 C 184.5625 583.945312 184.386719 581.636719 184.125 579.328125 C 183.871094 577.019531 183.53125 574.726562 183.117188 572.441406 C 182.699219 570.15625 182.207031 567.890625 181.632812 565.640625 C 181.058594 563.394531 180.414062 561.164062 179.6875 558.960938 C 178.964844 556.753906 178.164062 554.574219 177.289062 552.425781 C 176.414062 550.273438 175.464844 548.15625 174.449219 546.074219 C 173.425781 543.988281 172.335938 541.941406 171.171875 539.933594 C 170.011719 537.921875 168.78125 535.953125 167.484375 534.03125 C 166.191406 532.101562 164.828125 530.222656 163.402344 528.394531 C 161.976562 526.5625 160.488281 524.78125 158.945312 523.050781 C 157.394531 521.320312 155.789062 519.648438 154.125 518.027344 C 152.464844 516.410156 150.746094 514.847656 148.972656 513.347656 C 147.203125 511.847656 145.382812 510.410156 143.515625 509.035156 C 141.644531 507.660156 139.730469 506.347656 137.769531 505.105469 C 135.8125 503.859375 133.808594 502.6875 131.769531 501.578125 C 129.730469 500.472656 127.652344 499.4375 125.539062 498.472656 C 123.429688 497.507812 121.289062 496.617188 119.113281 495.800781 C 116.941406 494.984375 114.742188 494.246094 112.523438 493.582031 C 110.296875 492.914062 108.050781 492.328125 105.789062 491.816406 C 103.523438 491.308594 101.246094 490.875 98.949219 490.519531 C 96.65625 490.167969 94.351562 489.890625 92.042969 489.691406 C 89.726562 489.5 87.410156 489.382812 85.085938 489.347656 C 82.769531 489.308594 80.449219 489.355469 78.128906 489.476562 C 71.210938 462.507812 67.5 434.226562 67.5 405 Z M 229.632812 506.25 C 250.894531 543.070312 256.972656 585.425781 248.671875 625.1875 C 262.441406 634.972656 277.085938 643.441406 292.445312 650.5 C 296.273438 647.070312 300.242188 643.824219 304.367188 640.757812 C 308.492188 637.695312 312.746094 634.824219 317.136719 632.148438 C 321.519531 629.476562 326.019531 627.003906 330.632812 624.742188 C 335.242188 622.476562 339.945312 620.429688 344.746094 618.59375 C 349.546875 616.761719 354.421875 615.152344 359.367188 613.761719 C 364.3125 612.378906 369.3125 611.214844 374.363281 610.285156 C 379.417969 609.359375 384.503906 608.65625 389.621094 608.191406 C 394.738281 607.726562 399.863281 607.496094 405 607.5 C 447.523438 607.5 487.28125 623.394531 517.554688 650.5 C 532.914062 643.441406 547.558594 634.972656 561.328125 625.1875 C 560.273438 620.160156 559.453125 615.09375 558.859375 609.992188 C 558.273438 604.890625 557.914062 599.773438 557.789062 594.636719 C 557.664062 589.503906 557.777344 584.375 558.125 579.25 C 558.46875 574.128906 559.046875 569.027344 559.859375 563.957031 C 560.667969 558.886719 561.710938 553.863281 562.980469 548.886719 C 564.253906 543.910156 565.75 539.003906 567.46875 534.167969 C 569.1875 529.324219 571.125 524.574219 573.28125 519.910156 C 575.429688 515.25 577.796875 510.695312 580.367188 506.25 C 582.929688 501.800781 585.695312 497.480469 588.65625 493.285156 C 591.617188 489.085938 594.761719 485.035156 598.09375 481.128906 C 601.425781 477.21875 604.929688 473.472656 608.605469 469.882812 C 612.273438 466.296875 616.105469 462.878906 620.09375 459.640625 C 624.078125 456.40625 628.207031 453.355469 632.46875 450.496094 C 636.734375 447.636719 641.121094 444.976562 645.628906 442.515625 C 650.136719 440.054688 654.746094 437.804688 659.460938 435.765625 C 664.175781 433.730469 668.972656 431.910156 673.851562 430.3125 C 675.417969 413.4375 675.417969 396.5625 673.851562 379.6875 C 668.972656 378.089844 664.171875 376.273438 659.457031 374.234375 C 654.742188 372.199219 650.128906 369.949219 645.621094 367.488281 C 641.109375 365.027344 636.722656 362.367188 632.453125 359.507812 C 628.191406 356.648438 624.0625 353.601562 620.074219 350.363281 C 616.085938 347.125 612.253906 343.707031 608.578125 340.121094 C 604.90625 336.535156 601.398438 332.785156 598.066406 328.878906 C 594.734375 324.96875 591.585938 320.914062 588.621094 316.71875 C 585.660156 312.519531 582.894531 308.199219 580.328125 303.75 C 577.761719 299.304688 575.398438 294.75 573.242188 290.089844 C 571.089844 285.425781 569.152344 280.675781 567.433594 275.832031 C 565.714844 270.996094 564.222656 266.085938 562.949219 261.113281 C 561.679688 256.136719 560.636719 251.113281 559.824219 246.042969 C 559.011719 240.972656 558.433594 235.871094 558.089844 230.75 C 557.746094 225.625 557.632812 220.496094 557.757812 215.363281 C 557.878906 210.226562 558.234375 205.109375 558.828125 200.007812 C 559.421875 194.90625 560.242188 189.839844 561.296875 184.8125 C 547.5 175.003906 532.910156 166.566406 517.523438 159.5 C 513.699219 162.929688 509.722656 166.175781 505.597656 169.242188 C 501.480469 172.300781 497.222656 175.171875 492.839844 177.847656 C 488.457031 180.519531 483.957031 182.988281 479.347656 185.253906 C 474.738281 187.515625 470.03125 189.5625 465.234375 191.398438 C 460.4375 193.230469 455.5625 194.839844 450.621094 196.230469 C 445.675781 197.617188 440.679688 198.78125 435.628906 199.710938 C 430.574219 200.640625 425.492188 201.339844 420.375 201.804688 C 415.261719 202.269531 410.136719 202.503906 405 202.5 C 399.863281 202.503906 394.738281 202.273438 389.621094 201.808594 C 384.503906 201.34375 379.417969 200.644531 374.363281 199.714844 C 369.3125 198.785156 364.3125 197.625 359.367188 196.238281 C 354.421875 194.847656 349.546875 193.238281 344.746094 191.40625 C 339.945312 189.570312 335.242188 187.523438 330.632812 185.257812 C 326.019531 182.996094 321.519531 180.523438 317.136719 177.851562 C 312.746094 175.175781 308.492188 172.304688 304.367188 169.242188 C 300.242188 166.175781 296.273438 162.929688 292.445312 159.5 C 277.058594 166.566406 262.464844 175.003906 248.671875 184.8125 C 249.726562 189.839844 250.546875 194.90625 251.140625 200.007812 C 251.726562 205.109375 252.085938 210.226562 252.210938 215.363281 C 252.332031 220.496094 252.222656 225.625 251.875 230.75 C 251.53125 235.871094 250.953125 240.972656 250.140625 246.042969 C 249.332031 251.113281 248.289062 256.136719 247.019531 261.113281 C 245.746094 266.085938 244.25 270.996094 242.53125 275.832031 C 240.8125 280.675781 238.875 285.425781 236.71875 290.089844 C 234.570312 294.75 232.203125 299.304688 229.632812 303.75 C 227.070312 308.199219 224.304688 312.519531 221.34375 316.714844 C 218.382812 320.914062 215.238281 324.964844 211.90625 328.871094 C 208.574219 332.78125 205.070312 336.527344 201.394531 340.117188 C 197.726562 343.703125 193.894531 347.121094 189.90625 350.359375 C 185.921875 353.59375 181.796875 356.644531 177.53125 359.503906 C 173.265625 362.363281 168.878906 365.023438 164.371094 367.484375 C 159.863281 369.945312 155.253906 372.195312 150.539062 374.234375 C 145.824219 376.269531 141.027344 378.089844 136.148438 379.6875 C 134.582031 396.5625 134.582031 413.4375 136.148438 430.3125 C 141.027344 431.910156 145.828125 433.726562 150.542969 435.765625 C 155.257812 437.800781 159.871094 440.050781 164.378906 442.511719 C 168.890625 444.972656 173.277344 447.632812 177.546875 450.492188 C 181.808594 453.351562 185.9375 456.398438 189.925781 459.636719 C 193.914062 462.875 197.746094 466.292969 201.421875 469.878906 C 205.09375 473.46875 208.601562 477.214844 211.933594 481.121094 C 215.265625 485.03125 218.414062 489.085938 221.378906 493.28125 C 224.339844 497.480469 227.105469 501.800781 229.671875 506.25 Z M 405 506.25 C 403.34375 506.25 401.6875 506.207031 400.03125 506.125 C 398.375 506.046875 396.722656 505.925781 395.074219 505.765625 C 393.425781 505.597656 391.785156 505.398438 390.144531 505.152344 C 388.503906 504.910156 386.871094 504.625 385.246094 504.304688 C 383.621094 503.980469 382.007812 503.617188 380.398438 503.214844 C 378.789062 502.8125 377.195312 502.375 375.609375 501.890625 C 374.023438 501.410156 372.449219 500.890625 370.890625 500.328125 C 369.332031 499.773438 367.785156 499.175781 366.253906 498.542969 C 364.722656 497.90625 363.207031 497.234375 361.707031 496.527344 C 360.210938 495.820312 358.734375 495.078125 357.269531 494.292969 C 355.808594 493.515625 354.367188 492.695312 352.945312 491.847656 C 351.523438 490.992188 350.128906 490.109375 348.746094 489.183594 C 347.371094 488.265625 346.015625 487.3125 344.683594 486.328125 C 343.355469 485.335938 342.046875 484.320312 340.765625 483.269531 C 339.484375 482.214844 338.234375 481.136719 337.003906 480.023438 C 335.777344 478.910156 334.578125 477.765625 333.40625 476.59375 C 332.234375 475.421875 331.089844 474.222656 329.976562 472.996094 C 328.863281 471.765625 327.785156 470.515625 326.730469 469.234375 C 325.679688 467.953125 324.664062 466.644531 323.671875 465.316406 C 322.6875 463.984375 321.734375 462.628906 320.816406 461.253906 C 319.890625 459.871094 319.007812 458.476562 318.152344 457.054688 C 317.304688 455.632812 316.484375 454.191406 315.707031 452.730469 C 314.921875 451.265625 314.179688 449.789062 313.472656 448.292969 C 312.765625 446.792969 312.09375 445.277344 311.457031 443.746094 C 310.824219 442.214844 310.226562 440.667969 309.671875 439.109375 C 309.109375 437.550781 308.589844 435.976562 308.109375 434.390625 C 307.625 432.804688 307.1875 431.210938 306.785156 429.601562 C 306.382812 427.992188 306.019531 426.378906 305.695312 424.753906 C 305.375 423.128906 305.089844 421.496094 304.847656 419.855469 C 304.601562 418.214844 304.402344 416.574219 304.234375 414.925781 C 304.074219 413.277344 303.953125 411.625 303.875 409.96875 C 303.792969 408.3125 303.75 406.65625 303.75 405 C 303.75 403.34375 303.792969 401.6875 303.875 400.03125 C 303.953125 398.375 304.074219 396.722656 304.234375 395.074219 C 304.402344 393.425781 304.601562 391.785156 304.847656 390.144531 C 305.089844 388.503906 305.375 386.871094 305.695312 385.246094 C 306.019531 383.621094 306.382812 382.007812 306.785156 380.398438 C 307.1875 378.789062 307.625 377.195312 308.109375 375.609375 C 308.589844 374.023438 309.109375 372.449219 309.671875 370.890625 C 310.226562 369.332031 310.824219 367.785156 311.457031 366.253906 C 312.09375 364.722656 312.765625 363.207031 313.472656 361.707031 C 314.179688 360.210938 314.921875 358.734375 315.707031 357.269531 C 316.484375 355.808594 317.304688 354.367188 318.152344 352.945312 C 319.007812 351.523438 319.890625 350.128906 320.816406 348.746094 C 321.734375 347.371094 322.6875 346.015625 323.671875 344.683594 C 324.664062 343.355469 325.679688 342.046875 326.730469 340.765625 C 327.785156 339.484375 328.863281 338.234375 329.976562 337.003906 C 331.089844 335.777344 332.234375 334.578125 333.40625 333.40625 C 334.578125 332.234375 335.777344 331.089844 337.003906 329.976562 C 338.234375 328.863281 339.484375 327.785156 340.765625 326.730469 C 342.046875 325.679688 343.355469 324.664062 344.683594 323.671875 C 346.015625 322.6875 347.371094 321.734375 348.746094 320.816406 C 350.128906 319.890625 351.523438 319.007812 352.945312 318.152344 C 354.367188 317.304688 355.808594 316.484375 357.269531 315.707031 C 358.734375 314.921875 360.210938 314.179688 361.707031 313.472656 C 363.207031 312.765625 364.722656 312.09375 366.253906 311.457031 C 367.785156 310.824219 369.332031 310.226562 370.890625 309.671875 C 372.449219 309.109375 374.023438 308.589844 375.609375 308.109375 C 377.195312 307.625 378.789062 307.1875 380.398438 306.785156 C 382.007812 306.382812 383.621094 306.019531 385.246094 305.695312 C 386.871094 305.375 388.503906 305.089844 390.144531 304.847656 C 391.785156 304.601562 393.425781 304.402344 395.074219 304.234375 C 396.722656 304.074219 398.375 303.953125 400.03125 303.875 C 401.6875 303.792969 403.34375 303.75 405 303.75 C 406.65625 303.75 408.3125 303.792969 409.96875 303.875 C 411.625 303.953125 413.277344 304.074219 414.925781 304.234375 C 416.574219 304.402344 418.214844 304.601562 419.855469 304.847656 C 421.496094 305.089844 423.128906 305.375 424.753906 305.695312 C 426.378906 306.019531 427.992188 306.382812 429.601562 306.785156 C 431.210938 307.1875 432.804688 307.625 434.390625 308.109375 C 435.976562 308.589844 437.550781 309.109375 439.109375 309.671875 C 440.667969 310.226562 442.214844 310.824219 443.746094 311.457031 C 445.277344 312.09375 446.792969 312.765625 448.292969 313.472656 C 449.789062 314.179688 451.265625 314.921875 452.730469 315.707031 C 454.191406 316.484375 455.632812 317.304688 457.054688 318.152344 C 458.476562 319.007812 459.871094 319.890625 461.253906 320.816406 C 462.628906 321.734375 463.984375 322.6875 465.316406 323.671875 C 466.644531 324.664062 467.953125 325.679688 469.234375 326.730469 C 470.515625 327.785156 471.765625 328.863281 472.996094 329.976562 C 474.222656 331.089844 475.421875 332.234375 476.59375 333.40625 C 477.765625 334.578125 478.910156 335.777344 480.023438 337.003906 C 481.136719 338.234375 482.214844 339.484375 483.269531 340.765625 C 484.320312 342.046875 485.335938 343.355469 486.328125 344.683594 C 487.3125 346.015625 488.265625 347.371094 489.183594 348.746094 C 490.109375 350.128906 490.992188 351.523438 491.847656 352.945312 C 492.695312 354.367188 493.511719 355.808594 494.292969 357.269531 C 495.078125 358.734375 495.820312 360.210938 496.527344 361.707031 C 497.234375 363.207031 497.90625 364.722656 498.542969 366.253906 C 499.175781 367.785156 499.773438 369.332031 500.328125 370.890625 C 500.890625 372.449219 501.410156 374.023438 501.890625 375.609375 C 502.375 377.195312 502.8125 378.789062 503.214844 380.398438 C 503.617188 382.007812 503.980469 383.621094 504.304688 385.246094 C 504.625 386.871094 504.910156 388.503906 505.152344 390.144531 C 505.398438 391.785156 505.597656 393.425781 505.765625 395.074219 C 505.925781 396.722656 506.046875 398.375 506.125 400.03125 C 506.207031 401.6875 506.25 403.34375 506.25 405 C 506.25 406.65625 506.207031 408.3125 506.125 409.96875 C 506.046875 411.625 505.925781 413.277344 505.765625 414.925781 C 505.597656 416.574219 505.398438 418.214844 505.152344 419.855469 C 504.910156 421.496094 504.625 423.128906 504.304688 424.753906 C 503.980469 426.378906 503.617188 427.992188 503.214844 429.601562 C 502.8125 431.210938 502.375 432.804688 501.890625 434.390625 C 501.410156 435.976562 500.890625 437.550781 500.328125 439.109375 C 499.773438 440.667969 499.175781 442.214844 498.542969 443.746094 C 497.90625 445.277344 497.234375 446.792969 496.527344 448.292969 C 495.820312 449.789062 495.078125 451.265625 494.292969 452.730469 C 493.511719 454.191406 492.695312 455.632812 491.847656 457.054688 C 490.992188 458.476562 490.109375 459.871094 489.183594 461.253906 C 488.265625 462.628906 487.3125 463.984375 486.328125 465.316406 C 485.335938 466.644531 484.320312 467.953125 483.269531 469.234375 C 482.214844 470.515625 481.136719 471.765625 480.023438 472.996094 C 478.910156 474.222656 477.765625 475.421875 476.59375 476.59375 C 475.421875 477.765625 474.222656 478.910156 472.996094 480.023438 C 471.765625 481.136719 470.515625 482.214844 469.234375 483.269531 C 467.953125 484.320312 466.644531 485.335938 465.316406 486.328125 C 463.984375 487.3125 462.628906 488.265625 461.253906 489.183594 C 459.871094 490.109375 458.476562 490.992188 457.054688 491.847656 C 455.632812 492.695312 454.191406 493.515625 452.730469 494.292969 C 451.265625 495.078125 449.789062 495.820312 448.292969 496.527344 C 446.792969 497.234375 445.277344 497.90625 443.746094 498.542969 C 442.214844 499.175781 440.667969 499.773438 439.109375 500.328125 C 437.550781 500.890625 435.976562 501.410156 434.390625 501.890625 C 432.804688 502.375 431.210938 502.8125 429.601562 503.214844 C 427.992188 503.617188 426.378906 503.980469 424.753906 504.304688 C 423.128906 504.625 421.496094 504.910156 419.855469 505.152344 C 418.214844 505.398438 416.574219 505.597656 414.925781 505.765625 C 413.277344 505.925781 411.625 506.046875 409.96875 506.125 C 408.3125 506.207031 406.65625 506.25 405 506.25 Z M 405 438.75 C 406.105469 438.75 407.207031 438.695312 408.308594 438.589844 C 409.410156 438.476562 410.5 438.316406 411.582031 438.101562 C 412.667969 437.886719 413.738281 437.617188 414.796875 437.296875 C 415.855469 436.972656 416.894531 436.605469 417.914062 436.179688 C 418.9375 435.757812 419.933594 435.285156 420.910156 434.765625 C 421.882812 434.242188 422.832031 433.675781 423.75 433.058594 C 424.667969 432.445312 425.558594 431.792969 426.410156 431.085938 C 427.265625 430.386719 428.082031 429.644531 428.867188 428.867188 C 429.644531 428.082031 430.386719 427.265625 431.085938 426.410156 C 431.792969 425.558594 432.445312 424.667969 433.058594 423.75 C 433.675781 422.832031 434.242188 421.882812 434.765625 420.910156 C 435.285156 419.933594 435.757812 418.9375 436.179688 417.914062 C 436.605469 416.894531 436.972656 415.855469 437.296875 414.796875 C 437.617188 413.738281 437.886719 412.667969 438.101562 411.582031 C 438.316406 410.5 438.476562 409.410156 438.589844 408.308594 C 438.695312 407.207031 438.75 406.105469 438.75 405 C 438.75 403.894531 438.695312 402.792969 438.589844 401.691406 C 438.476562 400.589844 438.316406 399.5 438.101562 398.417969 C 437.886719 397.332031 437.617188 396.261719 437.296875 395.203125 C 436.972656 394.144531 436.605469 393.105469 436.179688 392.085938 C 435.757812 391.0625 435.285156 390.066406 434.765625 389.089844 C 434.242188 388.117188 433.675781 387.167969 433.058594 386.25 C 432.445312 385.332031 431.792969 384.441406 431.085938 383.589844 C 430.386719 382.734375 429.644531 381.917969 428.867188 381.132812 C 428.082031 380.355469 427.265625 379.613281 426.410156 378.914062 C 425.558594 378.207031 424.667969 377.554688 423.75 376.941406 C 422.832031 376.324219 421.882812 375.757812 420.910156 375.234375 C 419.933594 374.714844 418.9375 374.242188 417.914062 373.820312 C 416.894531 373.394531 415.855469 373.027344 414.796875 372.703125 C 413.738281 372.382812 412.667969 372.113281 411.582031 371.898438 C 410.5 371.683594 409.410156 371.523438 408.308594 371.410156 C 407.207031 371.304688 406.105469 371.25 405 371.25 C 403.894531 371.25 402.792969 371.304688 401.691406 371.410156 C 400.589844 371.523438 399.5 371.683594 398.417969 371.898438 C 397.332031 372.113281 396.261719 372.382812 395.203125 372.703125 C 394.144531 373.027344 393.105469 373.394531 392.085938 373.820312 C 391.0625 374.242188 390.066406 374.714844 389.089844 375.234375 C 388.117188 375.757812 387.167969 376.324219 386.25 376.941406 C 385.332031 377.554688 384.441406 378.207031 383.589844 378.914062 C 382.734375 379.613281 381.917969 380.355469 381.132812 381.132812 C 380.355469 381.917969 379.613281 382.734375 378.914062 383.589844 C 378.207031 384.441406 377.554688 385.332031 376.941406 386.25 C 376.324219 387.167969 375.757812 388.117188 375.234375 389.089844 C 374.714844 390.066406 374.242188 391.0625 373.820312 392.085938 C 373.394531 393.105469 373.027344 394.144531 372.703125 395.203125 C 372.382812 396.261719 372.113281 397.332031 371.898438 398.417969 C 371.683594 399.5 371.523438 400.589844 371.410156 401.691406 C 371.304688 402.792969 371.25 403.894531 371.25 405 C 371.25 406.105469 371.304688 407.207031 371.410156 408.308594 C 371.523438 409.410156 371.683594 410.5 371.898438 411.582031 C 372.113281 412.667969 372.382812 413.738281 372.703125 414.796875 C 373.027344 415.855469 373.394531 416.894531 373.820312 417.914062 C 374.242188 418.9375 374.714844 419.933594 375.234375 420.910156 C 375.757812 421.882812 376.324219 422.832031 376.941406 423.75 C 377.554688 424.667969 378.207031 425.558594 378.914062 426.410156 C 379.613281 427.265625 380.355469 428.082031 381.132812 428.867188 C 381.917969 429.644531 382.734375 430.386719 383.589844 431.085938 C 384.441406 431.792969 385.332031 432.445312 386.25 433.058594 C 387.167969 433.675781 388.117188 434.242188 389.089844 434.765625 C 390.066406 435.285156 391.0625 435.757812 392.085938 436.179688 C 393.105469 436.605469 394.144531 436.972656 395.203125 437.296875 C 396.261719 437.617188 397.332031 437.886719 398.417969 438.101562 C 399.5 438.316406 400.589844 438.476562 401.691406 438.589844 C 402.792969 438.695312 403.894531 438.75 405 438.75 Z M 405 438.75 " fill-opacity="1" fill-rule="nonzero"/></svg>