<svg xmlns="http://www.w3.org/2000/svg" xmlns:xlink="http://www.w3.org/1999/xlink" width="1080" zoomAndPan="magnify" viewBox="0 0 810 809.999993" height="1080" preserveAspectRatio="xMidYMid meet" version="1.0"><path fill="#fa55a3" d="M 337.5 243.675781 L 222.851562 337.5 L 101.25 337.5 L 101.25 472.5 L 222.851562 472.5 L 337.5 566.324219 Z M 198.753906 540 L 67.5 540 C 66.394531 540 65.292969 539.945312 64.191406 539.839844 C 63.089844 539.726562 62 539.566406 60.917969 539.351562 C 59.832031 539.136719 58.761719 538.867188 57.703125 538.546875 C 56.644531 538.222656 55.605469 537.855469 54.585938 537.429688 C 53.5625 537.007812 52.566406 536.535156 51.589844 536.015625 C 50.617188 535.492188 49.667969 534.925781 48.75 534.308594 C 47.832031 533.695312 46.941406 533.042969 46.089844 532.339844 C 45.234375 531.636719 44.417969 530.894531 43.632812 530.117188 C 42.855469 529.332031 42.113281 528.515625 41.410156 527.660156 C 40.707031 526.808594 40.054688 525.917969 39.441406 525 C 38.824219 524.082031 38.257812 523.132812 37.734375 522.160156 C 37.214844 521.183594 36.742188 520.1875 36.320312 519.164062 C 35.894531 518.144531 35.527344 517.105469 35.203125 516.046875 C 34.882812 514.988281 34.613281 513.917969 34.398438 512.832031 C 34.183594 511.75 34.023438 510.660156 33.910156 509.558594 C 33.804688 508.457031 33.75 507.355469 33.75 506.25 L 33.75 303.75 C 33.75 302.644531 33.804688 301.542969 33.910156 300.441406 C 34.023438 299.339844 34.183594 298.25 34.398438 297.167969 C 34.613281 296.082031 34.882812 295.011719 35.203125 293.953125 C 35.527344 292.894531 35.894531 291.855469 36.320312 290.835938 C 36.742188 289.8125 37.214844 288.816406 37.734375 287.839844 C 38.257812 286.867188 38.824219 285.917969 39.441406 285 C 40.054688 284.082031 40.707031 283.191406 41.410156 282.339844 C 42.113281 281.484375 42.855469 280.667969 43.632812 279.882812 C 44.417969 279.105469 45.234375 278.363281 46.089844 277.660156 C 46.941406 276.957031 47.832031 276.304688 48.75 275.691406 C 49.667969 275.074219 50.617188 274.507812 51.589844 273.984375 C 52.566406 273.464844 53.5625 272.992188 54.585938 272.570312 C 55.605469 272.144531 56.644531 271.777344 57.703125 271.453125 C 58.761719 271.132812 59.832031 270.863281 60.917969 270.648438 C 62 270.433594 63.089844 270.273438 64.191406 270.160156 C 65.292969 270.054688 66.394531 270 67.5 270 L 198.753906 270 L 377.425781 123.792969 C 378.660156 122.78125 380.015625 121.960938 381.484375 121.332031 C 382.953125 120.703125 384.484375 120.292969 386.070312 120.09375 C 387.65625 119.902344 389.238281 119.929688 390.816406 120.183594 C 392.394531 120.441406 393.90625 120.910156 395.347656 121.59375 C 396.792969 122.277344 398.117188 123.152344 399.308594 124.210938 C 400.507812 125.269531 401.535156 126.476562 402.386719 127.828125 C 403.242188 129.179688 403.890625 130.621094 404.335938 132.15625 C 404.777344 133.691406 405 135.257812 405 136.859375 L 405 673.140625 C 405 674.742188 404.777344 676.308594 404.335938 677.84375 C 403.890625 679.378906 403.242188 680.820312 402.386719 682.171875 C 401.535156 683.523438 400.507812 684.730469 399.308594 685.789062 C 398.117188 686.847656 396.792969 687.722656 395.347656 688.40625 C 393.90625 689.089844 392.394531 689.558594 390.816406 689.816406 C 389.238281 690.070312 387.65625 690.097656 386.070312 689.90625 C 384.484375 689.707031 382.953125 689.296875 381.484375 688.667969 C 380.015625 688.039062 378.660156 687.21875 377.425781 686.207031 L 198.789062 540 Z M 688.96875 405 L 808.3125 524.339844 L 760.589844 572.0625 L 641.25 452.71875 L 521.910156 572.0625 L 474.1875 524.339844 L 593.53125 405 L 474.1875 285.660156 L 521.910156 237.9375 L 641.25 357.28125 L 760.589844 237.9375 L 808.3125 285.660156 Z M 688.96875 405 " fill-opacity="1" fill-rule="nonzero"/></svg>