<svg xmlns="http://www.w3.org/2000/svg" xmlns:xlink="http://www.w3.org/1999/xlink" width="1080" zoomAndPan="magnify" viewBox="0 0 810 809.999993" height="1080" preserveAspectRatio="xMidYMid meet" version="1.0"><path fill="#fa55a3" d="M 208.238281 607.5 C 209.105469 605.046875 210.058594 602.632812 211.109375 600.253906 C 212.160156 597.875 213.300781 595.542969 214.535156 593.253906 C 215.765625 590.960938 217.085938 588.722656 218.484375 586.535156 C 219.890625 584.347656 221.375 582.210938 222.941406 580.140625 C 224.507812 578.0625 226.15625 576.054688 227.878906 574.105469 C 229.601562 572.160156 231.394531 570.28125 233.261719 568.472656 C 235.128906 566.660156 237.0625 564.925781 239.0625 563.265625 C 241.0625 561.605469 243.125 560.023438 245.246094 558.523438 C 247.371094 557.019531 249.550781 555.601562 251.777344 554.265625 C 254.011719 552.933594 256.289062 551.6875 258.617188 550.53125 C 260.945312 549.367188 263.3125 548.300781 265.722656 547.324219 C 268.132812 546.347656 270.578125 545.46875 273.058594 544.679688 C 275.53125 543.894531 278.039062 543.199219 280.566406 542.609375 C 283.101562 542.011719 285.652344 541.511719 288.21875 541.117188 C 290.789062 540.71875 293.367188 540.417969 295.964844 540.21875 C 298.554688 540.015625 301.148438 539.917969 303.75 539.917969 C 306.351562 539.917969 308.945312 540.015625 311.535156 540.21875 C 314.132812 540.417969 316.710938 540.71875 319.28125 541.117188 C 321.847656 541.511719 324.398438 542.011719 326.933594 542.609375 C 329.460938 543.199219 331.96875 543.894531 334.441406 544.679688 C 336.921875 545.46875 339.367188 546.347656 341.777344 547.324219 C 344.1875 548.300781 346.554688 549.367188 348.882812 550.53125 C 351.210938 551.6875 353.488281 552.933594 355.722656 554.265625 C 357.949219 555.601562 360.128906 557.019531 362.253906 558.523438 C 364.375 560.023438 366.4375 561.605469 368.4375 563.265625 C 370.4375 564.925781 372.371094 566.660156 374.238281 568.472656 C 376.105469 570.28125 377.898438 572.160156 379.621094 574.105469 C 381.34375 576.054688 382.992188 578.0625 384.558594 580.140625 C 386.125 582.210938 387.609375 584.347656 389.015625 586.535156 C 390.414062 588.722656 391.734375 590.960938 392.964844 593.253906 C 394.199219 595.542969 395.339844 597.875 396.390625 600.253906 C 397.441406 602.632812 398.394531 605.046875 399.261719 607.5 L 742.5 607.5 L 742.5 675 L 399.261719 675 C 398.394531 677.453125 397.441406 679.867188 396.390625 682.246094 C 395.339844 684.625 394.199219 686.957031 392.964844 689.246094 C 391.734375 691.539062 390.414062 693.777344 389.015625 695.964844 C 387.609375 698.152344 386.125 700.289062 384.558594 702.359375 C 382.992188 704.4375 381.34375 706.445312 379.621094 708.394531 C 377.898438 710.339844 376.105469 712.21875 374.238281 714.03125 C 372.371094 715.839844 370.4375 717.574219 368.4375 719.234375 C 366.4375 720.894531 364.375 722.476562 362.253906 723.976562 C 360.128906 725.480469 357.949219 726.898438 355.722656 728.234375 C 353.488281 729.566406 351.210938 730.8125 348.882812 731.96875 C 346.554688 733.132812 344.1875 734.199219 341.777344 735.175781 C 339.367188 736.152344 336.921875 737.03125 334.441406 737.820312 C 331.96875 738.605469 329.460938 739.300781 326.933594 739.894531 C 324.398438 740.488281 321.847656 740.988281 319.28125 741.382812 C 316.710938 741.78125 314.132812 742.082031 311.535156 742.28125 C 308.945312 742.484375 306.351562 742.582031 303.75 742.582031 C 301.148438 742.582031 298.554688 742.484375 295.964844 742.28125 C 293.367188 742.082031 290.789062 741.78125 288.21875 741.382812 C 285.652344 740.988281 283.101562 740.488281 280.566406 739.894531 C 278.039062 739.300781 275.53125 738.605469 273.058594 737.820312 C 270.578125 737.03125 268.132812 736.152344 265.722656 735.175781 C 263.3125 734.199219 260.945312 733.132812 258.617188 731.96875 C 256.289062 730.8125 254.011719 729.566406 251.777344 728.234375 C 249.550781 726.898438 247.371094 725.480469 245.246094 723.976562 C 243.125 722.476562 241.0625 720.894531 239.0625 719.234375 C 237.0625 717.574219 235.128906 715.839844 233.261719 714.03125 C 231.394531 712.21875 229.601562 710.339844 227.878906 708.394531 C 226.15625 706.445312 224.507812 704.4375 222.941406 702.359375 C 221.375 700.289062 219.890625 698.152344 218.484375 695.964844 C 217.085938 693.777344 215.765625 691.539062 214.535156 689.246094 C 213.300781 686.957031 212.160156 684.625 211.109375 682.246094 C 210.058594 679.867188 209.105469 677.453125 208.238281 675 L 67.5 675 L 67.5 607.5 Z M 410.738281 371.25 C 411.605469 368.796875 412.558594 366.382812 413.609375 364.003906 C 414.660156 361.625 415.800781 359.292969 417.035156 357.003906 C 418.265625 354.710938 419.585938 352.472656 420.984375 350.285156 C 422.390625 348.097656 423.875 345.960938 425.441406 343.890625 C 427.007812 341.8125 428.65625 339.804688 430.378906 337.855469 C 432.101562 335.910156 433.894531 334.03125 435.761719 332.21875 C 437.628906 330.410156 439.5625 328.675781 441.5625 327.015625 C 443.5625 325.355469 445.625 323.773438 447.746094 322.273438 C 449.871094 320.769531 452.050781 319.351562 454.277344 318.015625 C 456.511719 316.683594 458.789062 315.4375 461.117188 314.28125 C 463.445312 313.117188 465.8125 312.050781 468.222656 311.074219 C 470.632812 310.097656 473.078125 309.21875 475.558594 308.429688 C 478.03125 307.644531 480.539062 306.949219 483.066406 306.359375 C 485.601562 305.761719 488.152344 305.261719 490.71875 304.867188 C 493.289062 304.46875 495.867188 304.167969 498.464844 303.96875 C 501.054688 303.765625 503.648438 303.667969 506.25 303.667969 C 508.851562 303.667969 511.445312 303.765625 514.035156 303.96875 C 516.632812 304.167969 519.210938 304.46875 521.78125 304.867188 C 524.347656 305.261719 526.898438 305.761719 529.433594 306.359375 C 531.960938 306.949219 534.46875 307.644531 536.941406 308.429688 C 539.421875 309.21875 541.867188 310.097656 544.277344 311.074219 C 546.6875 312.050781 549.054688 313.117188 551.382812 314.28125 C 553.710938 315.4375 555.988281 316.683594 558.222656 318.015625 C 560.449219 319.351562 562.628906 320.769531 564.753906 322.273438 C 566.875 323.773438 568.9375 325.355469 570.9375 327.015625 C 572.9375 328.675781 574.871094 330.410156 576.738281 332.21875 C 578.605469 334.03125 580.398438 335.910156 582.121094 337.855469 C 583.84375 339.804688 585.492188 341.8125 587.058594 343.890625 C 588.625 345.960938 590.109375 348.097656 591.515625 350.285156 C 592.914062 352.472656 594.234375 354.710938 595.464844 357.003906 C 596.699219 359.292969 597.839844 361.625 598.890625 364.003906 C 599.941406 366.382812 600.894531 368.796875 601.761719 371.25 L 742.5 371.25 L 742.5 438.75 L 601.761719 438.75 C 600.894531 441.203125 599.941406 443.617188 598.890625 445.996094 C 597.839844 448.375 596.699219 450.707031 595.464844 452.996094 C 594.234375 455.289062 592.914062 457.527344 591.515625 459.714844 C 590.109375 461.902344 588.625 464.039062 587.058594 466.109375 C 585.492188 468.1875 583.84375 470.195312 582.121094 472.144531 C 580.398438 474.089844 578.605469 475.96875 576.738281 477.78125 C 574.871094 479.589844 572.9375 481.324219 570.9375 482.984375 C 568.9375 484.644531 566.875 486.226562 564.753906 487.726562 C 562.628906 489.230469 560.449219 490.648438 558.222656 491.984375 C 555.988281 493.316406 553.710938 494.5625 551.382812 495.71875 C 549.054688 496.882812 546.6875 497.949219 544.277344 498.925781 C 541.867188 499.902344 539.421875 500.78125 536.941406 501.570312 C 534.46875 502.355469 531.960938 503.050781 529.433594 503.644531 C 526.898438 504.238281 524.347656 504.738281 521.78125 505.132812 C 519.210938 505.53125 516.632812 505.832031 514.035156 506.03125 C 511.445312 506.234375 508.851562 506.332031 506.25 506.332031 C 503.648438 506.332031 501.054688 506.234375 498.464844 506.03125 C 495.867188 505.832031 493.289062 505.53125 490.71875 505.132812 C 488.152344 504.738281 485.601562 504.238281 483.066406 503.644531 C 480.539062 503.050781 478.03125 502.355469 475.558594 501.570312 C 473.078125 500.78125 470.632812 499.902344 468.222656 498.925781 C 465.8125 497.949219 463.445312 496.882812 461.117188 495.71875 C 458.789062 494.5625 456.511719 493.316406 454.277344 491.984375 C 452.050781 490.648438 449.871094 489.230469 447.746094 487.726562 C 445.625 486.226562 443.5625 484.644531 441.5625 482.984375 C 439.5625 481.324219 437.628906 479.589844 435.761719 477.78125 C 433.894531 475.96875 432.101562 474.089844 430.378906 472.144531 C 428.65625 470.195312 427.007812 468.1875 425.441406 466.109375 C 423.875 464.039062 422.390625 461.902344 420.984375 459.714844 C 419.585938 457.527344 418.265625 455.289062 417.035156 452.996094 C 415.800781 450.707031 414.660156 448.375 413.609375 445.996094 C 412.558594 443.617188 411.605469 441.203125 410.738281 438.75 L 67.5 438.75 L 67.5 371.25 Z M 208.238281 135 C 209.105469 132.546875 210.058594 130.132812 211.109375 127.753906 C 212.160156 125.375 213.300781 123.042969 214.535156 120.753906 C 215.765625 118.460938 217.085938 116.222656 218.484375 114.035156 C 219.890625 111.847656 221.375 109.710938 222.941406 107.640625 C 224.507812 105.5625 226.15625 103.554688 227.878906 101.605469 C 229.601562 99.660156 231.394531 97.78125 233.261719 95.96875 C 235.128906 94.160156 237.0625 92.425781 239.0625 90.765625 C 241.0625 89.105469 243.125 87.523438 245.246094 86.023438 C 247.371094 84.519531 249.550781 83.101562 251.777344 81.765625 C 254.011719 80.433594 256.289062 79.1875 258.617188 78.03125 C 260.945312 76.867188 263.3125 75.800781 265.722656 74.824219 C 268.132812 73.847656 270.578125 72.96875 273.058594 72.179688 C 275.53125 71.394531 278.039062 70.699219 280.566406 70.109375 C 283.101562 69.511719 285.652344 69.011719 288.21875 68.617188 C 290.789062 68.21875 293.367188 67.917969 295.964844 67.71875 C 298.554688 67.515625 301.148438 67.417969 303.75 67.417969 C 306.351562 67.417969 308.945312 67.515625 311.535156 67.71875 C 314.132812 67.917969 316.710938 68.21875 319.28125 68.617188 C 321.847656 69.011719 324.398438 69.511719 326.933594 70.109375 C 329.460938 70.699219 331.96875 71.394531 334.441406 72.179688 C 336.921875 72.96875 339.367188 73.847656 341.777344 74.824219 C 344.1875 75.800781 346.554688 76.867188 348.882812 78.03125 C 351.210938 79.1875 353.488281 80.433594 355.722656 81.765625 C 357.949219 83.101562 360.128906 84.519531 362.253906 86.023438 C 364.375 87.523438 366.4375 89.105469 368.4375 90.765625 C 370.4375 92.425781 372.371094 94.160156 374.238281 95.96875 C 376.105469 97.78125 377.898438 99.660156 379.621094 101.605469 C 381.34375 103.554688 382.992188 105.5625 384.558594 107.640625 C 386.125 109.710938 387.609375 111.847656 389.015625 114.035156 C 390.414062 116.222656 391.734375 118.460938 392.964844 120.753906 C 394.199219 123.042969 395.339844 125.375 396.390625 127.753906 C 397.441406 130.132812 398.394531 132.546875 399.261719 135 L 742.5 135 L 742.5 202.5 L 399.261719 202.5 C 398.394531 204.953125 397.441406 207.367188 396.390625 209.746094 C 395.339844 212.125 394.199219 214.457031 392.964844 216.746094 C 391.734375 219.039062 390.414062 221.277344 389.015625 223.464844 C 387.609375 225.652344 386.125 227.789062 384.558594 229.859375 C 382.992188 231.9375 381.34375 233.945312 379.621094 235.894531 C 377.898438 237.839844 376.105469 239.71875 374.238281 241.53125 C 372.371094 243.339844 370.4375 245.074219 368.4375 246.734375 C 366.4375 248.394531 364.375 249.976562 362.253906 251.476562 C 360.128906 252.980469 357.949219 254.398438 355.722656 255.734375 C 353.488281 257.066406 351.210938 258.3125 348.882812 259.46875 C 346.554688 260.632812 344.1875 261.699219 341.777344 262.675781 C 339.367188 263.652344 336.921875 264.53125 334.441406 265.320312 C 331.96875 266.105469 329.460938 266.800781 326.933594 267.394531 C 324.398438 267.988281 321.847656 268.488281 319.28125 268.882812 C 316.710938 269.28125 314.132812 269.582031 311.535156 269.78125 C 308.945312 269.984375 306.351562 270.082031 303.75 270.082031 C 301.148438 270.082031 298.554688 269.984375 295.964844 269.78125 C 293.367188 269.582031 290.789062 269.28125 288.21875 268.882812 C 285.652344 268.488281 283.101562 267.988281 280.566406 267.394531 C 278.039062 266.800781 275.53125 266.105469 273.058594 265.320312 C 270.578125 264.53125 268.132812 263.652344 265.722656 262.675781 C 263.3125 261.699219 260.945312 260.632812 258.617188 259.46875 C 256.289062 258.3125 254.011719 257.066406 251.777344 255.734375 C 249.550781 254.398438 247.371094 252.980469 245.246094 251.476562 C 243.125 249.976562 241.0625 248.394531 239.0625 246.734375 C 237.0625 245.074219 235.128906 243.339844 233.261719 241.53125 C 231.394531 239.71875 229.601562 237.839844 227.878906 235.894531 C 226.15625 233.945312 224.507812 231.9375 222.941406 229.859375 C 221.375 227.789062 219.890625 225.652344 218.484375 223.464844 C 217.085938 221.277344 215.765625 219.039062 214.535156 216.746094 C 213.300781 214.457031 212.160156 212.125 211.109375 209.746094 C 210.058594 207.367188 209.105469 204.953125 208.238281 202.5 L 67.5 202.5 L 67.5 135 Z M 303.75 202.5 C 304.855469 202.5 305.957031 202.445312 307.058594 202.339844 C 308.160156 202.226562 309.25 202.066406 310.332031 201.851562 C 311.417969 201.636719 312.488281 201.367188 313.546875 201.046875 C 314.605469 200.722656 315.644531 200.355469 316.664062 199.929688 C 317.6875 199.507812 318.683594 199.035156 319.660156 198.515625 C 320.632812 197.992188 321.582031 197.425781 322.5 196.808594 C 323.417969 196.195312 324.308594 195.542969 325.160156 194.839844 C 326.015625 194.136719 326.832031 193.394531 327.617188 192.617188 C 328.394531 191.832031 329.136719 191.015625 329.835938 190.160156 C 330.542969 189.308594 331.195312 188.417969 331.808594 187.5 C 332.425781 186.582031 332.992188 185.632812 333.515625 184.660156 C 334.035156 183.683594 334.507812 182.6875 334.929688 181.664062 C 335.355469 180.644531 335.722656 179.605469 336.046875 178.546875 C 336.367188 177.488281 336.636719 176.417969 336.851562 175.332031 C 337.066406 174.25 337.226562 173.160156 337.339844 172.058594 C 337.445312 170.957031 337.5 169.855469 337.5 168.75 C 337.5 167.644531 337.445312 166.542969 337.339844 165.441406 C 337.226562 164.339844 337.066406 163.25 336.851562 162.167969 C 336.636719 161.082031 336.367188 160.011719 336.046875 158.953125 C 335.722656 157.894531 335.355469 156.855469 334.929688 155.835938 C 334.507812 154.8125 334.035156 153.816406 333.515625 152.839844 C 332.992188 151.867188 332.425781 150.917969 331.808594 150 C 331.195312 149.082031 330.542969 148.191406 329.835938 147.339844 C 329.136719 146.484375 328.394531 145.667969 327.617188 144.882812 C 326.832031 144.105469 326.015625 143.363281 325.160156 142.660156 C 324.308594 141.957031 323.417969 141.304688 322.5 140.691406 C 321.582031 140.074219 320.632812 139.507812 319.660156 138.984375 C 318.683594 138.464844 317.6875 137.992188 316.664062 137.570312 C 315.644531 137.144531 314.605469 136.777344 313.546875 136.453125 C 312.488281 136.132812 311.417969 135.863281 310.332031 135.648438 C 309.25 135.433594 308.160156 135.273438 307.058594 135.160156 C 305.957031 135.054688 304.855469 135 303.75 135 C 302.644531 135 301.542969 135.054688 300.441406 135.160156 C 299.339844 135.273438 298.25 135.433594 297.167969 135.648438 C 296.082031 135.863281 295.011719 136.132812 293.953125 136.453125 C 292.894531 136.777344 291.855469 137.144531 290.835938 137.570312 C 289.8125 137.992188 288.816406 138.464844 287.839844 138.984375 C 286.867188 139.507812 285.917969 140.074219 285 140.691406 C 284.082031 141.304688 283.191406 141.957031 282.339844 142.660156 C 281.484375 143.363281 280.667969 144.105469 279.882812 144.882812 C 279.105469 145.667969 278.363281 146.484375 277.660156 147.339844 C 276.957031 148.191406 276.304688 149.082031 275.691406 150 C 275.074219 150.917969 274.507812 151.867188 273.984375 152.839844 C 273.464844 153.816406 272.992188 154.8125 272.570312 155.835938 C 272.144531 156.855469 271.777344 157.894531 271.453125 158.953125 C 271.132812 160.011719 270.863281 161.082031 270.648438 162.167969 C 270.433594 163.25 270.273438 164.339844 270.160156 165.441406 C 270.054688 166.542969 270 167.644531 270 168.75 C 270 169.855469 270.054688 170.957031 270.160156 172.058594 C 270.273438 173.160156 270.433594 174.25 270.648438 175.332031 C 270.863281 176.417969 271.132812 177.488281 271.453125 178.546875 C 271.777344 179.605469 272.144531 180.644531 272.570312 181.664062 C 272.992188 182.6875 273.464844 183.683594 273.984375 184.660156 C 274.507812 185.632812 275.074219 186.582031 275.691406 187.5 C 276.304688 188.417969 276.957031 189.308594 277.660156 190.160156 C 278.363281 191.015625 279.105469 191.832031 279.882812 192.617188 C 280.667969 193.394531 281.484375 194.136719 282.339844 194.839844 C 283.191406 195.542969 284.082031 196.195312 285 196.808594 C 285.917969 197.425781 286.867188 197.992188 287.839844 198.515625 C 288.816406 199.035156 289.8125 199.507812 290.835938 199.929688 C 291.855469 200.355469 292.894531 200.722656 293.953125 201.046875 C 295.011719 201.367188 296.082031 201.636719 297.167969 201.851562 C 298.25 202.066406 299.339844 202.226562 300.441406 202.339844 C 301.542969 202.445312 302.644531 202.5 303.75 202.5 Z M 506.25 438.75 C 507.355469 438.75 508.457031 438.695312 509.558594 438.589844 C 510.660156 438.476562 511.75 438.316406 512.832031 438.101562 C 513.917969 437.886719 514.988281 437.617188 516.046875 437.296875 C 517.105469 436.972656 518.144531 436.605469 519.164062 436.179688 C 520.1875 435.757812 521.183594 435.285156 522.160156 434.765625 C 523.132812 434.242188 524.082031 433.675781 525 433.058594 C 525.917969 432.445312 526.808594 431.792969 527.660156 431.085938 C 528.515625 430.386719 529.332031 429.644531 530.117188 428.867188 C 530.894531 428.082031 531.636719 427.265625 532.335938 426.410156 C 533.042969 425.558594 533.695312 424.667969 534.308594 423.75 C 534.925781 422.832031 535.492188 421.882812 536.015625 420.910156 C 536.535156 419.933594 537.007812 418.9375 537.429688 417.914062 C 537.855469 416.894531 538.222656 415.855469 538.546875 414.796875 C 538.867188 413.738281 539.136719 412.667969 539.351562 411.582031 C 539.566406 410.5 539.726562 409.410156 539.839844 408.308594 C 539.945312 407.207031 540 406.105469 540 405 C 540 403.894531 539.945312 402.792969 539.839844 401.691406 C 539.726562 400.589844 539.566406 399.5 539.351562 398.417969 C 539.136719 397.332031 538.867188 396.261719 538.546875 395.203125 C 538.222656 394.144531 537.855469 393.105469 537.429688 392.085938 C 537.007812 391.0625 536.535156 390.066406 536.015625 389.089844 C 535.492188 388.117188 534.925781 387.167969 534.308594 386.25 C 533.695312 385.332031 533.042969 384.441406 532.339844 383.589844 C 531.636719 382.734375 530.894531 381.917969 530.117188 381.132812 C 529.332031 380.355469 528.515625 379.613281 527.660156 378.914062 C 526.808594 378.207031 525.917969 377.554688 525 376.941406 C 524.082031 376.324219 523.132812 375.757812 522.160156 375.234375 C 521.183594 374.714844 520.1875 374.242188 519.164062 373.820312 C 518.144531 373.394531 517.105469 373.027344 516.046875 372.703125 C 514.988281 372.382812 513.917969 372.113281 512.832031 371.898438 C 511.75 371.683594 510.660156 371.523438 509.558594 371.410156 C 508.457031 371.304688 507.355469 371.25 506.25 371.25 C 505.144531 371.25 504.042969 371.304688 502.941406 371.410156 C 501.839844 371.523438 500.75 371.683594 499.667969 371.898438 C 498.582031 372.113281 497.511719 372.382812 496.453125 372.703125 C 495.394531 373.027344 494.355469 373.394531 493.335938 373.820312 C 492.3125 374.242188 491.316406 374.714844 490.339844 375.234375 C 489.367188 375.757812 488.417969 376.324219 487.5 376.941406 C 486.582031 377.554688 485.691406 378.207031 484.839844 378.914062 C 483.984375 379.613281 483.167969 380.355469 482.382812 381.132812 C 481.605469 381.917969 480.863281 382.734375 480.160156 383.589844 C 479.457031 384.441406 478.804688 385.332031 478.191406 386.25 C 477.574219 387.167969 477.007812 388.117188 476.484375 389.089844 C 475.964844 390.066406 475.492188 391.0625 475.070312 392.085938 C 474.644531 393.105469 474.277344 394.144531 473.953125 395.203125 C 473.632812 396.261719 473.363281 397.332031 473.148438 398.417969 C 472.933594 399.5 472.773438 400.589844 472.660156 401.691406 C 472.554688 402.792969 472.5 403.894531 472.5 405 C 472.5 406.105469 472.554688 407.207031 472.660156 408.308594 C 472.773438 409.410156 472.933594 410.5 473.148438 411.582031 C 473.363281 412.667969 473.632812 413.738281 473.953125 414.796875 C 474.277344 415.855469 474.644531 416.894531 475.070312 417.914062 C 475.492188 418.9375 475.964844 419.933594 476.484375 420.910156 C 477.007812 421.882812 477.574219 422.832031 478.191406 423.75 C 478.804688 424.667969 479.457031 425.558594 480.160156 426.410156 C 480.863281 427.265625 481.605469 428.082031 482.382812 428.867188 C 483.167969 429.644531 483.984375 430.386719 484.839844 431.085938 C 485.691406 431.792969 486.582031 432.445312 487.5 433.058594 C 488.417969 433.675781 489.367188 434.242188 490.339844 434.765625 C 491.316406 435.285156 492.3125 435.757812 493.335938 436.179688 C 494.355469 436.605469 495.394531 436.972656 496.453125 437.296875 C 497.511719 437.617188 498.582031 437.886719 499.667969 438.101562 C 500.75 438.316406 501.839844 438.476562 502.941406 438.589844 C 504.042969 438.695312 505.144531 438.75 506.25 438.75 Z M 303.75 675 C 304.855469 675 305.957031 674.945312 307.058594 674.839844 C 308.160156 674.726562 309.25 674.566406 310.332031 674.351562 C 311.417969 674.136719 312.488281 673.867188 313.546875 673.546875 C 314.605469 673.222656 315.644531 672.855469 316.664062 672.429688 C 317.6875 672.007812 318.683594 671.535156 319.660156 671.015625 C 320.632812 670.492188 321.582031 669.925781 322.5 669.308594 C 323.417969 668.695312 324.308594 668.042969 325.160156 667.339844 C 326.015625 666.636719 326.832031 665.894531 327.617188 665.117188 C 328.394531 664.332031 329.136719 663.515625 329.835938 662.660156 C 330.542969 661.808594 331.195312 660.917969 331.808594 660 C 332.425781 659.082031 332.992188 658.132812 333.515625 657.160156 C 334.035156 656.183594 334.507812 655.1875 334.929688 654.164062 C 335.355469 653.144531 335.722656 652.105469 336.046875 651.046875 C 336.367188 649.988281 336.636719 648.917969 336.851562 647.832031 C 337.066406 646.75 337.226562 645.660156 337.339844 644.558594 C 337.445312 643.457031 337.5 642.355469 337.5 641.25 C 337.5 640.144531 337.445312 639.042969 337.339844 637.941406 C 337.226562 636.839844 337.066406 635.75 336.851562 634.667969 C 336.636719 633.582031 336.367188 632.511719 336.046875 631.453125 C 335.722656 630.394531 335.355469 629.355469 334.929688 628.335938 C 334.507812 627.3125 334.035156 626.316406 333.515625 625.339844 C 332.992188 624.367188 332.425781 623.417969 331.808594 622.5 C 331.195312 621.582031 330.542969 620.691406 329.835938 619.839844 C 329.136719 618.984375 328.394531 618.167969 327.617188 617.382812 C 326.832031 616.605469 326.015625 615.863281 325.160156 615.160156 C 324.308594 614.457031 323.417969 613.804688 322.5 613.191406 C 321.582031 612.574219 320.632812 612.007812 319.660156 611.484375 C 318.683594 610.964844 317.6875 610.492188 316.664062 610.070312 C 315.644531 609.644531 314.605469 609.277344 313.546875 608.953125 C 312.488281 608.632812 311.417969 608.363281 310.332031 608.148438 C 309.25 607.933594 308.160156 607.773438 307.058594 607.660156 C 305.957031 607.554688 304.855469 607.5 303.75 607.5 C 302.644531 607.5 301.542969 607.554688 300.441406 607.660156 C 299.339844 607.773438 298.25 607.933594 297.167969 608.148438 C 296.082031 608.363281 295.011719 608.632812 293.953125 608.953125 C 292.894531 609.277344 291.855469 609.644531 290.835938 610.070312 C 289.8125 610.492188 288.816406 610.964844 287.839844 611.484375 C 286.867188 612.007812 285.917969 612.574219 285 613.191406 C 284.082031 613.804688 283.191406 614.457031 282.339844 615.160156 C 281.484375 615.863281 280.667969 616.605469 279.882812 617.382812 C 279.105469 618.167969 278.363281 618.984375 277.660156 619.839844 C 276.957031 620.691406 276.304688 621.582031 275.691406 622.5 C 275.074219 623.417969 274.507812 624.367188 273.984375 625.339844 C 273.464844 626.316406 272.992188 627.3125 272.570312 628.335938 C 272.144531 629.355469 271.777344 630.394531 271.453125 631.453125 C 271.132812 632.511719 270.863281 633.582031 270.648438 634.667969 C 270.433594 635.75 270.273438 636.839844 270.160156 637.941406 C 270.054688 639.042969 270 640.144531 270 641.25 C 270 642.355469 270.054688 643.457031 270.160156 644.558594 C 270.273438 645.660156 270.433594 646.75 270.648438 647.832031 C 270.863281 648.917969 271.132812 649.988281 271.453125 651.046875 C 271.777344 652.105469 272.144531 653.144531 272.570312 654.164062 C 272.992188 655.1875 273.464844 656.183594 273.984375 657.160156 C 274.507812 658.132812 275.074219 659.082031 275.691406 660 C 276.304688 660.917969 276.957031 661.808594 277.660156 662.660156 C 278.363281 663.515625 279.105469 664.332031 279.882812 665.117188 C 280.667969 665.894531 281.484375 666.636719 282.339844 667.339844 C 283.191406 668.042969 284.082031 668.695312 285 669.308594 C 285.917969 669.925781 286.867188 670.492188 287.839844 671.015625 C 288.816406 671.535156 289.8125 672.007812 290.835938 672.429688 C 291.855469 672.855469 292.894531 673.222656 293.953125 673.546875 C 295.011719 673.867188 296.082031 674.136719 297.167969 674.351562 C 298.25 674.566406 299.339844 674.726562 300.441406 674.839844 C 301.542969 674.945312 302.644531 675 303.75 675 Z M 303.75 675 " fill-opacity="1" fill-rule="nonzero"/></svg>