<svg xmlns="http://www.w3.org/2000/svg" xmlns:xlink="http://www.w3.org/1999/xlink" width="1080" zoomAndPan="magnify" viewBox="0 0 810 809.999993" height="1080" preserveAspectRatio="xMidYMid meet" version="1.0"><path fill="#fa55a3" d="M 438.75 243.675781 L 324.101562 337.5 L 202.5 337.5 L 202.5 472.5 L 324.101562 472.5 L 438.75 566.324219 Z M 300.003906 540 L 168.75 540 C 167.644531 540 166.542969 539.945312 165.441406 539.839844 C 164.339844 539.726562 163.25 539.566406 162.167969 539.351562 C 161.082031 539.136719 160.011719 538.867188 158.953125 538.546875 C 157.894531 538.222656 156.855469 537.855469 155.835938 537.429688 C 154.8125 537.007812 153.816406 536.535156 152.839844 536.015625 C 151.867188 535.492188 150.917969 534.925781 150 534.308594 C 149.082031 533.695312 148.191406 533.042969 147.339844 532.339844 C 146.484375 531.636719 145.667969 530.894531 144.882812 530.117188 C 144.105469 529.332031 143.363281 528.515625 142.660156 527.660156 C 141.957031 526.808594 141.304688 525.917969 140.691406 525 C 140.074219 524.082031 139.507812 523.132812 138.984375 522.160156 C 138.464844 521.183594 137.992188 520.1875 137.570312 519.164062 C 137.144531 518.144531 136.777344 517.105469 136.453125 516.046875 C 136.132812 514.988281 135.863281 513.917969 135.648438 512.832031 C 135.433594 511.75 135.273438 510.660156 135.160156 509.558594 C 135.054688 508.457031 135 507.355469 135 506.25 L 135 303.75 C 135 302.644531 135.054688 301.542969 135.160156 300.441406 C 135.273438 299.339844 135.433594 298.25 135.648438 297.167969 C 135.863281 296.082031 136.132812 295.011719 136.453125 293.953125 C 136.777344 292.894531 137.144531 291.855469 137.570312 290.835938 C 137.992188 289.8125 138.464844 288.816406 138.984375 287.839844 C 139.507812 286.867188 140.074219 285.917969 140.691406 285 C 141.304688 284.082031 141.957031 283.191406 142.664062 282.339844 C 143.363281 281.484375 144.105469 280.667969 144.882812 279.882812 C 145.667969 279.105469 146.484375 278.363281 147.339844 277.660156 C 148.191406 276.957031 149.082031 276.304688 150 275.691406 C 150.917969 275.074219 151.867188 274.507812 152.839844 273.984375 C 153.816406 273.464844 154.8125 272.992188 155.835938 272.570312 C 156.855469 272.144531 157.894531 271.777344 158.953125 271.453125 C 160.011719 271.132812 161.082031 270.863281 162.167969 270.648438 C 163.25 270.433594 164.339844 270.273438 165.441406 270.160156 C 166.542969 270.054688 167.644531 270 168.75 270 L 300.003906 270 L 478.675781 123.792969 C 479.910156 122.78125 481.265625 121.960938 482.734375 121.332031 C 484.203125 120.703125 485.734375 120.292969 487.320312 120.09375 C 488.90625 119.902344 490.488281 119.929688 492.066406 120.183594 C 493.644531 120.441406 495.15625 120.910156 496.597656 121.59375 C 498.042969 122.277344 499.367188 123.152344 500.558594 124.210938 C 501.757812 125.269531 502.785156 126.476562 503.636719 127.828125 C 504.492188 129.179688 505.140625 130.621094 505.585938 132.15625 C 506.027344 133.691406 506.25 135.257812 506.25 136.859375 L 506.25 673.140625 C 506.25 674.742188 506.027344 676.308594 505.585938 677.84375 C 505.140625 679.378906 504.492188 680.820312 503.636719 682.171875 C 502.785156 683.523438 501.757812 684.730469 500.558594 685.789062 C 499.367188 686.847656 498.042969 687.722656 496.597656 688.40625 C 495.15625 689.089844 493.644531 689.558594 492.066406 689.816406 C 490.488281 690.070312 488.90625 690.097656 487.320312 689.90625 C 485.734375 689.707031 484.203125 689.296875 482.734375 688.667969 C 481.265625 688.039062 479.910156 687.21875 478.675781 686.207031 L 300.039062 540 Z M 636.628906 559.945312 L 588.636719 511.953125 C 592.71875 508.8125 596.605469 505.449219 600.300781 501.867188 C 604.003906 498.28125 607.480469 494.496094 610.746094 490.511719 C 614.007812 486.527344 617.035156 482.371094 619.820312 478.039062 C 622.609375 473.707031 625.136719 469.234375 627.410156 464.609375 C 629.679688 459.988281 631.683594 455.253906 633.414062 450.402344 C 635.144531 445.550781 636.59375 440.617188 637.757812 435.601562 C 638.921875 430.585938 639.796875 425.515625 640.378906 420.398438 C 640.964844 415.285156 641.253906 410.148438 641.25 405 C 641.25 356.734375 615.9375 314.378906 577.800781 290.519531 L 626.363281 241.953125 C 629.550781 244.296875 632.660156 246.726562 635.695312 249.25 C 638.738281 251.773438 641.699219 254.382812 644.585938 257.074219 C 647.472656 259.773438 650.277344 262.550781 653 265.414062 C 655.722656 268.273438 658.359375 271.210938 660.914062 274.226562 C 663.464844 277.242188 665.925781 280.332031 668.296875 283.492188 C 670.664062 286.648438 672.941406 289.878906 675.125 293.171875 C 677.304688 296.460938 679.386719 299.816406 681.375 303.230469 C 683.355469 306.644531 685.238281 310.113281 687.023438 313.640625 C 688.800781 317.167969 690.476562 320.746094 692.050781 324.367188 C 693.621094 327.992188 695.089844 331.65625 696.445312 335.367188 C 697.800781 339.074219 699.046875 342.824219 700.183594 346.605469 C 701.320312 350.386719 702.347656 354.199219 703.261719 358.042969 C 704.175781 361.886719 704.976562 365.75 705.664062 369.640625 C 706.351562 373.53125 706.925781 377.4375 707.382812 381.359375 C 707.84375 385.28125 708.1875 389.214844 708.414062 393.160156 C 708.644531 397.101562 708.753906 401.050781 708.75 405 C 708.75 467.167969 680.738281 522.789062 636.628906 559.945312 Z M 636.628906 559.945312 " fill-opacity="1" fill-rule="nonzero"/></svg>