<svg xmlns="http://www.w3.org/2000/svg" xmlns:xlink="http://www.w3.org/1999/xlink" width="1080" zoomAndPan="magnify" viewBox="0 0 810 809.999993" height="1080" preserveAspectRatio="xMidYMid meet" version="1.0"><path fill="#fa55a3" d="M 708.75 101.25 C 709.855469 101.25 710.957031 101.304688 712.058594 101.410156 C 713.160156 101.523438 714.25 101.683594 715.332031 101.898438 C 716.417969 102.113281 717.488281 102.382812 718.546875 102.703125 C 719.605469 103.027344 720.644531 103.394531 721.664062 103.820312 C 722.6875 104.242188 723.683594 104.714844 724.660156 105.234375 C 725.632812 105.757812 726.582031 106.324219 727.5 106.941406 C 728.417969 107.554688 729.308594 108.207031 730.160156 108.914062 C 731.015625 109.613281 731.832031 110.355469 732.617188 111.132812 C 733.394531 111.917969 734.136719 112.734375 734.839844 113.589844 C 735.542969 114.441406 736.195312 115.332031 736.808594 116.25 C 737.425781 117.167969 737.992188 118.117188 738.515625 119.089844 C 739.035156 120.066406 739.507812 121.0625 739.929688 122.085938 C 740.355469 123.105469 740.722656 124.144531 741.046875 125.203125 C 741.367188 126.261719 741.636719 127.332031 741.851562 128.417969 C 742.066406 129.5 742.226562 130.589844 742.339844 131.691406 C 742.445312 132.792969 742.5 133.894531 742.5 135 L 742.5 371.25 L 675 371.25 L 675 168.75 L 135 168.75 L 135 641.25 L 337.5 641.25 L 337.5 708.75 L 101.25 708.75 C 100.144531 708.75 99.042969 708.695312 97.941406 708.589844 C 96.839844 708.476562 95.75 708.316406 94.667969 708.101562 C 93.582031 707.886719 92.511719 707.617188 91.453125 707.296875 C 90.394531 706.972656 89.355469 706.605469 88.335938 706.179688 C 87.3125 705.757812 86.316406 705.285156 85.339844 704.765625 C 84.367188 704.242188 83.417969 703.675781 82.5 703.058594 C 81.582031 702.445312 80.691406 701.792969 79.839844 701.085938 C 78.984375 700.386719 78.167969 699.644531 77.382812 698.867188 C 76.605469 698.082031 75.863281 697.265625 75.164062 696.410156 C 74.457031 695.558594 73.804688 694.667969 73.191406 693.75 C 72.574219 692.832031 72.007812 691.882812 71.484375 690.910156 C 70.964844 689.933594 70.492188 688.9375 70.070312 687.914062 C 69.644531 686.894531 69.277344 685.855469 68.953125 684.796875 C 68.632812 683.738281 68.363281 682.667969 68.148438 681.582031 C 67.933594 680.5 67.773438 679.410156 67.660156 678.308594 C 67.554688 677.207031 67.5 676.105469 67.5 675 L 67.5 135 C 67.5 133.894531 67.554688 132.792969 67.660156 131.691406 C 67.773438 130.589844 67.933594 129.5 68.148438 128.417969 C 68.363281 127.332031 68.632812 126.261719 68.953125 125.203125 C 69.277344 124.144531 69.644531 123.105469 70.070312 122.085938 C 70.492188 121.0625 70.964844 120.066406 71.484375 119.089844 C 72.007812 118.117188 72.574219 117.167969 73.191406 116.25 C 73.804688 115.332031 74.457031 114.441406 75.164062 113.589844 C 75.863281 112.734375 76.605469 111.917969 77.382812 111.132812 C 78.167969 110.355469 78.984375 109.613281 79.839844 108.914062 C 80.691406 108.207031 81.582031 107.554688 82.5 106.941406 C 83.417969 106.324219 84.367188 105.757812 85.339844 105.234375 C 86.316406 104.714844 87.3125 104.242188 88.335938 103.820312 C 89.355469 103.394531 90.394531 103.027344 91.453125 102.703125 C 92.511719 102.382812 93.582031 102.113281 94.667969 101.898438 C 95.75 101.683594 96.839844 101.523438 97.941406 101.410156 C 99.042969 101.304688 100.144531 101.25 101.25 101.25 Z M 708.75 438.75 C 709.855469 438.75 710.957031 438.804688 712.058594 438.910156 C 713.160156 439.023438 714.25 439.183594 715.332031 439.398438 C 716.417969 439.613281 717.488281 439.882812 718.546875 440.203125 C 719.605469 440.527344 720.644531 440.894531 721.664062 441.320312 C 722.6875 441.742188 723.683594 442.214844 724.660156 442.734375 C 725.632812 443.257812 726.582031 443.824219 727.5 444.441406 C 728.417969 445.054688 729.308594 445.707031 730.160156 446.414062 C 731.015625 447.113281 731.832031 447.855469 732.617188 448.632812 C 733.394531 449.417969 734.136719 450.234375 734.839844 451.089844 C 735.542969 451.941406 736.195312 452.832031 736.808594 453.75 C 737.425781 454.667969 737.992188 455.617188 738.515625 456.589844 C 739.035156 457.566406 739.507812 458.5625 739.929688 459.585938 C 740.355469 460.605469 740.722656 461.644531 741.046875 462.703125 C 741.367188 463.761719 741.636719 464.832031 741.851562 465.917969 C 742.066406 467 742.226562 468.089844 742.339844 469.191406 C 742.445312 470.292969 742.5 471.394531 742.5 472.5 L 742.5 675 C 742.5 676.105469 742.445312 677.207031 742.339844 678.308594 C 742.226562 679.410156 742.066406 680.5 741.851562 681.582031 C 741.636719 682.667969 741.367188 683.738281 741.046875 684.796875 C 740.722656 685.855469 740.355469 686.894531 739.929688 687.914062 C 739.507812 688.9375 739.035156 689.933594 738.515625 690.910156 C 737.992188 691.882812 737.425781 692.832031 736.808594 693.75 C 736.195312 694.667969 735.542969 695.558594 734.839844 696.410156 C 734.136719 697.265625 733.394531 698.082031 732.617188 698.867188 C 731.832031 699.644531 731.015625 700.386719 730.160156 701.085938 C 729.308594 701.792969 728.417969 702.445312 727.5 703.058594 C 726.582031 703.675781 725.632812 704.242188 724.660156 704.765625 C 723.683594 705.285156 722.6875 705.757812 721.664062 706.179688 C 720.644531 706.605469 719.605469 706.972656 718.546875 707.296875 C 717.488281 707.617188 716.417969 707.886719 715.332031 708.101562 C 714.25 708.316406 713.160156 708.476562 712.058594 708.589844 C 710.957031 708.695312 709.855469 708.75 708.75 708.75 L 438.75 708.75 C 437.644531 708.75 436.542969 708.695312 435.441406 708.589844 C 434.339844 708.476562 433.25 708.316406 432.167969 708.101562 C 431.082031 707.886719 430.011719 707.617188 428.953125 707.296875 C 427.894531 706.972656 426.855469 706.605469 425.835938 706.179688 C 424.8125 705.757812 423.816406 705.285156 422.839844 704.765625 C 421.867188 704.242188 420.917969 703.675781 420 703.058594 C 419.082031 702.445312 418.191406 701.792969 417.339844 701.085938 C 416.484375 700.386719 415.667969 699.644531 414.882812 698.867188 C 414.105469 698.082031 413.363281 697.265625 412.664062 696.410156 C 411.957031 695.558594 411.304688 694.667969 410.691406 693.75 C 410.074219 692.832031 409.507812 691.882812 408.984375 690.910156 C 408.464844 689.933594 407.992188 688.9375 407.570312 687.914062 C 407.144531 686.894531 406.777344 685.855469 406.453125 684.796875 C 406.132812 683.738281 405.863281 682.667969 405.648438 681.582031 C 405.433594 680.5 405.273438 679.410156 405.160156 678.308594 C 405.054688 677.207031 405 676.105469 405 675 L 405 472.5 C 405 471.394531 405.054688 470.292969 405.160156 469.191406 C 405.273438 468.089844 405.433594 467 405.648438 465.917969 C 405.863281 464.832031 406.132812 463.761719 406.453125 462.703125 C 406.777344 461.644531 407.144531 460.605469 407.570312 459.585938 C 407.992188 458.5625 408.464844 457.566406 408.984375 456.589844 C 409.507812 455.617188 410.074219 454.667969 410.691406 453.75 C 411.304688 452.832031 411.957031 451.941406 412.664062 451.089844 C 413.363281 450.234375 414.105469 449.417969 414.882812 448.632812 C 415.667969 447.855469 416.484375 447.113281 417.339844 446.414062 C 418.191406 445.707031 419.082031 445.054688 420 444.441406 C 420.917969 443.824219 421.867188 443.257812 422.839844 442.734375 C 423.816406 442.214844 424.8125 441.742188 425.835938 441.320312 C 426.855469 440.894531 427.894531 440.527344 428.953125 440.203125 C 430.011719 439.882812 431.082031 439.613281 432.167969 439.398438 C 433.25 439.183594 434.339844 439.023438 435.441406 438.910156 C 436.542969 438.804688 437.644531 438.75 438.75 438.75 Z M 675 506.25 L 472.5 506.25 L 472.5 641.25 L 675 641.25 Z M 226.363281 212.386719 L 302.300781 288.324219 L 371.25 219.375 L 371.25 405 L 185.625 405 L 254.574219 336.050781 L 178.636719 260.113281 Z M 226.363281 212.386719 " fill-opacity="1" fill-rule="nonzero"/></svg>