<svg xmlns="http://www.w3.org/2000/svg" xmlns:xlink="http://www.w3.org/1999/xlink" width="1080" zoomAndPan="magnify" viewBox="0 0 810 809.999993" height="1080" preserveAspectRatio="xMidYMid meet" version="1.0"><path fill="#fa55a3" d="M 442.800781 574.523438 L 301.085938 497.238281 C 299.550781 498.875 297.980469 500.472656 296.371094 502.03125 C 294.761719 503.589844 293.113281 505.105469 291.425781 506.582031 C 289.742188 508.058594 288.019531 509.492188 286.265625 510.878906 C 284.507812 512.273438 282.71875 513.617188 280.894531 514.917969 C 279.066406 516.21875 277.214844 517.476562 275.328125 518.683594 C 273.441406 519.894531 271.523438 521.050781 269.578125 522.167969 C 267.636719 523.28125 265.664062 524.34375 263.667969 525.363281 C 261.667969 526.375 259.648438 527.339844 257.601562 528.253906 C 255.554688 529.171875 253.492188 530.035156 251.402344 530.84375 C 249.3125 531.65625 247.203125 532.414062 245.078125 533.125 C 242.953125 533.832031 240.8125 534.484375 238.652344 535.085938 C 236.492188 535.6875 234.320312 536.230469 232.132812 536.71875 C 229.949219 537.214844 227.75 537.652344 225.542969 538.035156 C 223.339844 538.417969 221.121094 538.742188 218.898438 539.015625 C 216.671875 539.289062 214.445312 539.503906 212.207031 539.667969 C 209.972656 539.828125 207.738281 539.933594 205.496094 539.984375 C 203.253906 540.03125 201.015625 540.027344 198.777344 539.96875 C 196.535156 539.90625 194.296875 539.785156 192.0625 539.613281 C 189.832031 539.441406 187.601562 539.214844 185.382812 538.929688 C 183.15625 538.644531 180.945312 538.308594 178.738281 537.910156 C 176.53125 537.515625 174.335938 537.066406 172.152344 536.5625 C 169.96875 536.0625 167.800781 535.5 165.644531 534.890625 C 163.488281 534.277344 161.351562 533.613281 159.230469 532.898438 C 157.105469 532.175781 155.003906 531.40625 152.917969 530.585938 C 150.832031 529.761719 148.773438 528.890625 146.734375 527.960938 C 144.691406 527.039062 142.675781 526.0625 140.679688 525.035156 C 138.691406 524.011719 136.726562 522.933594 134.785156 521.8125 C 132.847656 520.6875 130.9375 519.515625 129.058594 518.296875 C 127.179688 517.078125 125.332031 515.8125 123.515625 514.503906 C 121.695312 513.191406 119.914062 511.835938 118.160156 510.4375 C 116.410156 509.035156 114.695312 507.59375 113.019531 506.109375 C 111.34375 504.621094 109.703125 503.097656 108.101562 501.53125 C 106.5 499.96875 104.9375 498.359375 103.417969 496.714844 C 101.894531 495.074219 100.414062 493.386719 98.976562 491.667969 C 97.539062 489.953125 96.140625 488.199219 94.789062 486.414062 C 93.4375 484.625 92.132812 482.804688 90.875 480.953125 C 89.617188 479.101562 88.398438 477.21875 87.234375 475.304688 C 86.066406 473.390625 84.949219 471.449219 83.878906 469.480469 C 82.808594 467.515625 81.789062 465.515625 80.820312 463.5 C 79.847656 461.480469 78.929688 459.4375 78.058594 457.371094 C 77.191406 455.308594 76.375 453.21875 75.609375 451.113281 C 74.839844 449.007812 74.128906 446.886719 73.46875 444.746094 C 72.808594 442.601562 72.203125 440.449219 71.652344 438.277344 C 71.101562 436.101562 70.601562 433.917969 70.160156 431.722656 C 69.714844 429.527344 69.328125 427.320312 68.996094 425.105469 C 68.660156 422.886719 68.386719 420.664062 68.164062 418.433594 C 67.941406 416.207031 67.773438 413.972656 67.660156 411.734375 C 67.550781 409.5 67.492188 407.257812 67.492188 405.015625 C 67.492188 402.773438 67.550781 400.539062 67.660156 398.300781 C 67.773438 396.058594 67.941406 393.828125 68.164062 391.597656 C 68.386719 389.371094 68.660156 387.144531 68.996094 384.929688 C 69.328125 382.714844 69.714844 380.507812 70.160156 378.3125 C 70.601562 376.117188 71.101562 373.933594 71.652344 371.761719 C 72.203125 369.589844 72.808594 367.429688 73.46875 365.289062 C 74.128906 363.148438 74.839844 361.023438 75.609375 358.917969 C 76.375 356.8125 77.191406 354.726562 78.058594 352.660156 C 78.929688 350.597656 79.847656 348.554688 80.820312 346.535156 C 81.789062 344.515625 82.808594 342.523438 83.878906 340.554688 C 84.949219 338.582031 86.066406 336.644531 87.234375 334.730469 C 88.398438 332.816406 89.617188 330.933594 90.875 329.082031 C 92.132812 327.230469 93.4375 325.40625 94.789062 323.621094 C 96.140625 321.832031 97.539062 320.082031 98.976562 318.363281 C 100.414062 316.644531 101.894531 314.964844 103.417969 313.320312 C 104.9375 311.671875 106.5 310.070312 108.101562 308.5 C 109.703125 306.933594 111.34375 305.410156 113.019531 303.921875 C 114.695312 302.441406 116.410156 300.996094 118.160156 299.597656 C 119.914062 298.195312 121.695312 296.839844 123.515625 295.53125 C 125.332031 294.222656 127.179688 292.957031 129.058594 291.738281 C 130.9375 290.515625 132.847656 289.347656 134.785156 288.222656 C 136.726562 287.097656 138.691406 286.023438 140.679688 284.996094 C 142.675781 283.96875 144.691406 283 146.734375 282.070312 C 148.773438 281.144531 150.832031 280.269531 152.917969 279.445312 C 155.003906 278.628906 157.105469 277.855469 159.230469 277.136719 C 161.351562 276.417969 163.488281 275.753906 165.644531 275.140625 C 167.800781 274.53125 169.96875 273.976562 172.152344 273.46875 C 174.335938 272.964844 176.53125 272.515625 178.738281 272.121094 C 180.945312 271.730469 183.15625 271.386719 185.382812 271.105469 C 187.601562 270.824219 189.832031 270.59375 192.0625 270.421875 C 194.296875 270.246094 196.535156 270.132812 198.777344 270.070312 C 201.015625 270.007812 203.253906 270 205.496094 270.050781 C 207.738281 270.097656 209.972656 270.207031 212.207031 270.367188 C 214.445312 270.527344 216.671875 270.746094 218.898438 271.019531 C 221.121094 271.289062 223.339844 271.613281 225.542969 272 C 227.75 272.382812 229.949219 272.816406 232.132812 273.3125 C 234.320312 273.800781 236.492188 274.351562 238.652344 274.949219 C 240.8125 275.550781 242.953125 276.203125 245.078125 276.910156 C 247.203125 277.617188 249.3125 278.375 251.402344 279.1875 C 253.492188 280 255.554688 280.863281 257.601562 281.777344 C 259.648438 282.691406 261.667969 283.65625 263.667969 284.671875 C 265.664062 285.6875 267.636719 286.75 269.578125 287.867188 C 271.523438 288.980469 273.441406 290.140625 275.328125 291.347656 C 277.214844 292.554688 279.066406 293.8125 280.894531 295.113281 C 282.71875 296.417969 284.507812 297.757812 286.265625 299.152344 C 288.019531 300.539062 289.742188 301.972656 291.425781 303.453125 C 293.113281 304.929688 294.761719 306.445312 296.371094 308 C 297.980469 309.5625 299.550781 311.15625 301.085938 312.792969 L 442.832031 235.507812 C 442.167969 232.878906 441.585938 230.234375 441.082031 227.574219 C 440.578125 224.914062 440.15625 222.238281 439.808594 219.550781 C 439.46875 216.863281 439.203125 214.167969 439.027344 211.464844 C 438.84375 208.761719 438.742188 206.054688 438.726562 203.347656 C 438.707031 200.636719 438.769531 197.929688 438.914062 195.222656 C 439.058594 192.523438 439.285156 189.824219 439.59375 187.128906 C 439.898438 184.4375 440.289062 181.757812 440.757812 179.089844 C 441.226562 176.421875 441.773438 173.769531 442.40625 171.136719 C 443.03125 168.5 443.738281 165.886719 444.527344 163.292969 C 445.308594 160.699219 446.175781 158.132812 447.113281 155.589844 C 448.050781 153.050781 449.070312 150.539062 450.160156 148.058594 C 451.25 145.578125 452.414062 143.136719 453.65625 140.726562 C 454.890625 138.316406 456.203125 135.949219 457.585938 133.617188 C 458.964844 131.289062 460.417969 129 461.9375 126.757812 C 463.453125 124.515625 465.039062 122.320312 466.691406 120.167969 C 468.339844 118.023438 470.058594 115.925781 471.832031 113.882812 C 473.609375 111.832031 475.445312 109.847656 477.34375 107.910156 C 479.238281 105.980469 481.191406 104.101562 483.203125 102.289062 C 485.214844 100.472656 487.277344 98.714844 489.390625 97.023438 C 491.507812 95.328125 493.671875 93.703125 495.886719 92.140625 C 498.101562 90.578125 500.359375 89.085938 502.660156 87.660156 C 504.964844 86.234375 507.308594 84.878906 509.695312 83.59375 C 512.078125 82.308594 514.503906 81.09375 516.960938 79.957031 C 519.417969 78.816406 521.910156 77.753906 524.429688 76.765625 C 526.953125 75.777344 529.503906 74.863281 532.078125 74.027344 C 534.65625 73.191406 537.257812 72.4375 539.875 71.753906 C 542.5 71.074219 545.140625 70.472656 547.800781 69.957031 C 550.460938 69.4375 553.128906 68.996094 555.816406 68.636719 C 558.503906 68.277344 561.195312 68 563.898438 67.800781 C 566.597656 67.601562 569.304688 67.488281 572.015625 67.453125 C 574.722656 67.421875 577.429688 67.46875 580.136719 67.59375 C 582.84375 67.726562 585.542969 67.9375 588.234375 68.226562 C 590.929688 68.519531 593.613281 68.886719 596.28125 69.339844 C 598.957031 69.792969 601.609375 70.328125 604.25 70.941406 C 606.886719 71.554688 609.507812 72.246094 612.101562 73.011719 C 614.703125 73.78125 617.273438 74.632812 619.820312 75.558594 C 622.363281 76.480469 624.882812 77.484375 627.367188 78.558594 C 629.855469 79.636719 632.304688 80.785156 634.71875 82.011719 C 637.136719 83.234375 639.515625 84.53125 641.855469 85.898438 C 644.195312 87.265625 646.492188 88.699219 648.738281 90.207031 C 650.992188 91.710938 653.199219 93.285156 655.355469 94.921875 C 657.515625 96.5625 659.621094 98.261719 661.675781 100.027344 C 663.730469 101.792969 665.730469 103.617188 667.679688 105.5 C 669.625 107.386719 671.511719 109.332031 673.339844 111.332031 C 675.164062 113.328125 676.933594 115.382812 678.636719 117.488281 C 680.34375 119.589844 681.984375 121.746094 683.558594 123.949219 C 685.136719 126.15625 686.644531 128.402344 688.082031 130.699219 C 689.523438 132.992188 690.890625 135.328125 692.1875 137.710938 C 693.488281 140.089844 694.714844 142.503906 695.867188 144.953125 C 697.019531 147.40625 698.101562 149.886719 699.105469 152.402344 C 700.109375 154.917969 701.039062 157.460938 701.886719 160.035156 C 702.738281 162.605469 703.511719 165.203125 704.207031 167.824219 C 704.902344 170.4375 705.515625 173.074219 706.050781 175.734375 C 706.589844 178.386719 707.042969 181.054688 707.417969 183.742188 C 707.792969 186.425781 708.089844 189.113281 708.304688 191.816406 C 708.515625 194.515625 708.648438 197.222656 708.699219 199.929688 C 708.75 202.640625 708.71875 205.347656 708.605469 208.054688 C 708.496094 210.761719 708.300781 213.464844 708.023438 216.15625 C 707.75 218.851562 707.394531 221.539062 706.957031 224.210938 C 706.519531 226.886719 706.003906 229.542969 705.40625 232.183594 C 704.808594 234.828125 704.132812 237.449219 703.378906 240.050781 C 702.625 242.652344 701.792969 245.230469 700.882812 247.78125 C 699.96875 250.335938 698.984375 252.855469 697.921875 255.351562 C 696.863281 257.84375 695.726562 260.296875 694.515625 262.722656 C 693.308594 265.148438 692.027344 267.53125 690.671875 269.878906 C 689.320312 272.230469 687.894531 274.53125 686.402344 276.792969 C 684.914062 279.054688 683.355469 281.269531 681.726562 283.433594 C 680.105469 285.601562 678.414062 287.71875 676.660156 289.785156 C 674.910156 291.851562 673.097656 293.863281 671.222656 295.820312 C 669.347656 297.777344 667.414062 299.675781 665.429688 301.511719 C 663.441406 303.355469 661.394531 305.132812 659.304688 306.851562 C 657.207031 308.570312 655.0625 310.222656 652.867188 311.808594 C 650.671875 313.398438 648.429688 314.917969 646.144531 316.375 C 643.863281 317.828125 641.53125 319.207031 639.160156 320.523438 C 636.792969 321.835938 634.386719 323.078125 631.941406 324.246094 C 629.496094 325.414062 627.019531 326.507812 624.511719 327.527344 C 621.996094 328.542969 619.460938 329.488281 616.894531 330.355469 C 614.328125 331.222656 611.734375 332.007812 609.125 332.722656 C 606.507812 333.429688 603.875 334.058594 601.222656 334.613281 C 598.566406 335.164062 595.902344 335.636719 593.21875 336.027344 C 590.542969 336.421875 587.851562 336.730469 585.152344 336.960938 C 582.449219 337.1875 579.75 337.335938 577.042969 337.402344 C 574.332031 337.472656 571.625 337.453125 568.917969 337.359375 C 566.210938 337.261719 563.507812 337.082031 560.808594 336.824219 C 558.113281 336.566406 555.429688 336.226562 552.75 335.808594 C 550.074219 335.382812 547.410156 334.882812 544.765625 334.304688 C 542.121094 333.722656 539.492188 333.0625 536.890625 332.320312 C 534.28125 331.582031 531.699219 330.765625 529.144531 329.871094 C 526.585938 328.976562 524.054688 328.003906 521.558594 326.957031 C 519.058594 325.910156 516.59375 324.789062 514.164062 323.59375 C 511.734375 322.402344 509.339844 321.132812 506.984375 319.792969 C 504.632812 318.453125 502.316406 317.042969 500.046875 315.566406 C 497.777344 314.085938 495.554688 312.542969 493.375 310.929688 C 491.199219 309.320312 489.070312 307.644531 486.996094 305.902344 C 484.921875 304.160156 482.898438 302.363281 480.929688 300.5 C 478.964844 298.636719 477.050781 296.71875 475.199219 294.738281 L 333.449219 372.023438 C 334.804688 377.417969 335.824219 382.871094 336.507812 388.390625 C 337.191406 393.90625 337.527344 399.441406 337.527344 405 C 337.527344 410.558594 337.191406 416.09375 336.507812 421.613281 C 335.824219 427.128906 334.804688 432.582031 333.449219 437.976562 L 475.164062 515.261719 C 477.019531 513.28125 478.925781 511.363281 480.894531 509.5 C 482.867188 507.636719 484.882812 505.839844 486.960938 504.097656 C 489.039062 502.355469 491.164062 500.679688 493.34375 499.070312 C 495.519531 497.457031 497.742188 495.914062 500.011719 494.433594 C 502.28125 492.957031 504.59375 491.546875 506.949219 490.207031 C 509.308594 488.867188 511.699219 487.597656 514.132812 486.40625 C 516.5625 485.210938 519.027344 484.089844 521.527344 483.042969 C 524.023438 481.996094 526.550781 481.023438 529.105469 480.128906 C 531.664062 479.234375 534.25 478.417969 536.855469 477.679688 C 539.460938 476.941406 542.089844 476.277344 544.734375 475.695312 C 547.378906 475.117188 550.039062 474.617188 552.71875 474.191406 C 555.390625 473.773438 558.078125 473.433594 560.777344 473.175781 C 563.476562 472.917969 566.171875 472.738281 568.882812 472.640625 C 571.589844 472.546875 574.296875 472.527344 577.003906 472.597656 C 579.714844 472.664062 582.417969 472.8125 585.117188 473.039062 C 587.820312 473.269531 590.507812 473.578125 593.1875 473.972656 C 595.871094 474.363281 598.535156 474.835938 601.1875 475.386719 C 603.839844 475.941406 606.472656 476.570312 609.089844 477.277344 C 611.703125 477.992188 614.292969 478.777344 616.859375 479.644531 C 619.425781 480.511719 621.964844 481.457031 624.476562 482.472656 C 626.988281 483.492188 629.464844 484.585938 631.90625 485.753906 C 634.351562 486.921875 636.757812 488.164062 639.128906 489.476562 C 641.496094 490.792969 643.824219 492.171875 646.113281 493.625 C 648.398438 495.082031 650.640625 496.601562 652.835938 498.191406 C 655.03125 499.777344 657.171875 501.429688 659.269531 503.148438 C 661.363281 504.867188 663.40625 506.644531 665.390625 508.488281 C 667.382812 510.324219 669.316406 512.222656 671.1875 514.179688 C 673.058594 516.136719 674.875 518.148438 676.628906 520.214844 C 678.378906 522.28125 680.066406 524.398438 681.695312 526.566406 C 683.316406 528.730469 684.878906 530.945312 686.371094 533.207031 C 687.863281 535.46875 689.285156 537.769531 690.640625 540.121094 C 691.992188 542.46875 693.273438 544.851562 694.484375 547.277344 C 695.695312 549.703125 696.828125 552.15625 697.890625 554.648438 C 698.953125 557.144531 699.9375 559.664062 700.847656 562.21875 C 701.757812 564.769531 702.589844 567.347656 703.34375 569.949219 C 704.097656 572.550781 704.773438 575.171875 705.371094 577.816406 C 705.96875 580.457031 706.484375 583.113281 706.921875 585.789062 C 707.359375 588.460938 707.714844 591.148438 707.992188 593.84375 C 708.265625 596.535156 708.457031 599.238281 708.574219 601.945312 C 708.683594 604.652344 708.71875 607.359375 708.664062 610.070312 C 708.613281 612.777344 708.480469 615.484375 708.269531 618.183594 C 708.058594 620.886719 707.761719 623.574219 707.386719 626.257812 C 707.011719 628.945312 706.554688 631.613281 706.019531 634.265625 C 705.484375 636.925781 704.867188 639.5625 704.171875 642.175781 C 703.476562 644.796875 702.707031 647.394531 701.851562 649.964844 C 701.003906 652.539062 700.078125 655.082031 699.074219 657.597656 C 698.066406 660.113281 696.988281 662.597656 695.835938 665.046875 C 694.679688 667.496094 693.453125 669.910156 692.15625 672.292969 C 690.855469 674.671875 689.484375 677.007812 688.046875 679.300781 C 686.605469 681.597656 685.097656 683.84375 683.523438 686.050781 C 681.949219 688.253906 680.308594 690.410156 678.605469 692.511719 C 676.898438 694.617188 675.132812 696.671875 673.300781 698.667969 C 671.476562 700.671875 669.589844 702.613281 667.640625 704.5 C 665.699219 706.382812 663.699219 708.207031 661.644531 709.972656 C 659.585938 711.738281 657.480469 713.4375 655.324219 715.078125 C 653.164062 716.71875 650.960938 718.289062 648.707031 719.792969 C 646.457031 721.300781 644.160156 722.738281 641.824219 724.101562 C 639.484375 725.46875 637.105469 726.765625 634.6875 727.988281 C 632.269531 729.214844 629.816406 730.363281 627.332031 731.441406 C 624.847656 732.515625 622.332031 733.519531 619.785156 734.441406 C 617.238281 735.367188 614.664062 736.21875 612.070312 736.988281 C 609.472656 737.757812 606.851562 738.445312 604.210938 739.058594 C 601.574219 739.671875 598.917969 740.207031 596.25 740.660156 C 593.578125 741.113281 590.898438 741.480469 588.203125 741.773438 C 585.507812 742.0625 582.808594 742.273438 580.101562 742.40625 C 577.394531 742.53125 574.6875 742.578125 571.976562 742.546875 C 569.273438 742.511719 566.566406 742.398438 563.863281 742.199219 C 561.164062 742 558.46875 741.722656 555.785156 741.363281 C 553.097656 741.003906 550.425781 740.5625 547.765625 740.042969 C 545.109375 739.527344 542.46875 738.925781 539.84375 738.246094 C 537.222656 737.5625 534.625 736.808594 532.042969 735.972656 C 529.46875 735.136719 526.917969 734.222656 524.398438 733.234375 C 521.871094 732.246094 519.382812 731.183594 516.925781 730.042969 C 514.46875 728.90625 512.046875 727.691406 509.660156 726.40625 C 507.277344 725.121094 504.929688 723.765625 502.628906 722.339844 C 500.324219 720.914062 498.066406 719.421875 495.851562 717.859375 C 493.640625 716.296875 491.476562 714.671875 489.359375 712.976562 C 487.246094 711.285156 485.179688 709.527344 483.171875 707.714844 C 481.160156 705.898438 479.207031 704.019531 477.3125 702.089844 C 475.414062 700.15625 473.574219 698.167969 471.800781 696.117188 C 470.019531 694.074219 468.304688 691.976562 466.65625 689.832031 C 465.007812 687.679688 463.417969 685.488281 461.898438 683.242188 C 460.382812 681 458.933594 678.710938 457.550781 676.382812 C 456.167969 674.050781 454.859375 671.683594 453.621094 669.273438 C 452.382812 666.863281 451.214844 664.421875 450.125 661.941406 C 449.03125 659.460938 448.019531 656.949219 447.082031 654.410156 C 446.136719 651.867188 445.277344 649.300781 444.488281 646.707031 C 443.707031 644.113281 442.996094 641.5 442.367188 638.863281 C 441.742188 636.230469 441.191406 633.578125 440.722656 630.910156 C 440.253906 628.242188 439.867188 625.5625 439.5625 622.871094 C 439.253906 620.175781 439.027344 617.476562 438.882812 614.777344 C 438.738281 612.070312 438.671875 609.363281 438.691406 606.652344 C 438.707031 603.945312 438.808594 601.238281 438.988281 598.535156 C 439.171875 595.832031 439.433594 593.136719 439.777344 590.449219 C 440.121094 587.761719 440.542969 585.085938 441.050781 582.425781 C 441.550781 579.765625 442.136719 577.121094 442.800781 574.492188 Z M 202.5 472.5 C 203.605469 472.5 204.707031 472.472656 205.8125 472.417969 C 206.917969 472.363281 208.015625 472.28125 209.117188 472.175781 C 210.214844 472.066406 211.3125 471.929688 212.402344 471.769531 C 213.496094 471.605469 214.582031 471.417969 215.667969 471.203125 C 216.75 470.988281 217.828125 470.746094 218.902344 470.476562 C 219.972656 470.210938 221.035156 469.914062 222.09375 469.59375 C 223.152344 469.273438 224.199219 468.929688 225.242188 468.554688 C 226.28125 468.183594 227.308594 467.78125 228.332031 467.363281 C 229.351562 466.9375 230.363281 466.492188 231.359375 466.019531 C 232.355469 465.546875 233.34375 465.050781 234.316406 464.527344 C 235.292969 464.007812 236.253906 463.464844 237.203125 462.898438 C 238.148438 462.328125 239.085938 461.738281 240 461.125 C 240.917969 460.511719 241.824219 459.871094 242.710938 459.21875 C 243.597656 458.558594 244.46875 457.878906 245.320312 457.179688 C 246.175781 456.476562 247.011719 455.757812 247.832031 455.015625 C 248.648438 454.273438 249.449219 453.511719 250.230469 452.730469 C 251.011719 451.949219 251.773438 451.148438 252.515625 450.332031 C 253.257812 449.511719 253.976562 448.675781 254.679688 447.820312 C 255.378906 446.96875 256.058594 446.097656 256.71875 445.210938 C 257.371094 444.324219 258.011719 443.417969 258.625 442.5 C 259.238281 441.585938 259.828125 440.648438 260.398438 439.703125 C 260.964844 438.753906 261.507812 437.792969 262.027344 436.816406 C 262.550781 435.84375 263.046875 434.855469 263.519531 433.859375 C 263.992188 432.863281 264.4375 431.851562 264.863281 430.832031 C 265.28125 429.808594 265.683594 428.78125 266.054688 427.742188 C 266.429688 426.699219 266.773438 425.652344 267.09375 424.59375 C 267.414062 423.535156 267.710938 422.472656 267.976562 421.402344 C 268.246094 420.328125 268.488281 419.25 268.703125 418.167969 C 268.917969 417.082031 269.105469 415.996094 269.269531 414.902344 C 269.429688 413.8125 269.566406 412.714844 269.675781 411.617188 C 269.78125 410.515625 269.863281 409.417969 269.917969 408.3125 C 269.972656 407.207031 270 406.105469 270 405 C 270 403.894531 269.972656 402.792969 269.917969 401.6875 C 269.863281 400.582031 269.78125 399.484375 269.675781 398.382812 C 269.566406 397.285156 269.429688 396.1875 269.269531 395.097656 C 269.105469 394.003906 268.917969 392.917969 268.703125 391.832031 C 268.488281 390.75 268.246094 389.671875 267.976562 388.597656 C 267.710938 387.527344 267.414062 386.464844 267.09375 385.40625 C 266.773438 384.347656 266.429688 383.300781 266.054688 382.257812 C 265.683594 381.21875 265.28125 380.191406 264.863281 379.167969 C 264.4375 378.148438 263.992188 377.136719 263.519531 376.140625 C 263.046875 375.144531 262.550781 374.15625 262.027344 373.183594 C 261.507812 372.207031 260.964844 371.246094 260.398438 370.296875 C 259.828125 369.351562 259.238281 368.414062 258.625 367.5 C 258.011719 366.582031 257.371094 365.675781 256.71875 364.789062 C 256.058594 363.902344 255.378906 363.03125 254.679688 362.179688 C 253.976562 361.324219 253.257812 360.488281 252.515625 359.667969 C 251.773438 358.851562 251.011719 358.050781 250.230469 357.269531 C 249.449219 356.488281 248.648438 355.726562 247.832031 354.984375 C 247.011719 354.242188 246.175781 353.523438 245.320312 352.820312 C 244.46875 352.121094 243.597656 351.441406 242.710938 350.78125 C 241.824219 350.128906 240.917969 349.488281 240 348.875 C 239.085938 348.261719 238.148438 347.671875 237.203125 347.101562 C 236.253906 346.535156 235.292969 345.992188 234.316406 345.472656 C 233.34375 344.949219 232.355469 344.453125 231.359375 343.980469 C 230.363281 343.507812 229.351562 343.0625 228.332031 342.636719 C 227.308594 342.21875 226.28125 341.816406 225.242188 341.445312 C 224.199219 341.070312 223.152344 340.726562 222.09375 340.410156 C 221.035156 340.085938 219.972656 339.789062 218.902344 339.523438 C 217.828125 339.253906 216.75 339.011719 215.667969 338.796875 C 214.582031 338.578125 213.496094 338.394531 212.402344 338.230469 C 211.3125 338.070312 210.214844 337.933594 209.117188 337.824219 C 208.015625 337.71875 206.917969 337.636719 205.8125 337.582031 C 204.707031 337.527344 203.605469 337.5 202.5 337.5 C 201.394531 337.5 200.292969 337.527344 199.1875 337.582031 C 198.082031 337.636719 196.984375 337.71875 195.882812 337.824219 C 194.785156 337.933594 193.6875 338.070312 192.597656 338.230469 C 191.503906 338.394531 190.417969 338.578125 189.332031 338.796875 C 188.25 339.011719 187.171875 339.253906 186.097656 339.523438 C 185.027344 339.789062 183.964844 340.085938 182.90625 340.410156 C 181.847656 340.726562 180.800781 341.070312 179.757812 341.445312 C 178.71875 341.816406 177.691406 342.21875 176.667969 342.636719 C 175.648438 343.0625 174.636719 343.507812 173.640625 343.980469 C 172.644531 344.453125 171.65625 344.949219 170.683594 345.472656 C 169.707031 345.992188 168.746094 346.535156 167.796875 347.101562 C 166.851562 347.671875 165.914062 348.261719 165 348.875 C 164.082031 349.488281 163.175781 350.128906 162.289062 350.78125 C 161.402344 351.441406 160.53125 352.121094 159.679688 352.820312 C 158.824219 353.523438 157.988281 354.242188 157.167969 354.984375 C 156.351562 355.726562 155.550781 356.488281 154.769531 357.269531 C 153.988281 358.050781 153.226562 358.851562 152.484375 359.667969 C 151.742188 360.488281 151.023438 361.324219 150.320312 362.179688 C 149.621094 363.03125 148.941406 363.902344 148.28125 364.789062 C 147.628906 365.675781 146.988281 366.582031 146.375 367.5 C 145.761719 368.414062 145.171875 369.351562 144.601562 370.296875 C 144.035156 371.246094 143.492188 372.207031 142.972656 373.183594 C 142.449219 374.15625 141.953125 375.144531 141.480469 376.140625 C 141.007812 377.136719 140.5625 378.148438 140.136719 379.167969 C 139.71875 380.191406 139.316406 381.21875 138.945312 382.257812 C 138.570312 383.300781 138.226562 384.347656 137.90625 385.40625 C 137.585938 386.464844 137.289062 387.527344 137.023438 388.597656 C 136.753906 389.671875 136.511719 390.75 136.296875 391.832031 C 136.082031 392.917969 135.894531 394.003906 135.730469 395.097656 C 135.570312 396.1875 135.433594 397.285156 135.324219 398.382812 C 135.21875 399.484375 135.136719 400.582031 135.082031 401.6875 C 135.027344 402.792969 135 403.894531 135 405 C 135 406.105469 135.027344 407.207031 135.082031 408.3125 C 135.136719 409.417969 135.21875 410.515625 135.324219 411.617188 C 135.433594 412.714844 135.570312 413.8125 135.730469 414.902344 C 135.894531 415.996094 136.082031 417.082031 136.296875 418.167969 C 136.511719 419.25 136.753906 420.328125 137.023438 421.402344 C 137.289062 422.472656 137.585938 423.535156 137.90625 424.59375 C 138.226562 425.652344 138.570312 426.699219 138.945312 427.742188 C 139.316406 428.78125 139.71875 429.808594 140.136719 430.832031 C 140.5625 431.851562 141.007812 432.863281 141.480469 433.859375 C 141.953125 434.855469 142.449219 435.84375 142.972656 436.816406 C 143.492188 437.792969 144.035156 438.753906 144.601562 439.703125 C 145.171875 440.648438 145.761719 441.585938 146.375 442.5 C 146.988281 443.417969 147.628906 444.324219 148.28125 445.210938 C 148.941406 446.097656 149.621094 446.96875 150.320312 447.820312 C 151.023438 448.675781 151.742188 449.511719 152.484375 450.332031 C 153.226562 451.148438 153.988281 451.949219 154.769531 452.730469 C 155.550781 453.511719 156.351562 454.273438 157.167969 455.015625 C 157.988281 455.757812 158.824219 456.476562 159.679688 457.179688 C 160.53125 457.878906 161.402344 458.558594 162.289062 459.21875 C 163.175781 459.871094 164.082031 460.511719 165 461.125 C 165.914062 461.738281 166.851562 462.328125 167.796875 462.898438 C 168.746094 463.464844 169.707031 464.007812 170.683594 464.527344 C 171.65625 465.050781 172.644531 465.546875 173.640625 466.019531 C 174.636719 466.492188 175.648438 466.9375 176.667969 467.363281 C 177.691406 467.78125 178.71875 468.183594 179.757812 468.554688 C 180.800781 468.929688 181.847656 469.273438 182.90625 469.59375 C 183.964844 469.914062 185.027344 470.210938 186.097656 470.476562 C 187.171875 470.746094 188.25 470.988281 189.332031 471.203125 C 190.417969 471.417969 191.503906 471.605469 192.597656 471.769531 C 193.6875 471.929688 194.785156 472.066406 195.882812 472.175781 C 196.984375 472.28125 198.082031 472.363281 199.1875 472.417969 C 200.292969 472.472656 201.394531 472.5 202.5 472.5 Z M 573.75 270 C 574.855469 270 575.957031 269.972656 577.0625 269.917969 C 578.167969 269.863281 579.265625 269.78125 580.367188 269.675781 C 581.464844 269.566406 582.5625 269.429688 583.652344 269.269531 C 584.746094 269.105469 585.832031 268.917969 586.917969 268.703125 C 588 268.488281 589.078125 268.246094 590.152344 267.976562 C 591.222656 267.710938 592.285156 267.414062 593.34375 267.09375 C 594.402344 266.773438 595.449219 266.429688 596.492188 266.054688 C 597.53125 265.683594 598.558594 265.28125 599.582031 264.863281 C 600.601562 264.4375 601.613281 263.992188 602.609375 263.519531 C 603.605469 263.046875 604.59375 262.550781 605.566406 262.027344 C 606.542969 261.507812 607.503906 260.964844 608.453125 260.398438 C 609.398438 259.828125 610.335938 259.238281 611.25 258.625 C 612.167969 258.011719 613.074219 257.371094 613.960938 256.71875 C 614.847656 256.058594 615.71875 255.378906 616.570312 254.679688 C 617.425781 253.976562 618.261719 253.257812 619.082031 252.515625 C 619.898438 251.773438 620.699219 251.011719 621.480469 250.230469 C 622.261719 249.449219 623.023438 248.648438 623.765625 247.832031 C 624.507812 247.011719 625.226562 246.175781 625.929688 245.320312 C 626.628906 244.46875 627.308594 243.597656 627.96875 242.710938 C 628.621094 241.824219 629.261719 240.917969 629.875 240 C 630.488281 239.085938 631.078125 238.148438 631.648438 237.203125 C 632.214844 236.253906 632.757812 235.292969 633.277344 234.316406 C 633.800781 233.34375 634.296875 232.355469 634.769531 231.359375 C 635.242188 230.363281 635.6875 229.351562 636.113281 228.332031 C 636.53125 227.308594 636.933594 226.28125 637.304688 225.242188 C 637.679688 224.199219 638.023438 223.152344 638.34375 222.09375 C 638.664062 221.035156 638.960938 219.972656 639.226562 218.902344 C 639.496094 217.828125 639.738281 216.75 639.953125 215.667969 C 640.167969 214.582031 640.355469 213.496094 640.519531 212.402344 C 640.679688 211.3125 640.816406 210.214844 640.925781 209.117188 C 641.03125 208.015625 641.113281 206.917969 641.167969 205.8125 C 641.222656 204.707031 641.25 203.605469 641.25 202.5 C 641.25 201.394531 641.222656 200.292969 641.167969 199.1875 C 641.113281 198.082031 641.03125 196.984375 640.925781 195.882812 C 640.816406 194.785156 640.679688 193.6875 640.519531 192.597656 C 640.355469 191.503906 640.167969 190.417969 639.953125 189.332031 C 639.738281 188.25 639.496094 187.171875 639.226562 186.097656 C 638.960938 185.027344 638.664062 183.964844 638.34375 182.90625 C 638.023438 181.847656 637.679688 180.800781 637.304688 179.757812 C 636.933594 178.71875 636.53125 177.691406 636.113281 176.667969 C 635.6875 175.648438 635.242188 174.636719 634.769531 173.640625 C 634.296875 172.644531 633.800781 171.65625 633.277344 170.683594 C 632.757812 169.707031 632.214844 168.746094 631.648438 167.796875 C 631.078125 166.851562 630.488281 165.914062 629.875 165 C 629.261719 164.082031 628.621094 163.175781 627.96875 162.289062 C 627.308594 161.402344 626.628906 160.53125 625.929688 159.679688 C 625.226562 158.824219 624.507812 157.988281 623.765625 157.167969 C 623.023438 156.351562 622.261719 155.550781 621.480469 154.769531 C 620.699219 153.988281 619.898438 153.226562 619.082031 152.484375 C 618.261719 151.742188 617.425781 151.023438 616.570312 150.320312 C 615.71875 149.621094 614.847656 148.941406 613.960938 148.28125 C 613.074219 147.628906 612.167969 146.988281 611.25 146.375 C 610.335938 145.761719 609.398438 145.171875 608.453125 144.601562 C 607.503906 144.035156 606.542969 143.492188 605.566406 142.972656 C 604.59375 142.449219 603.605469 141.953125 602.609375 141.480469 C 601.613281 141.007812 600.601562 140.5625 599.582031 140.136719 C 598.558594 139.71875 597.53125 139.316406 596.492188 138.945312 C 595.449219 138.570312 594.402344 138.226562 593.34375 137.90625 C 592.285156 137.585938 591.222656 137.289062 590.152344 137.023438 C 589.078125 136.753906 588 136.511719 586.917969 136.296875 C 585.832031 136.082031 584.746094 135.894531 583.652344 135.730469 C 582.5625 135.570312 581.464844 135.433594 580.367188 135.324219 C 579.265625 135.21875 578.167969 135.136719 577.0625 135.082031 C 575.957031 135.027344 574.855469 135 573.75 135 C 572.644531 135 571.542969 135.027344 570.4375 135.082031 C 569.332031 135.136719 568.234375 135.21875 567.132812 135.324219 C 566.035156 135.433594 564.9375 135.570312 563.847656 135.730469 C 562.753906 135.894531 561.667969 136.082031 560.582031 136.296875 C 559.5 136.511719 558.421875 136.753906 557.347656 137.023438 C 556.277344 137.289062 555.214844 137.585938 554.15625 137.90625 C 553.097656 138.226562 552.050781 138.570312 551.007812 138.945312 C 549.96875 139.316406 548.941406 139.71875 547.917969 140.136719 C 546.898438 140.5625 545.886719 141.007812 544.890625 141.480469 C 543.894531 141.953125 542.90625 142.449219 541.933594 142.972656 C 540.957031 143.492188 539.996094 144.035156 539.046875 144.601562 C 538.101562 145.171875 537.164062 145.761719 536.25 146.375 C 535.332031 146.988281 534.425781 147.628906 533.539062 148.28125 C 532.652344 148.941406 531.78125 149.621094 530.929688 150.320312 C 530.074219 151.023438 529.238281 151.742188 528.417969 152.484375 C 527.597656 153.226562 526.800781 153.988281 526.019531 154.769531 C 525.238281 155.550781 524.476562 156.351562 523.734375 157.167969 C 522.992188 157.988281 522.273438 158.824219 521.570312 159.679688 C 520.871094 160.53125 520.191406 161.402344 519.53125 162.289062 C 518.878906 163.175781 518.238281 164.082031 517.625 165 C 517.011719 165.914062 516.421875 166.851562 515.851562 167.796875 C 515.285156 168.746094 514.742188 169.707031 514.222656 170.683594 C 513.699219 171.65625 513.203125 172.644531 512.730469 173.640625 C 512.257812 174.636719 511.8125 175.648438 511.386719 176.667969 C 510.96875 177.691406 510.566406 178.71875 510.195312 179.757812 C 509.820312 180.800781 509.476562 181.847656 509.15625 182.90625 C 508.835938 183.964844 508.539062 185.027344 508.273438 186.097656 C 508.003906 187.171875 507.761719 188.25 507.546875 189.332031 C 507.328125 190.417969 507.144531 191.503906 506.980469 192.597656 C 506.820312 193.6875 506.683594 194.785156 506.574219 195.882812 C 506.46875 196.984375 506.386719 198.082031 506.332031 199.1875 C 506.277344 200.292969 506.25 201.394531 506.25 202.5 C 506.25 203.605469 506.277344 204.707031 506.332031 205.8125 C 506.386719 206.917969 506.46875 208.015625 506.574219 209.117188 C 506.683594 210.214844 506.820312 211.3125 506.980469 212.402344 C 507.144531 213.496094 507.328125 214.582031 507.546875 215.667969 C 507.761719 216.75 508.003906 217.828125 508.273438 218.902344 C 508.539062 219.972656 508.835938 221.035156 509.15625 222.09375 C 509.476562 223.152344 509.820312 224.199219 510.195312 225.242188 C 510.566406 226.28125 510.96875 227.308594 511.386719 228.332031 C 511.8125 229.351562 512.257812 230.363281 512.730469 231.359375 C 513.203125 232.355469 513.699219 233.34375 514.222656 234.316406 C 514.742188 235.292969 515.285156 236.253906 515.851562 237.203125 C 516.421875 238.148438 517.011719 239.085938 517.625 240 C 518.238281 240.917969 518.878906 241.824219 519.53125 242.710938 C 520.191406 243.597656 520.871094 244.46875 521.570312 245.320312 C 522.273438 246.175781 522.992188 247.011719 523.734375 247.832031 C 524.476562 248.648438 525.238281 249.449219 526.019531 250.230469 C 526.800781 251.011719 527.597656 251.773438 528.417969 252.515625 C 529.238281 253.257812 530.074219 253.976562 530.929688 254.679688 C 531.78125 255.378906 532.652344 256.058594 533.539062 256.71875 C 534.425781 257.371094 535.332031 258.011719 536.25 258.625 C 537.164062 259.238281 538.101562 259.828125 539.046875 260.398438 C 539.996094 260.964844 540.957031 261.507812 541.933594 262.027344 C 542.90625 262.550781 543.894531 263.046875 544.890625 263.519531 C 545.886719 263.992188 546.898438 264.4375 547.917969 264.863281 C 548.941406 265.28125 549.96875 265.683594 551.007812 266.054688 C 552.050781 266.429688 553.097656 266.773438 554.15625 267.09375 C 555.214844 267.414062 556.277344 267.710938 557.347656 267.976562 C 558.421875 268.246094 559.5 268.488281 560.582031 268.703125 C 561.667969 268.917969 562.753906 269.105469 563.847656 269.269531 C 564.9375 269.429688 566.035156 269.566406 567.132812 269.675781 C 568.234375 269.78125 569.332031 269.863281 570.4375 269.917969 C 571.542969 269.972656 572.644531 270 573.75 270 Z M 573.75 675 C 574.855469 675 575.957031 674.972656 577.0625 674.917969 C 578.167969 674.863281 579.265625 674.78125 580.367188 674.675781 C 581.464844 674.566406 582.5625 674.429688 583.652344 674.269531 C 584.746094 674.105469 585.832031 673.917969 586.917969 673.703125 C 588 673.488281 589.078125 673.246094 590.152344 672.976562 C 591.222656 672.710938 592.285156 672.414062 593.34375 672.09375 C 594.402344 671.773438 595.449219 671.429688 596.492188 671.054688 C 597.53125 670.683594 598.558594 670.28125 599.582031 669.863281 C 600.601562 669.4375 601.613281 668.992188 602.609375 668.519531 C 603.605469 668.046875 604.59375 667.550781 605.566406 667.027344 C 606.542969 666.507812 607.503906 665.964844 608.453125 665.398438 C 609.398438 664.828125 610.335938 664.238281 611.25 663.625 C 612.167969 663.011719 613.074219 662.371094 613.960938 661.71875 C 614.847656 661.058594 615.71875 660.378906 616.570312 659.679688 C 617.425781 658.976562 618.261719 658.257812 619.082031 657.515625 C 619.898438 656.773438 620.699219 656.011719 621.480469 655.230469 C 622.261719 654.449219 623.023438 653.648438 623.765625 652.832031 C 624.507812 652.011719 625.226562 651.175781 625.929688 650.320312 C 626.628906 649.46875 627.308594 648.597656 627.96875 647.710938 C 628.621094 646.824219 629.261719 645.917969 629.875 645 C 630.488281 644.085938 631.078125 643.148438 631.648438 642.203125 C 632.214844 641.253906 632.757812 640.292969 633.277344 639.316406 C 633.800781 638.34375 634.296875 637.355469 634.769531 636.359375 C 635.242188 635.363281 635.6875 634.351562 636.113281 633.332031 C 636.53125 632.308594 636.933594 631.28125 637.304688 630.242188 C 637.679688 629.199219 638.023438 628.152344 638.34375 627.09375 C 638.664062 626.035156 638.960938 624.972656 639.226562 623.902344 C 639.496094 622.828125 639.738281 621.75 639.953125 620.667969 C 640.167969 619.582031 640.355469 618.496094 640.519531 617.402344 C 640.679688 616.3125 640.816406 615.214844 640.925781 614.117188 C 641.03125 613.015625 641.113281 611.917969 641.167969 610.8125 C 641.222656 609.707031 641.25 608.605469 641.25 607.5 C 641.25 606.394531 641.222656 605.292969 641.167969 604.1875 C 641.113281 603.082031 641.03125 601.984375 640.925781 600.882812 C 640.816406 599.785156 640.679688 598.6875 640.519531 597.597656 C 640.355469 596.503906 640.167969 595.417969 639.953125 594.332031 C 639.738281 593.25 639.496094 592.171875 639.226562 591.097656 C 638.960938 590.027344 638.664062 588.964844 638.34375 587.90625 C 638.023438 586.847656 637.679688 585.800781 637.304688 584.757812 C 636.933594 583.71875 636.53125 582.691406 636.113281 581.667969 C 635.6875 580.648438 635.242188 579.636719 634.769531 578.640625 C 634.296875 577.644531 633.800781 576.65625 633.277344 575.683594 C 632.757812 574.707031 632.214844 573.746094 631.648438 572.796875 C 631.078125 571.851562 630.488281 570.914062 629.875 570 C 629.261719 569.082031 628.621094 568.175781 627.96875 567.289062 C 627.308594 566.402344 626.628906 565.53125 625.929688 564.679688 C 625.226562 563.824219 624.507812 562.988281 623.765625 562.167969 C 623.023438 561.347656 622.261719 560.550781 621.480469 559.769531 C 620.699219 558.988281 619.898438 558.226562 619.082031 557.484375 C 618.261719 556.742188 617.425781 556.023438 616.570312 555.320312 C 615.71875 554.621094 614.847656 553.941406 613.960938 553.28125 C 613.074219 552.628906 612.167969 551.988281 611.25 551.375 C 610.335938 550.761719 609.398438 550.171875 608.453125 549.601562 C 607.503906 549.035156 606.542969 548.492188 605.566406 547.972656 C 604.59375 547.449219 603.605469 546.953125 602.609375 546.480469 C 601.613281 546.007812 600.601562 545.5625 599.582031 545.136719 C 598.558594 544.71875 597.53125 544.316406 596.492188 543.945312 C 595.449219 543.570312 594.402344 543.226562 593.34375 542.910156 C 592.285156 542.585938 591.222656 542.289062 590.152344 542.023438 C 589.078125 541.753906 588 541.511719 586.917969 541.296875 C 585.832031 541.082031 584.746094 540.894531 583.652344 540.730469 C 582.5625 540.570312 581.464844 540.433594 580.367188 540.324219 C 579.265625 540.21875 578.167969 540.136719 577.0625 540.082031 C 575.957031 540.027344 574.855469 540 573.75 540 C 572.644531 540 571.542969 540.027344 570.4375 540.082031 C 569.332031 540.136719 568.234375 540.21875 567.132812 540.324219 C 566.035156 540.433594 564.9375 540.570312 563.847656 540.730469 C 562.753906 540.894531 561.667969 541.082031 560.582031 541.296875 C 559.5 541.511719 558.421875 541.753906 557.347656 542.023438 C 556.277344 542.289062 555.214844 542.585938 554.15625 542.910156 C 553.097656 543.226562 552.050781 543.570312 551.007812 543.945312 C 549.96875 544.316406 548.941406 544.71875 547.917969 545.136719 C 546.898438 545.5625 545.886719 546.007812 544.890625 546.480469 C 543.894531 546.953125 542.90625 547.449219 541.933594 547.972656 C 540.957031 548.492188 539.996094 549.035156 539.046875 549.601562 C 538.101562 550.171875 537.164062 550.761719 536.25 551.375 C 535.332031 551.988281 534.425781 552.628906 533.539062 553.28125 C 532.652344 553.941406 531.78125 554.621094 530.929688 555.320312 C 530.074219 556.023438 529.238281 556.742188 528.417969 557.484375 C 527.597656 558.226562 526.800781 558.988281 526.019531 559.769531 C 525.238281 560.550781 524.476562 561.347656 523.734375 562.167969 C 522.992188 562.988281 522.273438 563.824219 521.570312 564.679688 C 520.871094 565.53125 520.191406 566.402344 519.53125 567.289062 C 518.878906 568.175781 518.238281 569.082031 517.625 570 C 517.011719 570.914062 516.421875 571.851562 515.851562 572.796875 C 515.285156 573.746094 514.742188 574.707031 514.222656 575.683594 C 513.699219 576.65625 513.203125 577.644531 512.730469 578.640625 C 512.257812 579.636719 511.8125 580.648438 511.386719 581.667969 C 510.96875 582.691406 510.566406 583.71875 510.195312 584.757812 C 509.820312 585.800781 509.476562 586.847656 509.15625 587.90625 C 508.835938 588.964844 508.539062 590.027344 508.273438 591.097656 C 508.003906 592.171875 507.761719 593.25 507.546875 594.332031 C 507.328125 595.417969 507.144531 596.503906 506.980469 597.597656 C 506.820312 598.6875 506.683594 599.785156 506.574219 600.882812 C 506.46875 601.984375 506.386719 603.082031 506.332031 604.1875 C 506.277344 605.292969 506.25 606.394531 506.25 607.5 C 506.25 608.605469 506.277344 609.707031 506.332031 610.8125 C 506.386719 611.917969 506.46875 613.015625 506.574219 614.117188 C 506.683594 615.214844 506.820312 616.3125 506.980469 617.402344 C 507.144531 618.496094 507.328125 619.582031 507.546875 620.667969 C 507.761719 621.75 508.003906 622.828125 508.273438 623.902344 C 508.539062 624.972656 508.835938 626.035156 509.15625 627.09375 C 509.476562 628.152344 509.820312 629.199219 510.195312 630.242188 C 510.566406 631.28125 510.96875 632.308594 511.386719 633.332031 C 511.8125 634.351562 512.257812 635.363281 512.730469 636.359375 C 513.203125 637.355469 513.699219 638.34375 514.222656 639.316406 C 514.742188 640.292969 515.285156 641.253906 515.851562 642.203125 C 516.421875 643.148438 517.011719 644.085938 517.625 645 C 518.238281 645.917969 518.878906 646.824219 519.53125 647.710938 C 520.191406 648.597656 520.871094 649.46875 521.570312 650.320312 C 522.273438 651.175781 522.992188 652.011719 523.734375 652.832031 C 524.476562 653.652344 525.238281 654.449219 526.019531 655.230469 C 526.800781 656.011719 527.597656 656.773438 528.417969 657.515625 C 529.238281 658.257812 530.074219 658.976562 530.929688 659.679688 C 531.78125 660.378906 532.652344 661.058594 533.539062 661.71875 C 534.425781 662.371094 535.332031 663.011719 536.25 663.625 C 537.164062 664.238281 538.101562 664.828125 539.046875 665.398438 C 539.996094 665.964844 540.957031 666.507812 541.933594 667.027344 C 542.90625 667.550781 543.894531 668.046875 544.890625 668.519531 C 545.886719 668.992188 546.898438 669.4375 547.917969 669.863281 C 548.941406 670.28125 549.96875 670.683594 551.007812 671.054688 C 552.050781 671.429688 553.097656 671.773438 554.15625 672.09375 C 555.214844 672.414062 556.277344 672.710938 557.347656 672.976562 C 558.421875 673.246094 559.5 673.488281 560.582031 673.703125 C 561.667969 673.917969 562.753906 674.105469 563.847656 674.269531 C 564.9375 674.429688 566.035156 674.566406 567.132812 674.675781 C 568.234375 674.78125 569.332031 674.863281 570.4375 674.917969 C 571.542969 674.972656 572.644531 675 573.75 675 Z M 573.75 675 " fill-opacity="1" fill-rule="nonzero"/></svg>