<svg xmlns="http://www.w3.org/2000/svg" xmlns:xlink="http://www.w3.org/1999/xlink" width="1080" zoomAndPan="magnify" viewBox="0 0 810 809.999993" height="1080" preserveAspectRatio="xMidYMid meet" version="1.0"><path fill="#fa55a3" d="M 67.5 607.5 L 405 607.5 L 405 675 L 67.5 675 Z M 67.5 371.25 L 540 371.25 L 540 438.75 L 67.5 438.75 Z M 67.5 135 L 742.5 135 L 742.5 202.5 L 67.5 202.5 Z M 641.25 511.988281 L 641.25 303.75 L 810 303.75 L 810 371.25 L 708.75 371.25 L 708.75 607.5 C 708.75 609.277344 708.699219 611.050781 708.605469 612.828125 C 708.511719 614.597656 708.371094 616.371094 708.1875 618.136719 C 707.996094 619.902344 707.761719 621.664062 707.480469 623.414062 C 707.199219 625.171875 706.875 626.917969 706.503906 628.65625 C 706.132812 630.390625 705.714844 632.117188 705.253906 633.832031 C 704.789062 635.546875 704.28125 637.25 703.726562 638.9375 C 703.175781 640.625 702.578125 642.296875 701.941406 643.953125 C 701.296875 645.613281 700.613281 647.25 699.886719 648.871094 C 699.164062 650.492188 698.394531 652.09375 697.582031 653.671875 C 696.769531 655.253906 695.917969 656.8125 695.027344 658.347656 C 694.132812 659.882812 693.203125 661.390625 692.226562 662.878906 C 691.253906 664.367188 690.242188 665.824219 689.191406 667.257812 C 688.148438 668.691406 687.058594 670.097656 685.933594 671.472656 C 684.8125 672.847656 683.652344 674.195312 682.457031 675.511719 C 681.265625 676.824219 680.039062 678.109375 678.773438 679.359375 C 677.511719 680.609375 676.21875 681.828125 674.894531 683.007812 C 673.566406 684.191406 672.210938 685.335938 670.828125 686.449219 C 669.4375 687.5625 668.023438 688.632812 666.582031 689.671875 C 665.140625 690.710938 663.671875 691.707031 662.175781 692.664062 C 660.683594 693.621094 659.164062 694.542969 657.617188 695.421875 C 656.074219 696.300781 654.507812 697.140625 652.921875 697.933594 C 651.335938 698.734375 649.730469 699.488281 648.101562 700.203125 C 646.472656 700.914062 644.824219 701.582031 643.164062 702.207031 C 641.5 702.832031 639.824219 703.414062 638.132812 703.949219 C 636.4375 704.488281 634.730469 704.980469 633.015625 705.429688 C 631.292969 705.878906 629.566406 706.277344 627.824219 706.636719 C 626.085938 706.992188 624.332031 707.304688 622.578125 707.566406 C 620.824219 707.832031 619.058594 708.050781 617.292969 708.222656 C 615.527344 708.394531 613.753906 708.519531 611.976562 708.597656 C 610.203125 708.675781 608.425781 708.707031 606.652344 708.691406 C 604.875 708.679688 603.101562 708.617188 601.328125 708.507812 C 599.554688 708.398438 597.785156 708.246094 596.023438 708.046875 C 594.253906 707.84375 592.496094 707.597656 590.746094 707.300781 C 588.992188 707.007812 587.25 706.664062 585.515625 706.28125 C 583.78125 705.894531 582.058594 705.464844 580.347656 704.988281 C 578.636719 704.511719 576.9375 703.992188 575.253906 703.425781 C 573.574219 702.859375 571.902344 702.25 570.253906 701.597656 C 568.601562 700.941406 566.964844 700.246094 565.347656 699.503906 C 563.734375 698.765625 562.140625 697.984375 560.566406 697.160156 C 558.992188 696.339844 557.445312 695.476562 555.914062 694.570312 C 554.386719 693.664062 552.882812 692.71875 551.402344 691.734375 C 549.925781 690.75 548.46875 689.730469 547.046875 688.667969 C 545.621094 687.605469 544.226562 686.511719 542.859375 685.378906 C 541.492188 684.242188 540.152344 683.070312 538.851562 681.867188 C 537.542969 680.664062 536.273438 679.425781 535.027344 678.15625 C 533.789062 676.882812 532.585938 675.582031 531.410156 674.246094 C 530.238281 672.910156 529.101562 671.542969 528.003906 670.152344 C 526.902344 668.753906 525.839844 667.332031 524.8125 665.882812 C 523.789062 664.433594 522.804688 662.953125 521.855469 661.453125 C 520.910156 659.949219 520.003906 658.421875 519.132812 656.871094 C 518.269531 655.324219 517.441406 653.75 516.65625 652.15625 C 515.871094 650.5625 515.128906 648.949219 514.433594 647.3125 C 513.730469 645.683594 513.078125 644.035156 512.460938 642.367188 C 511.847656 640.699219 511.28125 639.015625 510.757812 637.320312 C 510.234375 635.621094 509.75 633.914062 509.320312 632.191406 C 508.886719 630.46875 508.496094 628.734375 508.152344 626.992188 C 507.8125 625.25 507.515625 623.496094 507.261719 621.738281 C 507.011719 619.980469 506.808594 618.214844 506.648438 616.445312 C 506.492188 614.675781 506.382812 612.90625 506.316406 611.128906 C 506.253906 609.355469 506.234375 607.578125 506.261719 605.800781 C 506.292969 604.027344 506.371094 602.25 506.488281 600.480469 C 506.613281 598.707031 506.78125 596.941406 506.996094 595.175781 C 507.210938 593.414062 507.472656 591.65625 507.78125 589.90625 C 508.085938 588.15625 508.441406 586.417969 508.839844 584.6875 C 509.242188 582.953125 509.6875 581.234375 510.175781 579.53125 C 510.667969 577.820312 511.199219 576.128906 511.777344 574.445312 C 512.355469 572.769531 512.980469 571.105469 513.644531 569.460938 C 514.3125 567.8125 515.019531 566.1875 515.773438 564.574219 C 516.523438 562.964844 517.320312 561.378906 518.15625 559.808594 C 518.992188 558.242188 519.871094 556.699219 520.785156 555.175781 C 521.703125 553.65625 522.660156 552.15625 523.65625 550.6875 C 524.648438 549.214844 525.683594 547.773438 526.753906 546.355469 C 527.828125 544.941406 528.9375 543.550781 530.078125 542.195312 C 531.226562 540.835938 532.40625 539.507812 533.621094 538.210938 C 534.832031 536.917969 536.082031 535.652344 537.363281 534.421875 C 538.644531 533.195312 539.957031 531.996094 541.300781 530.832031 C 542.644531 529.671875 544.019531 528.546875 545.421875 527.460938 C 546.828125 526.371094 548.257812 525.316406 549.714844 524.304688 C 551.175781 523.289062 552.660156 522.316406 554.167969 521.382812 C 555.679688 520.441406 557.210938 519.550781 558.769531 518.695312 C 560.328125 517.839844 561.90625 517.027344 563.507812 516.253906 C 565.105469 515.484375 566.726562 514.753906 568.367188 514.066406 C 570 513.382812 571.65625 512.738281 573.328125 512.136719 C 575.003906 511.535156 576.6875 510.984375 578.390625 510.472656 C 580.089844 509.960938 581.804688 509.496094 583.53125 509.078125 C 585.257812 508.65625 586.992188 508.28125 588.738281 507.953125 C 590.484375 507.621094 592.234375 507.335938 594 507.101562 C 595.757812 506.863281 597.523438 506.675781 599.292969 506.53125 C 601.066406 506.386719 602.835938 506.285156 604.613281 506.238281 C 606.386719 506.1875 608.164062 506.183594 609.9375 506.226562 C 611.714844 506.269531 613.492188 506.355469 615.261719 506.492188 C 617.035156 506.628906 618.796875 506.8125 620.558594 507.042969 C 622.324219 507.273438 624.074219 507.546875 625.824219 507.867188 C 627.570312 508.191406 629.304688 508.558594 631.035156 508.96875 C 632.761719 509.386719 634.476562 509.84375 636.183594 510.34375 C 637.882812 510.847656 639.574219 511.394531 641.25 511.988281 Z M 607.5 641.25 C 608.605469 641.25 609.707031 641.195312 610.808594 641.089844 C 611.910156 640.976562 613 640.816406 614.082031 640.601562 C 615.167969 640.386719 616.238281 640.117188 617.296875 639.796875 C 618.355469 639.472656 619.394531 639.105469 620.414062 638.679688 C 621.4375 638.257812 622.433594 637.785156 623.410156 637.265625 C 624.382812 636.742188 625.332031 636.175781 626.25 635.558594 C 627.167969 634.945312 628.058594 634.292969 628.910156 633.589844 C 629.765625 632.886719 630.582031 632.144531 631.367188 631.367188 C 632.144531 630.582031 632.886719 629.765625 633.589844 628.910156 C 634.292969 628.058594 634.945312 627.167969 635.558594 626.25 C 636.175781 625.332031 636.742188 624.382812 637.265625 623.410156 C 637.785156 622.433594 638.257812 621.4375 638.679688 620.414062 C 639.105469 619.394531 639.472656 618.355469 639.796875 617.296875 C 640.117188 616.238281 640.386719 615.167969 640.601562 614.082031 C 640.816406 613 640.976562 611.910156 641.089844 610.808594 C 641.195312 609.707031 641.25 608.605469 641.25 607.5 C 641.25 606.394531 641.195312 605.292969 641.089844 604.191406 C 640.976562 603.089844 640.816406 602 640.601562 600.917969 C 640.386719 599.832031 640.117188 598.761719 639.796875 597.703125 C 639.472656 596.644531 639.105469 595.605469 638.679688 594.585938 C 638.257812 593.5625 637.785156 592.566406 637.265625 591.589844 C 636.742188 590.617188 636.175781 589.667969 635.558594 588.75 C 634.945312 587.832031 634.292969 586.941406 633.589844 586.089844 C 632.886719 585.234375 632.144531 584.417969 631.367188 583.632812 C 630.582031 582.855469 629.765625 582.113281 628.910156 581.414062 C 628.058594 580.707031 627.167969 580.054688 626.25 579.441406 C 625.332031 578.824219 624.382812 578.257812 623.410156 577.734375 C 622.433594 577.214844 621.4375 576.742188 620.414062 576.320312 C 619.394531 575.894531 618.355469 575.527344 617.296875 575.203125 C 616.238281 574.882812 615.167969 574.613281 614.082031 574.398438 C 613 574.183594 611.910156 574.023438 610.808594 573.910156 C 609.707031 573.804688 608.605469 573.75 607.5 573.75 C 606.394531 573.75 605.292969 573.804688 604.191406 573.910156 C 603.089844 574.023438 602 574.183594 600.917969 574.398438 C 599.832031 574.613281 598.761719 574.882812 597.703125 575.203125 C 596.644531 575.527344 595.605469 575.894531 594.585938 576.320312 C 593.5625 576.742188 592.566406 577.214844 591.589844 577.734375 C 590.617188 578.257812 589.667969 578.824219 588.75 579.441406 C 587.832031 580.054688 586.941406 580.707031 586.089844 581.414062 C 585.234375 582.113281 584.417969 582.855469 583.632812 583.632812 C 582.855469 584.417969 582.113281 585.234375 581.414062 586.089844 C 580.707031 586.941406 580.054688 587.832031 579.441406 588.75 C 578.824219 589.667969 578.257812 590.617188 577.734375 591.589844 C 577.214844 592.566406 576.742188 593.5625 576.320312 594.585938 C 575.894531 595.605469 575.527344 596.644531 575.203125 597.703125 C 574.882812 598.761719 574.613281 599.832031 574.398438 600.917969 C 574.183594 602 574.023438 603.089844 573.910156 604.191406 C 573.804688 605.292969 573.75 606.394531 573.75 607.5 C 573.75 608.605469 573.804688 609.707031 573.910156 610.808594 C 574.023438 611.910156 574.183594 613 574.398438 614.082031 C 574.613281 615.167969 574.882812 616.238281 575.203125 617.296875 C 575.527344 618.355469 575.894531 619.394531 576.320312 620.414062 C 576.742188 621.4375 577.214844 622.433594 577.734375 623.410156 C 578.257812 624.382812 578.824219 625.332031 579.441406 626.25 C 580.054688 627.167969 580.707031 628.058594 581.414062 628.910156 C 582.113281 629.765625 582.855469 630.582031 583.632812 631.367188 C 584.417969 632.144531 585.234375 632.886719 586.089844 633.589844 C 586.941406 634.292969 587.832031 634.945312 588.75 635.558594 C 589.667969 636.175781 590.617188 636.742188 591.589844 637.265625 C 592.566406 637.785156 593.5625 638.257812 594.585938 638.679688 C 595.605469 639.105469 596.644531 639.472656 597.703125 639.796875 C 598.761719 640.117188 599.832031 640.386719 600.917969 640.601562 C 602 640.816406 603.089844 640.976562 604.191406 641.089844 C 605.292969 641.195312 606.394531 641.25 607.5 641.25 Z M 607.5 641.25 " fill-opacity="1" fill-rule="nonzero"/></svg>