<svg xmlns="http://www.w3.org/2000/svg" xmlns:xlink="http://www.w3.org/1999/xlink" width="1080" zoomAndPan="magnify" viewBox="0 0 810 809.999993" height="1080" preserveAspectRatio="xMidYMid meet" version="1.0"><path fill="#fa55a3" d="M 708.75 101.25 C 727.378906 101.25 742.5 116.371094 742.5 135 L 742.5 675 C 742.5 693.628906 727.378906 708.75 708.75 708.75 L 101.25 708.75 C 82.621094 708.75 67.5 693.628906 67.5 675 L 67.5 135 C 67.5 116.371094 82.621094 101.25 101.25 101.25 Z M 303.75 270 C 229.230469 270 168.75 330.480469 168.75 405 C 168.75 479.519531 229.230469 540 303.75 540 C 340.875 540 374.625 524.8125 399.195312 500.445312 L 351.46875 452.71875 C 339.289062 464.941406 322.414062 472.5 303.75 472.5 C 266.457031 472.5 236.25 442.292969 236.25 405 C 236.25 367.707031 266.457031 337.5 303.75 337.5 C 322.3125 337.5 339.117188 344.925781 351.507812 357.3125 L 399.226562 309.585938 C 374.792969 285.121094 341.042969 270 303.75 270 Z M 540 270 C 465.480469 270 405 330.480469 405 405 C 405 479.519531 465.480469 540 540 540 C 577.261719 540 611.011719 524.878906 635.445312 500.445312 L 587.71875 452.71875 C 575.503906 464.941406 558.628906 472.5 540 472.5 C 502.707031 472.5 472.5 442.292969 472.5 405 C 472.5 367.707031 502.707031 337.5 540 337.5 C 558.664062 337.5 575.539062 345.058594 587.757812 357.3125 L 635.476562 309.585938 C 611.042969 285.121094 577.292969 270 540 270 Z M 540 270 " fill-opacity="1" fill-rule="nonzero"/></svg>